<svg width="69" height="32" viewBox="0 0 69 32" fill="none" xmlns="http://www.w3.org/2000/svg">
<path d="M65.1082 14.7379H66.1939C66.4925 14.7379 66.7232 14.6429 66.8861 14.4393C67.0489 14.2357 67.1304 13.9507 67.1304 13.5843C67.1304 13.1907 67.0489 12.8785 66.8725 12.6614C66.7096 12.4306 66.4789 12.3085 66.1939 12.3085H65.0946V14.7379H65.1082ZM65.1082 16.0543V18.8094H63.5338V10.992H66.1939C66.9675 10.992 67.5782 11.2363 68.0397 11.7113C68.5011 12.1864 68.7318 12.8107 68.7318 13.5843C68.7318 14.3443 68.5011 14.955 68.0532 15.4029C67.5918 15.8508 66.9675 16.0679 66.1668 16.0679H65.1082V16.0543ZM59.8423 17.4929H62.6109V18.8094H58.2679V10.992H59.8423V17.4929ZM54.5764 17.4929H57.3451V18.8094H53.0021V10.992H54.5764V17.4929ZM49.1477 18.8094H47.5733V10.992H49.1477V18.8094ZM46.2297 18.8094H44.6554L42.3482 13.6793V18.8094H40.7738V10.992H42.3482L44.6689 16.1222V10.992H46.2433V18.8094H46.2297ZM39.4981 18.8094H37.9237L35.6165 13.6793V18.8094H34.0422V10.992H35.6165L37.9373 16.1222V10.992H39.5116V18.8094H39.4981ZM32.8343 10.992V16.4072C32.8207 17.2215 32.6036 17.8458 32.1693 18.2801C31.735 18.7144 31.0971 18.918 30.2692 18.918C29.4277 18.918 28.7899 18.7008 28.342 18.2665C27.9077 17.8322 27.677 17.1944 27.677 16.3665V10.992H29.2649V16.3665C29.2649 16.8144 29.3327 17.1265 29.482 17.3165C29.6313 17.5065 29.8892 17.6015 30.2556 17.6015C30.6356 17.6015 30.8935 17.5065 31.0292 17.3165C31.1649 17.1265 31.2464 16.8144 31.2464 16.3936V10.992H32.8343ZM21.9768 12.9192C21.9768 13.1771 22.0989 13.4893 22.3432 13.8557L22.6011 13.6657C22.7504 13.5571 22.859 13.435 22.9268 13.3128C22.9947 13.1907 23.0218 13.0278 23.0218 12.8107C23.0218 12.6207 22.9675 12.4714 22.8725 12.3492C22.7775 12.2271 22.6554 12.1592 22.5061 12.1592C22.3432 12.1592 22.2211 12.2271 22.1261 12.3764C22.0311 12.4985 21.9768 12.6885 21.9768 12.9192ZM22.3432 17.6558C22.6282 17.6558 22.8861 17.5608 23.144 17.3708L21.9089 15.62L21.8818 15.6472C21.7054 15.9186 21.6104 16.2443 21.6104 16.5972C21.6104 16.8958 21.6782 17.1537 21.8139 17.3437C21.9632 17.5608 22.1397 17.6558 22.3432 17.6558ZM20.0767 16.7058C20.0767 16.3393 20.1582 16 20.321 15.7015C20.4839 15.4029 20.796 15.0636 21.2575 14.6836C21.0539 14.3714 20.9046 14.0728 20.796 13.8014C20.6875 13.5164 20.6196 13.2314 20.6196 12.9328C20.6196 12.3221 20.796 11.8199 21.1353 11.4399C21.4746 11.0599 21.9361 10.8699 22.5061 10.8699C23.0218 10.8699 23.4426 11.0463 23.7683 11.3992C24.1076 11.7521 24.2704 12.1864 24.2704 12.6885C24.2704 13.3671 23.9854 13.9371 23.4154 14.385L22.9811 14.7379L23.9854 16.1358C24.1076 15.7693 24.1754 15.3757 24.1754 14.9414H25.4648C25.4648 15.9458 25.2612 16.7601 24.8676 17.3708L25.8719 18.7823H24.1483L23.8633 18.3751C23.4018 18.7144 22.8725 18.8909 22.2618 18.8909C21.5968 18.8909 21.0811 18.6873 20.6739 18.2801C20.2667 17.873 20.0767 17.3708 20.0767 16.7058ZM15.5709 16.6651L16.8874 10.992H18.6517L16.3988 18.8094H14.7566L12.5036 10.992H14.2544L15.5709 16.6651ZM11.6622 15.43H9.20568V17.5065H12.1101V18.823H7.61777V10.992H12.0965V12.3085H9.20568V14.1543H11.6622V15.43ZM2.98977 12.3085V17.5065H3.46479C3.99409 17.5065 4.36053 17.3708 4.57768 17.0994C4.79483 16.8144 4.9034 16.3393 4.91697 15.6607V14.3036C4.91697 13.5707 4.8084 13.0685 4.60482 12.7835C4.40124 12.4985 4.04838 12.3356 3.55979 12.3221H2.98977V12.3085ZM1.40186 18.8094V10.992H3.46479C4.3741 10.992 5.10698 11.277 5.64985 11.8606C6.19273 12.4442 6.47774 13.2314 6.47774 14.2493V15.5115C6.47774 16.5429 6.2063 17.3437 5.66343 17.9272C5.12055 18.5108 4.3741 18.7958 3.42407 18.7958H1.40186V18.8094ZM38.2495 8.49481H36.6751V0.677422H38.2495V8.49481ZM32.7936 6.35046L34.11 0.677422H35.8744L33.6214 8.49481H31.9793L29.7263 0.677422H31.4771L32.7936 6.35046ZM28.9663 8.49481H27.392V5.14256H25.0576V8.49481H23.4833V0.677422H25.0576V3.83966H27.392V0.677422H28.9663V8.49481ZM22.3704 7.61264C22.0718 7.93836 21.6918 8.19623 21.2439 8.35909C20.8096 8.52195 20.321 8.60338 19.7917 8.60338C18.896 8.60338 18.1903 8.33195 17.7017 7.7755C17.1995 7.21906 16.9416 6.40475 16.9281 5.34614V3.93467C16.9281 2.86249 17.1588 2.03461 17.6338 1.45102C18.1088 0.867428 18.7874 0.582419 19.6967 0.582419C20.5518 0.582419 21.1896 0.785997 21.6104 1.20672C22.0447 1.62745 22.2889 2.2789 22.3568 3.17464H20.8232C20.7825 2.67249 20.6739 2.33319 20.511 2.15675C20.3482 1.98032 20.0903 1.88532 19.7374 1.88532C19.3167 1.88532 19.0046 2.03461 18.8146 2.34676C18.6245 2.65891 18.516 3.1475 18.516 3.83966V5.25114C18.516 5.95687 18.6245 6.48618 18.8281 6.8119C19.0453 7.13762 19.3981 7.30049 19.8867 7.30049C20.1989 7.30049 20.4567 7.23263 20.6468 7.11048L20.7825 7.01548V5.57686H19.6696V4.38254H22.3568V7.61264H22.3704ZM15.788 8.49481H14.2137L11.9065 3.36465V8.49481H10.3321V0.677422H11.9065L14.2273 5.80758V0.677422H15.8016V8.49481H15.788ZM8.98853 8.49481H7.4142V0.677422H8.98853V8.49481ZM4.7134 6.44546C4.7134 6.13331 4.63197 5.88901 4.4691 5.72615C4.30624 5.56329 4.00766 5.38686 3.58693 5.21042C2.79977 4.91184 2.24332 4.57254 1.89045 4.16539C1.55115 3.75823 1.37472 3.29679 1.37472 2.75392C1.37472 2.0889 1.60544 1.57316 2.06688 1.16601C2.5419 0.758853 3.12549 0.568848 3.8448 0.568848C4.31981 0.568848 4.75411 0.677422 5.13412 0.881C5.51414 1.08458 5.79915 1.36959 6.00272 1.73603C6.2063 2.10247 6.31488 2.52319 6.31488 2.99821H4.72697C4.72697 2.63177 4.64554 2.36033 4.49625 2.17033C4.34696 1.98032 4.11624 1.88532 3.83123 1.88532C3.55979 1.88532 3.34264 1.96675 3.19335 2.12961C3.04406 2.29247 2.96263 2.50962 2.96263 2.78106C2.96263 2.99821 3.04406 3.18822 3.22049 3.36465C3.39693 3.54108 3.69551 3.71752 4.12981 3.90752C4.88983 4.17896 5.44628 4.51826 5.78557 4.92541C6.13844 5.33257 6.3013 5.83473 6.3013 6.45903C6.3013 7.13762 6.08415 7.66693 5.64985 8.06051C5.21556 8.44052 4.63197 8.63053 3.88551 8.63053C3.38335 8.63053 2.92191 8.52195 2.50118 8.31838C2.08046 8.1148 1.75473 7.81622 1.52401 7.42263C1.29329 7.04262 1.17114 6.58118 1.17114 6.05188H2.75905C2.75905 6.49975 2.84048 6.82547 3.01691 7.02905C3.19335 7.23263 3.47836 7.3412 3.87194 7.3412C4.42839 7.31406 4.7134 7.02905 4.7134 6.44546Z" fill="white"/>
<path d="M67.8085 23.7902C67.8085 23.5323 67.7407 23.3423 67.5914 23.193C67.4557 23.0437 67.1842 22.908 66.7906 22.7859C66.3971 22.6637 66.112 22.5008 65.9356 22.338C65.6913 22.1208 65.5692 21.8494 65.5692 21.4965C65.5692 21.1572 65.6913 20.8722 65.922 20.6551C66.1528 20.4379 66.4649 20.3293 66.8449 20.3293C67.2249 20.3293 67.5371 20.4515 67.7814 20.7094C68.0257 20.9672 68.1478 21.2794 68.1478 21.673H67.795C67.795 21.3744 67.7135 21.1301 67.5371 20.9401C67.3742 20.7501 67.1435 20.6551 66.8449 20.6551C66.5599 20.6551 66.3428 20.7365 66.1663 20.8858C66.0035 21.0351 65.922 21.2387 65.922 21.483C65.922 21.7137 66.0035 21.8901 66.1528 22.0394C66.302 22.1887 66.5599 22.3108 66.8856 22.4194C67.2249 22.528 67.4828 22.6501 67.6457 22.7723C67.8221 22.8944 67.9442 23.0301 68.0257 23.193C68.1071 23.3559 68.1478 23.5459 68.1478 23.763C68.1478 24.1159 68.0257 24.4009 67.795 24.6181C67.5642 24.8352 67.2385 24.9438 66.8585 24.9438C66.6006 24.9438 66.3563 24.8895 66.1392 24.7809C65.922 24.6723 65.7592 24.523 65.6235 24.3195C65.5013 24.1159 65.447 23.8716 65.447 23.6002H65.7999C65.7999 23.9123 65.8949 24.1702 66.0849 24.3466C66.2749 24.523 66.5328 24.6181 66.8585 24.6181C67.1435 24.6181 67.3742 24.5366 67.5371 24.3873C67.7135 24.2516 67.8085 24.048 67.8085 23.7902ZM65.2299 20.7365H63.9541V24.9031H63.6013V20.7365H62.3255V20.3972H65.2299V20.7365ZM61.9048 24.8895H61.5519L59.4347 21.0622V24.8895H59.0818V20.3972H59.4347L61.5655 24.238V20.3972H61.9183V24.8895H61.9048ZM56.286 23.3016H57.7654L57.0189 20.8858L56.286 23.3016ZM57.8739 23.6409H56.191L55.811 24.9031H55.4446L56.8832 20.4108H57.2089L58.6475 24.9031H58.2811L57.8739 23.6409ZM55.5667 20.7365H54.291V24.9031H53.9381V20.7365H52.6623V20.3972H55.5667V20.7365ZM52.2416 24.8895H51.8887L49.7715 21.0622V24.8895H49.4187V20.3972H49.7715L51.9023 24.238V20.3972H52.2552V24.8895H52.2416ZM48.6451 20.3972V23.5866C48.6451 24.0209 48.5229 24.3602 48.2922 24.5909C48.0615 24.8352 47.7358 24.9438 47.3015 24.9438C46.8672 24.9438 46.5414 24.8216 46.3107 24.5909C46.08 24.3602 45.9714 24.0073 45.9714 23.5594V20.3836H46.3243V23.5459C46.3243 24.2516 46.65 24.6045 47.315 24.6045C47.9665 24.6045 48.2922 24.2652 48.2922 23.573V20.3836H48.6451V20.3972ZM44.9535 22.1615C44.9535 21.673 44.8585 21.3065 44.6685 21.0487C44.4785 20.8044 44.2071 20.6822 43.8542 20.6822C43.5149 20.6822 43.2435 20.8044 43.0535 21.0487C42.8635 21.2929 42.7549 21.6458 42.7549 22.1344V23.1387C42.7549 23.6273 42.8499 24.0073 43.0535 24.2516C43.2435 24.4959 43.5149 24.6181 43.8678 24.6181C44.2206 24.6181 44.4921 24.4959 44.6821 24.2516C44.8721 24.0073 44.9671 23.6273 44.9671 23.1387V22.1615H44.9535ZM45.3064 23.1387C45.3064 23.7223 45.1842 24.1702 44.9264 24.4823C44.6685 24.7945 44.3157 24.9573 43.8542 24.9573C43.3928 24.9573 43.0399 24.7945 42.782 24.4823C42.5242 24.1702 42.3884 23.7223 42.3884 23.1387V22.1615C42.3884 21.578 42.5106 21.1301 42.7685 20.8179C43.0263 20.4922 43.3792 20.3429 43.8406 20.3429C44.3021 20.3429 44.6549 20.5058 44.9128 20.8179C45.1707 21.1437 45.2928 21.5915 45.2928 22.1751V23.1387H45.3064ZM41.8591 23.4916C41.832 23.9937 41.6963 24.3602 41.452 24.6045C41.2077 24.8352 40.882 24.9573 40.4612 24.9573C40.0269 24.9573 39.6876 24.7945 39.4298 24.4688C39.1719 24.143 39.0498 23.6952 39.0498 23.1251V22.148C39.0498 21.578 39.1719 21.1437 39.4298 20.8179C39.6876 20.4922 40.0405 20.3429 40.4884 20.3429C40.9091 20.3429 41.2348 20.4651 41.4656 20.7094C41.6963 20.9537 41.832 21.3201 41.8591 21.8222H41.5063C41.4791 21.4151 41.3706 21.1301 41.2213 20.9536C41.0584 20.7772 40.8277 20.6958 40.502 20.6958C40.1627 20.6958 39.8912 20.8179 39.7148 21.0758C39.5248 21.3337 39.4298 21.7001 39.4298 22.1751V23.1387C39.4298 23.6137 39.5248 23.9937 39.7012 24.2516C39.8777 24.523 40.1491 24.6452 40.4748 24.6452C40.8277 24.6452 41.072 24.5638 41.2348 24.3873C41.3977 24.2109 41.4791 23.9259 41.5198 23.5187H41.8591V23.4916ZM38.5069 23.4916C38.4798 23.9937 38.344 24.3602 38.0997 24.6045C37.8554 24.8352 37.5297 24.9573 37.109 24.9573C36.6747 24.9573 36.3354 24.7945 36.0775 24.4688C35.8197 24.143 35.6975 23.6952 35.6975 23.1251V22.148C35.6975 21.578 35.8197 21.1437 36.0775 20.8179C36.3354 20.4922 36.6883 20.3429 37.1361 20.3429C37.5569 20.3429 37.8826 20.4651 38.1133 20.7094C38.344 20.9537 38.4798 21.3201 38.5069 21.8222H38.154C38.1269 21.4151 38.0183 21.1301 37.869 20.9536C37.7062 20.7772 37.4754 20.6958 37.1497 20.6958C36.8104 20.6958 36.539 20.8179 36.3625 21.0758C36.1725 21.3337 36.0775 21.7001 36.0775 22.1751V23.1387C36.0775 23.6137 36.1725 23.9937 36.349 24.2516C36.5254 24.523 36.7968 24.6452 37.1226 24.6452C37.4754 24.6452 37.7197 24.5638 37.8826 24.3873C38.0455 24.2109 38.1269 23.9259 38.1676 23.5187H38.5069V23.4916ZM33.0646 23.3016H34.5439L33.811 20.8994L33.0646 23.3016ZM34.6525 23.6409H32.9696L32.5896 24.9031H32.2231L33.6617 20.4108H33.9875L35.4261 24.9031H35.0325L34.6525 23.6409ZM27.1744 20.7365V24.5638H27.853C28.2602 24.5638 28.5587 24.4416 28.7895 24.1973C29.0066 23.953 29.1287 23.5866 29.1287 23.1387V22.2023C29.1287 21.7408 29.0202 21.3879 28.803 21.1301C28.5859 20.8722 28.2737 20.7501 27.8666 20.7501H27.1744V20.7365ZM26.8215 24.8895V20.3972H27.8801C28.3687 20.3972 28.7487 20.5601 29.0337 20.8722C29.3188 21.1844 29.468 21.6187 29.468 22.1615V23.098C29.468 23.668 29.3188 24.1023 29.0337 24.4145C28.7487 24.7266 28.3416 24.8895 27.8258 24.8895H26.8215ZM25.9937 22.7451H24.2429V24.5638H26.2515V24.8895H23.9036V20.3972H26.2515V20.7365H24.2565V22.4194H26.0072V22.7451H25.9937ZM20.9856 22.6908H21.9221C22.1935 22.6908 22.3971 22.5958 22.56 22.4194C22.7228 22.243 22.8043 21.9987 22.8043 21.7137C22.8043 21.4015 22.7228 21.1572 22.56 20.9808C22.3971 20.8044 22.1664 20.7229 21.8678 20.7229H20.9992V22.6908H20.9856ZM22.0442 23.0166H20.9992V24.8895H20.6463V20.3972H21.8814C22.2885 20.3972 22.6143 20.5194 22.8314 20.7501C23.0621 20.9808 23.1707 21.3065 23.1707 21.7272C23.1707 22.0123 23.1028 22.2701 22.9671 22.4873C22.8314 22.7044 22.6414 22.8537 22.3971 22.9351L23.3336 24.8488V24.8895H22.9536L22.0442 23.0166ZM19.8185 22.7451H18.0677V24.5638H20.0763V24.8895H17.7148V20.3972H20.0628V20.7365H18.0677V22.4194H19.8185V22.7451ZM17.2127 20.7365H15.9369V24.9031H15.584V20.7365H14.3083V20.3972H17.2127V20.7365ZM11.9875 22.6908H12.924C13.1954 22.6908 13.399 22.5958 13.5618 22.4194C13.7247 22.243 13.8061 21.9987 13.8061 21.7137C13.8061 21.4015 13.7247 21.1572 13.5618 20.9808C13.399 20.8044 13.1683 20.7229 12.8697 20.7229H12.0011V22.6908H11.9875ZM13.0325 23.0166H11.9875V24.8895H11.6346V20.3972H12.8697C13.2768 20.3972 13.6025 20.5194 13.8197 20.7501C14.0504 20.9808 14.159 21.3065 14.159 21.7272C14.159 22.0123 14.0911 22.2701 13.9554 22.4873C13.8197 22.7044 13.6297 22.8537 13.3854 22.9351L14.3219 24.8488V24.8895H13.9418L13.0325 23.0166ZM8.8524 23.3016H10.3317L9.58528 20.8858L8.8524 23.3016ZM10.4267 23.6409H8.74383L8.36381 24.9031H7.99737L9.43599 20.4108H9.76171L11.2003 24.9031H10.8339L10.4267 23.6409ZM7.48164 24.8895H7.12878V22.7316H5.01157V24.8895H4.6587V20.3972H5.01157V22.4194H7.12878V20.3972H7.48164V24.8895ZM4.00725 23.4916C3.98011 23.9937 3.84439 24.3602 3.60009 24.6045C3.3558 24.8352 3.03008 24.9573 2.60935 24.9573C2.17505 24.9573 1.83575 24.7945 1.57789 24.4688C1.32002 24.143 1.19788 23.6952 1.19788 23.1251V22.148C1.19788 21.578 1.32002 21.1437 1.57789 20.8179C1.83575 20.4922 2.18862 20.3429 2.63649 20.3429C3.05722 20.3429 3.38294 20.4651 3.61367 20.7094C3.84439 20.9537 3.98011 21.3201 4.00725 21.8222H3.65438C3.62724 21.4151 3.51866 21.1301 3.36937 20.9536C3.20651 20.7772 2.97579 20.6958 2.65006 20.6958C2.31077 20.6958 2.03933 20.8179 1.8629 21.0758C1.67289 21.3337 1.57789 21.7001 1.57789 22.1751V23.1387C1.57789 23.6137 1.67289 23.9937 1.84932 24.2516C2.02576 24.523 2.2972 24.6452 2.62292 24.6452C2.97579 24.6452 3.22008 24.5638 3.38294 24.3873C3.54581 24.2109 3.62724 23.9259 3.66795 23.5187H4.00725V23.4916Z" fill="white"/>
<path d="M1.18462 27.0337H0.777466V31.431H1.18462V27.0337Z" fill="white"/>
<path d="M2.41948 27.0337H2.01233V31.431H2.41948V27.0337Z" fill="white"/>
<path d="M3.65435 27.0337H3.24719V31.431H3.65435V27.0337Z" fill="white"/>
<path d="M4.88946 27.0337H4.4823V31.431H4.88946V27.0337Z" fill="white"/>
<path d="M6.13823 27.0337H5.73108V31.431H6.13823V27.0337Z" fill="white"/>
<path d="M7.37334 27.0337H6.96619V31.431H7.37334V27.0337Z" fill="white"/>
<path d="M8.60821 27.0337H8.20105V31.431H8.60821V27.0337Z" fill="white"/>
<path d="M9.84319 27.0337H9.43604V31.431H9.84319V27.0337Z" fill="white"/>
<path d="M11.0783 27.0337H10.6711V31.431H11.0783V27.0337Z" fill="white"/>
<path d="M12.3134 27.0337H11.9062V31.431H12.3134V27.0337Z" fill="white"/>
<path d="M13.5619 27.0337H13.1548V31.431H13.5619V27.0337Z" fill="white"/>
<path d="M14.7972 27.0337H14.39V31.431H14.7972V27.0337Z" fill="white"/>
<path d="M16.032 27.0337H15.6249V31.431H16.032V27.0337Z" fill="white"/>
<path d="M17.2669 27.0337H16.8597V31.431H17.2669V27.0337Z" fill="white"/>
<path d="M18.5021 27.0337H18.095V31.431H18.5021V27.0337Z" fill="white"/>
<path d="M19.7372 27.0337H19.3301V31.431H19.7372V27.0337Z" fill="white"/>
<path d="M20.9858 27.0337H20.5786V31.431H20.9858V27.0337Z" fill="white"/>
<path d="M22.2209 27.0337H21.8137V31.431H22.2209V27.0337Z" fill="white"/>
<path d="M23.4559 27.0337H23.0487V31.431H23.4559V27.0337Z" fill="white"/>
<path d="M24.691 27.0337H24.2838V31.431H24.691V27.0337Z" fill="white"/>
<path d="M25.9261 27.0337H25.5189V31.431H25.9261V27.0337Z" fill="white"/>
<path d="M27.1611 27.0337H26.7539V31.431H27.1611V27.0337Z" fill="white"/>
<path d="M28.4097 27.0337H28.0026V31.431H28.4097V27.0337Z" fill="white"/>
<path d="M29.6447 27.0337H29.2375V31.431H29.6447V27.0337Z" fill="white"/>
<path d="M30.8798 27.0337H30.4727V31.431H30.8798V27.0337Z" fill="white"/>
<path d="M32.115 27.0337H31.7079V31.431H32.115V27.0337Z" fill="white"/>
<path d="M33.3498 27.0337H32.9426V31.431H33.3498V27.0337Z" fill="white"/>
<path d="M34.585 27.0337H34.1779V31.431H34.585V27.0337Z" fill="white"/>
<path d="M35.8334 27.0337H35.4263V31.431H35.8334V27.0337Z" fill="white"/>
<path d="M37.0684 27.0337H36.6613V31.431H37.0684V27.0337Z" fill="white"/>
<path d="M38.3035 27.0337H37.8964V31.431H38.3035V27.0337Z" fill="white"/>
<path d="M39.5384 27.0337H39.1312V31.431H39.5384V27.0337Z" fill="white"/>
<path d="M40.7736 27.0337H40.3665V31.431H40.7736V27.0337Z" fill="white"/>
<path d="M42.0087 27.0337H41.6016V31.431H42.0087V27.0337Z" fill="white"/>
<path d="M43.2574 27.0337H42.8502V31.431H43.2574V27.0337Z" fill="white"/>
<path d="M44.4925 27.0337H44.0853V31.431H44.4925V27.0337Z" fill="white"/>
<path d="M45.727 27.0337H45.3198V31.431H45.727V27.0337Z" fill="white"/>
<path d="M46.9622 27.0337H46.5551V31.431H46.9622V27.0337Z" fill="white"/>
<path d="M48.1973 27.0337H47.7902V31.431H48.1973V27.0337Z" fill="white"/>
<path d="M49.4323 27.0337H49.0251V31.431H49.4323V27.0337Z" fill="white"/>
<path d="M50.6674 27.0337H50.2603V31.431H50.6674V27.0337Z" fill="white"/>
<path d="M51.9159 27.0337H51.5088V31.431H51.9159V27.0337Z" fill="white"/>
<path d="M53.1512 27.0337H52.744V31.431H53.1512V27.0337Z" fill="white"/>
<path d="M54.3862 27.0337H53.979V31.431H54.3862V27.0337Z" fill="white"/>
<path d="M55.6211 27.0337H55.214V31.431H55.6211V27.0337Z" fill="white"/>
<path d="M56.8564 27.0337H56.4492V31.431H56.8564V27.0337Z" fill="white"/>
<path d="M58.0915 27.0337H57.6843V31.431H58.0915V27.0337Z" fill="white"/>
<path d="M59.3398 27.0337H58.9326V31.431H59.3398V27.0337Z" fill="white"/>
<path d="M60.5749 27.0337H60.1677V31.431H60.5749V27.0337Z" fill="white"/>
<path d="M61.8099 27.0337H61.4027V31.431H61.8099V27.0337Z" fill="white"/>
<path d="M63.045 27.0337H62.6378V31.431H63.045V27.0337Z" fill="white"/>
<path d="M64.2797 27.0337H63.8726V31.431H64.2797V27.0337Z" fill="white"/>
<path d="M65.5149 27.0337H65.1078V31.431H65.5149V27.0337Z" fill="white"/>
<path d="M66.7637 27.0337H66.3566V31.431H66.7637V27.0337Z" fill="white"/>
<path d="M67.9988 27.0337H67.5917V31.431H67.9988V27.0337Z" fill="white"/>
</svg>
