<svg width="60" height="24" viewBox="0 0 60 24" fill="none" xmlns="http://www.w3.org/2000/svg">
<g clipPath="url(#clip0_2050_9332)">
<path fill-rule="evenodd" clip-rule="evenodd" d="M0 24H59.9914H60V0H0V24ZM30.0043 22.8001C13.2698 22.8001 1.2 17.8997 1.2 12.0002C1.2 6.10065 13.2784 1.20015 30.0043 1.20015C46.7302 1.20015 58.8 6.10065 58.8 12.0002C58.8 17.8997 46.7388 22.8001 30.0043 22.8001Z" fill="white"/>
<path d="M27.8688 15.603C28.058 15.8716 28.2644 16.1234 28.5052 16.3501H22.0124C22.0124 16.0982 21.7631 15.5862 21.4879 15.1833C21.2127 14.7803 19.7249 12.5727 19.7249 12.5727V15.603C19.7249 15.8548 19.7249 16.0982 19.8539 16.3501H14.4448C14.5738 16.0982 14.5738 15.8548 14.5738 15.603V8.40066C14.5738 8.14884 14.5738 7.90542 14.4448 7.6536H19.8539C19.7249 7.90542 19.7249 8.14884 19.7249 8.40066V11.5486C19.7249 11.5486 21.4535 9.34926 21.8491 8.83716C22.15 8.45106 22.5199 7.90536 22.5199 7.6536H28.1612C27.7742 7.90542 27.3442 8.35872 26.9916 8.77842C26.682 9.14778 24.9277 11.2379 24.9277 11.2379C24.9277 11.2379 27.5248 15.1078 27.8688 15.603ZM29.5715 8.40066V15.603C29.5715 15.8548 29.5715 16.0982 29.4425 16.3501H39.8824V13.9325C39.6244 14.0584 39.375 14.0584 39.1171 14.0584H34.7227V12.9168H38.945V11.0868H34.7227V9.93684H39.1171C39.3751 9.93684 39.6244 9.93684 39.8824 10.0544V7.6452H29.4425C29.5715 7.90542 29.5715 8.14884 29.5715 8.40066ZM54.3469 15.603C54.4329 15.88 54.5791 16.1318 54.7683 16.3501H49.1098C49.1356 16.0982 49.041 15.8548 48.9378 15.603C48.9378 15.603 48.8518 15.4015 48.7314 15.1078L48.6798 14.9818H45.4205L45.3689 15.1161C45.3689 15.1161 45.2743 15.3596 45.1883 15.6114C45.1024 15.8632 45.0077 16.1066 45.0422 16.3585H40.579C40.7613 16.1383 40.8986 15.8845 40.9832 15.6114L43.6576 8.40906C43.7522 8.15724 43.8468 7.91382 43.8124 7.662H51.3542C51.2855 7.91382 51.4231 8.15724 51.5177 8.40906C51.7412 8.9547 54.1577 15.1161 54.3469 15.603ZM47.966 13.1435L47.1749 11.1288C47.1061 10.9442 47.0459 10.7511 47.0029 10.558C46.9684 10.7525 46.9166 10.9436 46.8481 11.1288C46.8223 11.2128 46.4869 12.0942 46.0999 13.1435H47.966ZM11.8821 7.6536H6C6.129 7.90542 6.129 8.14884 6.129 8.40066V15.603C6.129 15.8548 6.129 16.0982 6 16.3501H11.8821C11.7531 16.0982 11.7531 15.8548 11.7531 15.603V8.40066C11.7531 8.14884 11.7531 7.90542 11.8821 7.6536ZM52.541 8.34192C52.5152 7.72914 53.0054 7.2171 53.6332 7.2003H53.7106C54.3469 7.1919 54.8715 7.67874 54.8801 8.29992V8.34192C54.8973 8.9715 54.3899 9.50034 53.7364 9.51714C53.0914 9.53394 52.5496 9.03864 52.5324 8.40066C52.541 8.38386 52.541 8.35872 52.541 8.34192ZM52.7732 8.34192C52.7732 8.84556 53.1946 9.25692 53.7106 9.25692C54.2266 9.25692 54.6479 8.84556 54.6479 8.34192C54.6479 7.83828 54.2265 7.42692 53.7106 7.42692C53.2118 7.41012 52.7904 7.78788 52.7732 8.27472V8.34192ZM53.4784 9.02184H53.272V7.6452H53.7965C54.046 7.6536 54.2351 7.84662 54.2351 8.0901C54.2351 8.25798 54.1405 8.40906 53.9857 8.493L54.2867 9.02184H54.0545L53.7793 8.535H53.4784V9.02184ZM53.4784 8.34192H53.7622C53.8997 8.35032 54.0202 8.24952 54.0202 8.11524C54.0202 7.98096 53.9255 7.86342 53.788 7.86342H53.4784V8.34192Z" fill="white"/>
</g>
<defs>
<clipPath id="clip0_2050_9332">
<rect width="60" height="24" fill="white"/>
</clipPath>
</defs>
</svg>
