<svg width="110" height="18" viewBox="0 0 110 18" fill="none" xmlns="http://www.w3.org/2000/svg">
<path d="M14.8468 4.42675C12.7906 1.63029 7.45285 0.195538 4.13804 3.93826C1.21823 7.235 1.43812 11.4681 3.89299 14.0388C6.12382 16.3749 12.3535 16.9268 14.6114 13.6675" stroke="white" strokeWidth="2.75076"/>
<circle cx="25.9518" cy="8.96611" r="7.2581" stroke="white" strokeWidth="2.75076"/>
<circle cx="83.7425" cy="8.96611" r="7.2581" stroke="white" strokeWidth="2.75076"/>
<path fill-rule="evenodd" clip-rule="evenodd" d="M58.6937 0.946853L53.298 17.3271L50.6837 17.2763L47.1437 5.67885L43.3757 17.299L40.7571 17.293L35.5642 0.932861H38.3972L42.0777 12.384L45.8751 0.67334L48.4989 0.696058L52.0852 12.4455L55.833 0.946853H58.6937Z" fill="white"/>
<path d="M68.796 9.13596C73.8548 10.0608 72.3635 15.853 68.796 15.7196H62.7064V9.03727M68.796 9.13596L62.7064 9.03727M68.796 9.13596C69.9793 8.47614 70.4195 7.85781 70.5251 6.18411C70.7045 3.33913 68.8932 2.35498 67.6439 2.35498H62.7064V9.03727" stroke="white" strokeWidth="2.75076"/>
<path fill-rule="evenodd" clip-rule="evenodd" d="M100.477 8.62635L95.4445 0.942871H92.7426L98.878 11.251L95.5801 16.9319H98.5601L107.916 0.95988H105.154L100.477 8.62635Z" fill="white"/>
<path fill-rule="evenodd" clip-rule="evenodd" d="M108.472 12.8315C108.466 12.6048 108.166 12.5281 108.052 12.7237L107.591 13.5088C107.523 13.6251 107.369 13.656 107.261 13.5749L106.534 13.0275C106.353 12.8911 106.106 13.0771 106.188 13.2887L106.515 14.1381C106.563 14.264 106.491 14.4039 106.36 14.4376L105.479 14.6647C105.26 14.7213 105.251 15.03 105.468 15.0983L106.335 15.3723C106.464 15.4129 106.528 15.5566 106.473 15.6797L106.101 16.5103C106.009 16.7172 106.245 16.9162 106.433 16.7897L107.188 16.2821C107.3 16.2068 107.453 16.246 107.515 16.3658L107.932 17.1745C108.036 17.3759 108.339 17.3153 108.358 17.0893L108.432 16.1823C108.443 16.0478 108.568 15.953 108.701 15.9794L109.593 16.1571C109.816 16.2014 109.957 15.9268 109.792 15.7715L109.129 15.1481C109.031 15.0557 109.035 14.8983 109.138 14.8113L109.833 14.2243C110.007 14.0781 109.88 13.7963 109.656 13.8286L108.755 13.9583C108.621 13.9775 108.501 13.876 108.497 13.7412L108.472 12.8315ZM107.706 15.579C108.059 15.579 108.344 15.2936 108.344 14.9415C108.344 14.5895 108.059 14.3041 107.706 14.3041C107.354 14.3041 107.069 14.5895 107.069 14.9415C107.069 15.2936 107.354 15.579 107.706 15.579Z" fill="white"/>
</svg>
