<svg width="85" height="20" viewBox="0 0 85 20" fill="none" xmlns="http://www.w3.org/2000/svg">
<path d="M20.8872 0.864661C22.7331 0.864661 24.579 0.864661 26.5837 0.864661C26.5837 1.11834 26.5837 1.4493 26.5837 1.78026C26.5837 5.25979 26.5837 8.73952 26.5839 12.2191C26.5839 12.5037 26.5814 12.7885 26.5862 13.0731C26.6392 16.2802 29.0372 17.6224 31.8921 16.0407C33.1585 15.3391 33.9537 14.479 33.8635 12.8289C33.7086 9.99025 33.8232 7.13731 33.8197 4.29027C33.817 2.09147 33.5958 1.83285 31.4406 1.38569C31.2589 1.3479 31.103 1.18859 30.9352 1.08587C31.1167 0.971179 31.2968 0.759088 31.4798 0.75662C33.3311 0.731935 35.183 0.741617 37.1473 0.741617C37.1473 1.15688 37.1473 1.49543 37.1473 1.8338C37.1473 5.88278 37.1467 9.93176 37.1475 13.9807C37.1481 16.1607 37.2215 16.2475 39.375 16.7055C39.4561 16.7228 39.523 16.8054 39.8413 17.031C37.8493 17.6948 36.0314 18.3005 34.0758 18.9522C34.0758 17.8332 34.0758 16.8168 34.0758 15.6515C33.1887 16.4397 32.483 17.1605 31.6832 17.7584C29.8888 19.0995 27.9204 19.4572 25.8321 18.4699C24.1303 17.6653 23.3328 16.243 23.3122 14.4245C23.2742 11.0403 23.2953 7.6553 23.2857 4.2707C23.2846 3.82867 23.2846 3.38169 23.2204 2.94592C23.0937 2.08387 22.6514 1.48765 21.7129 1.34695C21.419 1.3029 21.1345 1.19771 20.8458 1.12062C20.8599 1.03536 20.8735 0.950106 20.8872 0.864661Z" fill="white"/>
<path d="M41.4148 9.80239C41.3871 5.47372 44.0915 1.83146 48.0699 0.901245C53.7195 -0.419744 58.7944 3.52746 58.8755 9.26827C58.9128 11.9049 58.2114 14.2704 56.4376 16.2661C54.1811 18.8046 51.2948 19.5299 48.078 18.7261C44.6729 17.8755 42.6513 15.5428 41.77 12.2372C41.5601 11.4494 41.5284 10.6151 41.4148 9.80239ZM45.0643 8.61546C45.0539 8.8906 45.0512 9.16459 45.0574 9.43593C45.0966 11.1729 45.5003 12.9033 46.2501 14.4757C46.2801 14.5385 46.3107 14.6012 46.3418 14.6637C46.8022 15.5869 47.404 16.4782 48.2348 17.1152C49.1471 17.8147 50.2803 18.0375 51.4157 17.9004C53.0402 17.704 54.0127 16.6629 54.5251 15.2724C56.0606 11.1067 55.61 7.08333 53.0252 3.47278C51.5068 1.35183 48.3713 1.1367 46.6173 3.101C45.8697 3.93817 45.5285 5.04307 45.3396 6.1231C45.1975 6.93503 45.0956 7.78057 45.0643 8.61546Z" fill="white"/>
<path d="M8.94571 1.10571C8.73677 1.2052 8.53743 1.34059 8.31714 1.3985C7.01714 1.74009 6.75399 2.15631 7.27011 3.45014C8.17163 5.71046 9.14351 7.94325 10.0925 10.185C10.5667 11.3051 11.0561 12.4191 11.6438 13.7794C13.0424 10.2098 14.3793 6.90822 15.622 3.57242C16.1431 2.17377 15.8167 1.7437 14.3418 1.34818C14.1857 1.30641 14.0527 1.18109 13.9433 0.911268C15.7425 0.911268 17.5415 0.911268 19.3986 0.911268C19.3596 1.04096 19.3465 1.23824 19.2898 1.25134C17.9302 1.56521 17.5144 2.69481 17.0731 3.77389C15.1101 8.57232 13.1673 13.3789 11.2118 18.1804C11.0863 18.4884 10.9148 18.7779 10.625 19.3536C10.2336 18.661 9.92009 18.2125 9.71153 17.7207C7.76105 13.1224 5.82248 8.51915 3.89467 3.91155C3.38836 2.70145 2.77632 1.62844 1.32081 1.35521C1.21048 1.33451 1.13166 1.15052 0.914062 0.898926C3.66266 0.898926 6.24671 0.898926 8.83057 0.898926C8.86883 0.967662 8.90727 1.03678 8.94571 1.10571Z" fill="white"/>
<path d="M70.5742 18.8503C70.3271 18.8735 70.0803 18.9162 69.8333 18.9166C67.1449 18.9213 64.4565 18.928 61.7682 18.9065C61.5051 18.9044 61.2437 18.7191 60.9813 18.6189C61.2193 18.4892 61.4428 18.2938 61.6973 18.2403C63.4761 17.8647 63.8671 17.4202 63.8738 15.5935C63.885 12.5902 63.8773 9.5867 63.8756 6.58338C63.8754 6.33065 63.864 6.07774 63.8516 5.8252C63.741 3.60703 63.2128 3.14581 60.8704 3.40481C61.0374 3.13404 61.1074 2.85321 61.2604 2.79814C63.1709 2.11173 65.0933 1.45798 67.1151 0.760742C67.1151 1.96382 67.1151 3.08278 67.1151 4.39294C67.937 3.48532 68.596 2.69731 69.3209 1.97388C70.0846 1.21151 70.9921 0.706816 72.1406 0.800806C73.5482 0.916253 74.4248 2.17458 74.0232 3.5119C73.6636 4.71004 72.4149 5.10043 71.3473 4.34851C69.6377 3.14487 68.8236 3.28652 67.7606 5.10499C67.4561 5.62602 67.2775 6.29154 67.267 6.89478C67.2166 9.73917 67.2281 12.5851 67.2504 15.4302C67.2658 17.3843 67.9394 18.0652 69.9281 18.2835C70.178 18.3109 70.4154 18.4486 70.6587 18.5351C70.6303 18.6401 70.6022 18.7453 70.5742 18.8503Z" fill="white"/>
<path d="M75.2815 3.0985C75.4671 2.90274 75.6178 2.60121 75.8443 2.52811C77.6923 1.93132 79.5546 1.37706 81.5429 0.77002C81.5648 1.16934 81.5979 1.49346 81.5981 1.81758C81.6015 6.02264 81.6 10.2275 81.6012 14.4326C81.6014 14.8435 81.5991 15.2551 81.6202 15.6653C81.7223 17.6396 82.0235 17.9609 84.0076 18.297C84.2315 18.335 84.4386 18.4707 84.6535 18.5613C84.6302 18.6384 84.607 18.7155 84.5835 18.7926C81.4562 18.7926 78.3292 18.7926 75.2019 18.7926C75.1771 18.7181 75.1525 18.6435 75.1277 18.5691C75.3651 18.4692 75.5936 18.3202 75.841 18.2772C78.0014 17.9034 78.2746 17.6028 78.2797 15.4253C78.2878 12.0424 78.2846 8.65931 78.2809 5.27642C78.2788 3.26256 77.8844 2.9354 75.9141 3.28136C75.7653 3.30756 75.6111 3.3032 75.4595 3.31288C75.4002 3.24149 75.3409 3.1699 75.2815 3.0985Z" fill="white"/>
</svg>
