<svg width="96" height="21" viewBox="0 0 96 21" fill="none" xmlns="http://www.w3.org/2000/svg">
<path d="M55.5863 5.75607C55.4758 5.75459 55.3672 5.78566 55.2745 5.84535C55.1817 5.90505 55.1089 5.99069 55.0652 6.09145C55.0215 6.19221 55.0089 6.30356 55.029 6.41141C55.0491 6.51927 55.1009 6.6188 55.1781 6.69741C55.2552 6.77602 55.3541 6.83018 55.4622 6.85304C55.5704 6.87591 55.6829 6.86645 55.7857 6.82586C55.8884 6.78528 55.9767 6.71539 56.0394 6.62503C56.1021 6.53467 56.1363 6.4279 56.1378 6.31823C56.1396 6.24519 56.1267 6.17253 56.0998 6.10452C56.0729 6.0365 56.0326 5.9745 55.9812 5.92214C55.9299 5.86978 55.8685 5.82812 55.8007 5.7996C55.7329 5.77109 55.66 5.75629 55.5863 5.75607Z" fill="white"/>
<path d="M33.9809 12.7594C33.9809 10.9136 32.144 10.3367 30.5209 9.82874C28.7969 9.28785 27.6675 8.85096 27.6675 7.7594C27.6675 6.69674 28.7114 5.98163 30.266 5.98163C31.1082 5.97257 31.9386 6.17825 32.6776 6.57896L32.7363 6.61318L33.1153 6.11007L33.041 6.06563C32.1917 5.61474 31.2422 5.3816 30.279 5.3874C28.3525 5.3874 27.0085 6.36518 27.0085 7.76874C27.0085 9.2274 28.4152 9.80829 30.1145 10.3665L30.3269 10.4363C31.8569 10.9363 33.3022 11.4083 33.3022 12.7723C33.3022 14.1625 32.0302 15.0612 30.0617 15.0612C28.9886 15.0453 27.9402 14.7392 27.0295 14.1758L26.9614 14.1314L26.6478 14.6821L26.7083 14.7207C27.7186 15.3458 28.8836 15.6815 30.0742 15.6905C32.3743 15.6932 33.9809 14.487 33.9809 12.7594Z" fill="white"/>
<path d="M38.4032 15.52L38.4704 15.5062L38.4063 14.8924L38.3199 14.9155C38.0471 14.9863 37.7663 15.0225 37.4843 15.0231C36.7473 15.0231 36.3889 14.652 36.3889 13.8889V9.44041H38.59V8.83375H36.3903V6.71997L35.7312 7.19019V8.83464L34.5597 8.8413V9.45686H35.7312V13.8889C35.7312 15.0444 36.3217 15.6297 37.4857 15.6297C37.7946 15.6268 38.1024 15.59 38.4032 15.52Z" fill="white"/>
<path d="M44.628 14.3805V15.5045H45.2714V8.83423H44.6124V13.6253C44.1343 14.1587 43.1922 15.0236 42.1232 15.0236C41.0341 15.0236 40.505 14.4267 40.505 13.1982V8.83423H39.8459V13.2453C39.8459 14.7609 40.6645 15.6302 42.0914 15.6302C43.262 15.6302 44.2194 14.8 44.628 14.3805Z" fill="white"/>
<path d="M50.2005 15.63C51.0739 15.6264 51.9131 15.2926 52.5472 14.6966V15.5038H53.2062V5.46509H52.5472V9.57887C51.9115 9.01346 51.0864 8.70308 50.2327 8.7082C48.3479 8.7082 46.9264 10.1993 46.9264 12.1771C46.9259 14.1455 48.3336 15.63 50.2005 15.63ZM47.602 12.1771C47.602 10.5184 48.7023 9.31487 50.2175 9.31487C50.6587 9.31683 51.0945 9.41161 51.4961 9.59295C51.8977 9.77429 52.2559 10.0381 52.5472 10.3669V13.878C52.2685 14.228 51.915 14.5123 51.5121 14.7103C51.1092 14.9083 50.667 15.0151 50.2175 15.0229C48.701 15.0233 47.6007 13.8264 47.6007 12.1771H47.602Z" fill="white"/>
<path d="M55.9293 8.83423H55.2703V15.5045H55.9293V8.83423Z" fill="white"/>
<path d="M60.9065 8.7089C59.0307 8.7089 57.6158 10.2 57.6158 12.1778C57.6158 14.1462 59.0168 15.6307 60.8747 15.6307C61.3238 15.6217 61.7666 15.5239 62.1772 15.3431C62.5878 15.1622 62.9579 14.902 63.2658 14.5775C63.5738 14.253 63.8134 13.8708 63.9706 13.4534C64.1278 13.0359 64.1995 12.5915 64.1815 12.1462C64.1815 10.1876 62.7734 8.7089 60.9065 8.7089ZM63.505 12.1618C63.505 13.8205 62.4047 15.024 60.889 15.024C59.3828 15.024 58.2906 13.8205 58.2906 12.1618C58.2906 10.5129 59.3842 9.31734 60.889 9.31734C62.406 9.31557 63.5063 10.5129 63.5063 12.1618H63.505Z" fill="white"/>
<path d="M69.3716 6.74553L75.4494 15.4695L75.4722 15.502H76.0439V5.46509H75.3692V14.2229L69.2946 5.49753L69.2713 5.46509H68.7283V15.5042H69.3716V6.74553Z" fill="white"/>
<path d="M81.0347 8.7089C79.2198 8.7089 77.9022 10.168 77.9022 12.1778C77.9022 14.2756 79.287 15.6307 81.4303 15.6307C82.1486 15.6253 82.8577 15.4693 83.5109 15.1729L83.5638 15.1653V14.9787L83.5315 14.9947C83.5037 14.9098 83.4589 14.7676 83.4177 14.6391L83.3917 14.556L83.3129 14.5929C82.7245 14.8703 82.0826 15.018 81.4312 15.0258C79.6867 15.0258 78.6253 13.9858 78.5796 12.2396H83.9302V11.9596C83.9293 9.98446 82.7932 8.7089 81.0347 8.7089ZM78.6016 11.6467C78.7758 10.2062 79.6898 9.31557 81.0029 9.31557C82.316 9.31557 83.1534 10.1849 83.2506 11.6467H78.6016Z" fill="white"/>
<path d="M87.7516 8.7089C87.0949 8.72769 86.447 8.86317 85.8386 9.1089L85.7736 9.13557L85.9636 9.72135L86.0406 9.68712C86.5721 9.46027 87.1419 9.33467 87.7202 9.3169C89.1507 9.3169 89.7363 9.88223 89.7363 11.2676V11.9431C89.1363 11.6225 88.4671 11.4507 87.7856 11.4422C86.2395 11.4422 85.1603 12.3133 85.1603 13.56C85.1603 14.7987 86.1907 15.6307 87.7225 15.6307C88.4626 15.6245 89.178 15.3661 89.7488 14.8987V15.5058H90.3917V11.2036C90.3931 9.5249 89.5293 8.7089 87.7516 8.7089ZM89.734 12.5662V14.176C89.4865 14.454 89.181 14.6752 88.8386 14.8243C88.4963 14.9734 88.1254 15.0469 87.7516 15.0396C86.5303 15.0396 85.8014 14.4862 85.8014 13.56C85.8014 12.4933 86.8049 12.0178 87.7995 12.0178C88.4839 12.0139 89.1551 12.2042 89.734 12.5662Z" fill="white"/>
<path d="M95.6666 9.44041V8.83375H93.4668V6.71997L92.8078 7.19019V8.83464L91.6362 8.8413V9.45686H92.8078V13.8889C92.8078 15.0444 93.3978 15.6297 94.5622 15.6297C94.8717 15.626 95.1798 15.5886 95.4811 15.5182L95.5478 15.504L95.4842 14.8924L95.3977 14.9155C95.1249 14.9863 94.8442 15.0225 94.5622 15.0231C93.8252 15.0231 93.4668 14.652 93.4668 13.8889V9.44041H95.6666Z" fill="white"/>
<path d="M10.7469 0.5C8.75322 0.5 6.8043 1.08649 5.14661 2.1853C3.48891 3.28412 2.1969 4.8459 1.43395 6.67316C0.670994 8.50042 0.47137 10.5111 0.86032 12.4509C1.24927 14.3907 2.20932 16.1725 3.61908 17.5711C5.02883 18.9696 6.82496 19.922 8.78035 20.3078C10.7357 20.6937 12.7625 20.4957 14.6045 19.7388C16.4464 18.9819 18.0207 17.7002 19.1284 16.0557C20.236 14.4112 20.8272 12.4778 20.8272 10.5C20.8242 7.84874 19.7613 5.30691 17.8715 3.43218C15.9817 1.55745 13.4195 0.502941 10.7469 0.5V0.5Z" fill="white"/>
<path d="M12.1658 16.8454V13.0654H11.7227V16.0132L9.59464 13.0645L9.21472 13.0574V16.8472H9.65781V13.8532L11.776 16.8432L12.1658 16.8454Z" fill="white"/>
<path d="M16.205 10.2648H5.28601V10.6698H16.205V10.2648Z" fill="white"/>
<path d="M9.40277 7.35101L9.16309 7.69538C9.60377 8.05782 10.1615 8.25045 10.7338 8.23792C11.6473 8.23792 12.2853 7.72071 12.2853 6.97999C12.2893 6.79209 12.2362 6.60735 12.1328 6.4498C12.0295 6.29226 11.8808 6.1692 11.706 6.09663C11.412 5.9629 11.1058 5.85712 10.7916 5.7807L10.7441 5.76782C10.1859 5.6123 9.79075 5.47366 9.79075 5.10886C9.79075 4.75561 10.1993 4.47878 10.7213 4.47878C11.0997 4.47887 11.4655 4.61404 11.7517 4.85958L11.9968 4.49966C11.6498 4.21769 11.2128 4.0677 10.7643 4.07665C9.93725 4.07665 9.33736 4.52099 9.33736 5.1333C9.33736 5.80425 10.095 6.01354 10.7038 6.1815C11.2275 6.32636 11.8185 6.48988 11.8185 7.00754C11.8185 7.50209 11.3906 7.82157 10.7284 7.82157C10.2458 7.81671 9.7789 7.65096 9.40277 7.35101Z" fill="white"/>
</svg>
