<svg width="57" height="57" viewBox="0 0 57 57" fill="none" xmlns="http://www.w3.org/2000/svg">
<path d="M18.8085 5.85565C24.1605 5.85565 28.4991 10.1943 28.4991 15.5462L28.4989 41.8901C28.4989 48.0152 23.5333 52.9807 17.4081 52.9807C11.2828 52.9807 6.31726 48.0152 6.31726 41.8901C6.31726 41.5762 6.33033 41.2656 6.3559 40.9582C4.04767 38.4785 2.59131 33.628 2.59131 29.5809C2.59131 24.0662 5.29537 18.7043 9.17426 16.5967C9.13705 16.2516 9.11796 15.9012 9.11796 15.5462C9.11796 10.1943 13.4566 5.85565 18.8085 5.85565Z" stroke="black" strokeWidth="3" strokeLinecap="round" strokeLinejoin="round"/>
<path d="M14.2953 23.1831C12.8724 22.8587 9.64812 20.7441 9.16162 16.6217" stroke="black" strokeWidth="3" strokeLinecap="round" strokeLinejoin="round"/>
<path d="M20.2354 34.0566C26.0474 33.4079 28.3505 27.2743 28.5003 24.7794" stroke="black" strokeWidth="3" strokeLinecap="round" strokeLinejoin="round"/>
<path d="M9.32151 35.1439C7.87387 36.2869 6.71966 38.8773 6.3457 40.9525" stroke="black" strokeWidth="3" strokeLinecap="round" strokeLinejoin="round"/>
<path d="M38.1911 5.85565C32.8391 5.85565 28.5005 10.1943 28.5005 15.5462L28.5007 41.8901C28.5007 48.0152 33.4662 52.9807 39.5915 52.9807C45.7168 52.9807 50.6823 48.0152 50.6823 41.8901C50.6823 41.5762 50.6693 41.2656 50.6436 40.9582C52.9517 38.4785 54.4081 33.628 54.4081 29.5809C54.4081 24.0662 51.7043 18.7043 47.8254 16.5967C47.8625 16.2516 47.8816 15.9012 47.8816 15.5462C47.8816 10.1943 43.5431 5.85565 38.1911 5.85565Z" stroke="black" strokeWidth="3" strokeLinecap="round" strokeLinejoin="round"/>
<path d="M42.7041 23.1831C44.1271 22.8587 47.3512 20.7441 47.8378 16.6217" stroke="black" strokeWidth="3" strokeLinecap="round" strokeLinejoin="round"/>
<path d="M36.7639 34.0566C30.952 33.4079 28.6488 27.2743 28.499 24.7794" stroke="black" strokeWidth="3" strokeLinecap="round" strokeLinejoin="round"/>
<path d="M47.6777 35.1439C49.1251 36.2869 50.2794 38.8773 50.6535 40.9525" stroke="black" strokeWidth="3" strokeLinecap="round" strokeLinejoin="round"/>
</svg>
