<svg width="281" height="67" viewBox="0 0 281 67" fill="none" xmlns="http://www.w3.org/2000/svg">
<path d="M275.499 40.4999C272.999 40.4999 270.999 42.4999 270.999 44.9999C270.999 47.4999 272.999 49.4999 275.499 49.4999C277.999 49.4999 279.999 47.4999 279.999 44.9999C279.999 42.4999 277.999 40.4999 275.499 40.4999Z" fill="white"/>
<path d="M270.999 44.9999C270.999 42.4999 272.999 40.4999 275.499 40.4999C277.999 40.4999 279.999 42.4999 279.999 44.9999C279.999 47.4999 277.999 49.4999 275.499 49.4999C272.999 49.4999 270.999 47.4999 270.999 44.9999ZM270.999 44.9999C270.999 44.9999 76.9215 -67.0519 2.09375 65.6999" stroke="black"/>
</svg>
