<svg width="10" height="54" viewBox="0 0 10 54" fill="none" xmlns="http://www.w3.org/2000/svg">
<path d="M5 0.5C2.5 0.5 0.5 2.5 0.5 5C0.5 7.5 2.5 9.5 5 9.5C7.5 9.5 9.5 7.5 9.5 5C9.5 2.5 7.5 0.5 5 0.5Z" fill="white"/>
<path d="M4.64645 53.3536C4.84171 53.5488 5.15829 53.5488 5.35355 53.3536L8.53553 50.1716C8.7308 49.9763 8.7308 49.6597 8.53553 49.4645C8.34027 49.2692 8.02369 49.2692 7.82843 49.4645L5 52.2929L2.17157 49.4645C1.97631 49.2692 1.65973 49.2692 1.46447 49.4645C1.2692 49.6597 1.2692 49.9763 1.46447 50.1716L4.64645 53.3536ZM1 5C1 2.77614 2.77614 1 5 1V0C2.22386 0 0 2.22386 0 5H1ZM5 1C7.22386 1 9 2.77614 9 5H10C10 2.22386 7.77614 0 5 0V1ZM9 5C9 7.22386 7.22386 9 5 9V10C7.77614 10 10 7.77614 10 5H9ZM5 9C2.77614 9 1 7.22386 1 5H0C0 7.77614 2.22386 10 5 10V9ZM4.5 9.5V53H5.5V9.5H4.5Z" fill="black"/>
</svg>
