<svg width="58" height="58" viewBox="0 0 58 58" fill="none" xmlns="http://www.w3.org/2000/svg">
<path d="M29.9723 40.5359L42.7576 17.3828H48.4327L35.6474 40.5359H29.9723Z" stroke="black"/>
<path fill-rule="evenodd" clip-rule="evenodd" d="M28.1724 39.7538V40.7017H27.2245H19.1621C15.077 40.7017 11.824 39.6058 9.58875 37.4702C7.34769 35.329 6.26059 32.2679 6.26059 28.6096V28.3605C6.26059 24.7214 7.32265 21.7221 9.55924 19.6428C11.7848 17.5737 15.031 16.5486 19.1309 16.5486H27.2245H28.1724V17.4964V39.7538ZM27.2245 39.7538V38.806V18.4443V17.4964H26.2767H19.1309C11.2241 17.4964 7.20843 21.4498 7.20843 28.3605V28.6096C7.20843 35.5514 11.3175 39.7538 19.1621 39.7538H26.2767H27.2245Z" fill="black"/>
<rect x="43.5132" y="32.927" width="7.60889" height="7.60889" stroke="black"/>
</svg>
