<svg width="58" height="58" viewBox="0 0 58 58" fill="none" xmlns="http://www.w3.org/2000/svg">
<path d="M17.8677 12.4015V10.0278" stroke="black" strokeLinecap="round" strokeLinejoin="round"/>
<path d="M25.9644 15.3149L27.9071 13.951" stroke="black" strokeLinecap="round" strokeLinejoin="round"/>
<path d="M9.76464 15.3149L7.82178 13.951" stroke="black" strokeLinecap="round" strokeLinejoin="round"/>
<path d="M23.7525 23.0334C23.7647 19.7717 21.0041 17.0577 17.7429 17.1254C14.4819 17.1931 11.8363 20.0195 11.9839 23.2779C12.0789 25.3753 13.3617 27.3458 15.2411 28.2816V31.1748C15.2455 31.3458 15.3165 31.5084 15.4391 31.6278C15.5616 31.7472 15.726 31.814 15.8971 31.8139H19.8331C20.0044 31.814 20.1687 31.7472 20.2913 31.6278C20.4137 31.5084 20.4849 31.3458 20.4892 31.1748V28.2311C22.4276 27.2661 23.7256 25.1988 23.7525 23.0334Z" stroke="black" strokeLinecap="round" strokeLinejoin="round"/>
<path d="M22.5991 48.7223V39.377H31.9442V30.9217H40.622V24.4691H49.7448" stroke="black"/>
</svg>
