<svg width="58" height="58" viewBox="0 0 58 58" fill="none" xmlns="http://www.w3.org/2000/svg">
<path d="M20.681 32.4798C23.6516 32.4798 26.0597 30.0717 26.0597 27.1011C26.0597 24.1305 23.6516 21.7224 20.681 21.7224C17.7104 21.7224 15.3022 24.1305 15.3022 27.1011C15.3022 30.0717 17.7104 32.4798 20.681 32.4798Z" stroke="black" strokeLinecap="round" strokeLinejoin="round"/>
<path d="M10.0625 48.0566C10.0813 46.2576 10.5558 44.4924 11.4416 42.9266C13.3084 39.6262 16.8938 37.5306 20.6844 37.5223C24.4751 37.5306 28.0604 39.6262 29.9272 42.9266C30.813 44.4924 31.2875 46.2576 31.3063 48.0566" stroke="black" strokeLinecap="round" strokeLinejoin="round"/>
<path d="M37.1484 13.0674V10.6937" stroke="black" strokeLinecap="round" strokeLinejoin="round"/>
<path d="M45.2451 15.9807L47.1879 14.6168" stroke="black" strokeLinecap="round" strokeLinejoin="round"/>
<path d="M29.0454 15.9807L27.1025 14.6168" stroke="black" strokeLinecap="round" strokeLinejoin="round"/>
<path d="M43.0333 23.6993C43.0454 20.4375 40.2849 17.7235 37.0237 17.7912C33.7626 17.859 31.117 20.6853 31.2647 23.9437C31.3597 26.0411 32.6424 28.0116 34.5218 28.9474V31.8406C34.5262 32.0116 34.5973 32.1742 34.7199 32.2936C34.8424 32.413 35.0068 32.4798 35.1779 32.4798H39.1139C39.2851 32.4798 39.4494 32.413 39.5721 32.2936C39.6945 32.1742 39.7656 32.0116 39.77 31.8406V28.8969C41.7084 27.9319 43.0064 25.8646 43.0333 23.6993Z" stroke="black" strokeLinecap="round" strokeLinejoin="round"/>
</svg>
