<svg width="58" height="58" viewBox="0 0 58 58" fill="none" xmlns="http://www.w3.org/2000/svg">
<path d="M23.6556 12.1964H14.4056C12.9459 12.1964 11.7627 13.3797 11.7627 14.8393V24.0893C11.7627 25.5489 12.9459 26.7321 14.4056 26.7321H23.6556C25.1151 26.7321 26.2984 25.5489 26.2984 24.0893V14.8393C26.2984 13.3797 25.1151 12.1964 23.6556 12.1964Z" stroke="black" strokeLinecap="round" strokeLinejoin="round"/>
<path d="M43.4768 32.0178H34.2268C32.7672 32.0178 31.584 33.2011 31.584 34.6607V43.9107C31.584 45.3703 32.7672 46.5535 34.2268 46.5535H43.4768C44.9365 46.5535 46.1197 45.3703 46.1197 43.9107V34.6607C46.1197 33.2011 44.9365 32.0178 43.4768 32.0178Z" stroke="black" strokeLinecap="round" strokeLinejoin="round"/>
<path d="M23.6556 32.0178H14.4056C12.9459 32.0178 11.7627 33.2011 11.7627 34.6607V43.9107C11.7627 45.3703 12.9459 46.5535 14.4056 46.5535H23.6556C25.1151 46.5535 26.2984 45.3703 26.2984 43.9107V34.6607C26.2984 33.2011 25.1151 32.0178 23.6556 32.0178Z" stroke="black" strokeLinecap="round" strokeLinejoin="round"/>
<path d="M38.8516 26.7322V12.1965" stroke="black" strokeLinecap="round" strokeLinejoin="round"/>
<path d="M31.584 19.4643H46.1197" stroke="black" strokeLinecap="round" strokeLinejoin="round"/>
</svg>
