<svg width="58" height="58" viewBox="0 0 58 58" fill="none" xmlns="http://www.w3.org/2000/svg">
<circle cx="10.7864" cy="23.1306" r="6.25027" stroke="black"/>
<path d="M10.8609 40.5359L23.6463 17.3828H29.3214L16.5361 40.5359H10.8609Z" stroke="black"/>
<path fill-rule="evenodd" clip-rule="evenodd" d="M31.6396 40.0881V41.0359H32.5874H40.6499C44.7349 41.0359 47.988 39.94 50.2232 37.8044C52.4642 35.6633 53.5513 32.6021 53.5513 28.9438V28.6948C53.5513 25.0556 52.4893 22.0563 50.2527 19.977C48.0272 17.908 44.7809 16.8828 40.681 16.8828H32.5874H31.6396V17.8306V40.0881ZM32.5874 40.0881V39.1402V18.7785V17.8306H33.5352H40.681C48.5878 17.8306 52.6035 21.7841 52.6035 28.6948V28.9438C52.6035 35.8856 48.4944 40.0881 40.6499 40.0881H33.5352H32.5874Z" fill="black"/>
</svg>
