<svg width="58" height="58" viewBox="0 0 58 58" fill="none" xmlns="http://www.w3.org/2000/svg">
<circle cx="12.553" cy="23.1306" r="6.25027" stroke="black"/>
<path d="M21.6686 17.3828H27.4861L27.4861 40.5359H21.6686L21.6686 17.3828Z" stroke="black"/>
<path d="M6.30308 23.1305C6.3031 19.6787 9.10141 16.8804 12.5533 16.8804C16.0052 16.8804 18.8035 19.6787 18.8035 23.1306L18.8034 34.2857C18.8034 37.7376 16.0051 40.5359 12.5532 40.5359C9.10131 40.5359 6.303 37.7376 6.30302 34.2856L6.30308 23.1305Z" stroke="black"/>
<path fill-rule="evenodd" clip-rule="evenodd" d="M29.8516 40.0881V41.0359H30.7994H38.8619C42.9469 41.0359 46.2 39.94 48.4352 37.8044C50.6762 35.6633 51.7633 32.6021 51.7633 28.9438V28.6948C51.7633 25.0556 50.7013 22.0563 48.4647 19.977C46.2392 17.908 42.9929 16.8828 38.893 16.8828H30.7994H29.8516V17.8306V40.0881ZM30.7994 40.0881V39.1402V18.7785V17.8306H31.7472H38.893C46.7998 17.8306 50.8155 21.7841 50.8155 28.6948V28.9438C50.8155 35.8856 46.7064 40.0881 38.8619 40.0881H31.7472H30.7994Z" fill="black"/>
</svg>
