<svg width="58" height="58" viewBox="0 0 58 58" fill="none" xmlns="http://www.w3.org/2000/svg">
<path d="M8.854 55.4307V45.3331H18.9518" stroke="black" strokeWidth="3" strokeLinecap="round" strokeLinejoin="round"/>
<path d="M54.8585 24.3521C57.371 37.7132 49.1947 50.9594 35.8453 54.5362C25.6281 57.2738 15.2032 53.5912 8.854 45.9613" stroke="black" strokeWidth="3" strokeLinecap="round" strokeLinejoin="round"/>
<path d="M3.24187 34.0012C0.729378 20.6401 8.90582 7.394 22.2552 3.81706C32.4716 1.07957 42.8958 4.7615 49.2452 12.3903" stroke="black" strokeWidth="3" strokeLinecap="round" strokeLinejoin="round"/>
<path d="M49.2454 2.92242V13.0202H39.1475" stroke="black" strokeWidth="3" strokeLinecap="round" strokeLinejoin="round"/>
<path d="M23.9609 22.0514C23.9609 22.7198 24.0926 23.3816 24.3483 23.999C24.6041 24.6165 24.979 25.1775 25.4516 25.6501C25.9241 26.1227 26.4852 26.4976 27.1026 26.7533C27.7201 27.0091 28.3819 27.1407 29.0502 27.1407C29.7186 27.1407 30.3803 27.0091 30.9978 26.7533C31.6153 26.4976 32.1763 26.1227 32.6489 25.6501C33.1215 25.1775 33.4963 24.6165 33.7521 23.999C34.0079 23.3816 34.1395 22.7198 34.1395 22.0514C34.1395 20.7017 33.6033 19.4072 32.6489 18.4528C31.6945 17.4983 30.4 16.9622 29.0502 16.9622C27.7005 16.9622 26.406 17.4983 25.4516 18.4528C24.4971 19.4072 23.9609 20.7017 23.9609 22.0514Z" stroke="black" strokeWidth="3"/>
<path d="M19.7183 39.3551C21.2889 35.7602 24.876 33.2479 29.0499 33.2479C33.2238 33.2479 36.8109 35.7602 38.3815 39.3551" stroke="black" strokeWidth="3" strokeLinecap="round"/>
</svg>
