<svg xmlns="http://www.w3.org/2000/svg" width="58" height="58" viewBox="0 0 58 58" fill="none">
    <path
        d="M41.2709 48.7988C38.9434 51.055 36.4021 50.6988 33.9559 49.63C31.3671 48.5375 28.9921 48.49 26.2609 49.63C22.8409 51.1025 21.0359 50.675 18.9934 48.7988C7.40337 36.8525 9.11337 18.66 22.2709 17.995C25.4771 18.1613 27.7096 19.7525 29.5859 19.895C32.3884 19.325 35.0721 17.6863 38.0646 17.9C41.6509 18.185 44.3584 19.61 46.1396 22.175C38.7296 26.6163 40.4871 36.3775 47.2796 39.1088C45.9259 42.6713 44.1684 46.21 41.2471 48.8225L41.2709 48.7988ZM29.3484 17.8525C28.9921 12.5563 33.2909 8.18629 38.2309 7.75879C38.9196 13.8863 32.6734 18.4463 29.3484 17.8525Z"
        fill="black" />
</svg>