<svg xmlns="http://www.w3.org/2000/svg" width="58" height="58" viewBox="0 0 58 58" fill="none">
    <path d="M3.23047 43.3839C3.58672 39.1485 4.88347 35.2495 7.12072 31.687C9.35797 28.1245 12.3362 25.2943 16.0555 23.1964L11.6617 15.5964C11.4242 15.2401 11.3648 14.8641 11.4836 14.4683C11.6023 14.0724 11.8596 13.7756 12.2555 13.5776C12.5721 13.3797 12.9284 13.3401 13.3242 13.4589C13.7201 13.5776 14.0367 13.8151 14.2742 14.1714L18.668 21.7714C22.0721 20.3464 25.6346 19.6339 29.3555 19.6339C33.0763 19.6339 36.6388 20.3464 40.043 21.7714L44.4367 14.1714C44.6742 13.8151 44.9909 13.5776 45.3867 13.4589C45.7826 13.3401 46.1388 13.3797 46.4555 13.5776C46.8513 13.7756 47.1086 14.0724 47.2273 14.4683C47.3461 14.8641 47.2867 15.2401 47.0492 15.5964L42.6555 23.1964C46.3763 25.2943 49.3545 28.1245 51.5902 31.687C53.8259 35.2495 55.1226 39.1485 55.4805 43.3839H3.23047ZM17.4805 36.8526C18.3117 36.8526 19.0147 36.5653 19.5895 35.9905C20.1642 35.4158 20.4508 34.7136 20.4492 33.8839C20.4492 33.0526 20.1618 32.3496 19.5871 31.7749C19.0123 31.2001 18.3101 30.9136 17.4805 30.9151C16.6492 30.9151 15.9462 31.2025 15.3715 31.7773C14.7967 32.352 14.5101 33.0542 14.5117 33.8839C14.5117 34.7151 14.7991 35.4181 15.3738 35.9929C15.9486 36.5676 16.6508 36.8542 17.4805 36.8526ZM41.2305 36.8526C42.0617 36.8526 42.7647 36.5653 43.3395 35.9905C43.9142 35.4158 44.2008 34.7136 44.1992 33.8839C44.1992 33.0526 43.9118 32.3496 43.3371 31.7749C42.7623 31.2001 42.0601 30.9136 41.2305 30.9151C40.3992 30.9151 39.6962 31.2025 39.1215 31.7773C38.5467 32.352 38.2601 33.0542 38.2617 33.8839C38.2617 34.7151 38.5491 35.4181 39.1238 35.9929C39.6986 36.5676 40.4008 36.8542 41.2305 36.8526Z" fill="black"/>
  </svg>