<svg width="57" height="57" viewBox="0 0 57 57" fill="none" xmlns="http://www.w3.org/2000/svg">
<path d="M16.6309 49.0781C15.259 49.0781 14.0909 48.5979 13.1266 47.6376C12.1623 46.6759 11.6802 45.5085 11.6802 44.1353C11.6802 42.7634 12.1617 41.5953 13.1246 40.6311C14.085 39.6668 15.2524 39.1846 16.6269 39.1846C17.0121 39.1846 17.4158 39.2407 17.8379 39.3528C18.2587 39.4636 18.6505 39.614 19.0132 39.804L24.0391 33.5513C23.3188 32.7836 22.8281 31.9341 22.5669 31.0028C22.3058 30.0728 22.2616 29.1296 22.4344 28.1732L15.04 25.7335C14.606 26.5065 14.0078 27.1278 13.2453 27.5974C12.4816 28.067 11.6301 28.3018 10.6909 28.3018C9.31633 28.3018 8.14891 27.8217 7.18858 26.8614C6.22562 25.8997 5.74414 24.7323 5.74414 23.3591C5.74414 21.9872 6.22496 20.8191 7.1866 19.8548C8.14693 18.8905 9.31303 18.4084 10.6849 18.4084C12.0568 18.4084 13.2249 18.8899 14.1892 19.8528C15.1535 20.8132 15.6356 21.9806 15.6356 23.3551C15.6356 23.5227 15.629 23.6519 15.6158 23.7429C15.6026 23.8353 15.596 23.927 15.596 24.018L22.9528 26.5824C23.3841 25.75 24.0002 25.0232 24.8009 24.4019C25.6003 23.7805 26.5408 23.3795 27.6225 23.1988V15.3573C26.3614 15.1198 25.3674 14.5328 24.6406 13.5962C23.9138 12.6597 23.5504 11.6202 23.5504 10.4778C23.5504 9.11913 24.0312 7.95764 24.9928 6.99336C25.9545 6.02908 27.1219 5.54694 28.4951 5.54694C29.867 5.54694 31.0351 6.02842 31.9993 6.99138C32.9636 7.9517 33.4458 9.11913 33.4458 10.4937C33.4458 11.6255 33.0804 12.6597 32.3496 13.5962C31.6188 14.5328 30.6268 15.1198 29.3736 15.3573V23.1968C30.4553 23.3776 31.3899 23.7786 32.1774 24.3999C32.9649 25.0212 33.5869 25.748 34.0433 26.5804L41.3981 24.016C41.373 23.8986 41.3605 23.801 41.3605 23.7232V23.3551C41.3605 21.9806 41.8413 20.8132 42.803 19.8528C43.7633 18.8899 44.9301 18.4084 46.3033 18.4084C47.6752 18.4084 48.8433 18.8892 49.8075 19.8509C50.7718 20.8112 51.254 21.978 51.254 23.3512C51.254 24.7231 50.7725 25.8911 49.8095 26.8554C48.8505 27.8197 47.6831 28.3018 46.3072 28.3018C45.3759 28.3018 44.5251 28.067 43.7547 27.5974C42.983 27.1278 42.3842 26.5065 41.9581 25.7335L34.5637 28.1732C34.7365 29.1296 34.6923 30.0714 34.4312 30.9988C34.17 31.9248 33.6793 32.7638 32.959 33.5157L37.9849 39.7545C38.3476 39.5896 38.7394 39.4537 39.1602 39.3469C39.5823 39.2387 39.9853 39.1846 40.3692 39.1846C41.7437 39.1846 42.9125 39.6654 43.8754 40.6271C44.8371 41.5874 45.3179 42.7542 45.3179 44.1274C45.3179 45.4993 44.8377 46.6674 43.8774 47.6316C42.9158 48.5959 41.7483 49.0781 40.3751 49.0781C39.0032 49.0781 37.8352 48.5966 36.8709 47.6336C35.9066 46.6733 35.4245 45.5059 35.4245 44.1313C35.4245 43.543 35.5188 42.9765 35.7074 42.4317C35.8974 41.8882 36.2113 41.3816 36.6493 40.912L31.6234 34.5842C30.7277 35.1646 29.6909 35.4548 28.5129 35.4548C27.3336 35.4548 26.2836 35.1646 25.3628 34.5842L20.3488 40.912C20.7617 41.3816 21.0691 41.8882 21.2709 42.4317C21.4727 42.9765 21.5736 43.543 21.5736 44.1313C21.5736 45.5059 21.0935 46.6733 20.1332 47.6336C19.1715 48.5966 18.0041 49.0781 16.6309 49.0781ZM10.6909 26.3232C11.5048 26.3232 12.2032 26.0323 12.7863 25.4506C13.368 24.8675 13.6589 24.169 13.6589 23.3551C13.6589 22.5412 13.368 21.8427 12.7863 21.2597C12.2032 20.678 11.5048 20.3871 10.6909 20.3871C9.87696 20.3871 9.17848 20.678 8.59543 21.2597C8.0137 21.8427 7.72283 22.5412 7.72283 23.3551C7.72283 24.169 8.0137 24.8675 8.59543 25.4506C9.17848 26.0323 9.87696 26.3232 10.6909 26.3232ZM16.6269 47.0994C17.4408 47.0994 18.1393 46.8085 18.7224 46.2268C19.3041 45.6437 19.595 44.9452 19.595 44.1313C19.595 43.3174 19.3041 42.619 18.7224 42.0359C18.1393 41.4542 17.4408 41.1633 16.6269 41.1633C15.813 41.1633 15.1145 41.4542 14.5315 42.0359C13.9498 42.619 13.6589 43.3174 13.6589 44.1313C13.6589 44.9452 13.9498 45.6437 14.5315 46.2268C15.1145 46.8085 15.813 47.0994 16.6269 47.0994ZM28.499 13.4617C29.3129 13.4617 30.0114 13.1708 30.5945 12.5891C31.1762 12.006 31.4671 11.3076 31.4671 10.4937C31.4671 9.67976 31.1762 8.98128 30.5945 8.39822C30.0114 7.81649 29.3129 7.52562 28.499 7.52562C27.6851 7.52562 26.9867 7.81649 26.4036 8.39822C25.8219 8.98128 25.531 9.67976 25.531 10.4937C25.531 11.3076 25.8219 12.006 26.4036 12.5891C26.9867 13.1708 27.6851 13.4617 28.499 13.4617ZM28.499 33.4761C29.6559 33.4761 30.6426 33.0678 31.4592 32.2513C32.2757 31.4348 32.6846 30.4481 32.686 29.2912C32.686 28.1343 32.277 27.1476 31.4592 26.3311C30.6413 25.5145 29.6546 25.1056 28.499 25.1043C27.3422 25.1043 26.3555 25.5132 25.5389 26.3311C24.7224 27.1489 24.3135 28.1356 24.3121 29.2912C24.3121 30.4481 24.7211 31.4348 25.5389 32.2513C26.3568 33.0678 27.3435 33.4768 28.499 33.4781M40.3712 47.0994C41.1851 47.0994 41.8836 46.8085 42.4666 46.2268C43.0483 45.6437 43.3392 44.9452 43.3392 44.1313C43.3392 43.3174 43.0483 42.619 42.4666 42.0359C41.8836 41.4542 41.1851 41.1633 40.3712 41.1633C39.5573 41.1633 38.8588 41.4542 38.2757 42.0359C37.694 42.619 37.4031 43.3174 37.4031 44.1313C37.4031 44.9452 37.694 45.6437 38.2757 46.2268C38.8588 46.8085 39.5573 47.0994 40.3712 47.0994ZM46.3072 26.3232C47.1211 26.3232 47.8196 26.0323 48.4027 25.4506C48.9844 24.8675 49.2753 24.169 49.2753 23.3551C49.2753 22.5412 48.9844 21.8427 48.4027 21.2597C47.8196 20.678 47.1211 20.3871 46.3072 20.3871C45.4933 20.3871 44.7949 20.678 44.2118 21.2597C43.6301 21.8427 43.3392 22.5412 43.3392 23.3551C43.3392 24.169 43.6301 24.8675 44.2118 25.4506C44.7949 26.0323 45.4933 26.3232 46.3072 26.3232Z" fill="black"/>
</svg>
