<svg width="58" height="57" viewBox="0 0 58 57" fill="none" xmlns="http://www.w3.org/2000/svg">
<path d="M28.8633 47.5C26.2286 47.5 23.7594 47.0044 21.4557 46.0133C19.1519 45.0221 17.1395 43.666 15.4184 41.9449C13.6957 40.2222 12.3388 38.209 11.3477 35.9053C10.3581 33.6015 9.86328 31.1331 9.86328 28.5C9.86328 25.8669 10.3589 23.3985 11.35 21.0947C12.3412 18.791 13.6981 16.7778 15.4208 15.0551C17.1403 13.334 19.1511 11.9779 21.4533 10.9867C23.7586 9.99558 26.2278 9.5 28.8609 9.5C31.589 9.5 34.1872 10.0637 36.6557 11.191C39.1241 12.3167 41.2758 13.8874 43.1109 15.903V10.2315H45.4859V20.0972H35.6202V17.7222H41.5125C39.8595 15.9014 37.9516 14.4717 35.7888 13.433C33.6291 12.3943 31.3206 11.875 28.8633 11.875C24.2304 11.875 20.3014 13.4884 17.0762 16.7153C13.8509 19.9421 12.2375 23.8703 12.2359 28.5C12.2359 33.1313 13.8493 37.0603 17.0762 40.2871C20.303 43.514 24.2312 45.1266 28.8609 45.125C33.0172 45.125 36.6343 43.7713 39.7123 41.0638C42.7887 38.3563 44.6491 34.96 45.2935 30.875H47.697C47.1334 35.6582 45.0592 39.6245 41.4745 42.7738C37.8883 45.9246 33.6845 47.5 28.8633 47.5ZM36.3327 37.6532L27.6734 28.994V16.625H30.0484V28.006L38.0142 35.9718L36.3327 37.6532Z" fill="black"/>
</svg>
