<svg width="58" height="57" viewBox="0 0 58 57" fill="none" xmlns="http://www.w3.org/2000/svg">
<path d="M28.6582 49.7847C23.8876 48.3677 19.9237 45.4773 16.7666 41.1136C13.611 36.7484 12.0332 31.8313 12.0332 26.3625V13.5185L28.6582 7.30786L45.2832 13.5185V26.3625C45.2832 31.8313 43.7054 36.7476 40.5498 41.1112C37.3927 45.4765 33.4288 48.3677 28.6582 49.7847ZM28.6582 47.2625C32.4978 46.075 35.704 43.7301 38.277 40.2277C40.8499 36.7254 42.354 32.8162 42.7895 28.5H28.6582V9.84199L14.4082 15.1406V27.3861C14.4082 27.6933 14.4478 28.0646 14.527 28.5H28.6582V47.2625Z" fill="black"/>
</svg>
