<svg xmlns="http://www.w3.org/2000/svg" width="58" height="58" viewBox="0 0 58 58" fill="none">
    <path d="M46.2369 30.0268C45.9582 29.7085 45.6645 29.3895 45.3557 29.0697C45.5711 28.8417 45.7801 28.6145 45.9827 28.388C49.7946 24.1035 51.4049 19.8048 49.9134 17.2232C48.4836 14.746 44.23 14.0074 38.9029 15.0429C38.3788 15.1458 37.8571 15.2614 37.3377 15.3897C37.238 15.0477 37.1327 14.7072 37.0219 14.3684C35.2145 8.92254 32.2956 5.38142 29.3126 5.38379C26.4531 5.38379 23.6886 8.70167 21.924 13.834C21.7498 14.3407 21.5891 14.8505 21.4419 15.3635C21.0951 15.278 20.7468 15.1989 20.3969 15.126C14.7776 13.9742 10.2532 14.7342 8.76411 17.3205C7.33674 19.7977 8.82824 23.8518 12.3931 27.9415C12.7478 28.3453 13.1119 28.7411 13.4856 29.129C13.0439 29.5803 12.6282 30.0339 12.2387 30.4852C8.75936 34.5179 7.35336 38.5032 8.77836 40.9708C10.2509 43.5215 14.7111 44.3552 20.1427 43.2864C20.5829 43.1993 21.0207 43.1012 21.4561 42.9919C21.6144 43.5477 21.7894 44.0995 21.981 44.6473C23.7385 49.6752 26.4864 52.8838 29.3364 52.8838C32.2814 52.8838 35.2311 49.4329 37.0195 44.1937C37.162 43.7804 37.2926 43.3505 37.4209 42.9088C37.9829 43.0481 38.549 43.1716 39.119 43.2793C44.3511 44.2697 48.505 43.493 49.9276 41.023C51.3977 38.4699 49.8801 34.1902 46.2369 30.0268ZM10.5216 18.3323C11.4384 16.741 15.1362 16.1188 19.9884 17.1163C20.2987 17.1796 20.6146 17.2509 20.936 17.33C20.4617 19.4256 20.1269 21.5504 19.9337 23.6903C18.184 24.9207 16.5156 26.263 14.9391 27.7088C14.5924 27.3494 14.2543 26.9813 13.925 26.6044C10.8684 23.1037 9.66186 19.8262 10.5216 18.3323ZM19.7532 31.9363C18.542 31.0172 17.4139 30.0767 16.3902 29.1314C17.4115 28.1909 18.5396 27.2552 19.7509 26.3384C19.7065 27.271 19.6852 28.2044 19.6867 29.1385C19.6867 30.0727 19.7089 31.0053 19.7532 31.9363ZM19.7532 41.2938C17.6946 41.7523 15.5692 41.8279 13.4832 41.517C12.9114 41.4723 12.3548 41.3108 11.8478 41.0424C11.3408 40.774 10.8943 40.4045 10.5359 39.9567C9.66899 38.4604 10.7995 35.2589 13.7754 31.8104C14.149 31.3782 14.5354 30.957 14.9344 30.5469C16.5116 32.0016 18.1833 33.3504 19.9385 34.5844C20.1335 36.7514 20.4715 38.903 20.9502 41.0254C20.5544 41.1252 20.1546 41.2154 19.7509 41.2962L19.7532 41.2938ZM36.6157 22.2012C35.8193 21.6992 35.0134 21.214 34.198 20.7453C33.3937 20.283 32.5806 19.8372 31.7589 19.4082C33.1098 18.8376 34.4882 18.3343 35.889 17.9C36.2034 19.3206 36.446 20.7562 36.6157 22.2012ZM23.8454 14.4919C25.3559 10.0982 27.5931 7.41442 29.3174 7.41442C31.1532 7.41204 33.5377 10.3072 35.0981 15.0073C35.1994 15.3145 35.2944 15.6232 35.3831 15.9335C33.3348 16.5684 31.3306 17.338 29.3839 18.2373C27.4435 17.3269 25.444 16.5485 23.3989 15.9074C23.5366 15.4324 23.6854 14.9606 23.8454 14.4919ZM22.8954 17.8739C24.2897 18.3128 25.661 18.8217 27.0041 19.3987C25.3384 20.2568 23.7171 21.1918 22.1401 22.2035C22.3301 20.6883 22.5842 19.2372 22.8954 17.8739ZM22.1425 36.0664C22.9294 36.5715 23.7282 37.0568 24.5389 37.5223C25.3654 37.9973 26.2022 38.4533 27.0492 38.8903C25.6965 39.4873 24.314 40.0144 22.9072 40.4697C22.5804 39.0161 22.3251 37.5474 22.1425 36.0688V36.0664ZM35.1005 43.5382C34.4686 45.5499 33.4719 47.4281 32.1602 49.079C31.8364 49.5523 31.4189 49.9541 30.9336 50.2597C30.4483 50.5653 29.9055 50.768 29.3387 50.8555C27.6074 50.8555 25.401 48.2787 23.9 43.9775C23.7227 43.4693 23.5596 42.9563 23.4107 42.4385C25.4656 41.7757 27.4731 40.9743 29.4195 40.0398C31.3828 40.9464 33.4035 41.7231 35.4686 42.3649C35.3546 42.7592 35.2319 43.1502 35.1005 43.5382ZM35.9602 40.3937C34.5412 39.9505 33.1447 39.4385 31.7755 38.8594C32.5814 38.4367 33.3929 37.9894 34.2099 37.5175C35.049 37.033 35.866 36.5367 36.6609 36.0284C36.5021 37.4945 36.2683 38.9515 35.9602 40.3937ZM37.0219 29.129C37.0219 30.5715 36.9767 32.0123 36.8865 33.4515C35.7156 34.2448 34.4806 35.019 33.1957 35.76C31.9132 36.4987 30.6474 37.1779 29.4029 37.793C28.0934 37.166 26.8094 36.49 25.5506 35.7648C24.2998 35.0444 23.0774 34.2773 21.8836 33.4634C21.7728 32.0226 21.7174 30.5802 21.7174 29.1362C21.7174 27.6938 21.7712 26.2521 21.8789 24.8113C24.2663 23.1813 26.7736 21.7339 29.3791 20.4817C30.6711 21.1102 31.9402 21.784 33.1862 22.5028C34.4371 23.2216 35.6642 23.9808 36.8675 24.7804C36.9704 26.2276 37.0219 27.6771 37.0219 29.129ZM39.2924 17.0332C43.8571 16.1473 47.2961 16.7434 48.1582 18.2373C49.0774 19.8285 47.7616 23.3388 44.4675 27.039C44.2854 27.2433 44.097 27.4483 43.9022 27.6542C42.2979 26.2038 40.5966 24.8644 38.8102 23.6452C38.6303 21.5289 38.309 19.4271 37.8484 17.3538C38.3392 17.2335 38.8205 17.1266 39.2924 17.0332ZM38.9836 26.26C40.1891 27.1398 41.348 28.0816 42.4559 29.0815C41.3532 30.0975 40.1981 31.0551 38.9955 31.9505C39.0319 31.01 39.0501 30.0695 39.0501 29.129C39.0501 28.1727 39.0279 27.2164 38.9836 26.26ZM48.1725 40.0089C47.308 41.5075 43.9735 42.1322 39.4966 41.2867C38.9836 41.1901 38.4579 41.0745 37.9196 40.9399C38.3691 38.8398 38.6762 36.7117 38.8387 34.5702C40.6219 33.3304 42.3177 31.9695 43.9141 30.497C44.1944 30.7868 44.4604 31.075 44.7121 31.3615C46.1396 32.9138 47.2691 34.7156 48.0442 36.6768C48.2923 37.1939 48.4317 37.7564 48.4537 38.3296C48.4758 38.9027 48.3801 39.4743 48.1725 40.0089ZM27.2274 25.424C26.5009 25.8435 25.9151 26.469 25.5441 27.2214C25.1731 27.9738 25.0335 28.8193 25.143 29.651C25.2525 30.4827 25.6061 31.2633 26.1592 31.894C26.7123 32.5248 27.44 32.9773 28.2503 33.1945C29.0606 33.4117 29.9171 33.3837 30.7115 33.1142C31.5059 32.8446 32.2025 32.3455 32.7133 31.6801C33.2241 31.0146 33.526 30.2127 33.5811 29.3756C33.6361 28.5385 33.4417 27.7039 33.0224 26.9773C32.7439 26.4947 32.3731 26.0718 31.9312 25.7326C31.4892 25.3933 30.9847 25.1445 30.4466 25.0003C29.9085 24.856 29.3472 24.8192 28.7948 24.8919C28.2425 24.9646 27.7098 25.1454 27.2274 25.424Z" fill="black"/>
  </svg>