<svg width="58" height="57" viewBox="0 0 58 57" fill="none" xmlns="http://www.w3.org/2000/svg">
<path d="M34.6992 13.3978C34.6992 15.0003 35.3358 16.5372 36.4689 17.6703C37.6021 18.8034 39.1389 19.44 40.7414 19.44C42.3439 19.44 43.8807 18.8034 45.0139 17.6703C46.147 16.5372 46.7836 15.0003 46.7836 13.3978C46.7836 11.7954 46.147 10.2585 45.0139 9.12537C43.8807 7.99224 42.3439 7.35565 40.7414 7.35565C39.1389 7.35565 37.6021 7.99224 36.4689 9.12537C35.3358 10.2585 34.6992 11.7954 34.6992 13.3978Z" stroke="black" strokeWidth="2" strokeLinecap="round" strokeLinejoin="round"/>
<path d="M49.8057 34.5463V31.5252C49.8057 26.5195 45.748 22.4617 40.7424 22.4617C37.329 22.4617 34.3563 24.3485 32.8105 27.1361" stroke="black" strokeWidth="2" strokeLinecap="round" strokeLinejoin="round"/>
<path d="M10.5312 13.3978C10.5312 15.0003 11.1678 16.5372 12.301 17.6703C13.4341 18.8034 14.9709 19.44 16.5734 19.44C18.1759 19.44 19.7128 18.8034 20.8459 17.6703C21.979 16.5372 22.6156 15.0003 22.6156 13.3978C22.6156 11.7954 21.979 10.2585 20.8459 9.12537C19.7128 7.99224 18.1759 7.35565 16.5734 7.35565C14.9709 7.35565 13.4341 7.99224 12.301 9.12537C11.1678 10.2585 10.5313 11.7954 10.5312 13.3978Z" stroke="black" strokeWidth="2" strokeLinecap="round" strokeLinejoin="round"/>
<path d="M7.50977 34.5463V31.5252C7.50977 26.5195 11.5676 22.4617 16.5732 22.4617C19.9866 22.4617 22.9592 24.3485 24.505 27.1361" stroke="black" strokeWidth="2" strokeLinecap="round" strokeLinejoin="round"/>
<path d="M22.6191 31.5177C22.6191 32.3112 22.7754 33.0969 23.0791 33.83C23.3827 34.563 23.8278 35.2291 24.3889 35.7902C24.9499 36.3513 25.616 36.7963 26.3491 37.1C27.0822 37.4036 27.8679 37.5599 28.6613 37.5599C29.4548 37.5599 30.2405 37.4036 30.9736 37.1C31.7066 36.7963 32.3727 36.3513 32.9338 35.7902C33.4949 35.2291 33.9399 34.563 34.2436 33.83C34.5472 33.0969 34.7035 32.3112 34.7035 31.5177C34.7035 30.7242 34.5472 29.9385 34.2436 29.2055C33.9399 28.4724 33.4949 27.8063 32.9338 27.2452C32.3727 26.6842 31.7066 26.2391 30.9736 25.9355C30.2405 25.6318 29.4548 25.4755 28.6613 25.4755C27.8679 25.4755 27.0822 25.6318 26.3491 25.9355C25.616 26.2391 24.9499 26.6842 24.3889 27.2452C23.8278 27.8063 23.3827 28.4724 23.0791 29.2055C22.7754 29.9385 22.6191 30.7242 22.6191 31.5177Z" stroke="black" strokeWidth="2" strokeLinecap="round" strokeLinejoin="round"/>
<path d="M37.7246 49.6439C37.7246 44.6383 33.6667 40.5806 28.6611 40.5806C23.6555 40.5806 19.5977 44.6383 19.5977 49.6439" stroke="black" strokeWidth="2" strokeLinecap="round" strokeLinejoin="round"/>
</svg>
