<svg width="57" height="57" viewBox="0 0 57 57" fill="none" xmlns="http://www.w3.org/2000/svg">
<path d="M47.4994 20.3571V9.5M47.4994 9.5H36.6423M47.4994 9.5L25.7852 31.2143M25.7852 20.3571V31.2143M25.7852 31.2143H36.6423" stroke="black" strokeWidth="2" strokeLinecap="round" strokeLinejoin="round"/>
<path d="M31.2143 9.5H14.9286C13.4888 9.5 12.108 10.0719 11.09 11.09C10.0719 12.108 9.5 13.4888 9.5 14.9286V42.0714C9.5 43.5112 10.0719 44.892 11.09 45.91C12.108 46.9281 13.4888 47.5 14.9286 47.5H42.0714C43.5112 47.5 44.892 46.9281 45.91 45.91C46.9281 44.892 47.5 43.5112 47.5 42.0714V25.7857" stroke="black" strokeWidth="2" strokeLinecap="round" strokeLinejoin="round"/>
</svg>
