<svg width="48" height="48" viewBox="0 0 48 48" fill="none" xmlns="http://www.w3.org/2000/svg">
<path d="M41.4639 45.8414V36.3212C41.4639 31.5461 37.5929 27.6752 32.818 27.6752H25.3086V13.6446C25.3086 11.4137 23.5001 9.60516 21.2692 9.60516C19.0382 9.60516 17.2297 11.4137 17.2297 13.6446L17.2297 32.0367L15.8826 32.2902C11.7868 33.061 9.83772 37.79 12.2008 41.2228L12.7441 42.0121L15.3768 45.8414" stroke="black" strokeWidth="2.06329" strokeLinecap="round" strokeLinejoin="round"/>
<path d="M9.52818 17.0523C9.32193 16.1657 9.21289 15.2417 9.21289 14.2923C9.21289 7.59107 14.6453 2.15862 21.3466 2.15862C28.0479 2.15862 33.4803 7.59107 33.4803 14.2923C33.4803 15.2417 33.3712 16.1657 33.165 17.0523" stroke="black" strokeWidth="2.06329" strokeLinecap="round" strokeLinejoin="round"/>
</svg>
