<svg width="58" height="57" viewBox="0 0 58 57" fill="none" xmlns="http://www.w3.org/2000/svg">
<path d="M55.2823 27.9589C55.2066 27.7853 53.3541 23.6773 49.2172 19.5403C45.3786 15.7062 38.7835 11.1328 29.1247 11.1328C19.4658 11.1328 12.8708 15.7062 9.03217 19.5403C4.89522 23.6773 3.04272 27.7786 2.96702 27.9589C2.8909 28.13 2.85156 28.315 2.85156 28.5022C2.85156 28.6894 2.8909 28.8745 2.96702 29.0455C3.04272 29.217 4.89522 33.325 9.03217 37.4619C12.8708 41.2961 19.4658 45.8672 29.1247 45.8672C38.7835 45.8672 45.3786 41.2961 49.2172 37.4619C53.3541 33.325 55.2066 29.2236 55.2823 29.0455C55.3585 28.8745 55.3978 28.6894 55.3978 28.5022C55.3978 28.315 55.3585 28.13 55.2823 27.9589ZM29.1247 43.1953C22.1377 43.1953 16.0369 40.6526 10.9893 35.6406C8.87337 33.5377 7.08282 31.131 5.67675 28.5C7.08241 25.8694 8.87302 23.4634 10.9893 21.3616C16.0369 16.3474 22.1377 13.8047 29.1247 13.8047C36.1116 13.8047 42.2124 16.3474 47.26 21.3616C49.3763 23.4634 51.1669 25.8694 52.5726 28.5C51.1543 31.2186 44.0426 43.1953 29.1247 43.1953ZM29.1247 18.2578C27.099 18.2578 25.1187 18.8585 23.4344 19.9839C21.7501 21.1094 20.4373 22.709 19.6621 24.5805C18.8869 26.452 18.6841 28.5114 19.0793 30.4982C19.4745 32.4849 20.45 34.3099 21.8824 35.7423C23.3148 37.1747 25.1397 38.1502 27.1265 38.5454C29.1133 38.9406 31.1727 38.7378 33.0442 37.9625C34.9157 37.1873 36.5153 35.8746 37.6407 34.1903C38.7662 32.5059 39.3669 30.5257 39.3669 28.5C39.3633 25.7847 38.2831 23.1816 36.3631 21.2616C34.4431 19.3416 31.84 18.2613 29.1247 18.2578ZM29.1247 36.0703C27.6274 36.0703 26.1638 35.6263 24.9188 34.7945C23.6739 33.9627 22.7036 32.7803 22.1306 31.397C21.5576 30.0137 21.4077 28.4916 21.6998 27.0231C21.9919 25.5546 22.7129 24.2057 23.7717 23.147C24.8304 22.0883 26.1793 21.3673 27.6478 21.0751C29.1163 20.783 30.6384 20.933 32.0217 21.5059C33.405 22.0789 34.5873 23.0492 35.4192 24.2942C36.251 25.5391 36.695 27.0027 36.695 28.5C36.695 30.5078 35.8974 32.4333 34.4777 33.853C33.058 35.2727 31.1324 36.0703 29.1247 36.0703Z" fill="black"/>
</svg>
