<svg width="58" height="58" viewBox="0 0 58 58" fill="none" xmlns="http://www.w3.org/2000/svg">
<path d="M29.3027 5.89902C24.8109 5.89902 20.42 7.23099 16.6852 9.7265C12.9504 12.222 10.0395 15.769 8.32057 19.9189C6.60164 24.0687 6.15188 28.6351 7.02819 33.0406C7.9045 37.4461 10.0675 41.4928 13.2437 44.669C16.4199 47.8452 20.4666 50.0082 24.8721 50.8845C29.2775 51.7608 33.844 51.3111 37.9938 49.5921C42.1437 47.8732 45.6907 44.9623 48.1862 41.2275C50.6817 37.4927 52.0137 33.1018 52.0137 28.61C52.0066 22.5888 49.6116 16.8163 45.354 12.5587C41.0964 8.30111 35.3239 5.90609 29.3027 5.89902ZM47.4648 20.149H38.5185C37.5449 16.1109 35.7693 12.3098 33.2972 8.97167C36.3662 9.60235 39.2454 10.9414 41.7051 12.882C44.1649 14.8226 46.1372 17.3111 47.4648 20.149ZM49.3418 28.61C49.3433 30.571 49.056 32.5217 48.489 34.399H39.0684C39.7038 30.5658 39.7038 26.6541 39.0684 22.8209H48.489C49.056 24.6982 49.3433 26.6489 49.3418 28.61ZM29.3027 48.649C29.2472 48.6493 29.1923 48.6378 29.1416 48.6151C29.0909 48.5924 29.0456 48.5592 29.0088 48.5177C26.141 45.4294 24.0347 41.4639 22.8457 37.0709H35.7598C34.5708 41.4639 32.4645 45.4294 29.5967 48.5177C29.5599 48.5592 29.5146 48.5924 29.4639 48.6151C29.4132 48.6378 29.3583 48.6493 29.3027 48.649ZM22.2468 34.399C21.561 30.5701 21.561 26.6498 22.2468 22.8209H36.3587C37.0445 26.6498 37.0445 30.5701 36.3587 34.399H22.2468ZM9.26368 28.61C9.26218 26.6489 9.54952 24.6982 10.1165 22.8209H19.537C18.9017 26.6541 18.9017 30.5658 19.537 34.399H10.1165C9.54952 32.5217 9.26218 30.571 9.26368 28.61ZM29.3027 8.57089C29.3583 8.57059 29.4132 8.58215 29.4639 8.6048C29.5146 8.62746 29.5599 8.66069 29.5967 8.70226C32.4645 11.7905 34.5708 15.756 35.7598 20.149H22.8457C24.0347 15.756 26.141 11.7905 29.0088 8.70226C29.0456 8.66069 29.0909 8.62746 29.1416 8.6048C29.1923 8.58215 29.2472 8.57059 29.3027 8.57089ZM25.3083 8.97167C22.8362 12.3098 21.0606 16.1109 20.087 20.149H11.1407C12.4683 17.3111 14.4406 14.8226 16.9004 12.882C19.3601 10.9414 22.2393 9.60235 25.3083 8.97167ZM11.1407 37.0709H20.087C21.0606 41.109 22.8362 44.9101 25.3083 48.2482C22.2393 47.6176 19.3601 46.2785 16.9004 44.3379C14.4406 42.3973 12.4683 39.9088 11.1407 37.0709ZM33.2972 48.2482C35.7693 44.9101 37.5449 41.109 38.5185 37.0709H47.4648C46.1372 39.9088 44.1649 42.3973 41.7051 44.3379C39.2454 46.2785 36.3662 47.6176 33.2972 48.2482Z" fill="black"/>
</svg>
