<svg width="58" height="57" viewBox="0 0 58 57" fill="none" xmlns="http://www.w3.org/2000/svg">
<path d="M28.8496 48.7356V32.4234C28.8496 31.3933 29.2588 30.4055 29.9872 29.6771C30.7155 28.9488 31.7034 28.5396 32.7335 28.5396C33.7635 28.5396 34.7514 28.9488 35.4797 29.6771C36.2081 30.4055 36.6173 31.3933 36.6173 32.4234V40.9679H42.8315C44.4795 40.9679 46.06 41.6225 47.2255 42.788C48.391 43.9535 49.0456 45.534 49.0456 47.182V48.7356" stroke="black" strokeWidth="2.5" strokeLinecap="round" strokeLinejoin="round"/>
<path d="M26.543 16.4068C22.67 12.1449 17.4729 9.31358 11.7917 8.3707C11.4052 8.31595 11.0114 8.34408 10.6366 8.45322C10.2617 8.56235 9.91435 8.74999 9.61758 9.00368C9.3155 9.26206 9.07297 9.58282 8.90669 9.9439C8.74041 10.3049 8.65432 10.6978 8.65435 11.0953V33.2497C8.65022 33.93 8.89826 34.5878 9.35059 35.096C9.80292 35.6043 10.4275 35.9269 11.1037 36.0017C15.541 36.6036 19.7136 38.3595 23.2212 41.0589" stroke="black" strokeWidth="2.5" strokeLinecap="round" strokeLinejoin="round"/>
<path d="M26.5449 24.9924V16.407" stroke="black" strokeWidth="2.5" strokeLinecap="round" strokeLinejoin="round"/>
<path d="M41.9823 36.0018C42.6584 35.9269 43.2829 35.6043 43.7353 35.096C44.1877 34.5878 44.4357 33.93 44.4316 33.2497V11.0953C44.4316 10.6978 44.3456 10.3049 44.1793 9.9439C44.0131 9.58282 43.7704 9.26206 43.4684 9.00368C43.1717 8.74999 42.8243 8.56235 42.4493 8.45322C42.0746 8.34408 41.6809 8.31595 41.2941 8.3707C35.6131 9.31358 30.416 12.1449 26.543 16.4068" stroke="black" strokeWidth="2.5" strokeLinecap="round" strokeLinejoin="round"/>
</svg>
