<svg width="58" height="57" viewBox="0 0 58 57" fill="none" xmlns="http://www.w3.org/2000/svg">
<path d="M42.6422 11.1329C41.5367 11.1317 40.4543 11.4494 39.525 12.048V9.79697C39.5251 8.36833 38.997 6.9901 38.0422 5.92739C37.0874 4.86467 35.7733 4.19255 34.3528 4.0403C32.9323 3.88806 31.5057 4.26644 30.3474 5.10267C29.1891 5.93891 28.3808 7.17392 28.0782 8.57013C27.2079 7.98011 26.1934 7.63826 25.1435 7.58126C24.0936 7.52426 23.048 7.75427 22.1189 8.24661C21.1899 8.73894 20.4125 9.47501 19.8701 10.3758C19.3278 11.2766 19.041 12.308 19.0406 13.3595V29.1681L17.364 26.4739C16.6002 25.142 15.3385 24.1681 13.8566 23.7664C12.3747 23.3647 10.7939 23.5681 9.46193 24.332C8.13001 25.0958 7.15608 26.3575 6.75438 27.8394C6.35269 29.3213 6.55614 30.9021 7.31998 32.234C14.3114 46.9806 18.2635 52.9923 29.2828 52.9923C34.3595 52.9864 39.2265 50.9671 42.8163 47.3773C46.406 43.7876 48.4253 38.9205 48.4312 33.8438V16.922C48.4312 16.1617 48.2815 15.409 47.9906 14.7066C47.6996 14.0042 47.2732 13.366 46.7357 12.8285C46.1981 12.2909 45.5599 11.8645 44.8575 11.5736C44.1552 11.2826 43.4024 11.1329 42.6422 11.1329ZM45.7594 33.8438C45.7541 38.2121 44.0164 42.3999 40.9276 45.4887C37.8388 48.5775 33.651 50.3151 29.2828 50.3204C24.607 50.3204 21.5989 49.196 18.8736 46.4351C15.8811 43.4181 13.1491 38.297 9.71131 31.0451L9.6601 30.9493C9.24673 30.2333 9.13473 29.3824 9.34873 28.5838C9.56273 27.7852 10.0852 27.1044 10.8012 26.691C11.5172 26.2776 12.3681 26.1656 13.1667 26.3796C13.9653 26.5936 14.6461 27.1161 15.0595 27.8321L15.0818 27.87L19.241 34.5497C19.3941 34.7968 19.6237 34.9872 19.8948 35.092C20.166 35.1968 20.4639 35.2103 20.7434 35.1305C21.0229 35.0507 21.2688 34.8819 21.4437 34.6497C21.6186 34.4174 21.7129 34.1345 21.7125 33.8438V13.3595C21.7125 12.5327 22.0409 11.7399 22.6255 11.1553C23.2101 10.5707 24.0029 10.2423 24.8297 10.2423C25.6564 10.2423 26.4493 10.5707 27.0339 11.1553C27.6184 11.7399 27.9469 12.5327 27.9469 13.3595V26.7188C27.9469 27.0732 28.0876 27.413 28.3381 27.6635C28.5887 27.914 28.9285 28.0548 29.2828 28.0548C29.6371 28.0548 29.9769 27.914 30.2274 27.6635C30.478 27.413 30.6187 27.0732 30.6187 26.7188V9.79697C30.6187 8.97024 30.9471 8.17737 31.5317 7.59279C32.1163 7.0082 32.9092 6.67978 33.7359 6.67978C34.5626 6.67978 35.3555 7.0082 35.9401 7.59279C36.5247 8.17737 36.8531 8.97024 36.8531 9.79697V26.7188C36.8531 27.0732 36.9939 27.413 37.2444 27.6635C37.4949 27.914 37.8347 28.0548 38.189 28.0548C38.5434 28.0548 38.8832 27.914 39.1337 27.6635C39.3842 27.413 39.525 27.0732 39.525 26.7188V16.922C39.525 16.0952 39.8534 15.3024 40.438 14.7178C41.0226 14.1332 41.8154 13.8048 42.6422 13.8048C43.4689 13.8048 44.2618 14.1332 44.8463 14.7178C45.4309 15.3024 45.7594 16.0952 45.7594 16.922V33.8438Z" fill="black"/>
</svg>
