<svg width="58" height="57" viewBox="0 0 58 57" fill="none" xmlns="http://www.w3.org/2000/svg">
<path d="M26.2987 48.4166C26.2266 48.7058 26.06 48.9626 25.8252 49.1462C25.5903 49.3298 25.3009 49.4296 25.0028 49.4297C24.8932 49.4294 24.7841 49.4159 24.6777 49.3896L17.5527 47.6083C17.4046 47.5704 17.2639 47.508 17.1364 47.4235L11.7926 43.861C11.6464 43.7637 11.5208 43.6385 11.423 43.4926C11.3252 43.3467 11.2571 43.1829 11.2226 43.0107C11.1528 42.6629 11.2241 42.3016 11.4208 42.0063C11.6174 41.7111 11.9233 41.506 12.2711 41.4363C12.4434 41.4017 12.6207 41.4015 12.793 41.4355C12.9654 41.4695 13.1293 41.5371 13.2755 41.6345L18.4256 45.0678L25.3279 46.7934C25.4983 46.8361 25.6586 46.912 25.7997 47.0167C25.9408 47.1214 26.0598 47.2529 26.15 47.4036C26.2401 47.5544 26.2997 47.7215 26.3252 47.8953C26.3507 48.0691 26.3417 48.2463 26.2987 48.4166ZM55.8518 26.908C55.724 27.2964 55.5205 27.6555 55.2529 27.9647C54.9854 28.2739 54.6592 28.527 54.2932 28.7093L48.9495 31.3812L36.6344 43.6963C36.3837 43.9461 36.0442 44.0862 35.6903 44.0859C35.5807 44.0858 35.4716 44.0723 35.3652 44.0458L21.1152 40.4833C20.9551 40.4418 20.8041 40.3708 20.6699 40.2741L8.28133 31.4301L2.84184 28.7093C2.1026 28.3395 1.54049 27.6913 1.27911 26.9072C1.01773 26.123 1.07848 25.2672 1.44801 24.5278L6.98102 13.464C7.35079 12.7248 7.99901 12.1627 8.78316 11.9013C9.5673 11.6399 10.4232 11.7007 11.1625 12.0702L16.2302 14.604L28.1979 11.184C28.438 11.1153 28.6926 11.1153 28.9327 11.184L40.9005 14.604L45.9681 12.0702C46.7075 11.7007 47.5633 11.6399 48.3475 11.9013C49.1316 12.1627 49.7799 12.7248 50.1496 13.464L55.6826 24.5278C55.8666 24.8937 55.9762 25.2924 56.0053 25.701C56.0343 26.1095 55.9822 26.5197 55.8518 26.908ZM4.03751 26.3202L8.37485 28.5L14.3153 16.628L9.96684 14.4593C9.86113 14.4068 9.7389 14.3984 9.62701 14.436C9.51512 14.4736 9.42272 14.554 9.37012 14.6597L3.83711 25.7235C3.78534 25.8289 3.77734 25.9506 3.81485 26.0619C3.83225 26.1179 3.861 26.1698 3.89931 26.2142C3.93761 26.2586 3.98466 26.2947 4.03751 26.3202ZM42.5927 33.9528L35.7504 28.4733C31.52 32.1204 26.0471 32.6592 21.545 29.7825C21.1511 29.532 20.8185 29.1963 20.5717 28.8C20.3249 28.4038 20.1703 27.9572 20.1192 27.4932C20.0681 27.0292 20.1219 26.5597 20.2766 26.1193C20.4312 25.6789 20.6829 25.2788 21.0128 24.9486L31.1927 15.0716C31.3407 14.9288 31.5198 14.8221 31.7159 14.7599L28.5653 13.8581L17.0295 17.1445L10.6771 29.8582L22.0103 37.9517L35.2806 41.2693L42.5927 33.9528ZM46.5292 30.0163L40.208 17.3672H32.6689L22.892 26.8523C22.8487 26.8978 22.816 26.9524 22.7963 27.0121C22.7767 27.0718 22.7706 27.1351 22.7785 27.1975C22.7854 27.2655 22.8079 27.3309 22.8442 27.3889C22.8805 27.4468 22.9296 27.4956 22.9878 27.5314C25.9469 29.4218 30.5893 29.9517 34.7418 25.768C34.9742 25.5347 35.2845 25.3955 35.6133 25.377C35.942 25.3585 36.266 25.4621 36.5231 25.6678L44.4986 32.0625L46.5292 30.0163ZM53.2891 25.7235L47.7605 14.6597C47.7079 14.554 47.6155 14.4736 47.5036 14.436C47.3917 14.3984 47.2695 14.4068 47.1638 14.4593L42.8265 16.628L48.7558 28.5L53.0931 26.3313C53.146 26.3059 53.193 26.2698 53.2313 26.2253C53.2696 26.1809 53.2984 26.1291 53.3158 26.073C53.3359 26.0163 53.3443 25.9561 53.3405 25.896C53.3366 25.8359 53.3207 25.7772 53.2935 25.7235H53.2891Z" fill="black"/>
</svg>
