<svg width="58" height="58" viewBox="0 0 58 58" fill="none" xmlns="http://www.w3.org/2000/svg">
<path d="M29.3027 15.1953C27.6293 15.1953 25.9935 15.6915 24.6021 16.6212C23.2107 17.5509 22.1262 18.8724 21.4858 20.4184C20.8455 21.9644 20.6779 23.6656 21.0044 25.3069C21.3308 26.9482 22.1367 28.4558 23.3199 29.639C24.5032 30.8223 26.0108 31.6281 27.6521 31.9546C29.2933 32.2811 30.9946 32.1135 32.5406 31.4731C34.0866 30.8328 35.408 29.7483 36.3377 28.3569C37.2674 26.9655 37.7637 25.3297 37.7637 23.6563C37.7637 21.4123 36.8723 19.2602 35.2855 17.6735C33.6988 16.0867 31.5467 15.1953 29.3027 15.1953ZM29.3027 29.4453C28.1578 29.4453 27.0385 29.1058 26.0865 28.4697C25.1345 27.8336 24.3925 26.9294 23.9543 25.8716C23.5162 24.8138 23.4015 23.6498 23.6249 22.5269C23.8483 21.4039 24.3996 20.3724 25.2092 19.5628C26.0189 18.7532 27.0504 18.2018 28.1733 17.9784C29.2963 17.7551 30.4603 17.8697 31.5181 18.3079C32.5759 18.746 33.4801 19.488 34.1162 20.44C34.7523 21.392 35.0918 22.5113 35.0918 23.6563C35.0918 25.1916 34.4819 26.6641 33.3962 27.7497C32.3106 28.8354 30.8381 29.4453 29.3027 29.4453ZM29.3027 4.50781C24.2261 4.51371 19.359 6.53302 15.7693 10.1228C12.1795 13.7125 10.1602 18.5796 10.1543 23.6563C10.1543 30.5386 13.3472 37.8484 19.3879 44.7952C22.1143 47.9461 25.1828 50.7839 28.5368 53.2562C28.7613 53.4133 29.0287 53.4975 29.3027 53.4975C29.5768 53.4975 29.8442 53.4133 30.0687 53.2562C33.4226 50.7839 36.4912 47.9461 39.2176 44.7952C45.2583 37.8484 48.4512 30.5452 48.4512 23.6563C48.4453 18.5796 46.426 13.7125 42.8362 10.1228C39.2465 6.53302 34.3794 4.51371 29.3027 4.50781ZM29.3027 50.4886C25.9629 47.9102 12.8262 36.931 12.8262 23.6563C12.8262 19.2864 14.5621 15.0955 17.652 12.0056C20.742 8.91561 24.9329 7.17969 29.3027 7.17969C33.6726 7.17969 37.8635 8.91561 40.9534 12.0056C44.0434 15.0955 45.7793 19.2864 45.7793 23.6563C45.7793 36.931 32.6426 47.9102 29.3027 50.4886Z" fill="black"/>
</svg>
