<svg width="58" height="57" viewBox="0 0 58 57" fill="none" xmlns="http://www.w3.org/2000/svg">
<path d="M51.4636 13.3059L44.3386 6.18092C44.0881 5.93074 43.7486 5.79022 43.3945 5.79022C43.0405 5.79022 42.701 5.93074 42.4505 6.18092L21.0755 27.5559C20.8249 27.8062 20.6839 28.1458 20.6836 28.5V35.625C20.6836 35.9793 20.8243 36.3191 21.0749 36.5696C21.3254 36.8202 21.6652 36.9609 22.0195 36.9609H29.1445C29.4987 36.9606 29.8383 36.8197 30.0886 36.569L51.4636 15.194C51.7138 14.9436 51.8543 14.604 51.8543 14.25C51.8543 13.896 51.7138 13.5564 51.4636 13.3059ZM28.5901 34.289H23.3555V29.0544L38.0508 14.3591L43.2854 19.5937L28.5901 34.289ZM45.1758 17.7034L39.9411 12.4687L43.3945 9.01534L48.6292 14.25L45.1758 17.7034ZM50.0742 26.7187V46.3125C50.0742 47.1392 49.7458 47.9321 49.1612 48.5167C48.5766 49.1013 47.7838 49.4297 46.957 49.4297H11.332C10.5053 49.4297 9.71243 49.1013 9.12785 48.5167C8.54326 47.9321 8.21484 47.1392 8.21484 46.3125V10.6875C8.21484 9.86075 8.54326 9.06789 9.12785 8.4833C9.71243 7.89871 10.5053 7.5703 11.332 7.5703H30.9258C31.2801 7.5703 31.6199 7.71105 31.8704 7.96158C32.121 8.21212 32.2617 8.55192 32.2617 8.90623C32.2617 9.26055 32.121 9.60035 31.8704 9.85088C31.6199 10.1014 31.2801 10.2422 30.9258 10.2422H11.332C11.2139 10.2422 11.1007 10.2891 11.0171 10.3726C10.9336 10.4561 10.8867 10.5694 10.8867 10.6875V46.3125C10.8867 46.4306 10.9336 46.5439 11.0171 46.6274C11.1007 46.7109 11.2139 46.7578 11.332 46.7578H46.957C47.0751 46.7578 47.1884 46.7109 47.2719 46.6274C47.3554 46.5439 47.4023 46.4306 47.4023 46.3125V26.7187C47.4023 26.3644 47.5431 26.0246 47.7936 25.7741C48.0442 25.5235 48.384 25.3828 48.7383 25.3828C49.0926 25.3828 49.4324 25.5235 49.6829 25.7741C49.9335 26.0246 50.0742 26.3644 50.0742 26.7187Z" fill="black"/>
</svg>
