<svg width="58" height="57" viewBox="0 0 58 57" fill="none" xmlns="http://www.w3.org/2000/svg">
<path d="M6.75 28.5C6.75471 24.3678 8.39831 20.4062 11.3202 17.4843C14.2421 14.5624 18.2037 12.9188 22.3359 12.9141H47.6096L44.5481 9.85031C44.3121 9.59706 44.1837 9.26211 44.1898 8.91601C44.1959 8.56991 44.3361 8.23969 44.5809 7.99492C44.8256 7.75016 45.1558 7.60995 45.5019 7.60385C45.848 7.59774 46.183 7.72621 46.4363 7.96219L51.78 13.3059C52.0302 13.5564 52.1707 13.896 52.1707 14.25C52.1707 14.604 52.0302 14.9436 51.78 15.1941L46.4363 20.5378C46.183 20.7738 45.848 20.9023 45.5019 20.8962C45.1558 20.8901 44.8256 20.7498 44.5809 20.5051C44.3361 20.2603 44.1959 19.9301 44.1898 19.584C44.1837 19.2379 44.3121 18.9029 44.5481 18.6497L47.6096 15.5859H22.3359C18.9122 15.5901 15.6298 16.952 13.2089 19.3729C10.7879 21.7939 9.426 25.0762 9.42188 28.5C9.42188 28.8543 9.28113 29.1941 9.03059 29.4447C8.78005 29.6952 8.44025 29.8359 8.08594 29.8359C7.73162 29.8359 7.39182 29.6952 7.14129 29.4447C6.89075 29.1941 6.75 28.8543 6.75 28.5ZM50.8359 27.1641C50.4816 27.1641 50.1418 27.3048 49.8913 27.5554C49.6408 27.8059 49.5 28.1457 49.5 28.5C49.4959 31.9238 48.134 35.2061 45.713 37.6271C43.292 40.048 40.0097 41.4099 36.5859 41.4141H11.3122L14.3738 38.3503C14.6097 38.0971 14.7382 37.7621 14.7321 37.416C14.726 37.0699 14.5858 36.7397 14.341 36.4949C14.0962 36.2502 13.766 36.11 13.4199 36.1038C13.0738 36.0977 12.7389 36.2262 12.4856 36.4622L7.14188 41.8059C6.8917 42.0564 6.75118 42.396 6.75118 42.75C6.75118 43.104 6.8917 43.4436 7.14188 43.6941L12.4856 49.0378C12.7389 49.2738 13.0738 49.4023 13.4199 49.3962C13.766 49.3901 14.0962 49.2498 14.341 49.0051C14.5858 48.7603 14.726 48.4301 14.7321 48.084C14.7382 47.7379 14.6097 47.4029 14.3738 47.1497L11.3122 44.0859H36.5859C40.7181 44.0812 44.6797 42.4376 47.6017 39.5157C50.5236 36.5938 52.1672 32.6322 52.1719 28.5C52.1719 28.1457 52.0311 27.8059 51.7806 27.5554C51.5301 27.3048 51.1903 27.1641 50.8359 27.1641Z" fill="black"/>
</svg>
