<svg xmlns="http://www.w3.org/2000/svg" width="65" height="64" viewBox="0 0 65 64" fill="none">
    <path d="M53.0714 22.9992C53.097 19.3272 52.1389 15.7154 50.297 12.5387C48.4552 9.36199 45.7966 6.7362 42.5973 4.93392C39.398 3.13163 35.7746 2.21856 32.1032 2.28948C28.4319 2.3604 24.8464 3.41274 21.7191 5.33725C18.5918 7.26173 16.0366 9.98827 14.3188 13.2337C12.6011 16.4792 11.7833 20.1253 11.9505 23.7935C12.1176 27.4617 13.2636 31.0184 15.2694 34.0941C17.2753 37.1699 20.0678 39.6527 23.3572 41.2849V48.1421C23.3572 48.7483 23.598 49.3298 24.0267 49.7581C24.4553 50.1869 25.0367 50.4278 25.643 50.4278H39.3572C39.9634 50.4278 40.5448 50.1869 40.9735 49.7581C41.4021 49.3298 41.643 48.7483 41.643 48.1421V41.2849C45.06 39.6013 47.94 36.9981 49.9587 33.7679C51.9775 30.5377 53.0554 26.8083 53.0714 22.9992Z" stroke="#B7B7B7" strokeWidth="2" strokeLinecap="round" strokeLinejoin="round"/>
    <path d="M23.3571 61.7141H41.6429" stroke="#B7B7B7" strokeWidth="2" strokeLinecap="round" strokeLinejoin="round"/>
  </svg>