<svg xmlns="http://www.w3.org/2000/svg" width="65" height="64" viewBox="0 0 65 64" fill="none">
    <path d="M2.82013 2.28564H13.9843L17.9615 41.8285C18.1268 42.9186 18.6805 43.9122 19.5206 44.6262C20.3606 45.3403 21.4305 45.7266 22.5329 45.7142H51.3329C52.3299 45.7663 53.3165 45.4905 54.1416 44.9293C54.9672 44.3679 55.5862 43.5518 55.9043 42.6056L61.9843 24.3199C62.2111 23.6325 62.2714 22.901 62.1599 22.1857C62.0488 21.4704 61.769 20.7918 61.3443 20.2056C60.9018 19.5825 60.3098 19.0802 59.6232 18.7448C58.9366 18.4093 58.1763 18.2515 57.4129 18.2856H15.5843" stroke="#B7B7B7" strokeWidth="2" strokeLinecap="round" strokeLinejoin="round"/>
    <path d="M50.5558 61.7143C49.2936 61.7143 48.2701 60.6907 48.2701 59.4285C48.2701 58.1664 49.2936 57.1428 50.5558 57.1428C51.8179 57.1428 52.8415 58.1664 52.8415 59.4285C52.8415 60.6907 51.8179 61.7143 50.5558 61.7143Z" stroke="#B7B7B7" strokeWidth="2" strokeLinecap="round" strokeLinejoin="round"/>
    <path d="M20.8415 61.7143C19.5791 61.7143 18.5558 60.6907 18.5558 59.4285C18.5558 58.1664 19.5791 57.1428 20.8415 57.1428C22.1039 57.1428 23.1272 58.1664 23.1272 59.4285C23.1272 60.6907 22.1039 61.7143 20.8415 61.7143Z" stroke="#B7B7B7" strokeWidth="2" strokeLinecap="round" strokeLinejoin="round"/>
  </svg>