<svg xmlns="http://www.w3.org/2000/svg" width="65" height="64" viewBox="0 0 65 64" fill="none">
    <path d="M62.2143 31.7256C62.2189 31.0911 62.0908 30.4626 61.839 29.8802C61.5871 29.2978 61.2168 28.7742 60.7514 28.3428L32.5001 2.28564L4.24867 28.3428C3.78341 28.7742 3.41307 29.2978 3.16122 29.8802C2.90936 30.4626 2.78152 31.0911 2.78581 31.7256V57.1428C2.78581 58.3551 3.26744 59.5181 4.12475 60.3752C4.98206 61.2324 6.14484 61.7142 7.35722 61.7142H57.6428C58.8552 61.7142 60.0182 61.2324 60.8753 60.3752C61.7329 59.5181 62.2143 58.3551 62.2143 57.1428V31.7256Z" stroke="#B7B7B7" strokeWidth="2" strokeLinecap="round" strokeLinejoin="round"/>
    <path d="M33.6429 45.7188H47.3526C47.3526 45.7188 48.4954 45.7187 48.4954 46.8616V60.5713C48.4954 60.5713 48.4954 61.7142 47.3526 61.7142H33.6429C33.6429 61.7142 32.5 61.7142 32.5 60.5713V46.8616C32.5 46.8616 32.5 45.7188 33.6429 45.7188Z" stroke="#B7B7B7" strokeWidth="2" strokeLinecap="round" strokeLinejoin="round"/>
    <path d="M25.6429 29.7188H39.3526C39.3526 29.7188 40.4954 29.7187 40.4954 30.8616V44.5713C40.4954 44.5713 40.4954 45.7142 39.3526 45.7142H25.6429C25.6429 45.7142 24.5 45.7142 24.5 44.5713V30.8616C24.5 30.8616 24.5 29.7188 25.6429 29.7188Z" stroke="#B7B7B7" strokeWidth="2" strokeLinecap="round" strokeLinejoin="round"/>
    <path d="M17.6474 45.7188H31.3571C31.3571 45.7188 32.5 45.7187 32.5 46.8616V60.5713C32.5 60.5713 32.5 61.7142 31.3571 61.7142H17.6474C17.6474 61.7142 16.5046 61.7142 16.5046 60.5713V46.8616C16.5046 46.8616 16.5046 45.7188 17.6474 45.7188Z" stroke="#B7B7B7" strokeWidth="2" strokeLinecap="round" strokeLinejoin="round"/>
  </svg>