<svg xmlns="http://www.w3.org/2000/svg" width="65" height="64" viewBox="0 0 65 64" fill="none">
    <path d="M53.3679 22.9992C53.3935 19.3272 52.4353 15.7154 50.5935 12.5387C48.7517 9.36199 46.093 6.7362 42.8938 4.93392C39.6945 3.13163 36.071 2.21856 32.3997 2.28948C28.7283 2.3604 25.1429 3.41274 22.0156 5.33725C18.8882 7.26173 16.3331 9.98827 14.6153 13.2337C12.8975 16.4792 12.0797 20.1253 12.2469 23.7935C12.4141 27.4617 13.5601 31.0184 15.5659 34.0941C17.5717 37.1699 20.3643 39.6527 23.6537 41.2849V48.1421C23.6537 48.7483 23.8945 49.3298 24.3231 49.7581C24.7518 50.1869 25.3332 50.4278 25.9394 50.4278H39.6537C40.2599 50.4278 40.8412 50.1869 41.2699 49.7581C41.6986 49.3298 41.9394 48.7483 41.9394 48.1421V41.2849C45.3564 39.6013 48.2365 36.9981 50.2552 33.7679C52.2739 30.5377 53.3519 26.8083 53.3679 22.9992Z" stroke="#FFCD05" strokeWidth="2" strokeLinecap="round" strokeLinejoin="round"/>
    <path d="M23.6533 61.7144H41.939" stroke="#FFCD05" strokeWidth="2" strokeLinecap="round" strokeLinejoin="round"/>
  </svg>