<svg xmlns="http://www.w3.org/2000/svg" width="65" height="64" viewBox="0 0 65 64" fill="none">
    <path d="M3.11719 2.28564H14.2814L18.2585 41.8285C18.4238 42.9186 18.9775 43.9122 19.8176 44.6262C20.6577 45.3403 21.7275 45.7266 22.83 45.7142H51.63C52.627 45.7663 53.6135 45.4905 54.4387 44.9293C55.2643 44.3679 55.8832 43.5518 56.2014 42.6056L62.2814 24.3199C62.5081 23.6325 62.5685 22.901 62.4569 22.1857C62.3459 21.4704 62.0661 20.7918 61.6414 20.2056C61.1989 19.5825 60.6069 19.0802 59.9203 18.7448C59.2336 18.4093 58.4734 18.2515 57.71 18.2856H15.8814" stroke="#FFCD05" strokeWidth="2" strokeLinecap="round" strokeLinejoin="round"/>
    <path d="M50.8531 61.714C49.5909 61.714 48.5674 60.6905 48.5674 59.4283C48.5674 58.1661 49.5909 57.1426 50.8531 57.1426C52.1153 57.1426 53.1388 58.1661 53.1388 59.4283C53.1388 60.6905 52.1153 61.714 50.8531 61.714Z" stroke="#FFCD05" strokeWidth="2" strokeLinecap="round" strokeLinejoin="round"/>
    <path d="M21.1383 61.714C19.8759 61.714 18.8525 60.6905 18.8525 59.4283C18.8525 58.1661 19.8759 57.1426 21.1383 57.1426C22.4006 57.1426 23.424 58.1661 23.424 59.4283C23.424 60.6905 22.4006 61.714 21.1383 61.714Z" stroke="#FFCD05" strokeWidth="2" strokeLinecap="round" strokeLinejoin="round"/>
  </svg>