<svg xmlns="http://www.w3.org/2000/svg" width="65" height="64" viewBox="0 0 65 64" fill="none">
    <path d="M21.37 36.2803C19.0837 43.9955 16.7969 53.7126 16.7969 61.7144H48.7969C48.7969 53.8081 46.5646 44.2277 44.3058 36.558" stroke="#FFCD05" strokeWidth="2" strokeLinecap="round" strokeLinejoin="round"/>
    <path d="M32.7969 25.1433V2.28613H35.0826C40.1321 2.28613 44.2254 6.37953 44.2254 11.429V16.0004C44.2254 21.0499 40.1321 25.1433 35.0826 25.1433H32.7969Z" stroke="#FFCD05" strokeWidth="2" strokeLinecap="round" strokeLinejoin="round"/>
    <path d="M21.3682 38.8578V34.2864C21.3682 29.2369 25.4616 25.1436 30.511 25.1436H32.7967V48.0007H30.511C25.4616 48.0007 21.3682 43.9073 21.3682 38.8578Z" stroke="#FFCD05" strokeWidth="2" strokeLinecap="round" strokeLinejoin="round"/>
    <path d="M55.654 25.1436H32.7969V27.4293C32.7969 32.4787 36.8903 36.5721 41.9397 36.5721H46.5112C51.5608 36.5721 55.654 32.4787 55.654 27.4293V25.1436Z" stroke="#FFCD05" strokeWidth="2" strokeLinecap="round" strokeLinejoin="round"/>
    <path d="M32.7966 22.8577V25.1434H9.93945V22.8577C9.93945 17.8082 14.0328 13.7148 19.0823 13.7148H23.6537C28.7032 13.7148 32.7966 17.8082 32.7966 22.8577Z" stroke="#FFCD05" strokeWidth="2" strokeLinecap="round" strokeLinejoin="round"/>
  </svg>