<svg xmlns="http://www.w3.org/2000/svg" width="65" height="64" viewBox="0 0 65 64" fill="none">
    <path d="M62.5111 31.7256C62.5157 31.0911 62.3877 30.4626 62.1358 29.8802C61.8839 29.2978 61.5136 28.7742 61.0482 28.3428L32.7969 2.28564L4.54548 28.3428C4.08022 28.7742 3.70988 29.2978 3.45803 29.8802C3.20618 30.4626 3.07833 31.0911 3.08262 31.7256V57.1428C3.08262 58.3551 3.56426 59.5181 4.42156 60.3752C5.27887 61.2324 6.44165 61.7142 7.65404 61.7142H57.9397C59.152 61.7142 60.315 61.2324 61.1721 60.3752C62.0297 59.5181 62.5111 58.3551 62.5111 57.1428V31.7256Z" stroke="#FFCD05" strokeWidth="2" strokeLinecap="round" strokeLinejoin="round"/>
    <path d="M33.9397 45.7188H47.6494C47.6494 45.7188 48.7923 45.7187 48.7923 46.8616V60.5713C48.7923 60.5713 48.7923 61.7142 47.6494 61.7142H33.9397C33.9397 61.7142 32.7969 61.7142 32.7969 60.5713V46.8616C32.7969 46.8616 32.7969 45.7188 33.9397 45.7188Z" stroke="#FFCD05" strokeWidth="2" strokeLinecap="round" strokeLinejoin="round"/>
    <path d="M25.9397 29.7188H39.6494C39.6494 29.7188 40.7923 29.7187 40.7923 30.8616V44.5713C40.7923 44.5713 40.7923 45.7142 39.6494 45.7142H25.9397C25.9397 45.7142 24.7969 45.7142 24.7969 44.5713V30.8616C24.7969 30.8616 24.7969 29.7188 25.9397 29.7188Z" stroke="#FFCD05" strokeWidth="2" strokeLinecap="round" strokeLinejoin="round"/>
    <path d="M17.9441 45.7188H31.6538C31.6538 45.7188 32.7967 45.7187 32.7967 46.8616V60.5713C32.7967 60.5713 32.7967 61.7142 31.6538 61.7142H17.9441C17.9441 61.7142 16.8013 61.7142 16.8013 60.5713V46.8616C16.8013 46.8616 16.8013 45.7188 17.9441 45.7188Z" stroke="#FFCD05" strokeWidth="2" strokeLinecap="round" strokeLinejoin="round"/>
  </svg>