<svg xmlns="http://www.w3.org/2000/svg" width="65" height="64" viewBox="0 0 65 64" fill="none">
    <path d="M39.6543 25.1426H53.3686C55.7933 25.1426 58.1188 26.1058 59.8335 27.8205C61.5482 29.5351 62.5114 31.8606 62.5114 34.2854V52.5712H55.6543" stroke="#FFCD05" strokeWidth="2" strokeLinecap="round" strokeLinejoin="round"/>
    <path d="M7.65444 52.5714H3.08301V20.5714C3.08301 19.359 3.56464 18.1963 4.42195 17.3389C5.27926 16.4816 6.442 16 7.65444 16H35.083C36.2954 16 37.4582 16.4816 38.3155 17.3389C39.1728 18.1963 39.6544 19.359 39.6544 20.5714V52.5714" stroke="#FFCD05" strokeWidth="2" strokeLinecap="round" strokeLinejoin="round"/>
    <path d="M37.369 52.5713H25.9404" stroke="#FFCD05" strokeWidth="2" strokeLinecap="round" strokeLinejoin="round"/>
    <path d="M47.6543 61.7139C43.236 61.7139 39.6543 58.1322 39.6543 53.7139C39.6543 49.2956 43.236 45.7139 47.6543 45.7139C52.0726 45.7139 55.6543 49.2956 55.6543 53.7139C55.6543 58.1322 52.0726 61.7139 47.6543 61.7139Z" stroke="#FFCD05" strokeWidth="2" strokeLinecap="round" strokeLinejoin="round"/>
    <path d="M16.7969 61.7139C12.3786 61.7139 8.79688 58.1322 8.79688 53.7139C8.79688 49.2956 12.3786 45.7139 16.7969 45.7139C21.2152 45.7139 24.7969 49.2956 24.7969 53.7139C24.7969 58.1322 21.2152 61.7139 16.7969 61.7139Z" stroke="#FFCD05" strokeWidth="2" strokeLinecap="round" strokeLinejoin="round"/>
  </svg>