<svg width="58" height="58" viewBox="0 0 58 58" fill="none" xmlns="http://www.w3.org/2000/svg">
<g id="app-store" clipPath="url(#clip0_408_4460)">
<path id="Vector" d="M28.615 -0.0100098C12.8218 -0.0100098 -0.0100098 12.8213 -0.0100098 28.615C-0.0100098 44.4087 12.8213 57.2399 28.615 57.2399C44.4087 57.2399 57.2399 44.4087 57.2399 28.615C57.2399 12.8213 44.4087 -0.0100098 28.615 -0.0100098ZM28.615 2.59226C43.0029 2.59226 54.6377 14.2277 54.6377 28.615C54.6377 43.0023 43.0023 54.6377 28.615 54.6377C14.2277 54.6377 2.59226 43.0023 2.59226 28.615C2.59226 14.2277 14.2277 2.59226 28.615 2.59226Z" fill="black"/>
<path id="Vector_2" d="M24.6674 9.09935C24.4597 9.10633 24.2566 9.16297 24.0753 9.26453C23.9261 9.34792 23.7947 9.45989 23.6888 9.59405C23.5829 9.72821 23.5045 9.88192 23.458 10.0464C23.4115 10.2109 23.3978 10.3829 23.4179 10.5527C23.4379 10.7225 23.4912 10.8866 23.5747 11.0358L27.1222 17.371L20.0958 29.9168H14.3019C13.9568 29.9168 13.6259 30.0539 13.3819 30.2979C13.1379 30.5419 13.0008 30.8728 13.0008 31.2179C13.0008 31.563 13.1379 31.8939 13.3819 32.1379C13.6259 32.3819 13.9568 32.519 14.3019 32.519H18.6397L13.166 42.2923C13.0825 42.4415 13.0292 42.6056 13.0092 42.7754C12.9892 42.9451 13.0028 43.1172 13.0493 43.2817C13.0958 43.4462 13.1742 43.5999 13.2801 43.734C13.3861 43.8682 13.5174 43.9802 13.6666 44.0636C13.8157 44.1471 13.9799 44.2003 14.1496 44.2204C14.3194 44.2404 14.4914 44.2268 14.6559 44.1803C14.8204 44.1338 14.9741 44.0554 15.1083 43.9494C15.2425 43.8435 15.3544 43.7122 15.4378 43.5629L21.623 32.5189H35.605L41.7902 43.5629C41.8736 43.7122 41.9856 43.8435 42.1198 43.9494C42.2539 44.0553 42.4076 44.1338 42.5721 44.1803C42.7366 44.2268 42.9087 44.2404 43.0784 44.2204C43.2482 44.2003 43.4123 44.147 43.5615 44.0636C43.7107 43.9802 43.842 43.8682 43.9479 43.734C44.0539 43.5999 44.1323 43.4462 44.1788 43.2817C44.2253 43.1172 44.2389 42.9451 44.2189 42.7754C44.1989 42.6056 44.1456 42.4415 44.0621 42.2923L38.5883 32.519H42.9262C43.2713 32.519 43.6022 32.3819 43.8462 32.1379C44.0902 31.8939 44.2273 31.563 44.2273 31.2179C44.2273 30.8728 44.0902 30.5419 43.8462 30.2979C43.6022 30.0539 43.2713 29.9168 42.9262 29.9168H37.1322L30.1059 17.371L33.6534 11.0358C33.7369 10.8866 33.7902 10.7225 33.8102 10.5527C33.8302 10.3829 33.8166 10.2109 33.7701 10.0464C33.7236 9.88193 33.6451 9.72821 33.5392 9.59405C33.4333 9.45989 33.302 9.34792 33.1528 9.26453C32.9609 9.15733 32.7449 9.1005 32.5251 9.09935C32.2924 9.0979 32.0635 9.1589 31.8624 9.276C31.6613 9.39311 31.4952 9.56202 31.3816 9.76514L28.6142 14.7078L25.8468 9.76514C25.7303 9.55662 25.5587 9.3842 25.3507 9.26676C25.1427 9.14932 24.9061 9.0914 24.6674 9.09935ZM28.6139 20.0341L34.1486 29.9167H23.0792L28.6139 20.0341Z" fill="black"/>
</g>
<defs>
<clipPath id="clip0_408_4460">
<rect width="57.25" height="57.25" fill="white" transform="translate(-0.0100098 -0.0100098)"/>
</clipPath>
</defs>
</svg>
