<svg width="103" height="49" viewBox="0 0 103 49" fill="none" xmlns="http://www.w3.org/2000/svg">
<g id="cryengine-logo-vertical-black 1" clipPath="url(#clip0_452_708)">
<path id="Vector" fill-rule="evenodd" clip-rule="evenodd" d="M63.0935 35.6884C64.3674 35.6884 65.584 36.1265 66.5599 36.9278L66.6193 36.9773L65.9772 37.9988C65.1873 37.2769 64.1666 36.8798 63.0935 36.8798C60.7352 36.8798 58.8168 38.7985 58.8168 41.1561C58.8168 43.5144 60.7352 45.4333 63.0935 45.4333C65.2283 45.4333 67.0027 43.861 67.3198 41.8144L67.329 41.7522H63.6665L64.4108 40.5608H68.5614V41.1561C68.5614 44.171 66.1086 46.6246 63.0935 46.6246C60.0786 46.6246 57.6258 44.171 57.6258 41.1561C57.6258 38.1419 60.0786 35.6884 63.0935 35.6884ZM5.33026 35.6884C6.82216 35.6884 8.25297 36.3088 9.27745 37.3741L9.32919 37.4286L8.65626 38.4682C7.83961 37.4562 6.6376 36.8798 5.33026 36.8798C2.97211 36.8798 1.05357 38.7985 1.05357 41.1561C1.05357 43.5144 2.97211 45.4333 5.33026 45.4333C6.56449 45.4333 7.73247 44.903 8.54598 43.9767L8.59 43.9257L9.49736 44.6971C8.45575 45.9215 6.93685 46.6246 5.33026 46.6246C2.31532 46.6246 -0.137451 44.171 -0.137451 41.1561C-0.137451 38.1419 2.31532 35.6884 5.33026 35.6884ZM41.0825 45.5213V46.5719H33.6839V45.5213H41.0825ZM23.8185 35.7528L26.7897 40.6898C26.8946 40.8699 26.9547 41.0648 26.9847 41.1853C27.0263 41.0596 27.0683 40.8954 27.1701 40.7164L27.1946 40.6748L30.1507 35.7528H31.4262L24.7062 46.5719H23.5355L26.3166 42.0588L22.528 35.7528H23.8185ZM99.1159 45.5213V46.5719H91.7178V45.5213H99.1159ZM79.5137 35.7528L86.0109 44.7113C85.9542 44.4578 85.9248 44.3631 85.9213 44.1669L85.9209 44.1262V35.7528H87.091V46.5719H85.9807L79.4684 37.5836C79.511 37.7249 79.567 37.9192 79.5735 38.192L79.5741 38.2441V46.5719H78.4033V35.7528H79.5137ZM73.6674 35.7528V46.5719H72.4973V35.7528H73.6674ZM46.1842 35.7528L52.6814 44.7113C52.6251 44.4578 52.5953 44.3631 52.5918 44.1669L52.5914 44.1262V35.7528H53.762V46.5719H52.6516L46.1394 37.5836C46.1815 37.7249 46.2373 37.9192 46.2437 38.192L46.2443 38.2441V46.5719H45.0738V35.7528H46.1842ZM15.8157 35.7528C18.562 35.7528 19.6571 37.0433 19.6571 38.9039C19.6571 40.4626 18.8645 41.5659 16.9886 41.9383L16.9263 41.9503L19.9422 46.5719H18.5017L15.6521 42.025H13.5952V46.5719H12.4246V35.7528H15.8157ZM99.1159 40.3296V41.3951H91.7178V40.3296H99.1159ZM41.0825 40.3296V41.3951H33.6839V40.3296H41.0825ZM15.8308 36.8034H13.5952V40.9595H15.8157C17.4665 40.9595 18.4568 40.4798 18.4568 38.9039C18.4568 37.3288 17.4665 36.8034 15.8308 36.8034ZM101.743 34.3657C102.437 34.3657 103.001 34.9264 103.001 35.6208C103.001 36.3152 102.437 36.8758 101.743 36.8758C101.049 36.8758 100.485 36.3152 100.485 35.6208C100.485 34.9264 101.049 34.3657 101.743 34.3657ZM99.1159 35.7528V36.8034H91.7178V35.7528H99.1159ZM41.0825 35.7528V36.8034H34.7663L35.4159 35.7528H41.0825ZM101.743 34.5788C101.166 34.5788 100.701 35.0435 100.701 35.6208C100.701 36.1979 101.166 36.6627 101.743 36.6627C102.32 36.6627 102.785 36.1979 102.785 35.6208C102.785 35.0435 102.32 34.5788 101.743 34.5788ZM101.751 34.9689C102.075 34.9689 102.217 35.13 102.217 35.3612C102.217 35.5313 102.138 35.6635 101.965 35.7239L101.938 35.7324L102.281 36.2617H102.03L101.743 35.8158C101.736 35.807 101.73 35.7855 101.728 35.7673L101.727 35.7545H101.475V36.2617H101.269V34.9689H101.751ZM101.754 35.1638H101.475V35.5538H101.751C101.927 35.5538 102.008 35.5067 102.008 35.3612C102.008 35.222 101.927 35.1638 101.754 35.1638ZM26.1361 11.1449L26.1359 11.1463L26.1361 11.1444C26.1361 11.1446 26.1361 11.1447 26.1361 11.1449ZM50.9579 0.0447998C64.7497 0.763532 72.7727 8.96396 72.8435 11.2587L72.8431 11.2546C72.8421 11.2471 72.8402 11.2539 72.8388 11.3944L72.8386 11.4191H72.8331C72.7267 12.5688 68.3435 17.2532 61.7834 19.4102C53.7694 22.0446 40.8724 21.0853 40.8724 11.0385C40.8724 6.32333 44.7144 2.48727 49.431 2.48727C54.1929 2.48727 58.0144 6.34296 58.0144 11.0588C58.0144 13.3567 57.0223 15.5829 55.5192 17.1565C56.9256 17.1321 62.0363 16.7562 66.8568 12.7866C67.388 12.2675 67.7297 11.8326 67.8728 11.5653C67.9094 11.4945 67.966 11.3735 67.9578 11.2547C67.9578 10.2332 62.4189 2.30805 50.9579 0.0447998ZM49.4254 6.18098C46.7404 6.18098 44.5647 8.35613 44.5647 11.0408C44.5647 13.7247 46.7404 15.9006 49.4254 15.9006C52.1091 15.9006 54.2853 13.7247 54.2853 11.0408C54.2853 8.35613 52.1091 6.18098 49.4254 6.18098ZM72.8434 11.2591C72.8436 11.2608 72.8436 11.2606 72.8435 11.2598L72.8434 11.2591ZM26.1358 11.15L26.1356 11.1509L26.136 11.1467C26.1359 11.1479 26.1358 11.149 26.1358 11.15ZM46.7433 0.126918L47.1216 0.0974669C36.981 2.45822 30.96 10.12 30.96 11.1147L30.9601 11.1168C30.9607 11.1209 30.965 11.0774 30.9671 11.2723L30.9673 11.2979H30.9699C31.1753 12.3871 34.1716 17.6362 45.7593 20.7549C32.4799 19.7001 26.4484 13.2447 26.1515 11.3538L26.1443 11.2979H26.1394C26.1383 11.1255 26.1369 11.132 26.1361 11.1444L26.1356 11.1516C26.1356 9.31825 34.3026 1.17102 46.7433 0.126918Z" fill="black"/>
</g>
<defs>
<clipPath id="clip0_452_708">
<rect width="103" height="48.4786" fill="white"/>
</clipPath>
</defs>
</svg>
