<svg width="59" height="58" viewBox="0 0 59 58" fill="none" xmlns="http://www.w3.org/2000/svg">
<g id="google-play" clipPath="url(#clip0_408_4442)">
<path id="Vector" d="M40.4384 40.4273C40.1187 40.4273 39.8014 40.2985 39.5724 40.0528L29.5557 29.4445C29.1191 28.984 29.1191 28.266 29.5557 27.8056L39.5724 17.1973C39.9446 16.7989 40.5457 16.7058 41.018 16.9754L52.8597 23.5833C54.6846 24.6066 55.8177 26.5389 55.8177 28.6262C55.8177 30.7135 54.6846 32.6458 52.8621 33.6668L41.018 40.2747C40.8367 40.3772 40.6364 40.4273 40.4384 40.4273ZM32.0605 28.6262L40.6674 37.7389L51.698 31.5843C52.7667 30.9855 53.4322 29.8524 53.4322 28.6262C53.4322 27.4001 52.7667 26.267 51.6956 25.6658L40.6674 19.5136L32.0605 28.6262Z" fill="black"/>
<path id="Vector_2" d="M5.82714 55.8591C5.50987 55.8591 5.20452 55.7326 4.98267 55.5084C3.92112 54.4421 3.33667 53.0131 3.33667 51.4864V5.76576C3.33667 4.23903 3.92112 2.8125 4.98029 1.74618C5.20452 1.52194 5.50987 1.39551 5.82475 1.39551H5.84145C6.1635 1.40028 6.47123 1.53387 6.69069 1.77003L31.2853 27.8102C31.7218 28.2706 31.7218 28.9887 31.2853 29.4491L6.69308 55.4845C6.47123 55.7207 6.1635 55.8543 5.84384 55.8591C5.83907 55.8591 5.83191 55.8591 5.82714 55.8591ZM5.97266 4.47758C5.80806 4.87835 5.72218 5.3149 5.72218 5.76576V51.4888C5.72218 51.9397 5.80806 52.3762 5.97266 52.7746L28.7805 28.6261L5.97266 4.47758Z" fill="black"/>
<path id="Vector_3" d="M9.0833 57.2521C7.52318 57.2521 6.02031 56.6081 4.95876 55.4845C4.52221 55.0241 4.52221 54.306 4.95876 53.8456L29.5533 27.8054C29.7776 27.5669 30.0925 27.4309 30.4193 27.4309C30.7485 27.4309 31.0634 27.5669 31.2852 27.8054L41.302 38.4138C41.5548 38.681 41.6693 39.0507 41.6145 39.4133C41.5596 39.7759 41.3378 40.0932 41.0157 40.2721L11.872 56.5293C11.0203 57.0041 10.0542 57.2521 9.0833 57.2521ZM7.6019 54.5231C8.54656 54.9955 9.74647 54.9811 10.715 54.4444L38.5181 38.9386L30.4193 30.3627L7.6019 54.5231Z" fill="black"/>
<path id="Vector_4" d="M30.4215 29.819C30.0923 29.819 29.7798 29.683 29.5555 29.4445L4.96096 3.40663C4.52441 2.94862 4.52441 2.22819 4.96096 1.76779C6.68329 -0.0547392 9.65564 -0.507986 11.8694 0.722937L41.0179 16.9778C41.34 17.1567 41.5618 17.474 41.6167 17.8366C41.6715 18.2016 41.5594 18.5689 41.3042 18.8361L31.2874 29.4445C31.0632 29.683 30.7483 29.819 30.4215 29.819ZM7.60171 2.72915L30.4191 26.8896L38.5179 18.3137L10.7124 2.80549C9.74867 2.27352 8.54876 2.2592 7.60171 2.72915Z" fill="black"/>
</g>
<defs>
<clipPath id="clip0_408_4442">
<rect width="57.2522" height="57.2522" fill="white" transform="translate(0.951172)"/>
</clipPath>
</defs>
</svg>
