<svg width="58" height="58" viewBox="0 0 58 58" fill="none" xmlns="http://www.w3.org/2000/svg">
<g id="iconoir:3d-select-solid">
<g id="Group">
<path id="Vector" d="M50.4404 17.9432V40.1132C50.4406 40.3688 50.3723 40.6197 50.2426 40.8399C50.113 41.0601 49.9268 41.2416 49.7033 41.3656L29.6658 52.4959C29.4534 52.6137 29.2146 52.6755 28.9717 52.6755C28.7288 52.6755 28.4899 52.6137 28.2775 52.4959L8.24002 41.3656C8.01655 41.2416 7.83034 41.0601 7.70072 40.8399C7.5711 40.6197 7.50281 40.3688 7.50293 40.1132V17.9432C7.50323 17.688 7.57173 17.4376 7.70132 17.2178C7.83092 16.9981 8.01691 16.8169 8.24002 16.6932L28.2775 5.56046C28.4899 5.44267 28.7288 5.38086 28.9717 5.38086C29.2146 5.38086 29.4534 5.44267 29.6658 5.56046L49.7033 16.6932C49.9265 16.8169 50.1124 16.9981 50.242 17.2178C50.3716 17.4376 50.4401 17.688 50.4404 17.9432Z" stroke="black" strokeWidth="3.57812" strokeLinecap="round" strokeLinejoin="round"/>
<path id="Vector_2" d="M8.7627 17.8024L28.2754 28.6418C28.4881 28.76 28.7274 28.822 28.9708 28.822C29.2141 28.822 29.4534 28.76 29.6661 28.6418L49.248 17.7643M28.9719 50.4969V29.0282" stroke="black" strokeWidth="3.57812" strokeLinecap="round" strokeLinejoin="round"/>
</g>
</g>
</svg>
