<svg width="58" height="58" viewBox="0 0 58 58" fill="none" xmlns="http://www.w3.org/2000/svg">
<g id="iconamoon:3d-light">
<g id="Group">
<path id="Vector" d="M28.9999 7.53125L47.5918 18.2656V36.9792C47.5918 37.8167 47.3714 38.6393 46.9526 39.3646C46.5339 40.0898 45.9317 40.692 45.2064 41.1108L31.3853 49.0924C30.6601 49.5111 29.8374 49.7315 28.9999 49.7315C28.1624 49.7315 27.3397 49.5111 26.6145 49.0924L12.7934 41.1108C12.0681 40.692 11.4659 40.0898 11.0472 39.3646C10.6284 38.6393 10.408 37.8167 10.408 36.9792V18.2656L28.9999 7.53125Z" stroke="black" strokeWidth="3.57812" strokeLinecap="round" strokeLinejoin="round"/>
<path id="Vector_2" d="M29 17.0729V29M29 29L18.6711 34.9635M29 29L39.3288 34.9635" stroke="black" strokeWidth="3.57812" strokeLinecap="round" strokeLinejoin="round"/>
</g>
</g>
</svg>
