<svg width="58" height="58" viewBox="0 0 58 58" fill="none" xmlns="http://www.w3.org/2000/svg">
<g id="mdi:stopwatch-outline">
<path id="Vector" d="M29 48.0833C24.5714 48.0833 20.3243 46.3241 17.1928 43.1926C14.0613 40.0611 12.3021 35.814 12.3021 31.3854C12.3021 26.9568 14.0613 22.7097 17.1928 19.5782C20.3243 16.4467 24.5714 14.6875 29 14.6875C33.4286 14.6875 37.6757 16.4467 40.8072 19.5782C43.9387 22.7097 45.6979 26.9568 45.6979 31.3854C45.6979 35.814 43.9387 40.0611 40.8072 43.1926C37.6757 46.3241 33.4286 48.0833 29 48.0833ZM45.7695 18.0032L49.1568 14.6159C48.0833 13.3994 47.0099 12.3021 45.7933 11.2525L42.406 14.6875C38.7086 11.6819 34.0571 9.91666 29 9.91666C23.3061 9.91666 17.8455 12.1785 13.8193 16.2047C9.79313 20.2309 7.53125 25.6915 7.53125 31.3854C7.53125 37.0793 9.79313 42.5399 13.8193 46.5661C17.8455 50.5923 23.3061 52.8542 29 52.8542C40.9271 52.8542 50.4688 43.2409 50.4688 31.3854C50.4688 26.3283 48.7035 21.6768 45.7695 18.0032ZM26.6146 33.7708H31.3854V19.4583H26.6146M36.1562 2.76041H21.8438V7.53124H36.1562V2.76041Z" fill="black"/>
</g>
</svg>
