<svg width="59" height="58" viewBox="0 0 59 58" fill="none" xmlns="http://www.w3.org/2000/svg">
<g id="ph:eye">
<path id="Vector" d="M56.1621 28.2754C56.0838 28.0988 54.1896 23.8967 49.9786 19.6857C44.3677 14.0747 37.2808 11.1094 29.4804 11.1094C21.6801 11.1094 14.5932 14.0747 8.98226 19.6857C4.77126 23.8967 2.86814 28.1055 2.79882 28.2754C2.69709 28.5042 2.64453 28.7518 2.64453 29.0022C2.64453 29.2526 2.69709 29.5002 2.79882 29.729C2.87709 29.9057 4.77126 34.1055 8.98226 38.3165C14.5932 43.9253 21.6801 46.8906 29.4804 46.8906C37.2808 46.8906 44.3677 43.9253 49.9786 38.3165C54.1896 34.1055 56.0838 29.9057 56.1621 29.729C56.2638 29.5002 56.3164 29.2526 56.3164 29.0022C56.3164 28.7518 56.2638 28.5042 56.1621 28.2754ZM29.4804 43.3125C22.597 43.3125 16.5835 40.81 11.6055 35.8767C9.56292 33.8454 7.82516 31.5292 6.44627 29C7.82479 26.4706 9.56258 24.1543 11.6055 22.1233C16.5835 17.19 22.597 14.6875 29.4804 14.6875C36.3639 14.6875 42.3774 17.19 47.3554 22.1233C49.402 24.1538 51.1435 26.4701 52.5258 29C50.9134 32.0101 43.8891 43.3125 29.4804 43.3125ZM29.4804 18.2656C27.3574 18.2656 25.282 18.8952 23.5168 20.0747C21.7515 21.2542 20.3756 22.9307 19.5632 24.8921C18.7507 26.8536 18.5381 29.0119 18.9523 31.0942C19.3665 33.1764 20.3889 35.0891 21.8901 36.5904C23.3913 38.0916 25.304 39.1139 27.3863 39.5281C29.4685 39.9423 31.6269 39.7297 33.5883 38.9173C35.5498 38.1048 37.2262 36.729 38.4058 34.9637C39.5853 33.1984 40.2148 31.1231 40.2148 29C40.2119 26.154 39.08 23.4254 37.0675 21.4129C35.0551 19.4005 32.3265 18.2686 29.4804 18.2656ZM29.4804 36.1562C28.0651 36.1562 26.6815 35.7365 25.5047 34.9502C24.3278 34.1639 23.4106 33.0462 22.8689 31.7386C22.3273 30.4309 22.1856 28.9921 22.4617 27.6039C22.7378 26.2157 23.4194 24.9406 24.4202 23.9398C25.421 22.9389 26.6962 22.2574 28.0843 21.9813C29.4725 21.7051 30.9114 21.8468 32.219 22.3885C33.5267 22.9301 34.6443 23.8474 35.4307 25.0242C36.217 26.201 36.6367 27.5846 36.6367 29C36.6367 30.898 35.8827 32.7182 34.5407 34.0602C33.1986 35.4023 31.3784 36.1562 29.4804 36.1562Z" fill="black"/>
</g>
</svg>
