<svg width="58" height="58" viewBox="0 0 58 58" fill="none" xmlns="http://www.w3.org/2000/svg">
<g id="solar:gamepad-broken">
<g id="Group">
<path id="Vector" d="M50.9937 19.4583C49.3501 14.2486 46.719 11.4314 43.5273 10.2983C42.6208 9.97629 41.6476 9.91666 40.6815 9.91666H39.2216C37.1279 9.91701 35.0859 10.5671 33.3774 11.7773L32.1799 12.6217C31.2501 13.2795 30.1391 13.6328 29.0001 13.6328C27.8611 13.6328 26.7502 13.2795 25.8204 12.6217L24.6229 11.7749C22.914 10.5657 20.872 9.91647 18.7786 9.91666H17.3187C16.3526 9.91666 15.3794 9.97629 14.4705 10.2983C8.78609 12.3164 4.87639 19.6849 5.16026 36.4019C5.21751 39.7701 6.0047 43.4914 9.04372 44.9441C10.0804 45.4425 11.2163 45.7002 12.3666 45.6979C13.6595 45.7191 14.9296 45.3563 16.0163 44.6555C18.1989 43.2266 19.7948 40.8388 22.1086 39.6413C23.5017 38.9189 25.0479 38.5418 26.6171 38.5417H31.3855C32.9551 38.5417 34.5009 38.9185 35.894 39.6389C38.2078 40.8412 39.8061 43.2266 41.9839 44.6555C42.9143 45.2661 44.1189 45.6979 45.636 45.6979C46.7863 45.7002 47.9222 45.4425 48.9589 44.9441C51.9979 43.4914 52.7851 39.7678 52.8424 36.4019C52.892 33.9331 52.8307 31.4633 52.6587 29M18.2657 21.8437V29M14.6876 25.4219H21.8439" stroke="black" strokeWidth="3.57812" strokeLinecap="round"/>
<path id="Vector_2" d="M45.698 24.8255C45.698 25.3 45.5095 25.755 45.174 26.0906C44.8385 26.4261 44.3834 26.6146 43.9089 26.6146C43.4344 26.6146 42.9794 26.4261 42.6439 26.0906C42.3084 25.755 42.1199 25.3 42.1199 24.8255C42.1199 24.351 42.3084 23.896 42.6439 23.5604C42.9794 23.2249 43.4344 23.0364 43.9089 23.0364C44.3834 23.0364 44.8385 23.2249 45.174 23.5604C45.5095 23.896 45.698 24.351 45.698 24.8255ZM38.5417 24.8255C38.5417 25.3 38.3533 25.755 38.0177 26.0906C37.6822 26.4261 37.2272 26.6146 36.7527 26.6146C36.2782 26.6146 35.8231 26.4261 35.4876 26.0906C35.1521 25.755 34.9636 25.3 34.9636 24.8255C34.9636 24.351 35.1521 23.896 35.4876 23.5604C35.8231 23.2249 36.2782 23.0364 36.7527 23.0364C37.2272 23.0364 37.6822 23.2249 38.0177 23.5604C38.3533 23.896 38.5417 24.351 38.5417 24.8255ZM40.3308 19.4583C40.8053 19.4583 41.2604 19.6468 41.5959 19.9823C41.9314 20.3178 42.1199 20.7729 42.1199 21.2474C42.1199 21.7219 41.9314 22.1769 41.5959 22.5124C41.2604 22.8479 40.8053 23.0364 40.3308 23.0364C39.8563 23.0364 39.4013 22.8479 39.0658 22.5124C38.7302 22.1769 38.5417 21.7219 38.5417 21.2474C38.5417 20.7729 38.7302 20.3178 39.0658 19.9823C39.4013 19.6468 39.8563 19.4583 40.3308 19.4583ZM40.3308 26.6146C40.5658 26.6146 40.7984 26.6608 41.0155 26.7507C41.2325 26.8407 41.4297 26.9724 41.5959 27.1386C41.762 27.3047 41.8938 27.5019 41.9837 27.719C42.0736 27.936 42.1199 28.1687 42.1199 28.4036C42.1199 28.6386 42.0736 28.8712 41.9837 29.0883C41.8938 29.3053 41.762 29.5026 41.5959 29.6687C41.4297 29.8348 41.2325 29.9666 41.0155 30.0565C40.7984 30.1464 40.5658 30.1927 40.3308 30.1927C39.8563 30.1927 39.4013 30.0042 39.0658 29.6687C38.7302 29.3332 38.5417 28.8781 38.5417 28.4036C38.5417 27.9291 38.7302 27.4741 39.0658 27.1386C39.4013 26.8031 39.8563 26.6146 40.3308 26.6146Z" fill="black"/>
</g>
</g>
</svg>
