<svg width="58" height="57" viewBox="0 0 58 57" fill="none" xmlns="http://www.w3.org/2000/svg">
<path d="M7.30664 47.5L29.3229 9.5L51.3391 47.5H7.30664ZM11.3916 45.125H47.2541L29.3229 14.25L11.3916 45.125ZM29.3229 41.8356C29.7377 41.8356 30.0845 41.6955 30.3631 41.4152C30.6434 41.1366 30.7835 40.7898 30.7835 40.375C30.7835 39.9602 30.6434 39.6134 30.3631 39.3348C30.0845 39.0545 29.7377 38.9144 29.3229 38.9144C28.9081 38.9144 28.5613 39.0545 28.2826 39.3348C28.0024 39.6134 27.8623 39.9602 27.8623 40.375C27.8623 40.7898 28.0024 41.1366 28.2826 41.4152C28.5613 41.6955 28.9081 41.8356 29.3229 41.8356ZM28.1354 36.5394H30.5104V24.6644H28.1354V36.5394Z" fill="black"/>
</svg>
