<svg width="58" height="57" viewBox="0 0 58 57" fill="none" xmlns="http://www.w3.org/2000/svg">
<path d="M7.26367 16.625V10.9606C7.26367 9.86812 7.63021 8.95613 8.3633 8.22463C9.0948 7.49154 10.0068 7.125 11.0993 7.125H16.7637V9.5H11.0993C10.7351 9.5 10.4003 9.652 10.0947 9.956C9.79067 10.2616 9.63867 10.5965 9.63867 10.9606V16.625H7.26367ZM16.7637 49.875H11.0993C10.0068 49.875 9.0948 49.5093 8.3633 48.7778C7.63021 48.0447 7.26367 47.1319 7.26367 46.0394V40.375H9.63867V46.0394C9.63867 46.4035 9.79067 46.7384 10.0947 47.044C10.4003 47.348 10.7351 47.5 11.0993 47.5H16.7637V49.875ZM40.5137 49.875V47.5H46.178C46.5422 47.5 46.8771 47.348 47.1827 47.044C47.4867 46.7384 47.6387 46.4035 47.6387 46.0394V40.375H50.0137V46.0394C50.0137 47.1319 49.6479 48.0439 48.9164 48.7754C48.1833 49.5085 47.2705 49.875 46.178 49.875H40.5137ZM47.6387 16.625V10.9606C47.6387 10.5965 47.4867 10.2616 47.1827 9.956C46.8771 9.652 46.5422 9.5 46.178 9.5H40.5137V7.125H46.178C47.2705 7.125 48.1825 7.49154 48.914 8.22463C49.6471 8.95613 50.0137 9.86812 50.0137 10.9606V16.625H47.6387Z" fill="black"/>
<path d="M18.4102 18.2706L22.2097 22.0701" stroke="black" strokeWidth="2" strokeLinecap="round" strokeLinejoin="round"/>
<path d="M18.4102 38.7294L22.2097 34.9299" stroke="black" strokeWidth="2" strokeLinecap="round" strokeLinejoin="round"/>
<path d="M21.3333 28.5H16.9492" stroke="black" strokeWidth="2" strokeLinecap="round" strokeLinejoin="round"/>
<path d="M38.8679 18.2706L35.0684 22.0701" stroke="black" strokeWidth="2" strokeLinecap="round" strokeLinejoin="round"/>
<path d="M38.8679 38.7294L35.0684 34.9299" stroke="black" strokeWidth="2" strokeLinecap="round" strokeLinejoin="round"/>
<path d="M21.332 25.5773C21.332 23.6394 22.1018 21.7809 23.4721 20.4107C24.8424 19.0404 26.7009 18.2706 28.6388 18.2706C30.5765 18.2706 32.4351 19.0404 33.8055 20.4107C35.1757 21.7809 35.9455 23.6394 35.9455 25.5773V31.4227C35.9455 33.3604 35.1757 35.219 33.8055 36.5894C32.4351 37.9596 30.5765 38.7294 28.6388 38.7294C26.7009 38.7294 24.8424 37.9596 23.4721 36.5894C22.1018 35.219 21.332 33.3604 21.332 31.4227V25.5773Z" stroke="black" strokeWidth="2" strokeLinecap="round" strokeLinejoin="round"/>
<path d="M35.9492 28.5H40.3333" stroke="black" strokeWidth="2" strokeLinecap="round" strokeLinejoin="round"/>
<path d="M21.332 27.0387H35.9455" stroke="black" strokeWidth="2" strokeLinecap="round" strokeLinejoin="round"/>
</svg>
