<svg width="58" height="57" viewBox="0 0 58 57" fill="none" xmlns="http://www.w3.org/2000/svg">
<path d="M29.4805 49.7847C24.7099 48.3677 20.746 45.4773 17.5888 41.1136C14.4333 36.7484 12.8555 31.8313 12.8555 26.3625V13.5185L29.4805 7.30786L46.1055 13.5185V26.3625C46.1055 31.8313 44.5277 36.7476 41.3721 41.1112C38.2149 45.4765 34.2511 48.3677 29.4805 49.7847ZM29.4805 47.2625C33.3201 46.075 36.5263 43.7301 39.0992 40.2277C41.6721 36.7254 43.1763 32.8162 43.6117 28.5H29.4805V9.84199L15.2305 15.1406V27.3861C15.2305 27.6933 15.2701 28.0646 15.3492 28.5H29.4805V47.2625Z" fill="black"/>
</svg>
