<svg width="58" height="57" viewBox="0 0 58 57" fill="none" xmlns="http://www.w3.org/2000/svg">
<path d="M43.0762 10.1948H35.884C35.05 9.22363 34.016 8.44418 32.8528 7.90983C31.6896 7.37547 30.4246 7.09882 29.1445 7.09882C27.8644 7.09882 26.5995 7.37547 25.4363 7.90983C24.273 8.44418 23.239 9.22363 22.4051 10.1948H15.2128C14.4944 10.1948 13.8054 10.4802 13.2973 10.9882C12.7893 11.4962 12.5039 12.1853 12.5039 12.9037V45.411C12.5039 46.1294 12.7893 46.8185 13.2973 47.3265C13.8054 47.8345 14.4944 48.1199 15.2128 48.1199H43.0762C43.7947 48.1199 44.4837 47.8345 44.9917 47.3265C45.4998 46.8185 45.7852 46.1294 45.7852 45.411V12.9037C45.7852 12.1853 45.4998 11.4962 44.9917 10.9882C44.4837 10.4802 43.7947 10.1948 43.0762 10.1948ZM29.1445 9.42079C30.8894 9.42079 32.5627 10.1139 33.7965 11.3477C35.0303 12.5815 35.7234 14.2548 35.7234 15.9996V16.3866H22.5657V15.9996C22.5657 14.2548 23.2588 12.5815 24.4926 11.3477C25.7264 10.1139 27.3997 9.42079 29.1445 9.42079ZM43.4632 45.411C43.4632 45.5136 43.4224 45.6121 43.3499 45.6846C43.2773 45.7572 43.1789 45.798 43.0762 45.798H15.2128C15.1102 45.798 15.0118 45.7572 14.9392 45.6846C14.8666 45.6121 14.8259 45.5136 14.8259 45.411V12.9037C14.8259 12.8011 14.8666 12.7026 14.9392 12.6301C15.0118 12.5575 15.1102 12.5167 15.2128 12.5167H20.9539C20.4842 13.6178 20.2426 14.8026 20.2437 15.9996V17.5476C20.2437 17.8555 20.366 18.1508 20.5838 18.3685C20.8015 18.5863 21.0968 18.7086 21.4047 18.7086H36.8844C37.1923 18.7086 37.4876 18.5863 37.7053 18.3685C37.923 18.1508 38.0453 17.8555 38.0453 17.5476V15.9996C38.0464 14.8026 37.8049 13.6178 37.3352 12.5167H43.0762C43.1789 12.5167 43.2773 12.5575 43.3499 12.6301C43.4224 12.7026 43.4632 12.8011 43.4632 12.9037V45.411Z" fill="black"/>
</svg>
