<svg width="58" height="57" viewBox="0 0 58 57" fill="none" xmlns="http://www.w3.org/2000/svg">
<path d="M29.481 49.2995C40.9684 49.2995 50.2804 39.9874 50.2804 28.5001C50.2804 17.0129 40.9684 7.70068 29.481 7.70068C17.9938 7.70068 8.68164 17.0129 8.68164 28.5001C8.68164 39.9874 17.9938 49.2995 29.481 49.2995Z" stroke="black" strokeWidth="2" strokeLinecap="round" strokeLinejoin="round"/>
<path d="M34.9276 22.8119C34.7403 22.282 34.4513 21.8001 34.084 21.3897C33.3028 20.5168 32.1675 19.9675 30.9039 19.9675H27.6014C25.4981 19.9675 23.793 21.6726 23.793 23.776C23.793 25.5657 25.0392 27.114 26.7876 27.4965L31.8156 28.5963C33.7743 29.0248 35.1704 30.7606 35.1704 32.7656C35.1704 35.1219 33.2602 37.0337 30.9039 37.0337H28.0595C26.2018 37.0337 24.6215 35.8464 24.0357 34.1893" stroke="black" strokeWidth="2" strokeLinecap="round" strokeLinejoin="round"/>
<path d="M29.4824 19.967V15.7004" stroke="black" strokeWidth="2" strokeLinecap="round" strokeLinejoin="round"/>
<path d="M29.4824 41.2991V37.0327" stroke="black" strokeWidth="2" strokeLinecap="round" strokeLinejoin="round"/>
</svg>
