<svg width="58" height="57" viewBox="0 0 58 57" fill="none" xmlns="http://www.w3.org/2000/svg">
<path d="M42.3574 9.67114H45.2542C46.0224 9.67114 46.7593 9.97634 47.3025 10.5196C47.8456 11.0628 48.1509 11.7996 48.1509 12.5679V15.4647" stroke="black" strokeWidth="2" strokeLinecap="round" strokeLinejoin="round"/>
<path d="M10.4941 15.4647V12.5679C10.4941 11.7996 10.7993 11.0628 11.3426 10.5196C11.8858 9.97634 12.6226 9.67114 13.3909 9.67114H16.2877" stroke="black" strokeWidth="2" strokeLinecap="round" strokeLinejoin="round"/>
<path d="M24.9785 9.67114H33.6688" stroke="black" strokeWidth="2" strokeLinecap="round" strokeLinejoin="round"/>
<path d="M48.1523 24.155V32.8453" stroke="black" strokeWidth="2" strokeLinecap="round" strokeLinejoin="round"/>
<path d="M10.4941 24.155V32.8453" stroke="black" strokeWidth="2" strokeLinecap="round" strokeLinejoin="round"/>
<path d="M42.3574 47.3289H45.2542C46.0224 47.3289 46.7593 47.0236 47.3025 46.4805C47.8456 45.9373 48.1509 45.2004 48.1509 44.4322V41.5354" stroke="black" strokeWidth="2" strokeLinecap="round" strokeLinejoin="round"/>
<path d="M10.4941 41.5354V44.4322C10.4941 45.2004 10.7993 45.9373 11.3426 46.4805C11.8858 47.0236 12.6226 47.3289 13.3909 47.3289H16.2877" stroke="black" strokeWidth="2" strokeLinecap="round" strokeLinejoin="round"/>
<path d="M24.9785 47.3289H33.6688" stroke="black" strokeWidth="2" strokeLinecap="round" strokeLinejoin="round"/>
<path d="M35.1166 19.8098H23.5296C21.9298 19.8098 20.6328 21.1068 20.6328 22.7066V34.2936C20.6328 35.8935 21.9298 37.1904 23.5296 37.1904H35.1166C36.7165 37.1904 38.0134 35.8935 38.0134 34.2936V22.7066C38.0134 21.1068 36.7165 19.8098 35.1166 19.8098Z" stroke="black" strokeWidth="2" strokeLinecap="round" strokeLinejoin="round"/>
</svg>
