<svg width="58" height="57" viewBox="0 0 58 57" fill="none" xmlns="http://www.w3.org/2000/svg">
<g clipPath="url(#clip0_2201_5325)">
<g clipPath="url(#clip1_2201_5325)">
<path d="M23.8168 39.0164C22.5885 40.0689 21.0317 40.6606 19.4143 40.6894C18.2298 40.803 17.0348 40.6533 15.9149 40.2509C14.795 39.8485 13.7779 39.2037 12.9365 38.3622C12.0951 37.5208 11.4501 36.5037 11.0478 35.3838C10.6455 34.264 10.6094 31.8844 10.6094 31.8844C10.6094 31.8844 10.6455 29.5049 11.0478 28.385C11.4501 27.2651 12.0951 26.248 12.9365 25.4066C13.7779 24.5651 14.795 23.9202 15.9149 23.5178C17.0348 23.1156 18.2298 22.9658 19.4143 23.0795C27.4856 23.0795 31.888 40.6894 39.9593 40.6894C41.1438 40.803 42.3387 40.6533 43.4587 40.2509C44.5786 39.8485 45.5956 39.2037 46.4371 38.3622C47.2785 37.5208 47.9234 36.5037 48.3257 35.3838C48.7281 34.264 48.7642 31.8844 48.7642 31.8844C48.7642 31.8844 48.7281 29.5049 48.3257 28.385C47.9234 27.2651 47.2785 26.248 46.4371 25.4066C45.5956 24.5651 44.5786 23.9202 43.4587 23.5178C42.3387 23.1156 41.1438 22.9658 39.9593 23.0795H34.0893L39.9593 17.2095" stroke="black" strokeWidth="2" strokeLinecap="round" strokeLinejoin="round"/>
</g>
</g>
<defs>
<clipPath id="clip0_2201_5325">
<rect width="41.5391" height="41.5391" fill="white" transform="translate(8.69336 8.1582)"/>
</clipPath>
<clipPath id="clip1_2201_5325">
<rect width="41.0898" height="41.0898" fill="white" transform="translate(9.14258 8.4043)"/>
</clipPath>
</defs>
</svg>
