<svg width="57" height="58" viewBox="0 0 57 58" fill="none" xmlns="http://www.w3.org/2000/svg">
<path d="M32.238 13.5829C32.238 15.4975 30.6859 17.0495 28.7714 17.0495C26.8568 17.0495 25.3047 15.4975 25.3047 13.5829C25.3047 11.6683 26.8568 10.1162 28.7714 10.1162C30.6859 10.1162 32.238 11.6683 32.238 13.5829Z" stroke="#BEBEBE" strokeWidth="2" strokeLinecap="round" strokeLinejoin="round"/>
<path d="M28.7734 17.0493V23.735" stroke="#BEBEBE" strokeWidth="2" strokeLinecap="round" strokeLinejoin="round"/>
<path d="M33.9742 40.0161C33.9742 40.0161 32.3399 41.7493 28.7742 41.7493C25.2085 41.7493 23.5742 40.0161 23.5742 40.0161" stroke="#BEBEBE" strokeWidth="2" strokeLinecap="round" strokeLinejoin="round"/>
<path d="M22.9538 33.4537C22.5435 33.4537 22.2109 33.1212 22.2109 32.7109C22.2109 32.3006 22.5435 31.968 22.9538 31.968" stroke="#BEBEBE" strokeWidth="2" strokeLinecap="round" strokeLinejoin="round"/>
<path d="M22.9531 33.4537C23.3634 33.4537 23.696 33.1212 23.696 32.7109C23.696 32.3006 23.3634 31.968 22.9531 31.968" stroke="#BEBEBE" strokeWidth="2" strokeLinecap="round" strokeLinejoin="round"/>
<path d="M34.5905 33.4537C34.1802 33.4537 33.8477 33.1212 33.8477 32.7109C33.8477 32.3006 34.1802 31.968 34.5905 31.968" stroke="#BEBEBE" strokeWidth="2" strokeLinecap="round" strokeLinejoin="round"/>
<path d="M34.5898 33.4537C35.0001 33.4537 35.3327 33.1212 35.3327 32.7109C35.3327 32.3006 35.0001 31.968 34.5898 31.968" stroke="#BEBEBE" strokeWidth="2" strokeLinecap="round" strokeLinejoin="round"/>
<path d="M12.4297 41.6877V29.802C12.4297 26.5198 15.0904 23.8591 18.3725 23.8591H39.1725C42.4548 23.8591 45.1154 26.5198 45.1154 29.802V41.6877C45.1154 44.9699 42.4548 47.6306 39.1725 47.6306H18.3725C15.0904 47.6306 12.4297 44.9699 12.4297 41.6877Z" stroke="#BEBEBE" strokeWidth="2" strokeLinecap="round" strokeLinejoin="round"/>
</svg>
