<svg width="58" height="58" viewBox="0 0 58 58" fill="none" xmlns="http://www.w3.org/2000/svg">
<path d="M28.5391 49.2356V32.9234C28.5391 31.8933 28.9483 30.9055 29.6766 30.1771C30.405 29.4488 31.3929 29.0396 32.4229 29.0396C33.453 29.0396 34.4408 29.4488 35.1692 30.1771C35.8976 30.9055 36.3068 31.8933 36.3068 32.9234V41.4679H42.5209C44.1689 41.4679 45.7495 42.1225 46.915 43.288C48.0804 44.4535 48.7351 46.034 48.7351 47.682V49.2356" stroke="#BEBEBE" strokeWidth="2.5" strokeLinecap="round" strokeLinejoin="round"/>
<path d="M26.2324 16.9068C22.3595 12.6449 17.1623 9.81358 11.4812 8.8707C11.0946 8.81595 10.7008 8.84408 10.326 8.95322C9.95114 9.06235 9.6038 9.24999 9.30704 9.50368C9.00495 9.76206 8.76242 10.0828 8.59615 10.4439C8.42986 10.8049 8.34378 11.1978 8.3438 11.5953V33.7497C8.33967 34.43 8.58771 35.0878 9.04004 35.596C9.49237 36.1043 10.1169 36.4269 10.7932 36.5017C15.2304 37.1036 19.4031 38.8595 22.9106 41.5589" stroke="#BEBEBE" strokeWidth="2.5" strokeLinecap="round" strokeLinejoin="round"/>
<path d="M26.2344 25.4924V16.907" stroke="#BEBEBE" strokeWidth="2.5" strokeLinecap="round" strokeLinejoin="round"/>
<path d="M41.6737 36.5018C42.3498 36.4269 42.9743 36.1043 43.4267 35.596C43.8791 35.0878 44.1271 34.43 44.123 33.7497V11.5953C44.123 11.1978 44.037 10.8049 43.8707 10.4439C43.7045 10.0828 43.4618 9.76206 43.1598 9.50368C42.8631 9.24999 42.5157 9.06235 42.1407 8.95322C41.766 8.84408 41.3723 8.81595 40.9855 8.8707C35.3045 9.81358 30.1074 12.6449 26.2344 16.9068" stroke="#BEBEBE" strokeWidth="2.5" strokeLinecap="round" strokeLinejoin="round"/>
</svg>
