<svg width="24" height="25" viewBox="0 0 24 25" fill="none" xmlns="http://www.w3.org/2000/svg">
<path d="M8.62439 16.5292C8.79343 16.6486 8.98691 16.7289 9.19081 16.7642C9.39471 16.7996 9.60393 16.7892 9.8033 16.7337C10.0027 16.6783 10.1872 16.5791 10.3436 16.4436C10.4999 16.308 10.6241 16.1393 10.7072 15.9498L11.3672 13.9441C11.5278 13.4615 11.7985 13.023 12.1579 12.6632C12.5174 12.3035 12.9557 12.0324 13.4381 11.8715L15.3564 11.2484C15.629 11.1535 15.8648 10.975 16.0301 10.7384C16.1577 10.5589 16.2409 10.3517 16.2726 10.1338C16.3044 9.91594 16.2839 9.69362 16.2128 9.48522C16.1417 9.27681 16.0221 9.0883 15.8638 8.93524C15.7055 8.78219 15.5131 8.66897 15.3024 8.60494L13.4038 7.98779C12.9211 7.82768 12.4824 7.55733 12.1223 7.19817C11.7623 6.83902 11.4908 6.40094 11.3295 5.91865L10.7064 4.00122C10.6106 3.72955 10.4326 3.49441 10.1972 3.32836C9.96044 3.16508 9.6796 3.07764 9.39196 3.07764C9.10432 3.07764 8.82347 3.16508 8.58667 3.32836C8.34763 3.49741 8.16774 3.73727 8.07239 4.01408L7.44153 5.95551C7.2806 6.42527 7.01493 6.85228 6.66462 7.20422C6.31431 7.55616 5.88854 7.82382 5.41953 7.98694L3.49953 8.60922C3.22632 8.7058 2.99001 8.88513 2.82347 9.12227C2.65694 9.35941 2.56846 9.64256 2.57034 9.93232C2.57223 10.2221 2.66439 10.5041 2.834 10.739C3.00361 10.974 3.24223 11.1502 3.51667 11.2432L5.4161 11.8604C6.03191 12.067 6.57327 12.4504 6.97267 12.9627C7.20067 13.2566 7.37639 13.5867 7.4921 13.9398L8.1161 15.8546C8.2121 16.1272 8.39039 16.3629 8.6261 16.5292M16.9781 21.7407C17.1526 21.8639 17.3611 21.9298 17.5747 21.9292C17.7868 21.9299 17.994 21.8649 18.1678 21.7432C18.3468 21.6169 18.4807 21.4367 18.5501 21.2289L18.869 20.2492C18.9364 20.0458 19.0503 19.8609 19.2016 19.7092C19.3529 19.5574 19.5375 19.443 19.7407 19.3749L20.7401 19.0509C20.9417 18.9793 21.1161 18.8472 21.2397 18.6726C21.3632 18.4979 21.4297 18.2894 21.4301 18.0755C21.4301 17.856 21.3599 17.6423 21.2297 17.4655C21.0996 17.2888 20.9163 17.1583 20.7067 17.0932L19.7261 16.7761C19.5226 16.7086 19.3376 16.5945 19.1859 16.4431C19.0341 16.2916 18.9197 16.1069 18.8518 15.9035L18.5261 14.9067C18.4559 14.7032 18.3236 14.5269 18.1478 14.4026C17.9721 14.2783 17.7618 14.2123 17.5466 14.2138C17.3314 14.2153 17.122 14.2843 16.9481 14.411C16.7741 14.5378 16.6443 14.7159 16.577 14.9204L16.2564 15.9026C16.1907 16.1034 16.0798 16.2864 15.9322 16.4375C15.7847 16.5887 15.6044 16.7039 15.4052 16.7744L14.4058 17.0984C14.2038 17.1697 14.0288 17.3019 13.905 17.4767C13.7811 17.6515 13.7144 17.8604 13.7141 18.0746C13.7143 18.2907 13.7826 18.5013 13.9092 18.6763C14.0358 18.8514 14.2144 18.9822 14.4195 19.0501L15.4001 19.3689C15.6044 19.4363 15.79 19.5508 15.9418 19.7031C16.0937 19.8554 16.2076 20.0413 16.2744 20.2458L16.5992 21.2427C16.6701 21.444 16.8019 21.6184 16.9764 21.7415" fill="url(#paint0_linear_5372_17173)"/>
<defs>
<linearGradient id="paint0_linear_5372_17173" x1="12.0002" y1="3.07764" x2="12.0002" y2="21.9292" gradientUnits="userSpaceOnUse">
<stop stop-color="#FFCD05"/>
<stop offset="1" stop-color="#EB6E14"/>
</linearGradient>
</defs>
</svg>
