<svg width="165" height="166" viewBox="0 0 165 166" fill="none" xmlns="http://www.w3.org/2000/svg">
<g clipPath="url(#clip0_5338_17299)">
<rect width="165" height="166" rx="6" fill="white"/>
<g clipPath="url(#clip1_5338_17299)">
<rect width="201" height="166" transform="translate(-18)" fill="#EEEEEE"/>
<path d="M34.9692 83.2434C30.5249 83.2434 28.9194 80.8001 28.6169 77.9614H30.5715C30.8274 79.9392 31.6185 81.6145 34.9692 81.6145C37.1099 81.6145 38.762 80.358 38.762 78.4733C38.762 76.5885 37.9011 75.7974 34.7365 75.2855C31.2462 74.7503 29.1753 73.6567 29.1753 70.7016C29.1753 68.142 31.3859 66.1875 34.5271 66.1875C37.8545 66.1875 39.9254 67.8163 40.2512 70.7714H38.4363C38.0407 68.6772 36.8307 67.8163 34.5271 67.8163C32.2468 67.8163 31.0601 68.9564 31.0601 70.5154C31.0601 72.1442 31.6651 72.9819 35.0623 73.4938C38.762 74.0755 40.7166 75.1924 40.7166 78.3337C40.7166 81.1259 38.2734 83.2434 34.9692 83.2434ZM47.1171 83.2434C44.6971 83.2434 42.8822 81.917 42.8822 78.5664V70.8644H44.8135V78.4733C44.8135 80.614 45.721 81.568 47.629 81.568C49.3509 81.568 50.9797 80.4279 50.9797 78.2406V70.8644H52.911V83.0339H50.9797V81.1026C50.4212 82.2428 49.0716 83.2434 47.1171 83.2434ZM55.8835 87.2688V70.8644H57.8148V72.9121C58.5129 71.7254 60.165 70.655 61.9334 70.655C65.1212 70.655 67.4713 72.9819 67.4713 76.7747V76.9608C67.4713 80.6838 65.2841 83.2434 61.9334 83.2434C59.9323 83.2434 58.5129 82.2428 57.8148 81.0328V87.2688H55.8835ZM61.7472 81.6378C64.1672 81.6378 65.4702 80.009 65.4702 77.0539V76.8678C65.4702 73.7963 63.7716 72.2606 61.724 72.2606C59.4669 72.2606 57.745 73.7498 57.745 76.8678V77.0539C57.745 80.1719 59.3738 81.6378 61.7472 81.6378ZM69.5411 87.2688V70.8644H71.4724V72.9121C72.1705 71.7254 73.8225 70.655 75.591 70.655C78.7788 70.655 81.1289 72.9819 81.1289 76.7747V76.9608C81.1289 80.6838 78.9416 83.2434 75.591 83.2434C73.5899 83.2434 72.1705 82.2428 71.4724 81.0328V87.2688H69.5411ZM75.4048 81.6378C77.8247 81.6378 79.1278 80.009 79.1278 77.0539V76.8678C79.1278 73.7963 77.4292 72.2606 75.3815 72.2606C73.1245 72.2606 71.4026 73.7498 71.4026 76.8678V77.0539C71.4026 80.1719 73.0314 81.6378 75.4048 81.6378ZM88.2713 81.6378C90.7145 81.6378 92.2502 79.7996 92.2502 77.0539V76.891C92.2502 74.0755 90.6912 72.2606 88.2713 72.2606C85.8281 72.2606 84.2923 74.0755 84.2923 76.8678V77.0539C84.2923 79.8229 85.8048 81.6378 88.2713 81.6378ZM88.248 83.2434C84.781 83.2434 82.2912 80.614 82.2912 77.0539V76.8678C82.2912 73.2146 84.8275 70.655 88.2713 70.655C91.715 70.655 94.2513 73.1913 94.2513 76.8445V77.0306C94.2513 80.7071 91.715 83.2434 88.248 83.2434ZM96.3109 83.0339V70.8644H98.2422V73.0517C99.0101 71.6789 100.057 70.7248 102.244 70.655V72.47C99.8012 72.5863 98.2422 73.3542 98.2422 76.3558V83.0339H96.3109ZM107.942 83.1968C105.731 83.1968 104.661 81.8938 104.661 79.9857V72.4933H102.916V70.8644H104.661V68.0955H106.592V70.8644H109.431V72.4933H106.592V79.7996C106.592 80.9863 107.128 81.568 108.105 81.568C108.71 81.568 109.175 81.4749 109.594 81.3121V82.9409C109.198 83.0805 108.733 83.1968 107.942 83.1968ZM112.909 83.1503C112.095 83.1503 111.42 82.4988 111.42 81.6611C111.42 80.8234 112.095 80.1719 112.909 80.1719C113.723 80.1719 114.398 80.8234 114.398 81.6611C114.398 82.4988 113.723 83.1503 112.909 83.1503ZM116.329 83.0339L122.053 66.3969H124.706L130.337 83.0339H128.336L126.707 78.2406H119.843L118.237 83.0339H116.329ZM123.287 68.0722L120.401 76.6351H126.172L123.287 68.0722ZM132.451 83.0339V66.3969H134.475V83.0339H132.451Z" fill="#D18F5F"/>
<path d="M71.1514 100.913C70.3978 100.913 69.8481 100.532 69.5822 100.071V100.833H68.8463V93.9802H69.5822V96.9769C69.8481 96.5247 70.4776 96.1169 71.1514 96.1169C72.366 96.1169 73.2615 97.0035 73.2615 98.4486V98.5195C73.2615 99.938 72.4281 100.913 71.1514 100.913ZM71.0805 100.302C72.0025 100.302 72.499 99.6809 72.499 98.555V98.4841C72.499 97.3138 71.8518 96.7286 71.0716 96.7286C70.2116 96.7286 69.5556 97.296 69.5556 98.4841V98.555C69.5556 99.743 70.1762 100.302 71.0805 100.302ZM74.7349 102.447L75.6126 100.355L73.7951 96.1967H74.5841L76.0027 99.5214L77.2882 96.1967H78.0418L75.4796 102.447H74.7349ZM84.0612 100.913C82.226 100.913 81.1 99.6543 81.1 97.7039V97.6329C81.1 95.7534 82.359 94.3969 84.079 94.3969C85.4 94.3969 86.5171 95.0973 86.6501 96.4715H85.8876C85.728 95.5051 85.1695 95.0086 84.0878 95.0086C82.7757 95.0086 81.898 96.0282 81.898 97.6241V97.695C81.898 99.3086 82.7136 100.284 84.079 100.284C85.1163 100.284 85.8344 99.7607 85.994 98.7323H86.7121C86.4905 100.195 85.4798 100.913 84.0612 100.913ZM89.7661 100.302C90.697 100.302 91.2822 99.6011 91.2822 98.555V98.4929C91.2822 97.4202 90.6882 96.7286 89.7661 96.7286C88.8352 96.7286 88.2501 97.4202 88.2501 98.4841V98.555C88.2501 99.61 88.8263 100.302 89.7661 100.302ZM89.7572 100.913C88.4362 100.913 87.4876 99.9114 87.4876 98.555V98.4841C87.4876 97.0921 88.454 96.1169 89.7661 96.1169C91.0783 96.1169 92.0446 97.0833 92.0446 98.4752V98.5461C92.0446 99.9469 91.0783 100.913 89.7572 100.913ZM94.9306 100.913C93.716 100.913 92.8383 100.053 92.8383 98.6082V98.5372C92.8383 97.1187 93.7248 96.1169 95.0015 96.1169C95.7729 96.1169 96.2516 96.4892 96.5176 96.9414V93.9802H97.2534V100.833H96.5176V100.036C96.2516 100.488 95.6044 100.913 94.9306 100.913ZM95.0104 100.302C95.8704 100.302 96.5442 99.7341 96.5442 98.5461V98.4752C96.5442 97.2872 95.9768 96.7286 95.0725 96.7286C94.1504 96.7286 93.6007 97.3758 93.6007 98.5018V98.5727C93.6007 99.743 94.2302 100.302 95.0104 100.302ZM100.64 100.913C99.3276 100.913 98.3967 99.9912 98.3967 98.5638V98.4929C98.3967 97.0921 99.2922 96.1169 100.569 96.1169C101.642 96.1169 102.652 96.7641 102.652 98.422V98.6614H99.1592C99.1946 99.7164 99.7 100.302 100.649 100.302C101.367 100.302 101.783 100.036 101.881 99.4948H102.617C102.457 100.426 101.686 100.913 100.64 100.913ZM99.1858 98.0674H101.899C101.828 97.1098 101.331 96.7286 100.569 96.7286C99.8153 96.7286 99.3099 97.2428 99.1858 98.0674ZM103.799 100.833V93.9802H104.544V100.833H103.799ZM106.068 100.833V96.1967H106.803V100.833H106.068ZM106.422 95.2303C106.156 95.2303 105.935 95.0086 105.935 94.7427C105.935 94.4767 106.156 94.2551 106.422 94.2551C106.688 94.2551 106.91 94.4767 106.91 94.7427C106.91 95.0086 106.688 95.2303 106.422 95.2303ZM108.31 100.833V96.1967H109.045V96.9325C109.258 96.4981 109.772 96.1169 110.535 96.1169C111.492 96.1169 112.166 96.64 112.166 97.9876V100.833H111.43V97.9344C111.43 97.1187 111.085 96.7552 110.34 96.7552C109.657 96.7552 109.045 97.1896 109.045 98.023V100.833H108.31ZM115.506 100.913C114.193 100.913 113.263 99.9912 113.263 98.5638V98.4929C113.263 97.0921 114.158 96.1169 115.435 96.1169C116.507 96.1169 117.518 96.7641 117.518 98.422V98.6614H114.025C114.06 99.7164 114.566 100.302 115.514 100.302C116.233 100.302 116.649 100.036 116.747 99.4948H117.483C117.323 100.426 116.552 100.913 115.506 100.913ZM114.052 98.0674H116.765C116.694 97.1098 116.197 96.7286 115.435 96.7286C114.681 96.7286 114.176 97.2428 114.052 98.0674ZM119.852 100.913C118.992 100.913 118.309 100.497 118.309 99.548C118.309 98.4752 119.444 98.1117 120.632 98.1117H121.297V97.7748C121.297 97.0389 121.013 96.7286 120.304 96.7286C119.666 96.7286 119.311 96.9946 119.24 97.562H118.504C118.602 96.507 119.444 96.1169 120.34 96.1169C121.226 96.1169 122.033 96.4804 122.033 97.7748V100.833H121.297V100.248C120.951 100.683 120.535 100.913 119.852 100.913ZM119.923 100.328C120.703 100.328 121.297 99.9292 121.297 99.211V98.6348H120.659C119.728 98.6348 119.045 98.8653 119.045 99.548C119.045 100.027 119.276 100.328 119.923 100.328ZM123.478 100.833V96.1967H124.214V97.0301C124.507 96.507 124.906 96.1435 125.739 96.1169V96.8084C124.808 96.8527 124.214 97.1453 124.214 98.289V100.833H123.478Z" fill="#D18F5F"/>
<path d="M130.216 94.7334C129.964 94.7334 129.722 94.8335 129.544 95.0116C129.366 95.1897 129.266 95.4313 129.266 95.6833V100.116C129.266 100.368 129.366 100.61 129.544 100.788C129.722 100.966 129.964 101.066 130.216 101.066H134.649C134.901 101.066 135.142 100.966 135.321 100.788C135.499 100.61 135.599 100.368 135.599 100.116V98.704C135.599 98.62 135.632 98.5395 135.692 98.4801C135.751 98.4207 135.831 98.3874 135.915 98.3874C135.999 98.3874 136.08 98.4207 136.139 98.4801C136.199 98.5395 136.232 98.62 136.232 98.704V100.116C136.232 100.536 136.065 100.939 135.768 101.236C135.471 101.533 135.069 101.699 134.649 101.699H130.216C129.796 101.699 129.393 101.533 129.097 101.236C128.8 100.939 128.633 100.536 128.633 100.116V95.6833C128.633 95.2634 128.8 94.8607 129.097 94.5638C129.393 94.2669 129.796 94.1001 130.216 94.1001H131.628C131.712 94.1001 131.793 94.1335 131.852 94.1928C131.911 94.2522 131.945 94.3328 131.945 94.4167C131.945 94.5007 131.911 94.5812 131.852 94.6406C131.793 94.7 131.712 94.7334 131.628 94.7334H130.216ZM132.92 94.4167C132.92 94.3328 132.953 94.2522 133.013 94.1928C133.072 94.1335 133.153 94.1001 133.237 94.1001H135.915C135.999 94.1001 136.08 94.1335 136.139 94.1928C136.199 94.2522 136.232 94.3328 136.232 94.4167V97.0955C136.232 97.1795 136.199 97.26 136.139 97.3194C136.08 97.3788 135.999 97.4121 135.915 97.4121C135.831 97.4121 135.751 97.3788 135.692 97.3194C135.632 97.26 135.599 97.1795 135.599 97.0955V95.1817L133.46 97.3197C133.431 97.3499 133.396 97.374 133.357 97.3906C133.319 97.4072 133.277 97.4159 133.235 97.4163C133.193 97.4167 133.152 97.4087 133.113 97.3927C133.074 97.3768 133.038 97.3533 133.009 97.3236C132.979 97.2939 132.955 97.2585 132.939 97.2196C132.924 97.1807 132.916 97.139 132.916 97.0969C132.916 97.0549 132.925 97.0133 132.942 96.9747C132.958 96.9361 132.982 96.9011 133.013 96.8719L135.151 94.7334H133.236C133.152 94.7334 133.072 94.7 133.012 94.6406C132.953 94.5812 132.919 94.5007 132.919 94.4167" fill="#D18F5F"/>
<g opacity="0.3" filter="url(#filter0_f_5338_17299)">
<ellipse cx="82.498" cy="82.9999" rx="477.131" ry="501.696" fill="#E6D4C6"/>
</g>
</g>
</g>
<defs>
<filter id="filter0_f_5338_17299" x="-594.633" y="-618.696" width="1354.26" height="1403.39" filterUnits="userSpaceOnUse" color-interpolation-filters="sRGB">
<feFlood flood-opacity="0" result="BackgroundImageFix"/>
<feBlend mode="normal" in="SourceGraphic" in2="BackgroundImageFix" result="shape"/>
<feGaussianBlur stdDeviation="100" result="effect1_foregroundBlur_5338_17299"/>
</filter>
<clipPath id="clip0_5338_17299">
<rect width="165" height="166" rx="6" fill="white"/>
</clipPath>
<clipPath id="clip1_5338_17299">
<rect width="201" height="166" fill="white" transform="translate(-18)"/>
</clipPath>
</defs>
</svg>
