<svg xmlns="http://www.w3.org/2000/svg" width="214" height="213" viewBox="0 0 214 213" fill="none">
    <mask id="path-1-inside-1_338_1458" fill="white">
      <path d="M0.682404 0H213.024V212.341H0.682404V0Z"/>
    </mask>
    <path d="M0.682404 0H213.024V212.341H0.682404V0Z" fill="white"/>
    <path d="M0.682404 212.341H-0.317596V213.341H0.682404V212.341ZM213.024 211.341H0.682404V213.341H213.024V211.341ZM1.6824 212.341V0H-0.317596V212.341H1.6824Z" fill="#E5E5E5" mask="url(#path-1-inside-1_338_1458)"/>
    <path d="M61.5239 101.699C59.2911 98.6624 53.7942 97.6349 50.1947 101.699C47.024 105.279 47.5295 109.614 50.1953 112.406C51.976 114.64 58.8164 115.273 61.2682 111.734" stroke="black" strokeWidth="2.98707"/>
    <circle cx="73.5829" cy="106.628" r="7.88162" stroke="black" strokeWidth="2.98707"/>
    <circle cx="136.338" cy="106.628" r="7.88162" stroke="black" strokeWidth="2.98707"/>
    <path fill-rule="evenodd" clip-rule="evenodd" d="M109.137 97.9203L103.278 115.708L100.439 115.653L96.5953 103.059L92.5036 115.677L89.6601 115.671L84.021 97.9051H87.0973L91.0941 110.34L95.2177 97.6233L98.0669 97.648L101.961 110.407L106.031 97.9203H109.137Z" fill="black"/>
    <path d="M120.108 106.813C125.601 107.817 123.982 114.107 120.108 113.962H113.495V106.706M120.108 106.813L113.495 106.706M120.108 106.813C121.393 106.096 121.871 105.425 121.985 103.608C122.18 100.518 120.213 99.4495 118.857 99.4495H113.495V106.706" stroke="black" strokeWidth="2.98707"/>
    <path fill-rule="evenodd" clip-rule="evenodd" d="M154.51 106.259L149.045 97.9158H146.111L152.774 109.109L149.193 115.278H152.429L162.588 97.9342H159.589L154.51 106.259Z" fill="black"/>
    <path fill-rule="evenodd" clip-rule="evenodd" d="M163.192 110.826C163.185 110.58 162.86 110.497 162.736 110.709L162.236 111.562C162.162 111.688 161.994 111.722 161.877 111.633L161.088 111.039C160.891 110.891 160.623 111.093 160.712 111.323L161.067 112.245C161.119 112.382 161.041 112.534 160.899 112.57L159.942 112.817C159.704 112.878 159.695 113.214 159.929 113.288L160.872 113.585C161.011 113.629 161.081 113.785 161.022 113.919L160.618 114.821C160.517 115.046 160.774 115.262 160.978 115.124L161.798 114.573C161.92 114.491 162.085 114.534 162.153 114.664L162.606 115.542C162.719 115.761 163.048 115.695 163.068 115.45L163.148 114.465C163.16 114.319 163.297 114.216 163.44 114.244L164.409 114.438C164.651 114.486 164.805 114.187 164.625 114.019L163.905 113.342C163.799 113.241 163.803 113.071 163.915 112.976L164.67 112.339C164.858 112.18 164.721 111.874 164.477 111.909L163.499 112.05C163.354 112.071 163.223 111.96 163.219 111.814L163.192 110.826ZM162.361 113.81C162.743 113.81 163.053 113.5 163.053 113.117C163.053 112.735 162.743 112.425 162.361 112.425C161.978 112.425 161.669 112.735 161.669 113.117C161.669 113.5 161.978 113.81 162.361 113.81Z" fill="black"/>
  </svg>