<svg xmlns="http://www.w3.org/2000/svg" width="101" height="41" viewBox="0 0 101 41" fill="none">
    <g clipPath="url(#clip0_338_1470)">
      <path fill-rule="evenodd" clip-rule="evenodd" d="M0.194214 40.1707H100.18H100.194V0.170654H0.194214V40.1707ZM50.2014 38.1707C22.3105 38.1707 2.19421 30.0032 2.19421 20.1707C2.19421 10.3382 22.3248 2.17065 50.2014 2.17065C78.0779 2.17065 98.1942 10.3382 98.1942 20.1707C98.1942 30.0032 78.0922 38.1707 50.2014 38.1707Z" fill="black"/>
      <path d="M46.6422 26.1753C46.9575 26.623 47.3015 27.0427 47.7028 27.4205H36.8816C36.8816 27.0007 36.466 26.1473 36.0073 25.4758C35.5487 24.8042 33.0691 21.1248 33.0691 21.1248V26.1753C33.0691 26.595 33.0691 27.0007 33.2841 27.4205H24.2689C24.4839 27.0007 24.4839 26.595 24.4839 26.1753V14.1714C24.4839 13.7517 24.4839 13.346 24.2689 12.9263H33.2841C33.0691 13.346 33.0691 13.7517 33.0691 14.1714V19.4179C33.0691 19.4179 35.95 15.7524 36.6093 14.8989C37.1109 14.2554 37.7273 13.3459 37.7273 12.9263H47.1295C46.4845 13.346 45.7679 14.1015 45.1802 14.801C44.6642 15.4166 41.7404 18.9002 41.7404 18.9002C41.7404 18.9002 46.0689 25.3499 46.6422 26.1753ZM49.48 14.1714V26.1753C49.48 26.595 49.48 27.0007 49.265 27.4205H66.6649V23.3912C66.2349 23.601 65.8192 23.601 65.3893 23.601H58.0653V21.6983H65.1026V18.6483H58.0653V16.7317H65.3893C65.8193 16.7317 66.2349 16.7317 66.6649 16.9276V12.9123H49.265C49.48 13.346 49.48 13.7517 49.48 14.1714ZM90.7724 26.1753C90.9157 26.637 91.1594 27.0567 91.4747 27.4205H82.0438C82.0868 27.0007 81.9292 26.595 81.7572 26.1753C81.7572 26.1753 81.6138 25.8395 81.4132 25.3499L81.3272 25.14H75.8951L75.8091 25.3638C75.8091 25.3638 75.6514 25.7696 75.5081 26.1893C75.3648 26.609 75.2071 27.0147 75.2645 27.4344H67.8258C68.1297 27.0675 68.3586 26.6445 68.4995 26.1893L72.9569 14.1854C73.1146 13.7657 73.2722 13.36 73.2149 12.9403H85.7846C85.67 13.36 85.8993 13.7657 86.057 14.1854C86.4296 15.0948 90.457 25.3638 90.7724 26.1753ZM80.1376 22.0761L78.819 18.7183C78.7043 18.4106 78.604 18.0888 78.5323 17.767C78.475 18.0912 78.3886 18.4096 78.2743 18.7183C78.2313 18.8583 77.6723 20.3273 77.0273 22.0761H80.1376ZM19.9977 12.9263H10.1942C10.4092 13.346 10.4092 13.7517 10.4092 14.1714V26.1753C10.4092 26.595 10.4092 27.0007 10.1942 27.4205H19.9977C19.7827 27.0007 19.7827 26.595 19.7827 26.1753V14.1714C19.7827 13.7517 19.7827 13.346 19.9977 12.9263ZM87.7625 14.0735C87.7195 13.0522 88.5365 12.1988 89.5828 12.1708H89.7118C90.7724 12.1568 91.6467 12.9682 91.661 14.0035V14.0735C91.6897 15.1228 90.844 16.0042 89.7548 16.0322C88.6798 16.0602 87.7768 15.2347 87.7482 14.1714C87.7625 14.1434 87.7625 14.1015 87.7625 14.0735ZM88.1495 14.0735C88.1495 14.9129 88.8518 15.5985 89.7118 15.5985C90.5718 15.5985 91.274 14.9129 91.274 14.0735C91.274 13.2341 90.5717 12.5485 89.7118 12.5485C88.8805 12.5205 88.1782 13.1501 88.1495 13.9615V14.0735ZM89.3248 15.2067H88.9808V12.9123H89.8551C90.2708 12.9263 90.5861 13.248 90.5861 13.6538C90.5861 13.9336 90.4284 14.1854 90.1704 14.3253L90.6721 15.2067H90.2851L89.8264 14.3953H89.3248V15.2067ZM89.3248 14.0735H89.7978C90.0271 14.0875 90.2278 13.9195 90.2278 13.6957C90.2278 13.4719 90.0701 13.276 89.8408 13.276H89.3248V14.0735Z" fill="black"/>
    </g>
    <defs>
      <clipPath id="clip0_338_1470">
        <rect width="100" height="40" fill="white" transform="translate(0.194214 0.170654)"/>
      </clipPath>
    </defs>
  </svg>