<svg xmlns="http://www.w3.org/2000/svg" width="213" height="213" viewBox="0 0 213 213" fill="none">
    <mask id="path-1-inside-1_338_1476" fill="white">
        <path d="M0 0.341309H212.341V212.683H0V0.341309Z" />
    </mask>
    <path d="M0 0.341309H212.341V212.683H0V0.341309Z" fill="white" />
    <path d="M212.341 211.683H0V213.683H212.341V211.683Z" fill="#E5E5E5"
        mask="url(#path-1-inside-1_338_1476)" />
    <path fill-rule="evenodd" clip-rule="evenodd"
        d="M68.8841 103.665V94.0969H74.4235V108.197H72.9127L72.4091 107.694H71.402L69.3877 105.679V104.168L68.8841 103.665ZM91.0416 119.276V94.0969H96.5809V119.276H91.0416ZM134.349 100.14H134.853L135.356 100.643H136.364L136.867 101.147H137.371L139.889 103.665V104.168L140.392 104.672V105.679L140.896 106.183V112.729L140.392 113.233V114.24L139.889 114.744V115.247L139.385 115.751V116.254L137.371 118.269H136.867L136.364 118.772H135.86L135.356 119.276H130.321L129.817 118.772H129.314L128.81 118.269L129.314 115.247H132.335L133.342 114.24H133.846L134.349 113.736V113.233L134.853 112.729V112.226L135.356 111.722V108.197L134.853 107.19V106.686L134.349 106.183V100.14ZM80.97 101.147L81.4736 100.643H88.0201V101.147L87.0129 102.154V102.658L82.9843 106.686V107.19L80.97 109.204H79.9628L79.4592 108.701H74.927V108.197L77.4449 105.679V105.176L80.97 101.651V101.147ZM99.6024 100.643H105.142V113.233L105.645 113.736V114.24L106.149 114.744H106.653L107.156 115.247H109.17L109.674 114.744H110.178L111.185 113.736V113.233L111.688 112.729V112.226L112.192 111.722V100.643H113.199V118.772L112.192 116.758L110.178 118.772H109.17L108.667 119.276H106.149L105.142 117.262L104.638 119.276H103.631L103.127 118.772H102.624L100.61 116.758V116.254L100.106 115.751V115.247L99.6024 114.24V100.643ZM128.81 104.168V102.154L131.328 104.168H128.81ZM78.4521 110.211L78.9557 109.708H80.97L81.4736 110.211V110.715L79.4592 115.751H78.9557L78.4521 115.247V114.744L75.4306 111.722V111.219L74.4235 110.715V110.211H78.4521ZM71.9056 111.219L72.4091 110.715H74.4235V119.276H68.8841V115.247L69.3877 114.24V113.233L69.8913 112.729V112.226L70.3948 111.722H70.8984L71.402 111.219H71.9056ZM84.495 114.24H84.9986V114.744H84.495V114.24ZM86.0058 119.276L86.5093 116.254L88.5237 118.269V119.276H86.0058Z"
        fill="black" />
    <path fill-rule="evenodd" clip-rule="evenodd"
        d="M129.817 100.643L130.321 100.14H133.342L134.349 102.154V105.176H133.846L133.342 104.672H132.839L132.335 104.169H131.328L128.81 102.154V100.643H129.817ZM134.853 100.14H135.357V100.643H134.853V100.14ZM114.71 119.276L113.703 108.197L116.221 100.643H117.731V119.276H114.71ZM136.364 100.643H136.867V101.147H136.364V100.643ZM120.753 108.197L122.264 104.169L124.278 107.694L126.796 108.197V109.204L126.292 110.211L126.796 110.715V112.226L127.299 112.729V113.233L128.81 114.744H129.314V115.247L128.81 118.269H128.307L126.796 116.758L126.292 119.276H121.256L120.753 111.219V108.197ZM128.81 104.169H129.314V104.672H128.81V104.169ZM79.4594 115.751L81.4737 110.715H81.9773V111.219L84.4952 113.737V114.24L85.5023 115.247H86.0059L86.5095 115.751V116.254L86.0059 119.276H81.9773V118.772L79.4594 116.254V115.751ZM105.142 113.233H105.645V113.737H105.142V113.233ZM105.645 114.24H106.149V114.744H105.645V114.24ZM106.653 114.744H107.156V115.247H106.653V114.744ZM112.192 117.262V116.758L113.199 118.772V119.276L112.192 117.262ZM104.638 119.276L105.142 117.262L106.149 119.276H104.638ZM88.5238 118.772H89.0274V119.276H88.5238V118.772Z"
        fill="black" />
    <path
        d="M120.753 94.0969V100.14V108.197L122.263 104.168L124.278 107.694L126.796 108.197V107.694V107.19L127.299 106.686V106.183L127.803 105.679L128.306 105.176L128.81 104.672V104.168V102.154V101.147H128.306L127.803 101.651L127.299 102.154H126.796V99.1327V98.6291V98.1256V94.0969H120.753Z"
        fill="black" />
    <path d="M133.342 100.14L134.349 102.154V100.14H133.846H133.342Z" fill="black" />
    <path d="M113.199 100.643V118.772V119.276H114.71L113.703 108.197L116.22 100.643H113.199Z"
        fill="black" />
    <path d="M78.9557 109.708H78.4521V110.211H78.9557V109.708Z" fill="black" />
    <path d="M126.796 110.211H126.292V110.715H126.796V110.211Z" fill="black" />
    <path d="M74.4235 110.715V111.219H74.927H75.4306L74.4235 110.715Z" fill="black" />
    <path
        d="M81.9771 111.219H82.4807V111.722H82.9843V112.226H83.4879V112.729H82.9843V112.226H82.4807V111.722H81.9771V111.219Z"
        fill="black" />
    <path d="M120.753 111.219V111.722V117.765V119.276H121.256L120.753 111.219Z" fill="black" />
    <path d="M69.8913 112.729H69.3877V113.233H69.8913V112.729Z" fill="black" />
    <path d="M68.8841 114.24V115.247L69.3877 114.24H68.8841Z" fill="black" />
    <path d="M128.81 114.24H128.306V114.744H128.81V114.24Z" fill="black" />
    <path d="M85.5022 114.744H84.9986V115.247H85.5022V114.744Z" fill="black" />
    <path d="M131.328 99.6362V100.14H132.335V99.6362H131.328Z" fill="black" />
    <path d="M133.846 99.6362H133.342V100.14H133.846V99.6362Z" fill="black" />
    <path d="M129.817 100.14H129.314V100.643H129.817V100.14Z" fill="black" />
    <path d="M99.0989 100.643V112.226H99.6025V100.643H99.0989Z" fill="black" />
    <path d="M117.731 100.643V119.276L118.235 118.269V111.722V100.643H117.731Z" fill="black" />
    <path d="M130.321 104.168H129.817V104.672H130.321V104.168Z" fill="black" />
    <path d="M134.349 105.176H133.846V105.679H134.349V105.176Z" fill="black" />
    <path d="M140.896 105.679H140.392V106.183H140.896V105.679Z" fill="black" />
    <path d="M134.853 107.19V108.197H135.357L134.853 107.19Z" fill="black" />
    <path d="M74.4235 108.197H73.92V108.701H74.4235V108.197Z" fill="black" />
    <path d="M141.4 108.701H140.896V109.204H141.4V108.701Z" fill="black" />
    <path d="M76.4379 109.708V110.211H77.445V109.708H76.4379Z" fill="black" />
    <path d="M141.4 110.211H140.896V110.715H141.4V110.211Z" fill="black" />
    <path d="M72.4092 110.715H71.9057V111.219H72.4092V110.715Z" fill="black" />
    <path d="M71.4021 111.219H70.8985V111.722H71.4021V111.219Z" fill="black" />
    <path d="M135.357 111.219H134.853V111.722H135.357V111.219Z" fill="black" />
    <path d="M105.142 112.226V113.233H105.645V112.226H105.142Z" fill="black" />
    <path d="M128.306 113.736H127.803V114.24H128.306V113.736Z" fill="black" />
    <path d="M106.653 114.24H106.149V114.744H106.653V114.24Z" fill="black" />
    <path d="M108.667 114.744H108.163V115.247H108.667V114.744Z" fill="black" />
    <path d="M131.328 114.744V115.247H132.335V114.744H131.328Z" fill="black" />
    <path d="M74.4235 94.0969V108.197H74.927V107.694V103.665L74.4235 94.0969Z" fill="black" />
    <path d="M99.6024 100.14V100.643H105.142V100.14H99.6024Z" fill="black" />
    <path d="M112.192 100.14V100.643H113.199V100.14H112.192Z" fill="black" />
    <path d="M80.4664 101.651H80.97V102.154H80.4664V102.658H79.9628V102.154H80.4664V101.651Z"
        fill="black" />
    <path d="M69.3877 104.168H68.8841V104.672H69.3877V104.168Z" fill="black" />
    <path d="M78.4521 108.701V109.204H79.4592V108.701H78.4521Z" fill="black" />
    <path d="M77.4449 109.708V110.211H78.4521V109.708H77.4449Z" fill="black" />
    <path d="M74.4235 111.219V116.758H74.927V111.219H74.4235Z" fill="black" />
    <path d="M134.349 113.736H133.846V114.24H134.349V113.736Z" fill="black" />
    <path d="M99.6024 114.24V115.247H100.106L99.6024 114.24Z" fill="black" />
    <path d="M129.817 114.744H129.314V115.247H129.817V114.744Z" fill="black" />
    <path d="M132.839 114.744H132.335V115.247H132.839V114.744Z" fill="black" />
    <path d="M91.0416 94.0969L90.5381 100.643L91.0416 119.276V94.0969Z" fill="black" />
    <path d="M82.9844 100.14V100.643H88.0202H88.5237V100.14H82.9844Z" fill="black" />
    <path d="M107.66 114.744H107.156V115.247H107.66V114.744Z" fill="black" />
    <path d="M130.321 114.744H129.817V115.247H130.321V114.744Z" fill="black" />
    <path d="M105.142 119.276V119.779H106.149V119.276H105.142Z" fill="black" />
    <path d="M107.156 119.276H106.653V119.779H107.156V119.276Z" fill="black" />
    <path d="M131.832 119.276V119.779H133.342V119.276H131.832Z" fill="black" />
    <path d="M81.9772 100.14V100.643H82.9844V100.14H81.9772Z" fill="black" />
    <path d="M88.5237 100.643H88.0201V101.147H88.5237V100.643Z" fill="black" />
    <path d="M69.3877 104.672H68.8842V105.176H69.3877V104.672Z" fill="black" />
    <path d="M74.9271 108.197H74.4235V108.701H74.9271V108.197Z" fill="black" />
    <path d="M77.445 108.701V109.204H78.4522V108.701H77.445Z" fill="black" />
    <path d="M74.4235 110.211H73.9199V110.715H74.4235V110.211Z" fill="black" />
    <path d="M69.3877 113.737H68.8842V114.24H69.3877V113.737Z" fill="black" />
    <path d="M112.192 111.722H111.688V112.226H112.192V111.722Z" fill="black" />
    <path d="M109.674 118.772H109.17V119.276H109.674V118.772Z" fill="black" />
    <path d="M107.156 119.276V119.779H108.163V119.276H107.156Z" fill="black" />
    <path d="M133.846 119.276H133.342V119.779H133.846V119.276Z" fill="black" />
    <path d="M87.5166 102.155H87.013V102.658H87.5166V102.155Z" fill="black" />
    <path d="M78.4522 104.169H77.9486V104.672H78.4522V104.169Z" fill="black" />
    <path d="M69.3877 105.176H68.8842V105.68H69.3877V105.176Z" fill="black" />
    <path d="M127.803 106.183H127.299V106.687H127.803V106.183Z" fill="black" />
    <path d="M83.4879 106.687H82.9844V107.19H83.4879V106.687Z" fill="black" />
    <path d="M141.399 107.694H140.896V108.197H141.399V107.694Z" fill="black" />
    <path d="M73.9199 108.197H73.4164V108.701H73.9199V108.197Z" fill="black" />
    <path d="M126.796 111.219V112.226H127.299V111.723L126.796 111.219Z" fill="black" />
    <path d="M141.399 111.219H140.896V111.723H141.399V111.219Z" fill="black" />
    <path d="M105.645 111.723H105.142V112.226H105.645V111.723Z" fill="black" />
    <path d="M131.328 114.744H130.824V115.248H131.328V114.744Z" fill="black" />
    <path d="M140.392 114.744H139.889V115.248H140.392V114.744Z" fill="black" />
    <path d="M134.853 119.276H134.349V119.78H134.853V119.276Z" fill="black" />
    <path d="M113.199 100.14V100.643H116.221H117.731V100.14H113.199Z" fill="black" />
    <path d="M130.321 100.14H129.817V100.643H130.321V100.14Z" fill="black" />
    <path d="M126.796 109.204L126.292 110.211H126.796V109.204Z" fill="black" />
    <path d="M127.299 112.226H126.796V112.729H127.299V112.226Z" fill="black" />
    <path d="M127.803 113.233H127.299V113.737H127.803V113.233Z" fill="black" />
    <path d="M126.796 116.758L126.292 119.276L126.796 117.262V116.758Z" fill="black" />
    <path d="M131.328 99.6362H130.824V100.14H131.328V99.6362Z" fill="black" />
    <path d="M134.349 99.6362H133.846V100.14H134.349V99.6362Z" fill="black" />
    <path d="M79.4593 115.751H78.9557V116.254H79.4593V115.751Z" fill="black" />
    <path d="M132.335 99.6362V100.14H133.342V99.6362H132.335Z" fill="black" />
    <path d="M135.86 100.14H135.357V100.643H135.86V100.14Z" fill="black" />
    <path d="M132.335 104.168H131.832V104.672H132.335V104.168Z" fill="black" />
    <path d="M140.896 109.204V110.211H141.4V109.204H140.896Z" fill="black" />
    <path d="M135.357 111.722H134.853V112.226H135.357V111.722Z" fill="black" />
    <path d="M109.171 114.744H108.667V115.247H109.171V114.744Z" fill="black" />
    <path fill-rule="evenodd" clip-rule="evenodd"
        d="M99.0989 100.14H99.6025V100.643H99.0989V100.14ZM130.321 104.169H130.824V104.672H130.321V104.169ZM131.328 104.169H131.832V104.672H131.328V104.169ZM126.796 107.19H127.299V107.694H126.796V107.19ZM71.9057 107.694H72.4092V108.197H71.9057V107.694ZM74.9271 107.694H75.4307V108.197H74.9271V107.694ZM140.896 108.197H141.4V108.701H140.896V108.197ZM77.445 109.204L76.4379 108.701H77.445V109.204ZM111.688 111.722V110.715H112.192V111.722H111.688ZM134.853 110.715H135.357V111.219H134.853V110.715ZM140.896 110.715H141.4V111.219H140.896V110.715ZM99.0989 112.226H99.6025V112.729H99.0989V112.226ZM140.392 113.233H140.896V113.737H140.392V113.233ZM130.321 114.744H130.824V115.247H130.321V114.744ZM100.106 116.254H100.61V116.758H100.106V116.254ZM129.314 118.772H129.817V119.276H129.314V118.772ZM104.638 119.276H105.142V119.779H104.638V119.276ZM131.832 119.779L130.824 119.276H131.832V119.779ZM133.846 119.276H134.349V119.779H133.846V119.276Z"
        fill="black" />
    <path d="M129.817 104.168H129.314V104.672H129.817V104.168Z" fill="black" />
    <path d="M109.674 114.744H109.17V115.247H109.674V114.744Z" fill="black" />
    <path d="M74.4235 116.758V119.276L74.9271 118.772V116.758H74.4235Z" fill="black" />
    <path d="M106.653 119.276H106.149V119.779H106.653V119.276Z" fill="black" />
    <path fill-rule="evenodd" clip-rule="evenodd"
        d="M69.8913 111.722H70.3949V112.226H69.8913V111.722ZM82.9844 111.722H83.488V112.226H82.9844V111.722ZM99.6025 113.736L99.0989 112.729H99.6025V113.736ZM99.6025 115.247H100.106V115.751H99.6025V115.247ZM108.163 119.276H108.667V119.779H108.163V119.276Z"
        fill="black" />
    <path d="M108.163 114.743H107.66V115.247H108.163V114.743Z" fill="black" />
    <path d="M127.299 98.1255H126.796V98.6291H127.299V98.1255Z" fill="black" />
    <path d="M130.824 99.6362H130.321V100.14H130.824V99.6362Z" fill="black" />
    <path d="M141.4 106.686H140.896V107.19H141.4V106.686Z" fill="black" />
    <path d="M128.307 113.233H127.803V113.736H128.307V113.233Z" fill="black" />
    <path d="M107.156 114.24H106.653V114.744H107.156V114.24Z" fill="black" />
    <path fill-rule="evenodd" clip-rule="evenodd"
        d="M111.688 100.14H112.192V100.643H111.688V100.14ZM80.4664 101.147H80.97V101.651H80.4664V101.147ZM79.9628 101.651H80.4664V102.154H79.9628V101.651ZM71.402 110.715H71.9055V111.219H71.402V110.715ZM70.3948 111.219H70.8984V111.722H70.3948V111.219ZM133.342 113.737H133.846V114.24H133.342V113.737ZM128.81 114.24H129.314V114.744H128.81V114.24ZM121.76 119.276H120.753H121.256H121.76Z"
        fill="black" />
    <path d="M87.5165 101.65H87.0129V102.154H87.5165V101.65Z" fill="black" />
    <path d="M138.882 102.154H138.378V102.657H138.882V102.154Z" fill="black" />
    <path d="M110.681 114.24H110.178V114.743H110.681V114.24Z" fill="black" />
    <path d="M87.0129 116.254H86.5094V116.758H87.0129V116.254Z" fill="black" />
    <path d="M102.12 117.765H101.617V118.268H102.12V117.765Z" fill="black" />
    <path d="M129.314 118.268H128.81V118.772H129.314V118.268Z" fill="black" />
    <path d="M109.17 118.772H108.667V119.275H109.17V118.772Z" fill="black" />
    <path d="M144.421 94.6003H143.917V95.1039H144.421V94.6003Z" fill="black" />
    <path d="M69.3877 103.665H68.8842V104.168H69.3877V103.665Z" fill="black" />
    <path d="M133.846 104.672H133.342V105.175H133.846V104.672Z" fill="black" />
    <path d="M83.4879 105.679H83.9915V106.183H83.4879V106.686H82.9844V106.183H83.4879V105.679Z"
        fill="black" />
    <path d="M69.8913 106.183H70.3949V106.686H70.8985V107.19H70.3949V106.686H69.8913V106.183Z"
        fill="black" />
    <path d="M79.9629 108.701H79.4593V109.204H79.9629V108.701Z" fill="black" />
    <path d="M83.9915 112.729H83.4879V113.233H83.9915V112.729Z" fill="black" />
    <path d="M78.4522 114.24H77.9486V114.743H78.4522V114.24Z" fill="black" />
    <path d="M80.97 117.765H81.4736V118.269H81.9772V118.772H81.4736V118.269H80.97V117.765Z"
        fill="black" />
    <path d="M128.306 101.147H127.803V101.65H128.306V101.147Z" fill="black" />
    <path d="M137.371 101.147H137.874V101.65H138.378V102.154H137.874V101.65H137.371V101.147Z"
        fill="black" />
    <path d="M127.299 102.154H126.796V102.657H127.299V102.154Z" fill="black" />
    <path d="M71.4021 107.19H70.8985V107.693H71.4021V107.19Z" fill="black" />
    <path d="M81.9772 108.197H81.4736V108.7H81.9772V108.197Z" fill="black" />
    <path d="M73.92 110.211H73.4164V110.715H73.92V110.211Z" fill="black" />
    <path d="M82.4808 110.715H81.9772V111.218H82.4808V110.715Z" fill="black" />
    <path d="M75.9343 112.225H76.4379V112.729H76.9414V113.233H76.4379V112.729H75.9343V112.225Z"
        fill="black" />
    <path d="M79.4593 116.254H79.9629V116.758H80.4665V117.261H79.9629V116.758H79.4593V116.254Z"
        fill="black" />
    <path d="M112.192 116.758H111.688V117.261H112.192V116.758Z" fill="black" />
    <path
        d="M126.796 116.758H127.299V117.261H127.803V117.765H128.306V118.268H127.803V117.765H127.299V117.261H126.796V116.758Z"
        fill="black" />
    <path d="M79.963 102.658H79.4594V103.162H79.963V102.658Z" fill="black" />
    <path d="M69.8914 105.679H69.3878V106.183H69.8914V105.679Z" fill="black" />
    <path
        d="M76.9415 105.679H77.4451V106.183H76.9415V106.687H76.438V107.19H75.9344V106.687H76.438V106.183H76.9415V105.679Z"
        fill="black" />
    <path d="M72.9129 107.694H72.4093V108.197H72.9129V107.694Z" fill="black" />
    <path d="M81.4737 109.708H80.9702V110.212H81.4737V109.708Z" fill="black" />
    <path d="M84.4952 113.233H83.9916V113.737H84.4952V113.233Z" fill="black" />
    <path d="M77.9487 113.737H77.4451V114.24H77.9487V113.737Z" fill="black" />
    <path d="M100.61 115.751H100.106V116.255H100.61V115.751Z" fill="black" />
    <path d="M87.5167 116.758H87.0131V117.262H87.5167V116.758Z" fill="black" />
    <path d="M101.113 116.758H100.61V117.262H101.113V116.758Z" fill="black" />
    <path d="M103.631 118.772H103.128V119.276H103.631V118.772Z" fill="black" />
    <path d="M130.321 118.772H129.817V119.276H130.321V118.772Z" fill="black" />
    <path d="M85.5022 104.168H84.9986V104.672H85.5022V104.168Z" fill="black" />
    <path d="M128.306 105.176H127.803V105.679H128.306V105.176Z" fill="black" />
    <path d="M84.9986 113.736H84.495V114.24H84.9986V113.736Z" fill="black" />
    <path d="M88.0201 117.262H87.5165V117.765H88.0201V117.262Z" fill="black" />
    <path d="M81.4736 100.14H81.9772V100.643H81.4736V101.147H80.97V100.643H81.4736V100.14Z"
        fill="black" />
    <path d="M139.889 103.161H139.385V103.665H139.889V103.161Z" fill="black" />
    <path d="M140.896 105.176H140.392V105.679H140.896V105.176Z" fill="black" />
    <path d="M137.874 117.765H137.371V118.269H137.874V117.765Z" fill="black" />
    <path d="M79.4593 103.161H78.9557V103.665H79.4593V103.161Z" fill="black" />
    <path d="M84.4951 104.672H84.9987V105.175H84.4951V105.679H83.9915V105.175H84.4951V104.672Z"
        fill="black" />
    <path d="M75.9342 107.19H75.4307V107.693H75.9342V107.19Z" fill="black" />
    <path d="M81.4736 108.7H80.97V109.204H81.4736V108.7Z" fill="black" />
    <path d="M81.9772 110.211H81.4736V110.715H81.9772V110.211Z" fill="black" />
    <path d="M77.445 113.233H76.9414V113.736H77.445V113.233Z" fill="black" />
    <path d="M142.407 94.0969H141.903V94.6005H142.407V94.0969Z" fill="black" />
    <path d="M134.853 99.6363H134.349V100.14H134.853V99.6363Z" fill="black" />
    <path d="M136.364 100.14H135.86V100.643H136.364V100.14Z" fill="black" />
    <path d="M128.81 100.643H128.306V101.147H128.81V100.643Z" fill="black" />
    <path d="M86.5094 102.658H87.013V103.161H86.5094V103.665H86.0058V103.161H86.5094V102.658Z"
        fill="black" />
    <path d="M77.9486 104.672H77.445V105.176H77.9486V104.672Z" fill="black" />
    <path d="M82.4808 107.19H82.9844V107.694H82.4808V108.197H81.9772V107.694H82.4808V107.19Z"
        fill="black" />
    <path d="M135.357 110.211H134.853V110.715H135.357V110.211Z" fill="black" />
    <path d="M111.688 112.729H111.185V113.233H111.688V112.729Z" fill="black" />
    <path d="M127.803 112.729H127.299V113.233H127.803V112.729Z" fill="black" />
    <path d="M133.342 114.24H132.839V114.744H133.342V114.24Z" fill="black" />
    <path d="M139.385 116.254H138.882V116.758H139.385V116.254Z" fill="black" />
    <path d="M127.803 101.65H127.299V102.154H127.803V101.65Z" fill="black" />
    <path d="M128.81 104.672H128.306V105.175H128.81V104.672Z" fill="black" />
    <path d="M127.803 105.679H127.299V106.182H127.803V105.679Z" fill="black" />
    <path d="M127.299 106.686H126.796V107.19H127.299V106.686Z" fill="black" />
    <path d="M142.91 94.0969H142.407V94.6005H142.91V94.0969Z" fill="black" />
    <path d="M143.917 94.6005H143.414V95.1041H143.917V94.6005Z" fill="black" />
    <path d="M69.3877 113.233H68.8841V113.736H69.3877V113.233Z" fill="black" />
    <path d="M110.681 118.269H110.178V118.772H110.681V118.269Z" fill="black" />
    <path d="M134.853 112.73H134.349V113.233H134.853V112.73Z" fill="black" />
    <path d="M140.896 112.73H140.392V113.233H140.896V112.73Z" fill="black" />
    <path d="M84.9987 114.24H85.5023V114.744H86.0059V115.248H85.5023V114.744H84.9987V114.24Z"
        fill="black" />
    <path d="M140.392 114.24H139.889V114.744H140.392V114.24Z" fill="black" />
    <path d="M139.889 115.248H139.385V115.751H139.889V115.248Z" fill="black" />
    <path d="M138.882 116.758H138.378V117.262H138.882V116.758Z" fill="black" />
    <path d="M88.0202 117.766H88.5238V118.269H89.0273V118.773H88.5238V118.269H88.0202V117.766Z"
        fill="black" />
    <path d="M102.624 118.269H102.12V118.773H102.624V118.269Z" fill="black" />
    <path d="M136.867 118.269H136.364V118.773H136.867V118.269Z" fill="black" />
    <path d="M118.235 100.14H117.731V100.643H118.235V100.14Z" fill="black" />
    <path d="M137.371 100.643H136.867V101.147H137.371V100.643Z" fill="black" />
    <path d="M140.392 104.169H139.889V104.672H140.392V104.169Z" fill="black" />
    <path d="M134.853 106.183H134.349V106.686H134.853V106.183Z" fill="black" />
    <path d="M76.4378 109.708H75.9342V110.211H76.4378V109.708Z" fill="black" />
    <path d="M82.9843 111.219H82.4808V111.722H82.9843V111.219Z" fill="black" />
    <path d="M75.9342 111.722H75.4307V112.226H75.9342V111.722Z" fill="black" />
    <path d="M106.149 113.737H105.645V114.24H106.149V113.737Z" fill="black" />
    <path d="M132.839 104.168H132.335V104.672H132.839V104.168Z" fill="black" />
    <path d="M80.9701 117.262H80.4666V117.765H80.9701V117.262Z" fill="black" />
    <path d="M111.185 117.262H111.688V117.765H111.185V118.269H110.681V117.765H111.185V117.262Z"
        fill="black" />
    <path d="M78.9558 115.247H78.4522V115.751H78.9558V115.247Z" fill="black" />
    <path d="M86.5095 115.247H86.0059V115.751H86.5095V115.247Z" fill="black" />
    <path d="M89.5309 118.772H89.0274V119.276H89.5309V118.772Z" fill="black" />
    <path d="M86.0058 103.665H85.5022V104.168H86.0058V103.665Z" fill="black" />
</svg>