<svg xmlns="http://www.w3.org/2000/svg" width="67" height="37" viewBox="0 0 67 37" fill="none">
    <path d="M63.0186 18.1593C63.1314 14.7595 60.3104 11.9972 56.8123 11.8909C53.2013 11.7847 50.1546 14.4408 50.0418 17.7344C49.9289 21.2404 52.75 24.109 56.4738 24.2153C59.9718 24.2153 62.9057 21.5592 63.0186 18.1593ZM66.968 27.7213H63.1314V25.7027C62.9057 25.8089 62.68 25.9152 62.5672 26.0214C56.1352 30.1649 47.6721 26.6589 46.4308 19.4343C45.5281 14.2283 49.7033 9.02232 55.2325 8.38486C61.6645 7.64115 66.968 12.1034 66.968 18.1593V27.7213ZM21.1543 22.6216C21.38 22.1966 21.4928 21.9841 21.6057 21.6654C23.524 17.3094 25.5551 13.0596 27.4735 8.70359C27.6991 8.27861 27.9248 8.06612 28.3762 8.17237C29.6174 8.17237 30.7459 8.17237 32.1 8.17237C31.9871 8.38486 31.9871 8.59734 31.8743 8.80983C27.5863 18.0531 23.4112 27.1901 19.1232 36.4334C18.8975 36.8583 18.7846 36.9646 18.2204 36.9646C16.9792 36.9646 15.7379 36.9646 14.4967 36.9646C14.6095 36.7521 14.7223 36.5396 14.7223 36.3271C16.0764 33.5648 17.4305 30.6962 18.7846 27.9338C19.0103 27.5088 19.0103 27.1901 18.7846 26.7651C16.1893 20.8154 13.7068 14.8658 11.1114 8.91608C11.1114 8.70359 10.9986 8.59734 10.8857 8.27861C12.2398 8.27861 13.4811 8.27861 14.8352 8.27861C15.0609 8.27861 15.2866 8.59734 15.2866 8.80983C16.8663 12.5284 18.4461 16.2469 20.0259 19.9655C20.3644 20.8154 20.703 21.6654 21.1543 22.6216ZM0.391464 0.947754H4.22808V20.0717C4.22808 22.8341 5.3565 23.8965 8.17754 24.109C8.96743 24.109 9.64448 24.109 10.5472 24.109V27.7213C8.06469 27.8276 5.46934 27.9338 3.2125 26.6589C1.40704 25.7027 0.391464 24.109 0.391464 22.1966C0.391464 15.0782 0.391464 8.06612 0.391464 0.947754ZM34.4696 8.27861H38.3062V11.7847C40.3374 9.23481 42.8199 8.17237 45.9795 8.27861V11.7847C45.8666 11.7847 45.7538 11.8909 45.5281 11.8909C41.9172 11.6784 39.4347 14.0158 38.5319 17.2031C38.3062 18.0531 38.1934 18.903 38.1934 19.8592C38.1934 22.4091 38.1934 25.0652 38.1934 27.6151C38.1934 27.6151 38.1934 27.7213 38.1934 27.8276H34.4696V8.27861Z" fill="#252525"/>
  </svg>