<svg xmlns="http://www.w3.org/2000/svg" width="121" height="21" viewBox="0 0 121 21" fill="none">
    <path
        d="M12.9408 10.1022L14.7803 12.9401L18.4807 7.20329V19.9114H21.6682V1.42606H18.4154L12.9408 10.1022Z"
        fill="black" />
    <path
        d="M4.00029 1.42533H0.776367V19.9106H3.97189V7.20255L11.2268 18.4865L13.0774 15.607L4.00029 1.42533Z"
        fill="black" />
    <path
        d="M40.8367 14.1808L43.7859 19.9106H47.63L37.9862 1.42574H34.5206L34.5177 1.43151L39.3464 11.2345H32.9299L34.6046 8.03871L32.8578 4.56586L24.7319 19.9106H28.3271L31.3645 14.1821L40.8367 14.1808Z"
        fill="black" />
    <path d="M68.9143 1.42457H65.718V10.4013L68.9143 13.5237V1.42457Z" fill="black" />
    <path
        d="M53.4861 1.42557H50.2342V19.9109H53.4318V6.09823L66.5327 19.9109H68.9127V17.6646L53.4861 1.42557Z"
        fill="black" />
    <path
        d="M91.2469 6.55498C89.7248 5.01785 87.3778 4.03349 84.7448 4.03349C80.5425 4.03349 77.0694 6.54221 76.5154 9.79785H72.996C73.4559 4.74455 78.7729 1.01981 84.788 1.01981C88.3654 1.01981 91.5796 2.31539 93.7434 4.39994L91.2469 6.55498Z"
        fill="black" />
    <path
        d="M84.4521 17.3286C80.9437 17.3286 77.9571 15.4794 76.8432 12.8926H73.2531C74.4403 17.3512 79.1084 20.3252 84.6508 20.3252C85.9377 20.3252 87.4187 20.2015 88.6483 19.9046C91.4234 19.2367 94.454 17.4823 94.454 14.7129V9.7982H84.4152L84.408 12.8926H91.2458V14.2973C91.2458 15.8484 88.8632 16.7456 87.4051 17.0606C86.6206 17.23 85.6134 17.3286 84.8005 17.3286H84.4521Z"
        fill="black" />
    <path
        d="M120.875 10.6855C120.875 5.17256 115.73 0.895714 109.411 0.895714C103.293 0.895714 97.9172 4.97507 97.9172 10.3886C97.9172 15.493 102.139 19.5826 107.826 20.2312V17.143C104.105 16.5468 101.293 13.8429 101.293 10.5911C101.293 6.90218 104.909 3.90967 109.368 3.90967C113.829 3.90967 117.443 6.90218 117.443 10.5911C117.443 13.8178 114.676 16.5035 110.998 17.1282V20.223C116.455 19.5777 120.875 15.6406 120.875 10.6855Z"
        fill="black" />
</svg>