<svg xmlns="http://www.w3.org/2000/svg" width="110" height="28" viewBox="0 0 110 28" fill="none">
    <g clipPath="url(#clip0_338_1589)">
      <path d="M7.32786 9.28607H3.56911L3.56934 9.64397V26.8656H7.32786V15.5279C7.32786 13.7423 8.9044 12.3926 11.1909 12.2748C13.4773 12.157 14.803 12.9197 15.0946 15.415V26.889H18.1276C18.1442 23.0644 18.1674 15.415 18.1276 15.415C18.1276 13.4081 20.4638 12.4221 22.5953 12.329C24.3004 12.2546 25.9229 13.6878 25.9229 15.2075V26.889H29.516V13.1573C28.8882 10.2611 26.2803 9.4044 23.5112 9.28607C20.7422 9.16773 17.6954 10.3109 17.1777 12.3519C16.7488 10.4227 15.1407 9.28607 12.4673 9.28607C9.79394 9.28607 7.92711 10.7658 7.32786 11.5056V9.28607Z" fill="black"/>
      <path d="M35.4739 26.8282V9.40161" stroke="black" strokeWidth="3.83562"/>
      <path d="M85.8474 26.8286L85.8474 0.724609" stroke="black" strokeWidth="3.83562"/>
      <circle cx="35.4742" cy="3.0569" r="2.94264" fill="black"/>
      <path d="M58.6848 13.2631L54.9541 17.5632C54.7013 16.1298 53.2485 13.1855 49.459 12.8754C45.6695 12.5652 44.3638 15.508 44.1847 17.0181V19.9884C46.0974 25.8739 52.3644 24.4504 53.6001 22.5512L59.8949 14.6383C60.9607 13.0328 64.2174 9.7083 68.7179 9.25341C73.2185 8.79852 75.3067 11.093 75.7882 12.2971L75.672 0.724365H79.3925V26.7601H75.8065V24.6055C75.4041 25.6348 73.5944 27.6936 69.5743 27.6936C64.49 27.9497 62.3346 23.1412 61.8924 20.7049L65.3101 16.4445C64.953 21.3772 67.1497 24.6724 70.0596 24.6055C72.9694 24.5386 75.4445 22.8997 75.7121 18.652C75.9796 14.4042 74.1735 12.6315 70.0596 12.2971C66.7684 12.0295 63.335 15.6963 62.0297 17.5632L56.9388 24.3139C55.9363 25.3459 52.9087 27.4644 48.8183 27.6826C42.8493 27.2277 40.7585 22.4992 40.4592 20.1918V17.5632C41.3288 11.6616 46.1314 9.19766 48.8183 9.25341C52.0024 9.25341 53.8354 10.0896 54.9541 12.6315V0.724365H58.6848V13.2631Z" fill="black"/>
      <path fill-rule="evenodd" clip-rule="evenodd" d="M94.7806 19.369H106.983C107.362 16.0454 106.418 9.36171 99.6068 9.21601C92.7955 9.07032 91.0017 13.6773 91.0017 17.912V20.8255C91.1686 23.1779 93.1233 27.8189 99.6068 27.5639C105.508 27.309 106.983 23.5118 106.983 21.6451H103.176C102.978 22.7074 101.615 24.2142 99.4451 24.2142C97.275 24.2142 94.7806 22.9974 94.7806 19.369ZM94.8315 16.3722H103.646C103.565 14.9272 102.547 12.0517 99.1181 12.1095C95.6888 12.1673 94.8315 14.9754 94.8315 16.3722Z" fill="black"/>
    </g>
    <defs>
      <clipPath id="clip0_338_1589">
        <rect width="108.455" height="27.6066" fill="white" transform="translate(0.824982 0.0498047)"/>
      </clipPath>
    </defs>
  </svg>