<svg xmlns="http://www.w3.org/2000/svg" width="145" height="37" viewBox="0 0 145 37" fill="none">
    <path d="M42.4374 25.2849V11.2496H45.3093L49.5013 20.3511H49.5476L53.7396 11.2496H56.6346V25.2849H53.9249V16.6564H53.8322L49.7329 25.2849H49.2697L45.1703 16.6564H45.124V25.2849H42.4374ZM66.9873 24.1134C66.0145 25.1046 64.8102 25.6003 63.3279 25.6003C61.8457 25.6003 60.6182 25.1046 59.6686 24.1134C58.6959 23.1221 58.2327 21.7479 58.2327 19.9906C58.2327 18.2559 58.719 16.8817 59.7149 15.8904C60.7108 14.8992 61.9152 14.381 63.3511 14.381C64.787 14.381 65.9914 14.8767 66.9873 15.8904C67.9831 16.8817 68.4695 18.2559 68.4695 19.9906C68.4232 21.7479 67.96 23.1221 66.9873 24.1134ZM61.4983 22.4012C61.9383 22.9644 62.5405 23.2348 63.3048 23.2348C64.0691 23.2348 64.6712 22.9419 65.1113 22.3787C65.5513 21.8155 65.7598 21.0044 65.7598 19.9681C65.7598 18.9318 65.5282 18.1208 65.0881 17.5576C64.6481 16.9944 64.0459 16.7015 63.2816 16.7015C62.5173 16.7015 61.9152 16.9718 61.4751 17.535C61.0351 18.0983 60.8035 18.9093 60.8035 19.9681C60.8498 21.0495 61.0582 21.838 61.4983 22.4012ZM72.8005 25.2849L68.4232 14.6739H71.2024L73.9122 21.5001H73.9585L76.6682 14.6739H79.4011L75.0239 25.3074H72.8005V25.2849ZM87.2525 21.6352L89.1284 23.2348C88.0168 24.8118 86.5113 25.6003 84.6122 25.6003C83.0836 25.6003 81.833 25.0821 80.8834 24.0683C79.9107 23.0545 79.4475 21.6803 79.4475 19.9906C79.4475 18.301 79.9338 16.9268 80.8834 15.913C81.833 14.8992 83.0373 14.381 84.4964 14.381C85.9555 14.381 87.1598 14.8992 88.0862 15.913C89.0358 16.9268 89.499 18.301 89.499 19.9906V20.7792H82.1572C82.2035 21.5902 82.4351 22.221 82.852 22.649C83.2689 23.0771 83.8479 23.3024 84.5659 23.3024C85.1912 23.3024 85.7007 23.1447 86.0945 22.8518C86.5113 22.5364 86.8819 22.1309 87.2525 21.6352ZM82.1572 18.8192H86.9051C86.8356 18.1433 86.604 17.6026 86.1871 17.2196C85.7702 16.8367 85.2144 16.6564 84.4964 16.6564C83.8479 16.6564 83.2921 16.8592 82.8752 17.2872C82.4583 17.6927 82.2035 18.2109 82.1572 18.8192ZM92.533 25.2849L90.1243 14.6514H92.7415L94.1774 21.7479H94.2469L96.6787 14.6514H99.1105L101.357 21.7254H101.403L103.048 14.6514H105.619L103.001 25.2849H100.361L97.8599 17.6477H97.8135L95.1038 25.2849H92.533ZM114.697 24.1134C113.725 25.1046 112.52 25.6003 111.038 25.6003C109.556 25.6003 108.328 25.1046 107.379 24.1134C106.406 23.1221 105.943 21.7479 105.943 19.9906C105.943 18.2559 106.429 16.8817 107.425 15.8904C108.421 14.8992 109.625 14.381 111.061 14.381C112.497 14.381 113.701 14.8767 114.697 15.8904C115.693 16.8817 116.18 18.2559 116.18 19.9906C116.133 21.7479 115.67 23.1221 114.697 24.1134ZM109.208 22.4012C109.648 22.9644 110.251 23.2348 111.015 23.2348C111.779 23.2348 112.381 22.9419 112.821 22.3787C113.261 21.8155 113.47 21.0044 113.47 19.9681C113.47 18.9318 113.238 18.1208 112.798 17.5576C112.358 16.9944 111.756 16.7015 110.992 16.7015C110.227 16.7015 109.625 16.9718 109.185 17.535C108.745 18.0983 108.514 18.9093 108.514 19.9681C108.56 21.0495 108.791 21.838 109.208 22.4012ZM117.778 25.2849V14.6514H120.302V15.7778H120.348C120.557 15.3723 120.858 15.0569 121.275 14.8091C121.669 14.5613 122.132 14.4486 122.595 14.4486C122.942 14.4486 123.267 14.5162 123.591 14.6514L123.174 17.1746C122.873 17.0619 122.595 17.0169 122.34 17.0169C121.09 17.0169 120.464 17.8279 120.464 19.45V25.2849H117.778ZM134.87 21.7929L137.279 21.1847C137.464 22.6716 138.298 23.415 139.734 23.415C140.382 23.415 140.915 23.3024 141.308 23.0996C141.702 22.8968 141.888 22.604 141.888 22.221C141.888 21.9056 141.725 21.6803 141.424 21.5226C141.123 21.3649 140.498 21.1621 139.525 20.8918C139.27 20.8242 139.062 20.7792 138.923 20.7341C137.649 20.3962 136.723 19.9681 136.144 19.495C135.542 19.0219 135.264 18.3911 135.264 17.6026C135.264 16.724 135.634 15.958 136.375 15.3272C137.116 14.6964 138.112 14.3585 139.386 14.3585C141.841 14.3585 143.37 15.3948 143.972 17.49L141.749 18.1433C141.563 17.6251 141.285 17.2422 140.938 16.9493C140.591 16.6564 140.081 16.4987 139.409 16.4987C138.877 16.4987 138.483 16.5888 138.159 16.7916C137.858 16.9943 137.695 17.2196 137.695 17.49C137.695 17.7829 137.881 18.0081 138.251 18.1884C138.622 18.3461 139.525 18.6389 140.984 19.0444C142.258 19.3824 143.138 19.8104 143.601 20.3061C144.065 20.8242 144.296 21.4775 144.296 22.2886C144.296 23.1447 143.926 23.9106 143.161 24.5865C142.397 25.2623 141.285 25.6003 139.849 25.6003C138.344 25.6003 137.163 25.2398 136.352 24.4964C135.542 23.7529 135.032 22.8518 134.87 21.7929ZM130.539 19.7428L134.916 25.3074H131.581L127.737 20.261V25.3074H125.027V10.6638H127.737V19.1796L131.581 14.6739H134.916L130.539 19.7428Z" fill="black"/>
    <path d="M17.4027 16.9274H0.727341V0.706787L17.4027 16.9274ZM17.4027 0.706787V16.9499H34.1013L17.4027 0.706787Z" fill="black"/>
    <path d="M0.72728 35.8518V19.6086H17.4258L0.72728 35.8518ZM34.1012 19.6312H17.4027V35.8743L34.1012 19.6312Z" fill="black"/>
    <path d="M42.4375 29.2507H43.1323V35.0843H42.4375V29.2507Z" fill="black"/>
    <path d="M44.45 30.6701H45.0985V31.0755H45.1217C45.3996 30.7601 45.9091 30.5349 46.3955 30.5349C47.4609 30.5349 48.1093 31.1881 48.1093 32.2242V35.0846H47.4377V32.2917C47.4377 31.571 46.9977 31.143 46.3028 31.143C45.5849 31.143 45.0985 31.616 45.0985 32.2917V35.0621H44.4269V30.6701H44.45Z" fill="black"/>
    <path d="M48.9474 33.5755L49.5959 33.4629C49.7349 34.2737 50.1286 34.6116 50.9624 34.6116C51.5877 34.6116 51.9583 34.3638 51.9583 33.9809C51.9583 33.553 51.6804 33.3728 50.7076 33.08C49.5496 32.7647 49.1559 32.4268 49.1559 31.8187C49.1559 31.0754 49.8044 30.5574 50.7308 30.5574C51.634 30.5574 52.3057 31.0754 52.491 31.8637L51.8425 31.9989C51.6804 31.4358 51.3098 31.143 50.7308 31.143C50.1749 31.143 49.8044 31.3907 49.8044 31.7736C49.8044 32.089 50.0591 32.2466 50.9161 32.4944C52.1667 32.8548 52.6299 33.2377 52.6299 33.9359C52.6299 34.7017 51.9583 35.1972 50.9392 35.1972C49.8044 35.1972 49.0632 34.6116 48.9474 33.5755Z" fill="black"/>
    <path d="M54.2946 31.2556V34.071C54.2946 34.3638 54.4104 34.4764 54.7809 34.4764H55.1515V35.0846H54.7114C53.8777 35.0846 53.5998 34.8143 53.5998 34.071V31.2556H52.9049V30.67H53.5998V29.679H54.2714V30.67H55.3831V31.2556H54.2946Z" fill="black"/>
    <path d="M55.802 33.9585C55.802 33.2152 56.2652 32.8323 57.4001 32.562C58.2802 32.3593 58.5581 32.1791 58.5581 31.8187C58.5581 31.4133 58.1875 31.143 57.6317 31.143C57.0295 31.143 56.6126 31.5034 56.4968 32.089L55.8252 31.9539C55.9873 31.098 56.6821 30.5349 57.6317 30.5349C58.6507 30.5349 59.2761 31.0755 59.2761 31.9764V35.0846H58.6507V34.6117H58.6276C58.3728 34.972 57.8864 35.1973 57.3074 35.1973C56.381 35.1973 55.802 34.7243 55.802 33.9585ZM58.6044 33.5756V32.5845H58.5812C58.4886 32.8098 58.1875 32.9449 57.5854 33.1026C56.7979 33.3053 56.4737 33.5305 56.4737 33.9134C56.4737 34.3639 56.7748 34.5891 57.3538 34.5891C58.0717 34.5891 58.6044 34.1612 58.6044 33.5756Z" fill="black"/>
    <path d="M60.3422 30.6701H60.9907V31.0755H61.0139C61.2918 30.7601 61.8013 30.5349 62.2877 30.5349C63.353 30.5349 64.0015 31.1881 64.0015 32.2242V35.0846H63.3299V32.2917C63.3299 31.571 62.8898 31.143 62.195 31.143C61.4771 31.143 60.9907 31.616 60.9907 32.2917V35.0621H60.319V30.6701H60.3422Z" fill="black"/>
    <path d="M65.9681 31.2556V34.071C65.9681 34.3638 66.0839 34.4764 66.4545 34.4764H66.8251V35.0846H66.385C65.5512 35.0846 65.2733 34.8143 65.2733 34.071V31.2556H64.5785V30.67H65.2733V29.679H65.945V30.67H67.0567V31.2556H65.9681Z" fill="black"/>
    <path d="M70.2289 29.0032H70.9005V31.0753H70.9237C71.1784 30.76 71.688 30.5348 72.1743 30.5348C73.2165 30.5348 73.8882 31.1879 73.8882 32.2015V35.062H73.2165V32.2916C73.2165 31.5708 72.7765 31.1429 72.0817 31.1429C71.3637 31.1429 70.8773 31.6159 70.8773 32.2916V35.062H70.2057V29.0032H70.2289Z" fill="black"/>
    <path d="M74.8151 32.8774C74.8151 31.4809 75.672 30.5349 76.9227 30.5349C78.1502 30.5349 78.9608 31.4133 78.9608 32.7197V33.0575H75.5099C75.533 33.8909 76.0657 34.6117 76.9227 34.6117C77.5711 34.6117 77.9186 34.3864 78.3123 33.7332L78.8681 34.0486C78.4744 34.8144 77.8027 35.1973 76.9458 35.1973C75.6488 35.1973 74.8151 34.2513 74.8151 32.8774ZM78.266 32.5395C78.2428 31.7512 77.7101 31.1205 76.9227 31.1205C76.1352 31.1205 75.533 31.7962 75.5099 32.5395H78.266Z" fill="black"/>
    <path d="M79.8863 29.0032H80.5579V35.0845H79.8863V29.0032Z" fill="black"/>
    <path d="M81.6964 30.67H82.368V31.143H82.3912C82.6923 30.7826 83.1555 30.5574 83.7113 30.5574C84.9156 30.5574 85.7494 31.5034 85.7494 32.8998C85.7494 34.2963 84.8925 35.2422 83.7113 35.2422C83.1555 35.2422 82.6459 35.017 82.368 34.6792H82.3449V36.9991H81.6732L81.6964 30.67ZM85.0778 32.8773C85.0778 31.8412 84.5219 31.143 83.6882 31.143C82.9239 31.143 82.3449 31.7286 82.3449 32.4268V33.2827C82.3449 34.0035 82.947 34.5891 83.665 34.5891C84.5219 34.5891 85.0778 33.9134 85.0778 32.8773Z" fill="black"/>
    <path d="M88.5953 33.9585C88.5953 33.2152 89.0585 32.8323 90.1933 32.562C91.0734 32.3593 91.3514 32.1791 91.3514 31.8187C91.3514 31.4133 90.9808 31.143 90.4249 31.143C89.8228 31.143 89.4059 31.5034 89.2901 32.089L88.6185 31.9539C88.7806 31.098 89.4754 30.5349 90.4249 30.5349C91.444 30.5349 92.0693 31.0755 92.0693 31.9764V35.0846H91.444V34.6117H91.4208C91.1661 34.972 90.6797 35.1973 90.1007 35.1973C89.1743 35.1973 88.5953 34.7243 88.5953 33.9585ZM91.3745 33.5756V32.5845H91.3514C91.2587 32.8098 90.9576 32.9449 90.3555 33.1026C89.568 33.3053 89.2438 33.5305 89.2438 33.9134C89.2438 34.3639 89.5449 34.5891 90.1239 34.5891C90.865 34.5891 91.3745 34.1612 91.3745 33.5756Z" fill="black"/>
    <path d="M94.0135 31.2556V34.071C94.0135 34.3638 94.1293 34.4764 94.4998 34.4764H94.8704V35.0846H94.4303C93.5966 35.0846 93.3186 34.8143 93.3186 34.071V31.2556H92.6238V30.67H93.3186V29.679H93.9903V30.67H95.102V31.2556H94.0135Z" fill="black"/>
    <path d="M97.7448 30.6699H98.3933L99.2271 34.0935H99.2502L100.478 30.6699H101.08L102.307 34.0935H102.331L103.164 30.6699H103.813L102.724 35.0845H102.099L100.802 31.4808H100.779L99.4818 35.0845H98.8565L97.7448 30.6699Z" fill="black"/>
    <path d="M104.207 32.8771C104.207 31.4807 105.064 30.5347 106.338 30.5347C107.635 30.5347 108.491 31.4807 108.491 32.8771C108.491 34.2736 107.635 35.2195 106.338 35.2195C105.064 35.197 104.207 34.251 104.207 32.8771ZM107.82 32.8771C107.82 31.8185 107.241 31.1428 106.338 31.1428C105.434 31.1428 104.878 31.8185 104.878 32.8771C104.878 33.9357 105.434 34.6114 106.338 34.6114C107.241 34.5889 107.82 33.9132 107.82 32.8771Z" fill="black"/>
    <path d="M109.441 30.6697H110.067V31.0301H110.09C110.252 30.7598 110.599 30.5796 111.04 30.5796C111.202 30.5796 111.341 30.6021 111.503 30.6472L111.364 31.3229C111.202 31.2778 111.063 31.2553 110.924 31.2553C110.391 31.2553 110.136 31.5931 110.136 32.4265V35.0843H109.465L109.441 30.6697Z" fill="black"/>
    <path d="M112.221 29.0032H112.893V32.6294H112.916L114.815 30.6699H115.765L114.074 32.3817L115.881 35.0845H115.093L113.611 32.8322H113.588L112.893 33.5304V35.062H112.221V29.0032Z" fill="black"/>
    <path d="M116.829 34.1169H117.848V35.0837H116.829V34.1169Z" fill="black"/>
    <path d="M118.173 29.2509H117.779V29.0256H118.821V29.2509H118.428V30.3547H118.196V29.2509H118.173ZM119.007 29.0256H119.331L119.748 30.0168L120.165 29.0256H120.489V30.3321H120.257V29.3635L119.84 30.3547H119.655L119.238 29.3635V30.3547H119.007V29.0256Z" fill="black"/>
  </svg>