<svg xmlns="http://www.w3.org/2000/svg" width="213" height="214" viewBox="0 0 213 214" fill="none">
    <mask id="path-1-inside-1_338_1599" fill="white">
        <path d="M0.0236206 0.682373H212.365V213.024H0.0236206V0.682373Z" />
    </mask>
    <path d="M0.0236206 0.682373H212.365V213.024H0.0236206V0.682373Z" fill="white" />
    <path d="M1.02362 213.024V0.682373H-0.976379V213.024H1.02362Z" fill="#E5E5E5"
        mask="url(#path-1-inside-1_338_1599)" />
    <path
        d="M154.288 104.853H156.008C156.481 104.853 156.847 104.702 157.105 104.38C157.363 104.057 157.492 103.605 157.492 103.025C157.492 102.401 157.363 101.907 157.083 101.563C156.825 101.197 156.459 101.003 156.008 101.003H154.266V104.853H154.288ZM154.288 106.938V111.304H151.793V98.9175H156.008C157.234 98.9175 158.201 99.3046 158.932 100.057C159.664 100.81 160.029 101.799 160.029 103.025C160.029 104.229 159.664 105.197 158.954 105.906C158.223 106.616 157.234 106.96 155.965 106.96H154.288V106.938ZM145.944 109.218H150.331V111.304H143.45V98.9175H145.944V109.218ZM137.601 109.218H141.987V111.304H135.106V98.9175H137.601V109.218ZM128.999 111.304H126.505V98.9175H128.999V111.304ZM124.376 111.304H121.881L118.226 103.175V111.304H115.731V98.9175H118.226L121.903 107.046V98.9175H124.397V111.304H124.376ZM113.71 111.304H111.215L107.56 103.175V111.304H105.065V98.9175H107.56L111.237 107.046V98.9175H113.731V111.304H113.71ZM103.151 98.9175V107.498C103.13 108.788 102.786 109.777 102.098 110.465C101.41 111.153 100.399 111.476 99.0872 111.476C97.754 111.476 96.7433 111.132 96.0336 110.444C95.3455 109.755 94.98 108.745 94.98 107.433V98.9175H97.4959V107.433C97.4959 108.143 97.6034 108.637 97.84 108.938C98.0765 109.239 98.4851 109.39 99.0657 109.39C99.6678 109.39 100.076 109.239 100.291 108.938C100.506 108.637 100.635 108.143 100.635 107.476V98.9175H103.151ZM85.9483 101.971C85.9483 102.38 86.1419 102.874 86.5289 103.455L86.9375 103.154C87.1741 102.982 87.3461 102.788 87.4536 102.595C87.5611 102.401 87.6041 102.143 87.6041 101.799C87.6041 101.498 87.5181 101.261 87.3676 101.068C87.2171 100.874 87.0235 100.767 86.787 100.767C86.5289 100.767 86.3354 100.874 86.1849 101.111C86.0344 101.304 85.9483 101.606 85.9483 101.971ZM86.5289 109.476C86.9805 109.476 87.3891 109.325 87.7977 109.024L85.8408 106.25L85.7978 106.293C85.5183 106.723 85.3677 107.24 85.3677 107.799C85.3677 108.272 85.4753 108.68 85.6903 108.981C85.9268 109.325 86.2064 109.476 86.5289 109.476ZM82.9378 107.971C82.9378 107.39 83.0668 106.852 83.3249 106.379C83.5829 105.906 84.0775 105.369 84.8086 104.767C84.4861 104.272 84.2495 103.799 84.0775 103.369C83.9055 102.917 83.798 102.466 83.798 101.993C83.798 101.025 84.0775 100.229 84.6151 99.6272C85.1527 99.0251 85.8838 98.724 86.787 98.724C87.6041 98.724 88.2708 99.0036 88.7869 99.5627C89.3244 100.122 89.5825 100.81 89.5825 101.606C89.5825 102.681 89.1309 103.584 88.2278 104.294L87.5396 104.853L89.1309 107.068C89.3245 106.487 89.432 105.863 89.432 105.175H91.4748C91.4748 106.766 91.1523 108.057 90.5287 109.024L92.1199 111.261H89.389L88.9374 110.616C88.2062 111.153 87.3676 111.433 86.3999 111.433C85.3462 111.433 84.5291 111.11 83.884 110.465C83.2389 109.82 82.9378 109.024 82.9378 107.971ZM75.7985 107.906L77.8844 98.9175H80.6799L77.1103 111.304H74.5083L70.9387 98.9175H73.7127L75.7985 107.906ZM69.6054 105.949H65.7132V109.239H70.315V111.325H63.1973V98.9175H70.2935V101.003H65.7132V103.928H69.6054V105.949ZM55.8645 101.003V109.239H56.6171C57.4557 109.239 58.0363 109.024 58.3804 108.594C58.7245 108.143 58.8965 107.39 58.918 106.315V104.164C58.918 103.003 58.746 102.208 58.4234 101.756C58.1009 101.304 57.5418 101.046 56.7676 101.025H55.8645V101.003ZM53.3485 111.304V98.9175H56.6171C58.0578 98.9175 59.2191 99.3691 60.0792 100.294C60.9394 101.218 61.3909 102.466 61.3909 104.078V106.078C61.3909 107.713 60.9609 108.981 60.1007 109.906C59.2406 110.831 58.0578 111.282 56.5526 111.282H53.3485V111.304ZM111.731 94.9608H109.237V82.5746H111.731V94.9608ZM103.087 91.5632L105.173 82.5746H107.968L104.399 94.9608H101.797L98.227 82.5746H101.001L103.087 91.5632ZM97.0228 94.9608H94.5284V89.6494H90.8297V94.9608H88.3353V82.5746H90.8297V87.585H94.5284V82.5746H97.0228V94.9608ZM86.572 93.5631C86.0989 94.0792 85.4968 94.4878 84.7871 94.7458C84.099 95.0038 83.3249 95.1329 82.4862 95.1329C81.067 95.1329 79.9488 94.7028 79.1746 93.8211C78.379 92.9395 77.9704 91.6492 77.9489 89.9719V87.7355C77.9489 86.0367 78.3145 84.725 79.0671 83.8003C79.8197 82.8757 80.8949 82.4241 82.3357 82.4241C83.6904 82.4241 84.7011 82.7466 85.3677 83.4133C86.0559 84.0799 86.4429 85.1121 86.5505 86.5313H84.1205C84.056 85.7357 83.884 85.1981 83.6259 84.9185C83.3679 84.639 82.9593 84.4885 82.4002 84.4885C81.7336 84.4885 81.239 84.725 80.9379 85.2196C80.6369 85.7142 80.4649 86.4883 80.4649 87.585V89.8214C80.4649 90.9396 80.6369 91.7783 80.9595 92.2944C81.3035 92.8105 81.8626 93.0685 82.6367 93.0685C83.1313 93.0685 83.5399 92.961 83.841 92.7674L84.056 92.6169V90.3375H82.2927V88.4452H86.5505V93.5631H86.572ZM76.1426 94.9608H73.6481L69.9925 86.8324V94.9608H67.498V82.5746H69.9925L73.6696 90.7031V82.5746H76.1641V94.9608H76.1426ZM65.3692 94.9608H62.8747V82.5746H65.3692V94.9608ZM58.5954 91.7138C58.5954 91.2192 58.4664 90.8321 58.2084 90.5741C57.9503 90.316 57.4772 90.0365 56.8106 89.7569C55.5634 89.2838 54.6817 88.7462 54.1226 88.1011C53.585 87.456 53.3055 86.7249 53.3055 85.8647C53.3055 84.811 53.6711 83.9939 54.4022 83.3488C55.1548 82.7036 56.0795 82.4026 57.2192 82.4026C57.9718 82.4026 58.66 82.5746 59.2621 82.8972C59.8642 83.2197 60.3158 83.6713 60.6383 84.2519C60.9609 84.8325 61.1329 85.4991 61.1329 86.2518H58.6169C58.6169 85.6712 58.4879 85.2411 58.2514 84.94C58.0148 84.639 57.6493 84.4885 57.1977 84.4885C56.7676 84.4885 56.4236 84.6175 56.187 84.8755C55.9505 85.1336 55.8214 85.4776 55.8214 85.9077C55.8214 86.2518 55.9505 86.5528 56.23 86.8324C56.5096 87.1119 56.9827 87.3915 57.6708 87.6925C58.875 88.1226 59.7567 88.6602 60.2943 89.3053C60.8534 89.9504 61.1114 90.7461 61.1114 91.7353C61.1114 92.8105 60.7673 93.6491 60.0792 94.2727C59.3911 94.8748 58.4664 95.1759 57.2837 95.1759C56.4881 95.1759 55.7569 95.0038 55.0903 94.6813C54.4237 94.3587 53.9076 93.8856 53.542 93.262C53.1765 92.6599 52.9829 91.9288 52.9829 91.0901H55.4989C55.4989 91.7998 55.6279 92.3159 55.9075 92.6384C56.187 92.961 56.6386 93.133 57.2622 93.133C58.1439 93.09 58.5954 92.6384 58.5954 91.7138Z"
        fill="black" />
    <path
        d="M158.567 119.196C158.567 118.788 158.459 118.487 158.223 118.25C158.008 118.014 157.578 117.799 156.954 117.605C156.33 117.412 155.879 117.154 155.599 116.895C155.212 116.551 155.019 116.121 155.019 115.562C155.019 115.025 155.212 114.573 155.578 114.229C155.943 113.885 156.438 113.713 157.04 113.713C157.642 113.713 158.137 113.906 158.524 114.315C158.911 114.724 159.104 115.218 159.104 115.842H158.545C158.545 115.369 158.416 114.982 158.137 114.681C157.879 114.38 157.513 114.229 157.04 114.229C156.588 114.229 156.244 114.358 155.965 114.595C155.707 114.831 155.578 115.154 155.578 115.541C155.578 115.906 155.707 116.186 155.943 116.422C156.18 116.659 156.588 116.852 157.104 117.024C157.642 117.197 158.051 117.39 158.309 117.584C158.588 117.777 158.782 117.992 158.911 118.25C159.04 118.508 159.104 118.809 159.104 119.153C159.104 119.712 158.911 120.164 158.545 120.508C158.18 120.852 157.664 121.024 157.061 121.024C156.653 121.024 156.266 120.938 155.922 120.766C155.578 120.594 155.32 120.358 155.105 120.035C154.911 119.712 154.825 119.325 154.825 118.895H155.384C155.384 119.39 155.535 119.798 155.836 120.078C156.137 120.358 156.545 120.508 157.061 120.508C157.513 120.508 157.879 120.379 158.137 120.143C158.416 119.928 158.567 119.605 158.567 119.196ZM154.481 114.358H152.46V120.96H151.901V114.358H149.879V113.82H154.481V114.358ZM149.213 120.938H148.653L145.299 114.874V120.938H144.74V113.82H145.299L148.675 119.906V113.82H149.234V120.938H149.213ZM140.31 118.422H142.654L141.471 114.595L140.31 118.422ZM142.826 118.96H140.159L139.557 120.96H138.977L141.256 113.842H141.772L144.052 120.96H143.471L142.826 118.96ZM139.17 114.358H137.149V120.96H136.59V114.358H134.568V113.82H139.17V114.358ZM133.902 120.938H133.343L129.988 114.874V120.938H129.429V113.82H129.988L133.364 119.906V113.82H133.923V120.938H133.902ZM128.203 113.82V118.874C128.203 119.562 128.01 120.1 127.644 120.465C127.279 120.852 126.762 121.024 126.074 121.024C125.386 121.024 124.87 120.831 124.505 120.465C124.139 120.1 123.967 119.54 123.967 118.831V113.799H124.526V118.809C124.526 119.928 125.042 120.487 126.096 120.487C127.128 120.487 127.644 119.949 127.644 118.852V113.799H128.203V113.82ZM122.354 116.616C122.354 115.842 122.204 115.261 121.903 114.853C121.602 114.466 121.172 114.272 120.612 114.272C120.075 114.272 119.645 114.466 119.344 114.853C119.043 115.24 118.871 115.799 118.871 116.573V118.164C118.871 118.938 119.021 119.54 119.344 119.928C119.645 120.315 120.075 120.508 120.634 120.508C121.193 120.508 121.623 120.315 121.924 119.928C122.225 119.54 122.376 118.938 122.376 118.164V116.616H122.354ZM122.913 118.164C122.913 119.089 122.72 119.798 122.311 120.293C121.903 120.788 121.344 121.046 120.612 121.046C119.881 121.046 119.322 120.788 118.914 120.293C118.505 119.798 118.29 119.089 118.29 118.164V116.616C118.29 115.691 118.484 114.982 118.892 114.487C119.301 113.971 119.86 113.734 120.591 113.734C121.322 113.734 121.881 113.992 122.29 114.487C122.698 115.003 122.892 115.713 122.892 116.637V118.164H122.913ZM117.451 118.723C117.408 119.519 117.193 120.1 116.806 120.487C116.419 120.852 115.903 121.046 115.236 121.046C114.548 121.046 114.011 120.788 113.602 120.272C113.194 119.755 113 119.046 113 118.143V116.594C113 115.691 113.194 115.003 113.602 114.487C114.011 113.971 114.57 113.734 115.279 113.734C115.946 113.734 116.462 113.928 116.828 114.315C117.193 114.702 117.408 115.283 117.451 116.078H116.892C116.849 115.433 116.677 114.982 116.441 114.702C116.183 114.423 115.817 114.293 115.301 114.293C114.763 114.293 114.333 114.487 114.054 114.896C113.753 115.304 113.602 115.885 113.602 116.637V118.164C113.602 118.917 113.753 119.519 114.032 119.928C114.312 120.358 114.742 120.551 115.258 120.551C115.817 120.551 116.204 120.422 116.462 120.143C116.72 119.863 116.849 119.411 116.914 118.766H117.451V118.723ZM112.14 118.723C112.097 119.519 111.882 120.1 111.495 120.487C111.108 120.852 110.592 121.046 109.925 121.046C109.237 121.046 108.699 120.788 108.291 120.272C107.882 119.755 107.689 119.046 107.689 118.143V116.594C107.689 115.691 107.882 115.003 108.291 114.487C108.699 113.971 109.258 113.734 109.968 113.734C110.635 113.734 111.151 113.928 111.516 114.315C111.882 114.702 112.097 115.283 112.14 116.078H111.581C111.538 115.433 111.366 114.982 111.129 114.702C110.871 114.423 110.506 114.293 109.989 114.293C109.452 114.293 109.022 114.487 108.742 114.896C108.441 115.304 108.291 115.885 108.291 116.637V118.164C108.291 118.917 108.441 119.519 108.721 119.928C109 120.358 109.43 120.551 109.946 120.551C110.506 120.551 110.893 120.422 111.151 120.143C111.409 119.863 111.538 119.411 111.602 118.766H112.14V118.723ZM103.517 118.422H105.861L104.7 114.616L103.517 118.422ZM106.033 118.96H103.366L102.764 120.96H102.184L104.463 113.842H104.979L107.259 120.96H106.635L106.033 118.96ZM94.1842 114.358V120.422H95.2594C95.9045 120.422 96.3776 120.229 96.7431 119.841C97.0872 119.454 97.2807 118.874 97.2807 118.164V116.68C97.2807 115.949 97.1087 115.39 96.7646 114.982C96.4206 114.573 95.926 114.38 95.2809 114.38H94.1842V114.358ZM93.6251 120.938V113.82H95.3024C96.0765 113.82 96.6786 114.078 97.1302 114.573C97.5818 115.068 97.8183 115.756 97.8183 116.616V118.1C97.8183 119.003 97.5818 119.691 97.1302 120.186C96.6786 120.68 96.0335 120.938 95.2163 120.938H93.6251ZM92.3133 117.541H89.5393V120.422H92.7219V120.938H89.0017V113.82H92.7219V114.358H89.5608V117.024H92.3348V117.541H92.3133ZM84.3784 117.455H85.8622C86.2922 117.455 86.6148 117.304 86.8729 117.024C87.1309 116.745 87.2599 116.358 87.2599 115.906C87.2599 115.412 87.1309 115.025 86.8729 114.745C86.6148 114.466 86.2492 114.337 85.7762 114.337H84.3999V117.455H84.3784ZM86.0557 117.971H84.3999V120.938H83.8408V113.82H85.7977C86.4428 113.82 86.9589 114.014 87.3029 114.38C87.6685 114.745 87.8405 115.261 87.8405 115.928C87.8405 116.379 87.733 116.788 87.518 117.132C87.3029 117.476 87.0019 117.713 86.6148 117.842L88.0986 120.874V120.938H87.4965L86.0557 117.971ZM82.5291 117.541H79.7551V120.422H82.9376V120.938H79.196V113.82H82.9161V114.358H79.7551V117.024H82.5291V117.541ZM78.4003 114.358H76.379V120.96H75.8199V114.358H73.7985V113.82H78.4003V114.358ZM70.1214 117.455H71.6051C72.0352 117.455 72.3578 117.304 72.6158 117.024C72.8738 116.745 73.0029 116.358 73.0029 115.906C73.0029 115.412 72.8738 115.025 72.6158 114.745C72.3578 114.466 71.9922 114.337 71.5191 114.337H70.1429V117.455H70.1214ZM71.7771 117.971H70.1214V120.938H69.5623V113.82H71.5191C72.1642 113.82 72.6803 114.014 73.0244 114.38C73.3899 114.745 73.562 115.261 73.562 115.928C73.562 116.379 73.4544 116.788 73.2394 117.132C73.0244 117.476 72.7233 117.713 72.3362 117.842L73.82 120.874V120.938H73.2179L71.7771 117.971ZM65.154 118.422H67.4979L66.3152 114.595L65.154 118.422ZM67.6484 118.96H64.9819L64.3798 120.96H63.7992L66.0786 113.842H66.5947L68.8741 120.96H68.2935L67.6484 118.96ZM62.9821 120.938H62.423V117.519H59.0684V120.938H58.5093V113.82H59.0684V117.024H62.423V113.82H62.9821V120.938ZM57.4771 118.723C57.4341 119.519 57.219 120.1 56.832 120.487C56.4449 120.852 55.9288 121.046 55.2622 121.046C54.5741 121.046 54.0365 120.788 53.6279 120.272C53.2193 119.755 53.0258 119.046 53.0258 118.143V116.594C53.0258 115.691 53.2193 115.003 53.6279 114.487C54.0365 113.971 54.5956 113.734 55.3052 113.734C55.9718 113.734 56.4879 113.928 56.8535 114.315C57.219 114.702 57.4341 115.283 57.4771 116.078H56.918C56.875 115.433 56.7029 114.982 56.4664 114.702C56.2084 114.423 55.8428 114.293 55.3267 114.293C54.7891 114.293 54.359 114.487 54.0795 114.896C53.7784 115.304 53.6279 115.885 53.6279 116.637V118.164C53.6279 118.917 53.7784 119.519 54.058 119.928C54.3375 120.358 54.7676 120.551 55.2837 120.551C55.8428 120.551 56.2299 120.422 56.4879 120.143C56.746 119.863 56.875 119.411 56.9395 118.766H57.4771V118.723Z"
        fill="black" />
    <path d="M53.0042 124.336H52.3591V131.303H53.0042V124.336Z" fill="black" />
    <path d="M54.961 124.336H54.3159V131.303H54.961V124.336Z" fill="black" />
    <path d="M56.918 124.336H56.2729V131.303H56.918V124.336Z" fill="black" />
    <path d="M58.8751 124.336H58.23V131.303H58.8751V124.336Z" fill="black" />
    <path d="M60.8532 124.336H60.2081V131.303H60.8532V124.336Z" fill="black" />
    <path d="M62.8103 124.336H62.1652V131.303H62.8103V124.336Z" fill="black" />
    <path d="M64.7663 124.336H64.1212V131.303H64.7663V124.336Z" fill="black" />
    <path d="M66.7237 124.336H66.0786V131.303H66.7237V124.336Z" fill="black" />
    <path d="M68.6804 124.336H68.0353V131.303H68.6804V124.336Z" fill="black" />
    <path d="M70.6375 124.336H69.9924V131.303H70.6375V124.336Z" fill="black" />
    <path d="M72.6156 124.336H71.9705V131.303H72.6156V124.336Z" fill="black" />
    <path d="M74.5727 124.336H73.9276V131.303H74.5727V124.336Z" fill="black" />
    <path d="M76.5294 124.336H75.8843V131.303H76.5294V124.336Z" fill="black" />
    <path d="M78.4865 124.336H77.8414V131.303H78.4865V124.336Z" fill="black" />
    <path d="M80.4435 124.336H79.7984V131.303H80.4435V124.336Z" fill="black" />
    <path d="M82.4003 124.336H81.7552V131.303H82.4003V124.336Z" fill="black" />
    <path d="M84.378 124.336H83.7329V131.303H84.378V124.336Z" fill="black" />
    <path d="M86.3351 124.336H85.69V131.303H86.3351V124.336Z" fill="black" />
    <path d="M88.2922 124.336H87.6471V131.303H88.2922V124.336Z" fill="black" />
    <path d="M90.2492 124.336H89.6041V131.303H90.2492V124.336Z" fill="black" />
    <path d="M92.2059 124.336H91.5608V131.303H92.2059V124.336Z" fill="black" />
    <path d="M94.1627 124.336H93.5175V131.303H94.1627V124.336Z" fill="black" />
    <path d="M96.1408 124.336H95.4957V131.303H96.1408V124.336Z" fill="black" />
    <path d="M98.0979 124.336H97.4528V131.303H98.0979V124.336Z" fill="black" />
    <path d="M100.055 124.336H99.4098V131.303H100.055V124.336Z" fill="black" />
    <path d="M102.012 124.336H101.367V131.303H102.012V124.336Z" fill="black" />
    <path d="M103.969 124.336H103.324V131.303H103.969V124.336Z" fill="black" />
    <path d="M105.925 124.336H105.28V131.303H105.925V124.336Z" fill="black" />
    <path d="M107.904 124.336H107.258V131.303H107.904V124.336Z" fill="black" />
    <path d="M109.861 124.336H109.216V131.303H109.861V124.336Z" fill="black" />
    <path d="M111.817 124.336H111.172V131.303H111.817V124.336Z" fill="black" />
    <path d="M113.774 124.336H113.129V131.303H113.774V124.336Z" fill="black" />
    <path d="M115.731 124.336H115.086V131.303H115.731V124.336Z" fill="black" />
    <path d="M117.688 124.336H117.043V131.303H117.688V124.336Z" fill="black" />
    <path d="M119.666 124.336H119.021V131.303H119.666V124.336Z" fill="black" />
    <path d="M121.623 124.336H120.978V131.303H121.623V124.336Z" fill="black" />
    <path d="M123.58 124.336H122.935V131.303H123.58V124.336Z" fill="black" />
    <path d="M125.536 124.336H124.891V131.303H125.536V124.336Z" fill="black" />
    <path d="M127.494 124.336H126.848V131.303H127.494V124.336Z" fill="black" />
    <path d="M129.451 124.336H128.805V131.303H129.451V124.336Z" fill="black" />
    <path d="M131.407 124.336H130.762V131.303H131.407V124.336Z" fill="black" />
    <path d="M133.386 124.336H132.741V131.303H133.386V124.336Z" fill="black" />
    <path d="M135.342 124.336H134.697V131.303H135.342V124.336Z" fill="black" />
    <path d="M137.299 124.336H136.654V131.303H137.299V124.336Z" fill="black" />
    <path d="M139.256 124.336H138.611V131.303H139.256V124.336Z" fill="black" />
    <path d="M141.213 124.336H140.568V131.303H141.213V124.336Z" fill="black" />
    <path d="M143.17 124.336H142.525V131.303H143.17V124.336Z" fill="black" />
    <path d="M145.148 124.336H144.503V131.303H145.148V124.336Z" fill="black" />
    <path d="M147.105 124.336H146.46V131.303H147.105V124.336Z" fill="black" />
    <path d="M149.062 124.336H148.417V131.303H149.062V124.336Z" fill="black" />
    <path d="M151.019 124.336H150.374V131.303H151.019V124.336Z" fill="black" />
    <path d="M152.976 124.336H152.331V131.303H152.976V124.336Z" fill="black" />
    <path d="M154.932 124.336H154.287V131.303H154.932V124.336Z" fill="black" />
    <path d="M156.911 124.336H156.266V131.303H156.911V124.336Z" fill="black" />
    <path d="M158.868 124.336H158.223V131.303H158.868V124.336Z" fill="black" />
</svg>