<svg xmlns="http://www.w3.org/2000/svg" width="74" height="39" viewBox="0 0 74 39" fill="none">
    <path fill-rule="evenodd" clip-rule="evenodd" d="M62.0636 10.4702C60.9635 10.4702 60.0467 9.57517 60.0467 8.50107C60.0467 7.42704 60.9635 6.53198 62.0636 6.53198C63.1638 6.53198 64.0805 7.42704 64.0805 8.50107C64.0805 9.57517 63.1638 10.4702 62.0636 10.4702Z" fill="black"/>
    <path fill-rule="evenodd" clip-rule="evenodd" d="M30.0384 15.1854C28.3271 15.1854 26.7381 18.2886 26.5547 22.1676C26.3714 25.0321 26.9825 27.6579 28.0827 28.8514C28.4494 29.2692 28.8772 29.4482 29.305 29.5078H29.3662C31.0775 29.5078 32.6665 26.4046 32.8499 22.5256C33.0333 19.6611 32.422 17.0353 31.2608 15.8418C30.8941 15.4241 30.4663 15.2451 30.0384 15.1854C30.0996 15.1854 30.0384 15.1854 30.0384 15.1854ZM55.2803 37.3852L55.4025 37.2658C58.0306 34.8787 59.9864 32.5513 61.82 29.7465C63.7757 26.1659 64.448 22.824 63.9591 19.4821C63.8369 18.945 63.6535 18.945 63.5924 18.945C63.3479 18.945 62.9812 19.1837 62.6145 19.4821C58.3973 23.5998 56.1971 27.8965 55.647 32.9094V33.0288L53.0189 33.6256V33.4465C52.8967 27.1208 53.3245 20.9144 54.4246 14.4096H49.5352L49.474 18.7063L46.846 18.6466L46.6626 15.8418C46.357 15.2451 45.9292 15.0063 45.4403 15.0063C45.1958 15.0063 44.8902 15.0661 44.5846 15.2451C43.0567 16.0806 42.2621 17.9902 42.0787 21.6305C41.8954 24.6143 41.9565 26.7627 42.9955 27.8369C43.4845 28.3143 44.0956 28.553 44.8902 28.553C45.1958 28.553 45.5014 28.553 45.807 28.4933C47.0904 27.8965 48.0684 26.703 48.8629 24.7337L48.924 24.6144L50.2686 24.495L50.2075 24.674C49.4129 28.911 47.396 30.8804 43.7289 30.8804C43.3011 30.8804 42.8733 30.8804 42.3843 30.8207C39.0228 30.0449 37.9227 26.5837 39.0839 20.795C39.6951 17.8708 40.8564 15.8418 42.69 14.4693H34.1945C35.4168 16.0806 36.0281 18.2886 36.0281 21.0337C35.6614 26.703 33.7055 29.8062 29.9773 30.8207C29.4273 30.9401 28.8772 31.0594 28.266 31.0594C27.5326 31.0594 26.6769 30.9401 25.8824 30.7014C24.4156 30.0449 23.4988 28.8514 23.2543 27.2998C22.7043 23.5998 23.0098 21.8692 24.2322 18.3482C24.9656 16.2596 26.3102 15.1257 27.5326 14.4096H18.1204L18.2426 18.7063H16.4091V18.5273C16.5313 17.5128 16.348 16.6773 15.7979 16.0806C15.3089 15.5434 14.5144 15.1854 13.5977 15.1854C12.8642 15.1854 12.1919 15.4241 11.8252 15.7225C10.9695 16.1402 10.4806 17.2741 10.5417 18.408C10.664 19.9595 11.7641 21.1531 13.5977 21.7499C16.5924 22.8837 18.6704 24.7337 19.8928 27.4192C21.0541 31.2384 19.465 34.5207 15.7367 35.7739C15.0645 35.8932 14.3922 35.953 13.781 35.953C13.1698 35.953 12.4975 35.8932 11.8863 35.7739C10.4806 35.5352 9.1971 35.0578 8.03587 34.4013L7.97474 34.3417V28.4337H9.80831V28.6127C9.5638 31.8352 10.4195 33.6256 12.3753 34.103C12.742 34.1626 13.1087 34.2223 13.4754 34.2223C15.0033 34.2223 16.2868 33.6852 17.0814 32.7304C17.6926 31.9546 17.8759 30.9401 17.5703 29.8659C17.0814 28.1949 15.6145 26.8224 12.8031 25.5691C9.99163 24.4353 8.28031 22.5853 7.91361 20.2579C7.73029 17.6918 8.4637 15.9015 10.2972 14.5886H0.518311L3.20751 12.1419H54.9136C55.2803 8.68058 56.0748 4.92097 57.4806 0.624236L57.5417 0.504883H61.8811V1.99681H61.7589C59.4974 3.48873 58.1528 6.89032 57.725 12.1419H73.1879L70.5602 14.4693H57.4194L56.686 25.1514C58.7029 21.4515 60.9643 18.5273 63.409 16.4386L63.4702 16.3789H67.1373V16.4983C68.4815 25.8675 65.4871 30.3433 62.0033 33.8046L56.686 38.7577L55.2803 37.3852Z" fill="black"/>
    <path fill-rule="evenodd" clip-rule="evenodd" d="M63.8991 0.385196C63.4102 0.385196 63.0435 0.743175 63.0435 1.22048C63.0435 1.69779 63.4102 2.05577 63.8991 2.05577C64.3881 2.05577 64.7548 1.69779 64.7548 1.22048C64.7548 0.743175 64.3881 0.385196 63.8991 0.385196ZM63.8991 2.17509C63.3491 2.17509 62.9213 1.75745 62.9213 1.22048C62.9213 0.683512 63.3491 0.265869 63.8991 0.265869C64.4492 0.265869 64.877 0.683512 64.877 1.22048C64.9382 1.75745 64.4492 2.17509 63.8991 2.17509Z" fill="black"/>
    <path fill-rule="evenodd" clip-rule="evenodd" d="M63.6517 1.1006H63.835C63.9573 1.1006 64.0184 1.1006 64.0184 1.1006C64.0184 1.1006 64.0796 1.1006 64.0796 1.04099V0.981388C64.0796 0.92179 64.0796 0.92179 64.0796 0.92179L64.0184 0.862185C64.0184 0.862185 63.9573 0.862185 63.835 0.862185H63.6517V1.1006ZM63.4073 1.75622V0.623779H63.8962C64.0184 0.623779 64.0796 0.623779 64.1407 0.623779C64.2018 0.623779 64.2629 0.683381 64.2629 0.742983C64.324 0.802585 64.324 0.862185 64.324 0.92179C64.324 0.981388 64.324 1.04099 64.2629 1.1006C64.2018 1.1602 64.1407 1.1602 64.0184 1.2198C64.0795 1.2198 64.0796 1.2794 64.1407 1.339C64.2018 1.3986 64.2018 1.45821 64.2629 1.51781L64.3851 1.75622H64.1407L63.9573 1.51781C63.8962 1.45821 63.835 1.3986 63.835 1.339L63.774 1.2794C63.774 1.2794 63.7128 1.2794 63.6517 1.2794H63.5906V1.75622H63.4073Z" fill="black"/>
  </svg>