<svg xmlns="http://www.w3.org/2000/svg" width="125" height="26" viewBox="0 0 125 26" fill="none">
    <path d="M71.832 6.79596C71.688 6.79407 71.5467 6.83374 71.4259 6.90996C71.3051 6.98618 71.2102 7.09553 71.1533 7.22417C71.0964 7.35282 71.08 7.49498 71.1062 7.6327C71.1323 7.77041 71.1999 7.89748 71.3003 7.99785C71.4007 8.09822 71.5295 8.16737 71.6703 8.19656C71.8112 8.22575 71.9577 8.21368 72.0915 8.16186C72.2253 8.11004 72.3402 8.0208 72.4219 7.90544C72.5035 7.79007 72.5481 7.65375 72.5501 7.51372C72.5524 7.42047 72.5356 7.3277 72.5006 7.24086C72.4655 7.15401 72.4131 7.07485 72.3462 7.008C72.2793 6.94114 72.1993 6.88795 72.111 6.85154C72.0227 6.81513 71.9279 6.79624 71.832 6.79596Z" fill="black"/>
    <path d="M43.6989 15.738C43.6989 13.3814 41.3071 12.6448 39.1936 11.9962C36.9488 11.3056 35.4781 10.7478 35.4781 9.35411C35.4781 7.99731 36.8373 7.08427 38.8616 7.08427C39.9583 7.0727 41.0396 7.33531 42.0019 7.84693L42.0783 7.89063L42.5719 7.24826L42.475 7.19152C41.3691 6.61583 40.1328 6.31817 38.8785 6.32557C36.3701 6.32557 34.6199 7.57399 34.6199 9.36602C34.6199 11.2284 36.4517 11.9701 38.6645 12.6828L38.941 12.7719C40.9332 13.4103 42.8151 14.013 42.8151 15.7545C42.8151 17.5295 41.1589 18.6769 38.5956 18.6769C37.1983 18.6566 35.8332 18.2658 34.6474 17.5465L34.5587 17.4898L34.1503 18.1929L34.2291 18.2422C35.5446 19.0403 37.0615 19.4689 38.6119 19.4804C41.607 19.4838 43.6989 17.9437 43.6989 15.738Z" fill="black"/>
    <path d="M49.4573 19.2631L49.5448 19.2455L49.4614 18.4618L49.3488 18.4913C48.9936 18.5817 48.628 18.6278 48.2608 18.6286C47.3012 18.6286 46.8345 18.1548 46.8345 17.1805V11.5008H49.7006V10.7262H46.8363V8.02734L45.9781 8.62772V10.7273L44.4526 10.7358V11.5218H45.9781V17.1805C45.9781 18.6559 46.747 19.4032 48.2626 19.4032C48.6649 19.3995 49.0656 19.3525 49.4573 19.2631Z" fill="black"/>
    <path d="M57.5628 17.8077V19.2428H58.4005V10.7263H57.5424V16.8435C56.9199 17.5245 55.6931 18.6288 54.3012 18.6288C52.883 18.6288 52.194 17.8667 52.194 16.2982V10.7263H51.3359V16.3584C51.3359 18.2934 52.4017 19.4033 54.2598 19.4033C55.7841 19.4033 57.0308 18.3433 57.5628 17.8077Z" fill="black"/>
    <path d="M64.8187 19.4037C65.9561 19.3991 67.0488 18.9729 67.8744 18.212V19.2425H68.7326V6.42529H67.8744V11.6777C67.0467 10.9558 65.9724 10.5595 64.8607 10.566C62.4065 10.566 60.5555 12.4699 60.5555 14.9951C60.5549 17.5084 62.3878 19.4037 64.8187 19.4037ZM61.4352 14.9951C61.4352 12.8773 62.8679 11.3406 64.8409 11.3406C65.4154 11.3431 65.9829 11.4641 66.5058 11.6957C67.0287 11.9272 67.4952 12.264 67.8744 12.6838V17.1667C67.5116 17.6137 67.0513 17.9767 66.5266 18.2295C66.002 18.4822 65.4263 18.6186 64.8409 18.6285C62.8662 18.6291 61.4334 17.1009 61.4334 14.9951H61.4352Z" fill="black"/>
    <path d="M72.2785 10.7263H71.4204V19.2428H72.2785V10.7263Z" fill="black"/>
    <path d="M78.7594 10.5662C76.3169 10.5662 74.4746 12.47 74.4746 14.9952C74.4746 17.5085 76.2988 19.4038 78.718 19.4038C79.3029 19.3923 79.8795 19.2675 80.4141 19.0366C80.9487 18.8057 81.4306 18.4734 81.8316 18.0591C82.2326 17.6448 82.5445 17.1569 82.7493 16.6238C82.954 16.0908 83.0473 15.5234 83.0239 14.9549C83.0239 12.4541 81.1903 10.5662 78.7594 10.5662ZM82.143 14.9748C82.143 17.0925 80.7102 18.6292 78.7367 18.6292C76.7754 18.6292 75.3531 17.0925 75.3531 14.9748C75.3531 12.8695 76.7771 11.343 78.7367 11.343C80.712 11.3407 82.1447 12.8695 82.1447 14.9748H82.143Z" fill="black"/>
    <path d="M89.7821 8.06015L97.6962 19.1988L97.7259 19.2402H98.4703V6.42529H97.5917V17.6071L89.6818 6.46672L89.6515 6.42529H88.9444V19.2431H89.7821V8.06015Z" fill="black"/>
    <path d="M104.969 10.5662C102.606 10.5662 100.89 12.4291 100.89 14.9952C100.89 17.6736 102.693 19.4038 105.484 19.4038C106.42 19.397 107.343 19.1978 108.193 18.8193L108.262 18.8097V18.5713L108.22 18.5918C108.184 18.4834 108.126 18.3018 108.072 18.1378L108.038 18.0317L107.936 18.0788C107.169 18.433 106.334 18.6215 105.485 18.6315C103.214 18.6315 101.832 17.3036 101.772 15.0741H108.739V14.7166C108.738 12.1948 107.259 10.5662 104.969 10.5662ZM101.801 14.3171C102.028 12.4779 103.218 11.3407 104.928 11.3407C106.638 11.3407 107.728 12.4507 107.854 14.3171H101.801Z" fill="black"/>
    <path d="M113.715 10.5662C112.86 10.5902 112.017 10.7631 111.224 11.0769L111.14 11.1109L111.387 11.8588L111.487 11.8151C112.179 11.5255 112.921 11.3651 113.674 11.3424C115.537 11.3424 116.3 12.0643 116.3 13.833V14.6956C115.518 14.2863 114.647 14.0669 113.76 14.056C111.746 14.056 110.341 15.1683 110.341 16.76C110.341 18.3415 111.683 19.4038 113.677 19.4038C114.641 19.3959 115.573 19.0659 116.316 18.4692V19.2443H117.153V13.7513C117.155 11.608 116.03 10.5662 113.715 10.5662ZM116.297 15.4911V17.5465C115.974 17.9014 115.577 18.1838 115.131 18.3742C114.685 18.5646 114.202 18.6584 113.715 18.6491C112.125 18.6491 111.176 17.9426 111.176 16.76C111.176 15.3981 112.483 14.7909 113.778 14.7909C114.669 14.786 115.543 15.0289 116.297 15.4911Z" fill="black"/>
    <path d="M124.022 11.5008V10.7262H121.157V8.02734L120.299 8.62772V10.7273L118.774 10.7358V11.5218H120.299V17.1805C120.299 18.6559 121.067 19.4032 122.584 19.4032C122.987 19.3984 123.388 19.3506 123.78 19.2608L123.867 19.2426L123.784 18.4618L123.672 18.4913C123.316 18.5817 122.951 18.6278 122.584 18.6286C121.624 18.6286 121.157 18.1548 121.157 17.1805V11.5008H124.022Z" fill="black"/>
    <path d="M13.4452 0.0852051C10.8492 0.0852051 8.31142 0.834026 6.15289 2.23698C3.99435 3.63992 2.31198 5.63399 1.31852 7.96701C0.325054 10.3 0.0651183 12.8672 0.571582 15.3439C1.07805 17.8207 2.32816 20.0957 4.16384 21.8813C5.99952 23.6669 8.33832 24.8829 10.8845 25.3756C13.4307 25.8682 16.0698 25.6154 18.4683 24.649C20.8667 23.6826 22.9167 22.0462 24.3589 19.9465C25.8012 17.8468 26.5711 15.3783 26.5711 12.8531C26.5672 9.46796 25.1831 6.22259 22.7223 3.82897C20.2616 1.43535 16.9252 0.08896 13.4452 0.0852051V0.0852051Z" fill="black"/>
    <path d="M15.2929 20.9547V16.1284H14.7159V19.892L11.9449 16.1272L11.4502 16.1182V20.9569H12.0271V17.1343L14.7853 20.9518L15.2929 20.9547Z" fill="black"/>
    <path d="M20.5522 12.5525H6.33426V13.0695H20.5522V12.5525Z" fill="black"/>
    <path d="M11.695 8.83226L11.3829 9.27194C11.9567 9.7347 12.6829 9.98065 13.4282 9.96465C14.6177 9.96465 15.4484 9.30428 15.4484 8.35854C15.4536 8.11864 15.3844 7.88277 15.2499 7.68161C15.1154 7.48046 14.9217 7.32334 14.6941 7.23069C14.3112 7.05994 13.9125 6.92488 13.5034 6.82732L13.4416 6.81087C12.7147 6.6123 12.2002 6.43529 12.2002 5.96951C12.2002 5.51849 12.7322 5.16504 13.4118 5.16504C13.9046 5.16515 14.3809 5.33773 14.7536 5.65124L15.0727 5.1917C14.6209 4.83168 14.0518 4.64018 13.4678 4.65161C12.3909 4.65161 11.6098 5.21894 11.6098 6.00072C11.6098 6.85739 12.5963 7.1246 13.3891 7.33905C14.071 7.524 14.8405 7.73278 14.8405 8.39372C14.8405 9.02516 14.2834 9.43307 13.4212 9.43307C12.7927 9.42685 12.1847 9.21524 11.695 8.83226Z" fill="black"/>
  </svg>