<svg xmlns="http://www.w3.org/2000/svg" width="136" height="26" viewBox="0 0 136 26" fill="none">
    <path fill-rule="evenodd" clip-rule="evenodd" d="M125.543 22.2782C124.472 22.2782 123.937 21.5854 123.937 20.1996V0.768066H121.827V20.4201C121.827 21.6378 122.121 22.5827 122.709 23.2545C123.297 23.9054 124.084 24.2308 125.071 24.2308C125.91 24.2308 126.813 23.8844 127.779 23.1915L127.307 21.5539C126.698 22.0368 126.11 22.2782 125.543 22.2782ZM61.6749 24.1047V7.60201H59.5648V11.3183C58.9349 10.1005 58.0426 9.1557 56.8878 8.48384C55.7541 7.81197 54.4313 7.47604 52.9196 7.47604C51.387 7.47604 50.0117 7.83297 48.794 8.54682C47.8327 9.12022 47.0407 9.86973 46.4181 10.7953C45.6028 11.8569 44.7127 13.3036 44.2269 14.8396L46.2638 14.917L46.2639 14.9167L46.2876 14.9176C46.6357 14.1522 47.0177 13.4848 47.4109 12.9071C47.7983 12.3513 48.2058 11.8564 48.597 11.4397C48.7341 11.2976 48.8699 11.1654 49.0034 11.0428C49.3453 10.7024 49.7269 10.4058 50.1482 10.153C51.093 9.58611 52.1638 9.30267 53.3606 9.30267C55.0612 9.30267 56.4784 9.85906 57.6122 10.9718C58.746 12.0636 59.3968 13.4808 59.5648 15.2235V16.5462C59.3968 18.2889 58.746 19.7061 57.6122 20.7978C56.4784 21.8686 55.0612 22.404 53.3606 22.404C52.1638 22.404 51.0825 22.1311 50.1167 21.5852C49.1719 21.0183 48.4266 20.2415 47.8807 19.2547C47.8424 19.1827 47.8055 19.1099 47.77 19.0365L51.6213 19.1473L51.673 17.3513L45.1338 17.1632L44.2358 17.1373L44.2099 18.0353L44.0236 24.5107L45.8196 24.5623L45.9484 20.0856C45.9625 20.1131 45.9767 20.1406 45.9911 20.168C46.6629 21.4487 47.6077 22.446 48.8255 23.1599C50.0432 23.8737 51.4289 24.2306 52.9826 24.2306C54.4733 24.2306 55.7856 23.8947 56.9193 23.2229C58.0531 22.551 58.9349 21.6062 59.5648 20.3884V24.1047H61.6749ZM42.0793 20.0462L42.0792 20.0461L42.1096 19.1452C40.8871 20.7043 39.5577 21.5836 39.0092 21.8638C38.1694 22.2449 37.2508 22.4355 36.2534 22.4355C34.8467 22.4355 33.6184 22.0681 32.5686 21.3332C31.5188 20.5984 30.7735 19.5906 30.3326 18.3098L43.4339 13.6488C43.14 11.7592 42.3211 10.2685 40.9774 9.1767C39.6337 8.08492 37.9855 7.53903 36.0329 7.53903C34.4372 7.53903 33.0095 7.89595 31.7498 8.60981C30.511 9.30267 29.5452 10.279 28.8524 11.5387C28.1595 12.7985 27.8131 14.2262 27.8131 15.8219C27.8131 17.4385 28.1595 18.8872 28.8524 20.168C29.5662 21.4277 30.553 22.4145 31.8128 23.1284C33.0725 23.8212 34.5107 24.1677 36.1274 24.1677C37.6745 24.1677 39.067 23.8261 40.3047 23.1429C40.7511 22.9092 41.3562 22.544 42.013 22.0081L42.017 21.8888L42.0171 21.8887L42.0793 20.0462ZM36.0644 9.30267C34.2168 9.30267 32.7261 9.89055 31.5923 11.0663C30.4795 12.2211 29.9231 13.7853 29.9231 15.7589C29.9231 15.9688 29.9441 16.2838 29.9861 16.7037L41.2609 12.6095C40.8409 11.5177 40.1796 10.6989 39.2768 10.153C38.3739 9.58611 37.3032 9.30267 36.0644 9.30267ZM0.557068 7.60201H2.82461L7.89508 21.9946L12.9026 7.60201H15.1386L20.1776 21.9946L25.2166 7.60201H27.4211L21.2484 24.1047H19.0438L14.0048 10.153L8.96587 24.1047H6.76131L0.557068 7.60201ZM69.0089 11.4442C69.5548 10.1845 70.3317 9.22919 71.3395 8.57832C72.3683 7.90645 73.5965 7.56002 75.0242 7.53903V9.52313C73.2816 9.50213 71.8749 10.0165 70.8041 11.0663C69.7543 12.0951 69.1559 13.5018 69.0089 15.2865V24.1047H66.8989V7.60201H69.0089V11.4442ZM78.251 7.63368H75.9834L82.1877 24.1363H84.3922L89.4312 10.1847L94.4702 24.1363H96.6747L102.847 7.63368H100.643L95.604 22.0263L90.565 7.63368H88.3289L83.3214 22.0263L78.251 7.63368ZM111.68 22.4672C113.863 22.4672 115.669 21.5539 117.097 19.7272L118.419 20.861C116.635 23.0865 114.346 24.1993 111.554 24.1993C109.937 24.1993 108.499 23.8529 107.239 23.16C105.979 22.4462 104.993 21.4594 104.279 20.1996C103.586 18.9189 103.239 17.4702 103.239 15.8535C103.239 14.2578 103.586 12.8301 104.279 11.5704C104.972 10.3106 105.937 9.33433 107.176 8.64147C108.436 7.92762 109.864 7.57069 111.459 7.57069C113.412 7.57069 115.06 8.11658 116.404 9.20836C117.748 10.3001 118.566 11.7908 118.86 13.6805L105.759 18.3415C106.2 19.6222 106.945 20.63 107.995 21.3649C109.045 22.0998 110.273 22.4672 111.68 22.4672ZM111.491 9.33433C109.643 9.33433 108.152 9.92221 107.019 11.098C105.906 12.2527 105.35 13.8169 105.35 15.7905C105.35 16.0005 105.371 16.3154 105.412 16.7353L116.687 12.6412C116.267 11.5494 115.606 10.7306 114.703 10.1847C113.8 9.61778 112.73 9.33433 111.491 9.33433ZM131.942 20.1996C131.942 21.5854 132.477 22.2782 133.548 22.2782C134.115 22.2782 134.703 22.0368 135.312 21.5539L135.784 23.1915C134.818 23.8844 133.916 24.2308 133.076 24.2308C132.089 24.2308 131.302 23.9054 130.714 23.2545C130.126 22.5827 129.832 21.6378 129.832 20.4201V0.768066H131.942V20.1996Z" fill="#070F05"/>
  </svg>