<svg width="47" height="46" viewBox="0 0 47 46" fill="none" xmlns="http://www.w3.org/2000/svg">
<path d="M24.5959 19.416C22.5698 21.3291 21.3027 24.0412 21.3027 27.052C21.3027 29.4172 22.0856 31.5964 23.4013 33.3482L19.4057 37.3678C19.0506 37.2386 18.6712 37.1661 18.2756 37.1661C17.4039 37.1661 16.5887 37.5052 15.9751 38.1186C15.3617 38.732 15.0226 39.5551 15.0226 40.4273C15.0226 41.2988 15.3616 42.1141 15.9751 42.7277C16.5887 43.341 17.412 43.6639 18.2756 43.6639C19.1473 43.6639 19.9626 43.349 20.5841 42.7277C21.1976 42.1141 21.5366 41.2907 21.5366 40.4273C21.5366 40.0882 21.4883 39.7652 21.3833 39.4504L25.4193 35.3983C27.1951 36.7624 29.4067 37.5697 31.8201 37.5697C37.624 37.5697 42.3136 32.8637 42.3136 27.06C42.3136 21.7972 38.4635 17.4384 33.4185 16.6716V11.6994C34.8311 11.1019 35.6947 9.77814 35.6947 8.23634C35.6947 6.12959 34.0077 4.37 31.9008 4.37C29.7942 4.37 28.1313 6.12959 28.1313 8.23634C28.1313 9.77814 28.995 11.1019 30.4075 11.6994V16.6392C29.1807 16.8088 28.0183 17.18 26.9609 17.737C24.7332 16.05 17.4766 10.8193 13.3275 7.66322C13.4244 7.30807 13.4891 6.93684 13.4891 6.54943C13.4891 4.22472 11.5922 2.33594 9.25939 2.33594C6.93468 2.33594 5.0459 4.22472 5.0459 6.54943C5.0459 8.88222 6.93468 10.771 9.25939 10.771C10.0505 10.771 10.7849 10.5369 11.4226 10.1576L24.5959 19.416ZM31.8201 32.6218C28.7449 32.6218 26.2506 30.1275 26.2506 27.052C26.2506 23.9768 28.7449 21.4826 31.8201 21.4826C34.8955 21.4826 37.3897 23.9768 37.3897 27.052C37.3898 30.1275 34.8956 32.6218 31.8201 32.6218Z" fill="#FF7A59"/>
</svg>
