<svg width="44" height="48" viewBox="0 0 44 48" fill="none" xmlns="http://www.w3.org/2000/svg">
<g clipPath="url(#clip0_1428_10273)">
<mask id="mask0_1428_10273" style="mask-type:luminance" maskUnits="userSpaceOnUse" x="0" y="0" width="204" height="48">
<path d="M203.822 0.659912H0.168945V47.3399H203.822V0.659912Z" fill="white"/>
</mask>
<g mask="url(#mask0_1428_10273)">
<path d="M26.7198 13.0871C22.6069 13.0871 18.5532 14.8528 15.4583 18.3243V1.20508H9.33398V30.0263C9.33398 30.027 9.33398 30.0277 9.33398 30.0285C9.33398 39.3849 16.9188 46.9697 26.2753 46.9697C35.6316 46.9697 43.2166 39.3849 43.2166 30.0285C43.2166 20.6721 36.0761 13.0871 26.7198 13.0871ZM26.2753 40.4445C20.5225 40.4445 15.859 35.781 15.859 30.0284C15.859 24.2756 20.5225 19.6121 26.2753 19.6121C32.0279 19.6121 36.6914 24.2756 36.6914 30.0284C36.6914 35.7811 32.0279 40.4445 26.2753 40.4445Z" fill="#262626"/>
</g>
<mask id="mask1_1428_10273" style="mask-type:luminance" maskUnits="userSpaceOnUse" x="0" y="0" width="204" height="48">
<path d="M203.822 0.659912H0.168945V47.3399H203.822V0.659912Z" fill="white"/>
</mask>
<g mask="url(#mask1_1428_10273)">
<path d="M4.88168 38.5911C2.56793 38.5911 0.692383 40.4667 0.692383 42.7804C0.692383 45.094 2.56793 46.9697 4.88168 46.9697C7.19543 46.9697 9.07098 45.094 9.07098 42.7804C9.07098 40.4667 7.19543 38.5911 4.88168 38.5911Z" fill="#0000FF"/>
</g>
</g>
<defs>
<clipPath id="clip0_1428_10273">
<rect width="43.0188" height="46.68" fill="white" transform="translate(0.167969 0.660156)"/>
</clipPath>
</defs>
</svg>
