<svg width="54" height="21" viewBox="0 0 54 21" fill="none" xmlns="http://www.w3.org/2000/svg">
<g clipPath="url(#clip0_1431_10344)">
<path d="M31.0163 0.569255C29.9925 1.08115 29.5488 2.03669 29.5488 4.63029C29.5488 4.63029 30.0607 4.11839 30.8798 3.81125C31.477 3.58943 31.9035 3.29936 32.2107 3.07754C33.098 2.41208 33.2345 1.61011 33.2345 0.210929C33.2174 0.210929 31.8182 0.125613 31.0163 0.569255Z" fill="#FBBD71"/>
<path d="M24.7548 1.16653C23.8675 1.90025 23.6457 3.16292 23.6457 3.16292L20.7791 14.1516L18.4243 5.15931C18.2025 4.20378 17.7589 3.02642 17.0934 2.20739C16.2744 1.16653 14.5681 1.09828 14.3633 1.09828C14.2097 1.09828 12.5205 1.16653 11.6332 2.20739C10.9677 3.02642 10.5241 4.20378 10.3023 5.15931L8.08407 14.1516L5.21746 3.16292C5.21746 3.16292 4.99564 1.98557 4.10835 1.16653C2.70917 -0.0961395 0.644531 0.210997 0.644531 0.210997L6.10474 20.7721C6.10474 20.7721 7.87931 20.9257 8.76659 20.482C9.94395 19.8848 10.5412 19.4582 11.2066 16.6428C11.8721 14.1345 13.6467 6.8315 13.7832 6.31961C13.8514 6.09779 14.005 5.43232 14.4486 5.43232C14.8923 5.43232 15.0458 6.02953 15.1141 6.31961C15.2677 6.8315 17.0252 14.1345 17.6906 16.6428C18.4243 19.4412 18.9362 19.8848 20.1307 20.482C21.0179 20.9257 22.7925 20.7721 22.7925 20.7721L28.2186 0.210997C28.2186 0.210997 26.1539 -0.0790764 24.7548 1.16653Z" fill="black"/>
<path d="M33.2188 3.52124C33.2188 3.52124 32.8435 4.03313 32.1097 4.47678C31.5978 4.76685 31.1542 4.92042 30.6423 5.21049C29.755 5.65413 29.5332 6.09778 29.5332 6.76324V6.98506V8.09417V8.31599V20.7038C29.5332 20.7038 30.9324 20.8574 31.8197 20.4138C32.997 19.8166 33.2188 19.2364 33.2188 16.7281V4.34027V3.52124Z" fill="black"/>
<path d="M46.7828 10.5341L53.7105 0.27914C53.7105 0.27914 50.8439 -0.232755 49.3594 1.09817C48.4038 1.9172 47.4483 3.45289 47.4483 3.45289L44.94 7.13853C44.7864 7.36035 44.6499 7.51392 44.4281 7.51392C44.2063 7.51392 43.9845 7.29209 43.9162 7.13853L41.4079 3.45289C41.4079 3.45289 40.3841 1.98545 39.4969 1.09817C38.0294 -0.232755 35.1458 0.27914 35.1458 0.27914L41.8516 10.517L34.9922 20.7549C34.9922 20.7549 38.0124 21.1303 39.4969 19.7994C40.4524 18.9804 41.3397 17.5812 41.3397 17.5812L43.848 13.8955C44.0015 13.6737 44.138 13.5201 44.3599 13.5201C44.5817 13.5201 44.8035 13.742 44.8718 13.8955L47.38 17.5812C47.38 17.5812 48.3356 18.9804 49.2229 19.7994C50.6903 21.1303 53.6422 20.7549 53.6422 20.7549L46.7828 10.5341Z" fill="black"/>
</g>
<defs>
<clipPath id="clip0_1431_10344">
<rect width="53.0664" height="20.6464" fill="white" transform="translate(0.644531 0.176758)"/>
</clipPath>
</defs>
</svg>
