<svg width="47" height="47" viewBox="0 0 47 47" fill="none" xmlns="http://www.w3.org/2000/svg">
<g clipPath="url(#clip0_1431_10332)">
<path d="M4.20801 23.2609C4.20801 31.0708 8.7467 37.82 15.3282 41.0184L5.91626 15.231C4.82148 17.6848 4.20801 20.4004 4.20801 23.2609Z" fill="#21759B"/>
<path d="M37.2595 22.2652C37.2595 19.8267 36.3836 18.138 35.6324 16.8236C34.6322 15.1983 33.6947 13.8219 33.6947 12.1967C33.6947 10.3829 35.0703 8.69456 37.008 8.69456C37.0954 8.69456 37.1784 8.70545 37.2636 8.71033C33.7533 5.49431 29.0764 3.53076 23.9397 3.53076C17.0466 3.53076 10.9821 7.0674 7.4541 12.4242C7.91702 12.4381 8.35328 12.4478 8.72384 12.4478C10.7876 12.4478 13.9822 12.1974 13.9822 12.1974C15.0459 12.1347 15.1713 13.6969 14.1088 13.8227C14.1088 13.8227 13.0399 13.9485 11.8505 14.0108L19.0357 35.3827L23.3536 22.4326L20.2795 14.01C19.217 13.9477 18.2104 13.8219 18.2104 13.8219C17.1472 13.7596 17.2718 12.134 18.3351 12.1967C18.3351 12.1967 21.5935 12.4471 23.5323 12.4471C25.5957 12.4471 28.7907 12.1967 28.7907 12.1967C29.8551 12.134 29.9801 13.6962 28.9172 13.8219C28.9172 13.8219 27.8461 13.9477 26.659 14.01L33.7893 35.2201L35.7574 28.6435C36.6104 25.9145 37.2595 23.9543 37.2595 22.2652Z" fill="#21759B"/>
<path d="M24.2861 24.9868L18.3662 42.1891C20.1338 42.7087 22.0031 42.9929 23.94 42.9929C26.2377 42.9929 28.4411 42.5957 30.4922 41.8745C30.4392 41.79 30.3912 41.7003 30.3517 41.6026L24.2861 24.9868Z" fill="#21759B"/>
<path d="M41.2527 13.7947C41.3375 14.4232 41.3856 15.0978 41.3856 15.8236C41.3856 17.8258 41.0117 20.0765 39.8853 22.8908L33.8584 40.3161C39.7243 36.8955 43.6698 30.5404 43.6698 23.2614C43.6701 19.831 42.7939 16.6052 41.2527 13.7947Z" fill="#21759B"/>
<path d="M23.9396 0.261475C11.2577 0.261475 0.939453 10.5789 0.939453 23.2609C0.939453 35.9444 11.2577 46.2615 23.9396 46.2615C36.6212 46.2615 46.941 35.9444 46.941 23.2609C46.9406 10.5789 36.6212 0.261475 23.9396 0.261475ZM23.9396 45.2072C11.8392 45.2072 1.99406 35.3621 1.99406 23.2609C1.99406 11.1605 11.8388 1.31608 23.9396 1.31608C36.0397 1.31608 45.8841 11.1605 45.8841 23.2609C45.8841 35.3621 36.0397 45.2072 23.9396 45.2072Z" fill="#21759B"/>
</g>
<defs>
<clipPath id="clip0_1431_10332">
<rect width="45.9989" height="46" fill="white" transform="translate(0.9375 0.261475)"/>
</clipPath>
</defs>
</svg>
