<svg width="21" height="21" viewBox="0 0 21 21" fill="none" xmlns="http://www.w3.org/2000/svg">
<g clip-path="url(#clip0_714_27)">
<rect y="0.876953" width="20.123" height="20.123" rx="3.14306" fill="white"/>
<path d="M16.8745 10.9385C16.8745 14.5291 13.9702 17.4397 10.3878 17.4397C6.80538 17.4397 3.90112 14.5291 3.90112 10.9385C3.90112 7.34797 6.80538 4.43737 10.3878 4.43737C13.9702 4.43737 16.8745 7.34797 16.8745 10.9385Z" fill="#FFCD05" stroke="#FFCD05" stroke-width="0.0727383"/>
<path d="M3.86508 13.1332C5.14738 13.1332 6.07349 12.2765 6.18543 11.1239H5.4018C5.31021 11.9909 4.62835 12.4295 3.87525 12.4295C2.84738 12.4295 2.13499 11.7359 2.13499 10.4303V10.3487C2.13499 9.09418 2.87791 8.31901 3.84472 8.31901C4.57747 8.31901 5.18809 8.6352 5.32039 9.48177H6.1549C5.99207 8.12522 4.95402 7.61523 3.84472 7.61523C2.41994 7.61523 1.25977 8.7168 1.25977 10.3487V10.4303C1.25977 12.0827 2.37924 13.1332 3.86508 13.1332Z" fill="black"/>
<path d="M10.8053 12.4295C9.72653 12.4295 9.06503 11.6339 9.06503 10.4201V10.3385C9.06503 9.11458 9.73671 8.31901 10.8053 8.31901C11.8637 8.31901 12.5456 9.11458 12.5456 10.3487V10.4201C12.5456 11.6237 11.8739 12.4295 10.8053 12.4295ZM10.7951 13.1332C12.3115 13.1332 13.4208 12.0215 13.4208 10.4099V10.3283C13.4208 8.727 12.3115 7.61523 10.8053 7.61523C9.2991 7.61523 8.1898 8.7372 8.1898 10.3385V10.4201C8.1898 11.9807 9.27874 13.1332 10.7951 13.1332Z" fill="black"/>
<path d="M16.5794 12.2794C15.6375 12.2794 15.06 11.5419 15.06 10.4169V10.3413C15.06 9.20678 15.6464 8.46935 16.5794 8.46935C17.5034 8.46935 18.0987 9.20678 18.0987 10.3507V10.4169C18.0987 11.5325 17.5123 12.2794 16.5794 12.2794ZM16.5705 12.9317C17.8943 12.9317 18.8628 11.9012 18.8628 10.4075V10.3318C18.8628 8.84752 17.8943 7.81702 16.5794 7.81702C15.2644 7.81702 14.2959 8.85697 14.2959 10.3413V10.4169C14.2959 11.8634 15.2466 12.9317 16.5705 12.9317Z" fill="black"/>
<rect x="13.0659" y="10.204" width="1.34434" height="0.820097" fill="black"/>
</g>
<defs>
<clipPath id="clip0_714_27">
<rect width="20.123" height="20.123" fill="white" transform="translate(0 0.876953)"/>
</clipPath>
</defs>
</svg>
