<svg width="58" height="57" viewBox="0 0 58 57" fill="none" xmlns="http://www.w3.org/2000/svg">
<path d="M29.2051 47.5C26.5704 47.5 24.1012 47.0044 21.7975 46.0133C19.4937 45.0221 17.4813 43.666 15.7602 41.9449C14.0375 40.2222 12.6806 38.209 11.6895 35.9053C10.6999 33.6015 10.2051 31.1331 10.2051 28.5C10.2051 25.8669 10.7007 23.3985 11.6918 21.0947C12.683 18.791 14.0399 16.7778 15.7626 15.0551C17.4821 13.334 19.4929 11.9779 21.7951 10.9867C24.1004 9.99558 26.5696 9.5 29.2027 9.5C31.9308 9.5 34.529 10.0637 36.9975 11.191C39.4659 12.3167 41.6176 13.8874 43.4527 15.903V10.2315H45.8277V20.0972H35.962V17.7222H41.8543C40.2013 15.9014 38.2934 14.4717 36.1306 13.433C33.9709 12.3943 31.6624 11.875 29.2051 11.875C24.5722 11.875 20.6432 13.4884 17.418 16.7153C14.1927 19.9421 12.5793 23.8703 12.5777 28.5C12.5777 33.1313 14.1911 37.0603 17.418 40.2871C20.6448 43.514 24.573 45.1266 29.2027 45.125C33.359 45.125 36.9761 43.7713 40.0541 41.0638C43.1305 38.3563 44.9909 34.96 45.6353 30.875H48.0388C47.4752 35.6582 45.401 39.6245 41.8163 42.7738C38.2301 45.9246 34.0263 47.5 29.2051 47.5ZM36.6745 37.6532L28.0152 28.994V16.625H30.3902V28.006L38.356 35.9718L36.6745 37.6532Z" fill="black"/>
</svg>
