<svg width="58" height="57" viewBox="0 0 58 57" fill="none" xmlns="http://www.w3.org/2000/svg">
<path d="M26.3667 36.081C27.1029 36.8188 28.0482 37.1545 29.2024 37.088C30.3567 37.0215 31.1982 36.6067 31.727 35.8435L44.2077 18.4538L26.7253 30.8418C25.9304 31.3706 25.4879 32.1923 25.3977 33.307C25.3074 34.4217 25.6312 35.3479 26.369 36.0858M29.3164 11.875C31.4998 11.875 33.4869 12.141 35.2777 12.673C37.0684 13.205 38.8536 14.0173 40.6333 15.1098L38.4507 16.5894C37.0526 15.8246 35.6054 15.2435 34.1092 14.8461C32.6129 14.4487 31.0153 14.25 29.3164 14.25C24.0518 14.25 19.5686 16.1009 15.8668 19.8028C12.1649 23.5046 10.3148 27.987 10.3164 33.25C10.3164 34.9125 10.5444 36.5552 11.0004 38.1781C11.4564 39.801 12.0992 41.325 12.9289 42.75H45.7039C46.6143 41.2458 47.2777 39.6823 47.6942 38.0594C48.1106 36.4365 48.318 34.7542 48.3164 33.0125C48.3164 31.5875 48.1327 30.0881 47.7654 28.5142C47.3997 26.9404 46.8194 25.4743 46.0245 24.1158L47.5042 21.9308C48.66 23.9147 49.4778 25.7798 49.9575 27.5263C50.4373 29.2743 50.6819 31.0935 50.6914 32.984C50.7009 35.0265 50.4737 36.9328 50.0098 38.703C49.5474 40.4716 48.827 42.256 47.8485 44.0562C47.6585 44.3729 47.3696 44.6302 46.9817 44.8281C46.5953 45.026 46.1694 45.125 45.7039 45.125H12.9289C12.4935 45.125 12.0897 45.0181 11.7177 44.8044C11.3472 44.5922 11.0352 44.2819 10.7819 43.8734C9.99657 42.488 9.32682 40.9252 8.77266 39.1851C8.21849 37.445 7.94141 35.4667 7.94141 33.25C7.94141 30.3303 8.49557 27.5745 9.60391 24.9826C10.7107 22.3907 12.2227 20.121 14.1402 18.1735C16.056 16.226 18.3202 14.6886 20.9327 13.5613C23.5499 12.4371 26.3445 11.875 29.3164 11.875Z" fill="black"/>
</svg>
