<svg width="58" height="57" viewBox="0 0 58 57" fill="none" xmlns="http://www.w3.org/2000/svg">
<path d="M29 49.7847C24.2294 48.3677 20.2655 45.4773 17.1084 41.1136C13.9528 36.7484 12.375 31.8313 12.375 26.3625V13.5185L29 7.30786L45.625 13.5185V26.3625C45.625 31.8313 44.0472 36.7476 40.8916 41.1112C37.7345 45.4765 33.7706 48.3677 29 49.7847ZM29 47.2625C32.8396 46.075 36.0458 43.7301 38.6187 40.2277C41.1917 36.7254 42.6958 32.8162 43.1313 28.5H29V9.84199L14.75 15.1406V27.3861C14.75 27.6933 14.7896 28.0646 14.8688 28.5H29V47.2625Z" fill="black"/>
</svg>
