<svg width="58" height="57" viewBox="0 0 58 57" fill="none" xmlns="http://www.w3.org/2000/svg">
<path d="M16.3688 49.875C15.308 49.875 14.4031 49.5013 13.6542 48.754C12.9069 48.0067 12.5332 47.1018 12.5332 46.0394V25.2106C12.5332 24.1498 12.9069 23.2449 13.6542 22.496C14.4015 21.7487 15.3064 21.375 16.3688 21.375H19.6582V16.625C19.6582 13.9793 20.5797 11.7341 22.4227 9.8895C24.2657 8.04492 26.5109 7.12342 29.1582 7.125C31.804 7.125 34.0491 8.0465 35.8937 9.8895C37.7383 11.7325 38.6598 13.9777 38.6582 16.625V21.375H41.9476C43.0084 21.375 43.9133 21.7487 44.6622 22.496C45.4095 23.2433 45.7832 24.1482 45.7832 25.2106V46.0394C45.7832 47.1002 45.4095 48.0051 44.6622 48.754C43.9149 49.5013 43.01 49.875 41.9476 49.875H16.3688ZM16.3688 47.5H41.9476C42.3735 47.5 42.7234 47.363 42.9973 47.0891C43.2712 46.8152 43.4082 46.4653 43.4082 46.0394V25.2106C43.4082 24.7847 43.2712 24.4348 42.9973 24.1609C42.7234 23.887 42.3735 23.75 41.9476 23.75H16.3688C15.9429 23.75 15.593 23.887 15.3191 24.1609C15.0452 24.4348 14.9082 24.7847 14.9082 25.2106V46.0394C14.9082 46.4653 15.0452 46.8152 15.3191 47.0891C15.593 47.363 15.9429 47.5 16.3688 47.5ZM29.1582 39.1875C30.1605 39.1875 31.0044 38.8439 31.69 38.1568C32.3771 37.4712 32.7207 36.6273 32.7207 35.625C32.7207 34.6228 32.3771 33.7788 31.69 33.0933C31.0044 32.4061 30.1605 32.0625 29.1582 32.0625C28.156 32.0625 27.312 32.4061 26.6265 33.0933C25.9393 33.7788 25.5957 34.6228 25.5957 35.625C25.5957 36.6273 25.9393 37.4712 26.6265 38.1568C27.312 38.8439 28.156 39.1875 29.1582 39.1875ZM22.0332 21.375H36.2832V16.625C36.2832 14.6458 35.5905 12.9635 34.2051 11.5781C32.8197 10.1927 31.1374 9.5 29.1582 9.5C27.179 9.5 25.4967 10.1927 24.1113 11.5781C22.7259 12.9635 22.0332 14.6458 22.0332 16.625V21.375Z" fill="black"/>
</svg>
