<svg width="58" height="57" viewBox="0 0 58 57" fill="none" xmlns="http://www.w3.org/2000/svg">
<path d="M45.7838 49.875H22.96L9.3418 31.8393L11.2679 29.7327L20.1148 34.181V14.8913H22.504V38.2138L14.0039 34.01L24.2259 47.5H43.4088V29.7778H29.0804V27.4028H45.7838V49.875ZM13.0872 20.8288C12.6628 20.1084 12.343 19.3484 12.1277 18.5488C11.9108 17.7476 11.8023 16.9243 11.8023 16.0788C11.8023 13.4315 12.7246 11.1863 14.5692 9.34329C16.4138 7.50029 18.6581 6.578 21.3023 6.57642C23.948 6.57642 26.1932 7.49871 28.0378 9.34329C29.8808 11.1863 30.8023 13.4291 30.8023 16.0717C30.8023 16.9314 30.6946 17.7595 30.4793 18.5559C30.2624 19.3507 29.9425 20.1076 29.5198 20.8264L27.4773 19.6389C27.794 19.0847 28.0315 18.5211 28.1898 17.9479C28.3481 17.3747 28.4273 16.7509 28.4273 16.0764C28.4273 14.0972 27.7346 12.415 26.3492 11.0295C24.9638 9.64412 23.2815 8.95221 21.3023 8.95379C19.3231 8.95379 17.6408 9.6465 16.2554 11.0319C14.87 12.4173 14.1773 14.0996 14.1773 16.0788C14.1773 16.7517 14.2565 17.3755 14.4148 17.9503C14.5731 18.525 14.8106 19.0887 15.1273 19.6413L13.0872 20.8288Z" fill="black"/>
</svg>
