<svg width="58" height="57" viewBox="0 0 58 57" fill="none" xmlns="http://www.w3.org/2000/svg">
<path d="M45.3477 7.57035H37.0715C36.1119 6.45284 34.9221 5.55593 33.5835 4.94105C32.245 4.32616 30.7894 4.00781 29.3164 4.00781C27.8434 4.00781 26.3878 4.32616 25.0493 4.94105C23.7108 5.55593 22.5209 6.45284 21.5613 7.57035H13.2852C12.4584 7.57035 11.6656 7.89876 11.081 8.48335C10.4964 9.06793 10.168 9.8608 10.168 10.6875V48.0938C10.168 48.9205 10.4964 49.7134 11.081 50.298C11.6656 50.8826 12.4584 51.211 13.2852 51.211H45.3477C46.1744 51.211 46.9673 50.8826 47.5518 50.298C48.1364 49.7134 48.4648 48.9205 48.4648 48.0938V10.6875C48.4648 9.8608 48.1364 9.06793 47.5518 8.48335C46.9673 7.89876 46.1744 7.57035 45.3477 7.57035ZM29.3164 6.67972C31.3242 6.67972 33.2497 7.4773 34.6694 8.89701C36.0891 10.3167 36.8867 12.2423 36.8867 14.25V14.6953H21.7461V14.25C21.7461 12.2423 22.5437 10.3167 23.9634 8.89701C25.3831 7.4773 27.3086 6.67972 29.3164 6.67972ZM45.793 48.0938C45.793 48.2119 45.7461 48.3252 45.6625 48.4087C45.579 48.4922 45.4658 48.5391 45.3477 48.5391H13.2852C13.1671 48.5391 13.0538 48.4922 12.9703 48.4087C12.8868 48.3252 12.8398 48.2119 12.8398 48.0938V10.6875C12.8398 10.5694 12.8868 10.4562 12.9703 10.3726C13.0538 10.2891 13.1671 10.2422 13.2852 10.2422H19.8914C19.3509 11.5092 19.073 12.8726 19.0742 14.25V16.0313C19.0742 16.3856 19.215 16.7254 19.4655 16.9759C19.716 17.2265 20.0558 17.3672 20.4102 17.3672H38.2227C38.577 17.3672 38.9168 17.2265 39.1673 16.9759C39.4178 16.7254 39.5586 16.3856 39.5586 16.0313V14.25C39.5599 12.8726 39.2819 11.5092 38.7414 10.2422H45.3477C45.4658 10.2422 45.579 10.2891 45.6625 10.3726C45.7461 10.4562 45.793 10.5694 45.793 10.6875V48.0938Z" fill="black"/>
</svg>
