<svg width="58" height="57" viewBox="0 0 58 57" fill="none" xmlns="http://www.w3.org/2000/svg">
<path d="M29.3164 5.78906C24.8246 5.78906 20.4337 7.12104 16.6989 9.61655C12.9641 12.1121 10.0532 15.659 8.33425 19.8089C6.61531 23.9588 6.16556 28.5252 7.04186 32.9307C7.91817 37.3362 10.0812 41.3829 13.2574 44.5591C16.4335 47.7352 20.4802 49.8982 24.8857 50.7746C29.2912 51.6509 33.8576 51.2011 38.0075 49.4822C42.1574 47.7632 45.7044 44.8523 48.1999 41.1175C50.6954 37.3827 52.0274 32.9918 52.0274 28.5C52.0203 22.4789 49.6253 16.7063 45.3677 12.4488C41.1101 8.19116 35.3376 5.79613 29.3164 5.78906ZM47.4785 20.0391H38.5322C37.5586 16.0009 35.783 12.1998 33.3109 8.86172C36.3799 9.4924 39.259 10.8314 41.7188 12.772C44.1786 14.7126 46.1509 17.2011 47.4785 20.0391ZM49.3555 28.5C49.357 30.4611 49.0696 32.4117 48.5027 34.2891H39.0821C39.7175 30.4558 39.7175 26.5442 39.0821 22.7109H48.5027C49.0696 24.5883 49.357 26.5389 49.3555 28.5ZM29.3164 48.5391C29.2609 48.5394 29.206 48.5278 29.1553 48.5052C29.1046 48.4825 29.0593 48.4493 29.0225 48.4077C26.1547 45.3195 24.0484 41.3539 22.8594 36.9609H35.7734C34.5845 41.3539 32.4781 45.3195 29.6103 48.4077C29.5735 48.4493 29.5283 48.4825 29.4776 48.5052C29.4269 48.5278 29.3719 48.5394 29.3164 48.5391ZM22.2604 34.2891C21.5747 30.4601 21.5747 26.5399 22.2604 22.7109H36.3724C37.0582 26.5399 37.0582 30.4601 36.3724 34.2891H22.2604ZM9.27735 28.5C9.27585 26.5389 9.5632 24.5883 10.1301 22.7109H19.5507C18.9153 26.5442 18.9153 30.4558 19.5507 34.2891H10.1301C9.5632 32.4117 9.27585 30.4611 9.27735 28.5ZM29.3164 8.46094C29.3719 8.46063 29.4269 8.47219 29.4776 8.49485C29.5283 8.51751 29.5735 8.55073 29.6103 8.5923C32.4781 11.6805 34.5845 15.6461 35.7734 20.0391H22.8594C24.0484 15.6461 26.1547 11.6805 29.0225 8.5923C29.0593 8.55073 29.1046 8.51751 29.1553 8.49485C29.206 8.47219 29.2609 8.46063 29.3164 8.46094ZM25.322 8.86172C22.8499 12.1998 21.0742 16.0009 20.1007 20.0391H11.1543C12.4819 17.2011 14.4543 14.7126 16.914 12.772C19.3738 10.8314 22.253 9.4924 25.322 8.86172ZM11.1543 36.9609H20.1007C21.0742 40.9991 22.8499 44.8002 25.322 48.1383C22.253 47.5076 19.3738 46.1686 16.914 44.228C14.4543 42.2874 12.4819 39.7989 11.1543 36.9609ZM33.3109 48.1383C35.783 44.8002 37.5586 40.9991 38.5322 36.9609H47.4785C46.1509 39.7989 44.1786 42.2874 41.7188 44.228C39.259 46.1686 36.3799 47.5076 33.3109 48.1383Z" fill="black"/>
</svg>
