<svg width="58" height="57" viewBox="0 0 58 57" fill="none" xmlns="http://www.w3.org/2000/svg">
<path d="M53.1004 15.0872C52.8499 14.837 52.5104 14.6965 52.1564 14.6965C51.8023 14.6965 51.4628 14.837 51.2123 15.0872L43.2501 23.0471L34.453 14.25L42.4129 6.28781C42.6489 6.03456 42.7774 5.69961 42.7713 5.35351C42.7652 5.00741 42.625 4.67719 42.3802 4.43243C42.1354 4.18766 41.8052 4.04745 41.4591 4.04135C41.113 4.03524 40.7781 4.16371 40.5248 4.39969L32.5626 12.3596L26.3817 6.18094C26.2594 6.04968 26.1119 5.94441 25.948 5.87139C25.7841 5.79837 25.6072 5.75911 25.4279 5.75595C25.2485 5.75278 25.0703 5.78578 24.904 5.85297C24.7376 5.92016 24.5865 6.02017 24.4596 6.14703C24.3328 6.27389 24.2328 6.425 24.1656 6.59134C24.0984 6.75769 24.0654 6.93587 24.0686 7.11524C24.0717 7.29462 24.111 7.47152 24.184 7.6354C24.257 7.79927 24.3623 7.94676 24.4936 8.06906L26.2191 9.79688L14.1111 21.9049C13.3251 22.6906 12.7016 23.6235 12.2762 24.6502C11.8508 25.677 11.6318 26.7774 11.6318 27.8888C11.6318 29.0002 11.8508 30.1007 12.2762 31.1274C12.7016 32.1541 13.3251 33.087 14.1111 33.8727L17.9252 37.6846L6.68106 48.9309C6.5498 49.0532 6.44453 49.2007 6.37151 49.3646C6.29849 49.5285 6.25923 49.7054 6.25607 49.8848C6.2529 50.0641 6.2859 50.2423 6.35309 50.4087C6.42028 50.575 6.52029 50.7261 6.64715 50.853C6.774 50.9798 6.92512 51.0798 7.09146 51.147C7.25781 51.2142 7.43599 51.2472 7.61536 51.2441C7.79474 51.2409 7.97164 51.2016 8.13552 51.1286C8.29939 51.0556 8.44688 50.9503 8.56918 50.8191L19.8156 39.5749L23.6297 43.389C25.2164 44.9757 27.3685 45.8672 29.6124 45.8672C31.8564 45.8672 34.0085 44.9757 35.5952 43.389L47.7032 31.281L49.4311 33.0066C49.6843 33.2425 50.0193 33.371 50.3654 33.3649C50.7115 33.3588 51.0417 33.2186 51.2864 32.9738C51.5312 32.7291 51.6714 32.3988 51.6775 32.0527C51.6836 31.7066 51.5552 31.3717 51.3192 31.1184L45.1405 24.9375L53.1004 16.9753C53.3506 16.7248 53.4911 16.3853 53.4911 16.0313C53.4911 15.6772 53.3506 15.3377 53.1004 15.0872ZM33.7048 41.4987C33.1673 42.0363 32.5291 42.4627 31.8267 42.7536C31.1244 43.0446 30.3716 43.1943 29.6113 43.1943C28.8511 43.1943 28.0983 43.0446 27.3959 42.7536C26.6935 42.4627 26.0553 42.0363 25.5178 41.4987L16.0014 31.9823C15.4639 31.4448 15.0374 30.8066 14.7465 30.1042C14.4556 29.4018 14.3058 28.6491 14.3058 27.8888C14.3058 27.1286 14.4556 26.3758 14.7465 25.6734C15.0374 24.971 15.4639 24.3328 16.0014 23.7953L28.1095 11.6872L45.8129 29.3906L33.7048 41.4987Z" fill="black"/>
</svg>
