<svg width="46" height="47" viewBox="0 0 46 47" fill="none" xmlns="http://www.w3.org/2000/svg">
<path d="M22.9995 13.2579C20.9737 13.2579 18.9935 13.8586 17.3092 14.984C15.6249 16.1094 14.3121 17.709 13.5369 19.5805C12.7617 21.4521 12.5589 23.5114 12.9541 25.4982C13.3493 27.485 14.3247 29.31 15.7571 30.7424C17.1895 32.1748 19.0145 33.1503 21.0013 33.5454C22.9881 33.9406 25.0475 33.7378 26.919 32.9626C28.7905 32.1874 30.3901 30.8746 31.5155 29.1903C32.641 27.506 33.2416 25.5258 33.2416 23.5001C33.2381 20.7848 32.1579 18.1817 30.2379 16.2617C28.3179 14.3416 25.7148 13.2614 22.9995 13.2579ZM22.9995 31.0704C21.5022 31.0704 20.0385 30.6264 18.7936 29.7945C17.5487 28.9627 16.5784 27.7804 16.0054 26.3971C15.4324 25.0138 15.2825 23.4917 15.5746 22.0232C15.8667 20.5547 16.5877 19.2058 17.6464 18.147C18.7052 17.0883 20.0541 16.3673 21.5226 16.0752C22.9911 15.7831 24.5132 15.933 25.8965 16.506C27.2798 17.079 28.4621 18.0493 29.2939 19.2942C30.1258 20.5392 30.5698 22.0028 30.5698 23.5001C30.5698 25.5078 29.7722 27.4334 28.3525 28.8531C26.9328 30.2728 25.0072 31.0704 22.9995 31.0704ZM42.1479 24.1324C42.1613 23.7116 42.1613 23.2885 42.1479 22.8677L45.5612 18.6016C45.6917 18.4383 45.782 18.2467 45.8249 18.0421C45.8679 17.8375 45.8622 17.6258 45.8084 17.4238C45.2743 15.4111 44.4746 13.4786 43.4304 11.677C43.3267 11.4942 43.1813 11.3384 43.006 11.2223C42.8308 11.1063 42.6306 11.0332 42.4218 11.009L36.9778 10.4057C36.6913 10.0984 36.3945 9.80151 36.0872 9.51503L35.4816 4.06885C35.4574 3.86003 35.3844 3.65986 35.2683 3.4846C35.1522 3.30933 34.9964 3.16394 34.8136 3.06022C33.0143 2.01899 31.0848 1.22086 29.0757 0.686706C28.8733 0.633797 28.6612 0.629202 28.4566 0.673291C28.252 0.717381 28.0606 0.808921 27.8979 0.940534L23.6229 4.36276C23.2014 4.3494 22.7797 4.3494 22.3582 4.36276L18.101 0.938307C17.9377 0.807838 17.7461 0.71751 17.5415 0.674586C17.3369 0.631661 17.1251 0.637337 16.9232 0.691158C14.9105 1.2252 12.9779 2.02489 11.1764 3.06913C10.9936 3.17284 10.8378 3.31824 10.7217 3.4935C10.6056 3.66876 10.5326 3.86894 10.5084 4.07776L9.91395 9.52171C9.60669 9.80967 9.30981 10.1065 9.02333 10.4123L3.57493 11.0313C3.36611 11.0554 3.16593 11.1285 2.99067 11.2446C2.81541 11.3607 2.67001 11.5164 2.5663 11.6993C1.52506 13.4986 0.726936 15.428 0.19278 17.4371C0.141149 17.6371 0.136596 17.8464 0.179479 18.0484C0.222362 18.2505 0.311514 18.4398 0.439929 18.6016L3.86215 22.8766C3.8488 23.2981 3.8488 23.7199 3.86215 24.1413L0.437702 28.4096C0.307234 28.5729 0.216905 28.7646 0.173981 28.9692C0.131056 29.1737 0.136732 29.3855 0.190554 29.5875C0.725528 31.5963 1.52519 33.5251 2.56852 35.3231C2.67224 35.506 2.81764 35.6617 2.9929 35.7778C3.16816 35.8939 3.36834 35.9669 3.57716 35.9911L9.0211 36.5945C9.30907 36.9017 9.60594 37.1986 9.91173 37.4851L10.5307 42.9246C10.5548 43.1334 10.6279 43.3336 10.744 43.5089C10.86 43.6841 11.0158 43.8295 11.1987 43.9332C12.998 44.9745 14.9274 45.7726 16.9365 46.3067C17.1385 46.3606 17.3503 46.3662 17.5549 46.3233C17.7594 46.2804 17.9511 46.1901 18.1144 46.0596L22.3671 42.6485C22.7879 42.6619 23.211 42.6619 23.6318 42.6485L27.909 46.073C28.1462 46.2622 28.4406 46.365 28.744 46.3646C28.8597 46.3642 28.9749 46.3493 29.0869 46.3201C31.0957 45.7851 33.0245 44.9855 34.8225 43.9421C35.0053 43.8384 35.1611 43.693 35.2772 43.5178C35.3933 43.3425 35.4663 43.1423 35.4905 42.9335L36.0939 37.4896C36.4011 37.2031 36.698 36.9062 36.9845 36.5989L42.4307 35.9933C42.6395 35.9692 42.8397 35.8961 43.0149 35.78C43.1902 35.664 43.3356 35.5082 43.4393 35.3253C44.4809 33.5262 45.2791 31.5967 45.8128 29.5875C45.8666 29.3855 45.8723 29.1737 45.8294 28.9692C45.7865 28.7646 45.6961 28.5729 45.5657 28.4096L42.1479 24.1324ZM41.4577 33.4016L36.1941 33.9872C35.8652 34.0251 35.5621 34.1838 35.3435 34.4325C34.9035 34.9282 34.4343 35.3974 33.9386 35.8374C33.6899 36.056 33.5312 36.3591 33.4932 36.688L32.9077 41.9494C31.6753 42.6065 30.3805 43.1391 29.0424 43.5391L24.9076 40.2305C24.6705 40.0412 24.376 39.9384 24.0727 39.9388H23.9925C23.331 39.9766 22.6679 39.9766 22.0064 39.9388C21.676 39.9186 21.3499 40.0217 21.0913 40.2282L16.9588 43.5391C15.6219 43.1369 14.3285 42.6021 13.0979 41.9427L12.5124 36.6835C12.4744 36.3546 12.3157 36.0515 12.067 35.833C11.5713 35.3929 11.1021 34.9238 10.6621 34.428C10.4435 34.1793 10.1404 34.0206 9.81153 33.9827L4.55016 33.3971C3.89366 32.1683 3.36111 30.8773 2.9604 29.543L6.26907 25.4082C6.47558 25.1496 6.57873 24.8235 6.55852 24.4931C6.52067 23.8316 6.52067 23.1685 6.55852 22.507C6.57873 22.1767 6.47558 21.8506 6.26907 21.5919L2.9604 17.4594C3.36263 16.1225 3.89743 14.8291 4.55684 13.5985L9.81598 13.013C10.1449 12.975 10.448 12.8163 10.6665 12.5676C11.1066 12.0719 11.5757 11.6028 12.0715 11.1627C12.3202 10.9441 12.4789 10.641 12.5168 10.3121L13.1024 5.05077C14.3312 4.39426 15.6223 3.86172 16.9566 3.461L21.0913 6.76967C21.3499 6.97619 21.676 7.07934 22.0064 7.05913C22.6679 7.02128 23.331 7.02128 23.9925 7.05913C24.3229 7.07934 24.649 6.97619 24.9076 6.76967L29.0401 3.461C30.377 3.86323 31.6704 4.39804 32.901 5.05745L33.4866 10.321C33.5245 10.6499 33.6832 10.953 33.9319 11.1716C34.4276 11.6117 34.8968 12.0808 35.3368 12.5765C35.5554 12.8253 35.8585 12.9839 36.1874 13.0219L41.4488 13.6074C42.105 14.8348 42.6375 16.1244 43.0385 17.4572L39.7299 21.5919C39.5233 21.8506 39.4202 22.1767 39.4404 22.507C39.4782 23.1685 39.4782 23.8316 39.4404 24.4931C39.4202 24.8235 39.5233 25.1496 39.7299 25.4082L43.0385 29.5407C42.6377 30.8775 42.1044 32.1708 41.4465 33.4016H41.4577Z" fill="black"/>
</svg>
