<svg width="58" height="57" viewBox="0 0 58 57" fill="none" xmlns="http://www.w3.org/2000/svg">
<path d="M42.3984 45.125H53.0859M53.0859 45.125L47.1484 39.1875M53.0859 45.125L47.1484 51.0625M29.3359 4.75L23.3984 10.6875L29.3359 16.625" stroke="black" strokeWidth="2" strokeLinecap="round" strokeLinejoin="round"/>
<path d="M25.7734 10.6875C30.4976 10.6875 35.0283 12.5642 38.3688 15.9047C41.7093 19.2452 43.5859 23.7758 43.5859 28.5C43.5859 33.2242 41.7093 37.7548 38.3688 41.0953C35.0283 44.4358 30.4976 46.3125 25.7734 46.3125H5.58594" stroke="black" strokeWidth="2" strokeLinecap="round" strokeLinejoin="round"/>
<path d="M16.8814 13.0625C14.1688 14.6245 11.9158 16.874 10.3497 19.5843C8.7836 22.2945 7.95965 25.3698 7.96094 28.5C7.96094 32.509 9.28619 36.2093 11.5234 39.1875" stroke="black" strokeWidth="2" strokeLinecap="round" strokeLinejoin="round"/>
</svg>
