<svg width="58" height="57" viewBox="0 0 58 57" fill="none" xmlns="http://www.w3.org/2000/svg">
<path d="M26.4144 49.875C25.941 49.875 25.5325 49.7151 25.1889 49.3953C24.8453 49.0754 24.634 48.6796 24.5548 48.2078L23.8898 43.0065C23.1298 42.7769 22.3096 42.4175 21.4293 41.9282C20.5474 41.4374 19.7969 40.9118 19.1778 40.3512L14.423 42.3985C13.9607 42.6043 13.5055 42.6265 13.0574 42.465C12.6109 42.3019 12.2594 42.009 12.0029 41.5863L9.25505 36.803C9.02863 36.3803 8.95976 35.933 9.04842 35.4611C9.13709 34.9893 9.37301 34.6053 9.75617 34.3092L13.8887 31.198C13.819 30.7705 13.7612 30.3288 13.7153 29.8727C13.671 29.4167 13.6488 28.9742 13.6488 28.5451C13.6488 28.1461 13.671 27.7265 13.7153 27.2864C13.7596 26.8462 13.8174 26.3506 13.8887 25.7996L9.75617 22.6884C9.37301 22.3939 9.12917 22.0107 9.02467 21.5389C8.92176 21.067 8.99855 20.6197 9.25505 20.197L12.0029 15.5064C12.2594 15.0836 12.6038 14.7907 13.036 14.6276C13.4683 14.4645 13.9156 14.4867 14.3779 14.6941L19.1327 16.6939C19.842 16.1033 20.6099 15.5705 21.4364 15.0955C22.2598 14.6205 23.0617 14.2532 23.8423 13.9935L24.5548 8.79225C24.634 8.32042 24.8453 7.92458 25.1889 7.60475C25.5325 7.28492 25.941 7.125 26.4144 7.125H31.8935C32.3654 7.125 32.781 7.28492 33.1404 7.60475C33.4998 7.92458 33.7191 8.32042 33.7983 8.79225L34.4633 14.041C35.3753 14.3593 36.1804 14.7258 36.8787 15.1406C37.5785 15.5555 38.2981 16.0732 39.0375 16.6939L43.9752 14.6941C44.4375 14.4867 44.8848 14.4566 45.317 14.6039C45.7493 14.7511 46.0937 15.0361 46.3502 15.4589L49.098 20.197C49.3545 20.6197 49.4313 21.067 49.3284 21.5389C49.2239 22.0107 48.9801 22.3947 48.5969 22.6908L44.2816 25.935C44.4114 26.4258 44.4842 26.8755 44.5 27.284C44.5159 27.6957 44.5238 28.1002 44.5238 28.4976C44.5238 28.8665 44.508 29.2552 44.4763 29.6637C44.4462 30.0738 44.3765 30.5694 44.2673 31.1505L48.4924 34.3092C48.8756 34.6038 49.1186 34.9869 49.2215 35.4588C49.326 35.9306 49.25 36.3779 48.9935 36.8006L46.2457 41.5696C45.9892 41.9924 45.6345 42.2797 45.1817 42.4317C44.7304 42.5837 44.2736 42.5568 43.8113 42.351L39.0375 40.3037C38.2981 40.9244 37.554 41.4572 36.805 41.9021C36.0545 42.347 35.2748 42.6985 34.4657 42.9566L33.8007 48.2054C33.7215 48.6772 33.5014 49.073 33.1404 49.3929C32.781 49.7127 32.3654 49.8726 31.8935 49.8726L26.4144 49.875ZM26.8015 47.5H31.4471L32.3234 41.0685C33.5204 40.7518 34.5971 40.3172 35.5534 39.7646C36.5113 39.212 37.4867 38.4552 38.4794 37.4941L44.405 40.0187L46.7658 35.9812L41.5669 32.0767C41.7648 31.4007 41.8963 30.7784 41.9612 30.21C42.0245 29.6432 42.0562 29.0732 42.0562 28.5C42.0562 27.8983 42.0245 27.3283 41.9612 26.79C41.8978 26.2517 41.7664 25.6603 41.5669 25.0159L46.856 21.0188L44.4953 16.9812L38.4343 19.5225C37.7155 18.7324 36.771 17.993 35.6009 17.3042C34.4308 16.6155 33.3225 16.1579 32.2759 15.9315L31.5515 9.5H26.8158L26.0748 15.884C24.8778 16.1405 23.7774 16.5522 22.7735 17.119C21.7713 17.689 20.7738 18.4696 19.781 19.4608L13.8578 16.9812L11.497 21.0188L16.6484 24.8663C16.4505 25.3983 16.312 25.9762 16.2328 26.6C16.1536 27.2238 16.114 27.873 16.114 28.5475C16.114 29.1492 16.1536 29.7469 16.2328 30.3406C16.312 30.9344 16.4355 31.5123 16.6033 32.0744L11.497 35.9812L13.8578 40.0187L19.7359 37.525C20.6669 38.4655 21.6343 39.22 22.6382 39.7884C23.642 40.3568 24.7725 40.7993 26.0297 41.116L26.8015 47.5ZM29.1124 34.4375C30.7686 34.4375 32.1722 33.862 33.3233 32.7109C34.4744 31.5598 35.0499 30.1562 35.0499 28.5C35.0499 26.8438 34.4744 25.4402 33.3233 24.2891C32.1722 23.138 30.7686 22.5625 29.1124 22.5625C27.4468 22.5625 26.0408 23.138 24.8944 24.2891C23.7481 25.4402 23.1749 26.8438 23.1749 28.5C23.1749 30.1562 23.7481 31.5598 24.8944 32.7109C26.0408 33.862 27.4468 34.4375 29.1124 34.4375Z" fill="black"/>
</svg>
