<svg width="57" height="57" viewBox="0 0 57 57" fill="none" xmlns="http://www.w3.org/2000/svg">
<path d="M28.498 8.01569V20.5929" stroke="black" strokeWidth="2" strokeLinecap="round" strokeLinejoin="round"/>
<path d="M8.06055 20.593H48.9366V45.7475C48.9366 46.5813 48.6052 47.3813 48.0157 47.9708C47.4261 48.5604 46.6262 48.8918 45.7923 48.8918H11.2049C10.3709 48.8918 9.57117 48.5604 8.98149 47.9708C8.39182 47.3813 8.06055 46.5813 8.06055 45.7475V20.593Z" stroke="black" strokeWidth="2" strokeLinecap="round" strokeLinejoin="round"/>
<path d="M8.06055 20.5929L12.777 11.5059C13.2855 10.4817 14.0636 9.61551 15.0276 9.00053C15.9916 8.38556 17.105 8.04507 18.2481 8.01569H38.7491C39.9191 8.01631 41.0655 8.34329 42.06 8.95986C43.0542 9.57643 43.8567 10.4582 44.3774 11.5059L48.9366 20.5929" stroke="black" strokeWidth="2" strokeLinecap="round" strokeLinejoin="round"/>
<path d="M28.498 42.1196V27.6182" stroke="black" strokeWidth="2" strokeLinecap="round" strokeLinejoin="round"/>
<path d="M34.0005 33.029L28.4973 27.5258L22.9941 33.029" stroke="black" strokeWidth="2" strokeLinecap="round" strokeLinejoin="round"/>
</svg>
