<svg width="58" height="57" viewBox="0 0 58 57" fill="none" xmlns="http://www.w3.org/2000/svg">
<path d="M47.087 49.7316V40.2114C47.087 35.4363 43.216 31.5654 38.4411 31.5654H30.9317V17.5348C30.9317 15.3039 29.1231 13.4954 26.8922 13.4954C24.6613 13.4954 22.8528 15.3039 22.8528 17.5348L22.8527 35.9269L21.5057 36.1804C17.4099 36.9512 15.4608 41.6802 17.8239 45.113L18.3672 45.9023L20.9998 49.7316" stroke="black" strokeWidth="2.06329" strokeLinecap="round" strokeLinejoin="round"/>
<path d="M15.1512 20.9425C14.945 20.0559 14.8359 19.1319 14.8359 18.1825C14.8359 11.4813 20.2684 6.04883 26.9696 6.04883C33.6709 6.04883 39.1033 11.4813 39.1033 18.1825C39.1033 19.1319 38.9943 20.0559 38.7881 20.9425" stroke="black" strokeWidth="2.06329" strokeLinecap="round" strokeLinejoin="round"/>
</svg>
