<svg width="58" height="57" viewBox="0 0 58 57" fill="none" xmlns="http://www.w3.org/2000/svg">
<path d="M50.6403 26.1374C51.2057 26.8422 51.5187 27.758 51.5187 28.7075C51.5187 29.657 51.2057 30.5727 50.6403 31.2775C47.0602 35.6121 38.911 44.0511 29.398 44.0511C19.8851 44.0511 11.736 35.6121 8.15581 31.2775C7.59035 30.5727 7.27734 29.657 7.27734 28.7075C7.27734 27.758 7.59035 26.8422 8.15581 26.1374C11.736 21.8028 19.8851 13.3638 29.398 13.3638C38.911 13.3638 47.0602 21.8028 50.6403 26.1374Z" stroke="black" strokeWidth="2" strokeLinecap="round" strokeLinejoin="round"/>
<path d="M29.3994 35.5264C33.1656 35.5264 36.2187 32.4732 36.2187 28.707C36.2187 24.9408 33.1656 21.8877 29.3994 21.8877C25.6332 21.8877 22.5801 24.9408 22.5801 28.707C22.5801 32.4732 25.6332 35.5264 29.3994 35.5264Z" stroke="black" strokeWidth="2" strokeLinecap="round" strokeLinejoin="round"/>
</svg>
