<svg width="58" height="57" viewBox="0 0 58 57" fill="none" xmlns="http://www.w3.org/2000/svg">
<g clipPath="url(#clip0_2201_5566)">
<g clipPath="url(#clip1_2201_5566)">
<path d="M15.065 41.6342C15.4563 40.4606 16.5548 39.6689 17.7921 39.6689H39.5192C40.7563 39.6689 41.8548 40.4606 42.2462 41.6342L44.4655 48.2924H12.8457L15.065 41.6342Z" stroke="black" strokeWidth="2" strokeLinecap="round" strokeLinejoin="round"/>
<path d="M18.4823 39.6689C18.9536 37.2076 22.3576 34.3797 24.7666 32.4944C30.5379 27.9779 30.0032 24.1154 29.0605 23.068L23.2925 26.364C21.9217 27.1473 20.2031 26.963 19.0296 25.9068C17.7362 24.7426 17.4417 22.8285 18.3253 21.3293L22.6716 13.956L20.9958 10.1855C23.7538 9.20796 31.3859 9.72487 34.4023 12.071C38.1729 15.0036 42.9907 19.455 39.0106 39.6689" stroke="black" strokeWidth="2" strokeLinecap="round" strokeLinejoin="round"/>
<path d="M30.95 20.0181C30.6159 21.4659 29.8007 22.4696 29.0762 23.0723" stroke="black" strokeWidth="2" strokeLinecap="round" strokeLinejoin="round"/>
</g>
</g>
<defs>
<clipPath id="clip0_2201_5566">
<rect width="41.5391" height="41.5391" fill="white" transform="translate(7.88867 8.1582)"/>
</clipPath>
<clipPath id="clip1_2201_5566">
<rect width="41.543" height="41.543" fill="white" transform="translate(7.88477 8.2334)"/>
</clipPath>
</defs>
</svg>
