<svg width="58" height="57" viewBox="0 0 58 57" fill="none" xmlns="http://www.w3.org/2000/svg">
<path d="M21.502 34.3306L43.2391 41.5763C43.6648 41.7167 44.1176 41.754 44.5606 41.685C45.0033 41.6162 45.4236 41.443 45.7864 41.18C46.1521 40.9196 46.4507 40.576 46.6576 40.1772C46.8642 39.7787 46.9732 39.3366 46.9752 38.8874V15.5937C46.9732 15.1446 46.8642 14.7025 46.6576 14.3039C46.4507 13.9053 46.1521 13.5615 45.7864 13.3011C45.421 13.0428 44.9999 12.8748 44.5569 12.8108C44.1142 12.7469 43.6625 12.7888 43.2391 12.9331L21.502 20.1788V34.3306Z" stroke="black" strokeWidth="2" strokeLinecap="round" strokeLinejoin="round"/>
<path d="M10.1797 27.2547C10.1797 28.1839 10.3627 29.1041 10.7183 29.9626C11.0739 30.821 11.5951 31.6011 12.2522 32.2581C13.5791 33.5851 15.3789 34.3306 17.2556 34.3306H21.5011V20.1788H17.2556C16.3264 20.1788 15.4063 20.3618 14.5477 20.7174C13.6893 21.0731 12.9092 21.5943 12.2522 22.2513C10.9252 23.5783 10.1797 25.3781 10.1797 27.2547Z" stroke="black" strokeWidth="2" strokeLinecap="round" strokeLinejoin="round"/>
<path d="M17.2559 34.3308V37.1613C17.2559 38.0905 17.4389 39.0106 17.7945 39.8691C18.1501 40.7275 18.6713 41.5076 19.3283 42.1645C19.9854 42.8217 20.7654 43.3428 21.6239 43.6986C22.4824 44.0541 23.4025 44.2372 24.3318 44.2372" stroke="black" strokeWidth="2" strokeLinecap="round" strokeLinejoin="round"/>
</svg>
