<svg width="58" height="57" viewBox="0 0 58 57" fill="none" xmlns="http://www.w3.org/2000/svg">
<path d="M25.9672 21.3034C20.8308 17.7989 16.0421 20.4741 12.0293 24.5939L20.911 29.9444" stroke="black" strokeWidth="2" strokeLinecap="round" strokeLinejoin="round"/>
<path d="M36.6136 31.9512C40.1181 37.0875 37.4429 41.8761 33.3231 45.889L27.9727 37.0072" stroke="black" strokeWidth="2" strokeLinecap="round" strokeLinejoin="round"/>
<path d="M20.9121 29.9182L28.0015 37.0075C33.6729 33.6099 40.1202 30.3194 43.0629 27.2697C49.43 20.9026 45.7382 12.1814 45.7382 12.1814C45.7382 12.1814 37.017 8.4896 30.6499 14.8566C27.6002 17.7994 24.2829 24.2734 20.9121 29.9182Z" stroke="black" strokeWidth="2" strokeLinecap="round" strokeLinejoin="round"/>
<path d="M24.8164 23.2031L34.7147 33.1015" stroke="black" strokeWidth="2" strokeLinecap="round" strokeLinejoin="round"/>
<path d="M38.781 20.4744C39.5196 20.4744 40.1186 19.8755 40.1186 19.1368C40.1186 18.3981 39.5196 17.7992 38.781 17.7992C38.0423 17.7992 37.4434 18.3981 37.4434 19.1368C37.4434 19.8755 38.0423 20.4744 38.781 20.4744Z" stroke="black" strokeWidth="2" strokeLinecap="round" strokeLinejoin="round"/>
<path d="M20.5365 43.0529C18.9849 44.551 12.0293 45.8887 12.0293 45.8887C12.0293 45.8887 13.3669 38.9331 14.865 37.3814C15.2324 36.9874 15.6754 36.6712 16.1677 36.4518C16.6599 36.2324 17.1913 36.1145 17.7301 36.105C18.2689 36.0955 18.8041 36.1946 19.3038 36.3964C19.8034 36.5981 20.2573 36.8986 20.6384 37.2798C21.0194 37.6607 21.3198 38.1147 21.5217 38.6145C21.7235 39.1139 21.8226 39.6492 21.8131 40.188C21.8036 40.7268 21.6856 41.2581 21.4663 41.7504C21.247 42.2426 20.9308 42.6856 20.5365 43.0529Z" stroke="black" strokeWidth="2" strokeLinecap="round" strokeLinejoin="round"/>
</svg>
