<svg width="57" height="57" viewBox="0 0 57 57" fill="none" xmlns="http://www.w3.org/2000/svg">
<path d="M36.464 32.9046L27.3526 43.1549L22.7969 39.7382" stroke="black" strokeWidth="2" strokeLinecap="round" strokeLinejoin="round"/>
<path d="M39.2189 39.8479C41.1177 39.8366 42.9465 39.1292 44.359 37.8599C45.7712 36.5908 46.6693 34.8477 46.883 32.9608C47.0964 31.074 46.6107 29.1743 45.5177 27.6215C44.4246 26.0688 42.8001 24.9707 40.9517 24.5352C40.8241 24.4971 40.7101 24.4233 40.6229 24.3225C40.5359 24.2217 40.4793 24.098 40.4603 23.9662C40.2318 21.4621 39.1518 19.112 37.4003 17.3079C35.6489 15.5037 33.3319 14.3546 30.8357 14.052C28.3395 13.7494 25.815 14.3117 23.6832 15.6452C21.5514 16.9787 19.9412 19.0026 19.121 21.3796C19.0668 21.4904 18.9819 21.5834 18.8765 21.6476C18.7711 21.7117 18.6495 21.7444 18.5261 21.7417C17.3373 21.8215 16.1758 22.1348 15.108 22.6635C14.0401 23.1922 13.0869 23.926 12.3027 24.8231C10.7189 26.6349 9.91974 29.0016 10.0809 31.4026C10.2422 33.8036 11.3506 36.0423 13.1623 37.626C14.4808 38.7785 16.0932 39.5157 17.7988 39.7695" stroke="black" strokeWidth="2" strokeLinecap="round" strokeLinejoin="round"/>
</svg>
