<svg width="57" height="20" viewBox="0 0 57 20" fill="none" xmlns="http://www.w3.org/2000/svg">
<path fill-rule="evenodd" clip-rule="evenodd" d="M0.731812 7.58106V0.510742H4.82516V10.9302H3.70879L3.33667 10.558H2.59242L1.10393 9.06955V7.95319L0.731812 7.58106ZM17.1052 19.1169V0.510742H21.1985V19.1169H17.1052ZM49.1077 4.97621H49.4798L49.852 5.34833H50.5962L50.9683 5.72045H51.3404L53.2011 7.58106V7.95319L53.5732 8.32531V9.06955L53.9453 9.44168V14.2793L53.5732 14.6514V15.3956L53.2011 15.7678V16.1399L52.8289 16.512V16.8841L51.3404 18.3726H50.9683L50.5962 18.7447H50.2241L49.852 19.1169H46.1307L45.7586 18.7447H45.3865L45.0144 18.3726L45.3865 16.1399H47.6192L48.3635 15.3956H48.7356L49.1077 15.0235V14.6514L49.4798 14.2793V13.9071L49.852 13.535V10.9302L49.4798 10.1859V9.8138L49.1077 9.44168V4.97621ZM9.66275 5.72045L10.0349 5.34833H14.8725V5.72045L14.1282 6.4647V6.83682L11.1512 9.8138V10.1859L9.66275 11.6744H8.9185L8.54638 11.3023H5.19728V10.9302L7.05789 9.06955V8.69743L9.66275 6.09258V5.72045ZM23.4313 5.34833H27.5246V14.6514L27.8967 15.0235V15.3956L28.2689 15.7678H28.641L29.0131 16.1399H30.5016L30.8737 15.7678H31.2458L31.9901 15.0235V14.6514L32.3622 14.2793V13.9071L32.7343 13.535V5.34833H33.4786V18.7447L32.7343 17.2562L31.2458 18.7447H30.5016L30.1295 19.1169H28.2689L27.5246 17.6284L27.1525 19.1169H26.4082L26.0361 18.7447H25.664L24.1755 17.2562V16.8841L23.8034 16.512V16.1399L23.4313 15.3956V5.34833ZM45.0144 7.95319V6.4647L46.875 7.95319H45.0144ZM7.80213 12.4187L8.17426 12.0465H9.66275L10.0349 12.4187V12.7908L8.54638 16.512H8.17426L7.80213 16.1399V15.7678L5.5694 13.535V13.1629L4.82516 12.7908V12.4187H7.80213ZM2.96455 13.1629L3.33667 12.7908H4.82516V19.1169H0.731812V16.1399L1.10393 15.3956V14.6514L1.47606 14.2793V13.9071L1.84818 13.535H2.2203L2.59242 13.1629H2.96455ZM12.2676 15.3956H12.6397V15.7678H12.2676V15.3956ZM13.384 19.1169L13.7561 16.8841L15.2446 18.3726V19.1169H13.384Z" fill="white"/>
<path fill-rule="evenodd" clip-rule="evenodd" d="M45.7585 5.3482L46.1306 4.97607H48.3633L49.1076 6.46456V8.6973H48.7355L48.3633 8.32517H47.9912L47.6191 7.95305H46.8749L45.0142 6.46456V5.3482H45.7585ZM49.4797 4.97607H49.8518V5.3482H49.4797V4.97607ZM34.5948 19.1167L33.8506 10.93L35.7112 5.3482H36.8276V19.1167H34.5948ZM50.5961 5.3482H50.9682V5.72032H50.5961V5.3482ZM39.0603 10.93L40.1767 7.95305L41.6651 10.5579L43.5258 10.93V11.6743L43.1536 12.4185L43.5258 12.7906V13.907L43.8979 14.2791V14.6513L45.0142 15.7676H45.3864V16.1397L45.0142 18.3725H44.6421L43.5258 17.2561L43.1536 19.1167H39.4324L39.0603 13.1628V10.93ZM45.0142 7.95305H45.3864V8.32517H45.0142V7.95305ZM8.54626 16.5119L10.0348 12.7906H10.4069V13.1628L12.2675 15.0234V15.3955L13.0117 16.1397H13.3839L13.756 16.5119V16.884L13.3839 19.1167H10.4069V18.7446L8.54626 16.884V16.5119ZM27.5245 14.6513H27.8966V15.0234H27.5245V14.6513ZM27.8966 15.3955H28.2687V15.7676H27.8966V15.3955ZM28.6409 15.7676H29.013V16.1397H28.6409V15.7676ZM32.7342 17.6282V17.2561L33.4785 18.7446V19.1167L32.7342 17.6282ZM27.1524 19.1167L27.5245 17.6282L28.2687 19.1167H27.1524ZM15.2445 18.7446H15.6166V19.1167H15.2445V18.7446Z" fill="white"/>
<path d="M39.0604 0.510742V4.97621V10.9302L40.1768 7.95319L41.6653 10.558L43.5259 10.9302V10.558V10.1859L43.898 9.8138V9.44168L44.2701 9.06955L44.6422 8.69743L45.0144 8.32531V7.95319V6.4647V5.72045H44.6422L44.2701 6.09258L43.898 6.4647H43.5259V4.23196V3.85984V3.48772V0.510742H39.0604Z" fill="white"/>
<path d="M48.3635 4.97621L49.1077 6.4647V4.97621H48.7356H48.3635Z" fill="white"/>
<path d="M33.4786 5.34833V18.7447V19.1169H34.5949L33.8507 10.9302L35.7113 5.34833H33.4786Z" fill="white"/>
<path d="M8.17426 12.0465H7.80213V12.4187H8.17426V12.0465Z" fill="white"/>
<path d="M43.5259 12.4187H43.1537V12.7908H43.5259V12.4187Z" fill="white"/>
<path d="M4.82516 12.7908V13.1629H5.19728H5.5694L4.82516 12.7908Z" fill="white"/>
<path d="M10.407 13.1629H10.7791V13.535H11.1512V13.9071H11.5234V14.2793H11.1512V13.9071H10.7791V13.535H10.407V13.1629Z" fill="white"/>
<path d="M39.0604 13.1629V13.535V18.0005V19.1169H39.4325L39.0604 13.1629Z" fill="white"/>
<path d="M1.47606 14.2793H1.10393V14.6514H1.47606V14.2793Z" fill="white"/>
<path d="M0.731812 15.3956V16.1399L1.10393 15.3956H0.731812Z" fill="white"/>
<path d="M45.0144 15.3956H44.6422V15.7678H45.0144V15.3956Z" fill="white"/>
<path d="M13.0118 15.7678H12.6397V16.1399H13.0118V15.7678Z" fill="white"/>
<path d="M46.875 4.60376V4.97588H47.6193V4.60376H46.875Z" fill="white"/>
<path d="M48.7356 4.60376H48.3635V4.97588H48.7356V4.60376Z" fill="white"/>
<path d="M45.7586 4.97588H45.3865V5.348H45.7586V4.97588Z" fill="white"/>
<path d="M23.0592 5.348V13.9068H23.4313V5.348H23.0592Z" fill="white"/>
<path d="M36.8277 5.348V19.1165L37.1998 18.3723V13.5347V5.348H36.8277Z" fill="white"/>
<path d="M46.1308 7.95286H45.7586V8.32498H46.1308V7.95286Z" fill="white"/>
<path d="M49.1077 8.6971H48.7356V9.06923H49.1077V8.6971Z" fill="white"/>
<path d="M53.9453 9.06923H53.5732V9.44135H53.9453V9.06923Z" fill="white"/>
<path d="M49.4799 10.1856V10.9298H49.852L49.4799 10.1856Z" fill="white"/>
<path d="M4.82519 10.9298H4.45307V11.302H4.82519V10.9298Z" fill="white"/>
<path d="M54.3175 11.302H53.9453V11.6741H54.3175V11.302Z" fill="white"/>
<path d="M6.31368 12.0462V12.4183H7.05793V12.0462H6.31368Z" fill="white"/>
<path d="M54.3175 12.4183H53.9453V12.7905H54.3175V12.4183Z" fill="white"/>
<path d="M3.3367 12.7905H2.96458V13.1626H3.3367V12.7905Z" fill="white"/>
<path d="M2.59246 13.1626H2.22034V13.5347H2.59246V13.1626Z" fill="white"/>
<path d="M49.852 13.1626H49.4799V13.5347H49.852V13.1626Z" fill="white"/>
<path d="M27.5247 13.9068V14.6511H27.8968V13.9068H27.5247Z" fill="white"/>
<path d="M44.6423 15.0232H44.2702V15.3953H44.6423V15.0232Z" fill="white"/>
<path d="M28.641 15.3953H28.2689V15.7674H28.641V15.3953Z" fill="white"/>
<path d="M30.1295 15.7674H29.7574V16.1396H30.1295V15.7674Z" fill="white"/>
<path d="M46.875 15.7674V16.1396H47.6193V15.7674H46.875Z" fill="white"/>
<path d="M4.82516 0.510742V10.9302H5.19728V10.558V7.58106L4.82516 0.510742Z" fill="white"/>
<path d="M23.4313 4.97621V5.34833H27.5246V4.97621H23.4313Z" fill="white"/>
<path d="M32.7343 4.97621V5.34833H33.4786V4.97621H32.7343Z" fill="white"/>
<path d="M9.29062 6.09258H9.66274V6.4647H9.29062V6.83682H8.9185V6.4647H9.29062V6.09258Z" fill="white"/>
<path d="M1.10393 7.95319H0.731812V8.32531H1.10393V7.95319Z" fill="white"/>
<path d="M7.80213 11.3023V11.6744H8.54638V11.3023H7.80213Z" fill="white"/>
<path d="M7.05789 12.0465V12.4187H7.80213V12.0465H7.05789Z" fill="white"/>
<path d="M4.82516 13.1629V17.2562H5.19728V13.1629H4.82516Z" fill="white"/>
<path d="M49.1077 15.0235H48.7356V15.3956H49.1077V15.0235Z" fill="white"/>
<path d="M23.4313 15.3956V16.1399H23.8034L23.4313 15.3956Z" fill="white"/>
<path d="M45.7586 15.7678H45.3865V16.1399H45.7586V15.7678Z" fill="white"/>
<path d="M47.9913 15.7678H47.6192V16.1399H47.9913V15.7678Z" fill="white"/>
<path d="M17.1052 0.510742L16.7331 5.34823L17.1052 19.1165V0.510742Z" fill="white"/>
<path d="M11.1514 4.97612V5.34823H14.8725H15.2446V4.97612H11.1514Z" fill="white"/>
<path d="M29.385 15.7674H29.0129V16.1395H29.385V15.7674Z" fill="white"/>
<path d="M46.1301 15.7674H45.758V16.1395H46.1301V15.7674Z" fill="white"/>
<path d="M27.5244 19.1165V19.4886H28.2686V19.1165H27.5244Z" fill="white"/>
<path d="M29.0129 19.1165H28.6407V19.4886H29.0129V19.1165Z" fill="white"/>
<path d="M47.2465 19.1165V19.4886H48.3628V19.1165H47.2465Z" fill="white"/>
<path d="M10.4069 4.97607V5.34819H11.1511V4.97607H10.4069Z" fill="white"/>
<path d="M15.2444 5.34819H14.8723V5.7203H15.2444V5.34819Z" fill="white"/>
<path d="M1.10405 8.3251H0.731934V8.69722H1.10405V8.3251Z" fill="white"/>
<path d="M5.19731 10.9299H4.82519V11.302H5.19731V10.9299Z" fill="white"/>
<path d="M7.05788 11.302V11.6741H7.80211V11.302H7.05788Z" fill="white"/>
<path d="M4.82519 12.4184H4.45308V12.7905H4.82519V12.4184Z" fill="white"/>
<path d="M1.10405 15.0232H0.731934V15.3953H1.10405V15.0232Z" fill="white"/>
<path d="M32.7343 13.5349H32.3622V13.907H32.7343V13.5349Z" fill="white"/>
<path d="M30.8738 18.7445H30.5016V19.1166H30.8738V18.7445Z" fill="white"/>
<path d="M29.0132 19.1166V19.4887H29.7574V19.1166H29.0132Z" fill="white"/>
<path d="M48.7353 19.1166H48.3631V19.4887H48.7353V19.1166Z" fill="white"/>
<path d="M14.5005 6.46484H14.1283V6.83697H14.5005V6.46484Z" fill="white"/>
<path d="M7.80225 7.95333H7.43013V8.32546H7.80225V7.95333Z" fill="white"/>
<path d="M1.10406 8.69758H0.731934V9.0697H1.10406V8.69758Z" fill="white"/>
<path d="M44.2702 9.44182H43.8981V9.81394H44.2702V9.44182Z" fill="white"/>
<path d="M11.5235 9.81394H11.1514V10.1861H11.5235V9.81394Z" fill="white"/>
<path d="M54.3175 10.5582H53.9454V10.9303H54.3175V10.5582Z" fill="white"/>
<path d="M4.45316 10.9303H4.08103V11.3024H4.45316V10.9303Z" fill="white"/>
<path d="M43.526 13.163V13.9073H43.8981V13.5352L43.526 13.163Z" fill="white"/>
<path d="M54.3175 13.163H53.9454V13.5352H54.3175V13.163Z" fill="white"/>
<path d="M27.8969 13.5352H27.5247V13.9073H27.8969V13.5352Z" fill="white"/>
<path d="M46.8751 15.7679H46.503V16.14H46.8751V15.7679Z" fill="white"/>
<path d="M53.5733 15.7679H53.2012V16.14H53.5733V15.7679Z" fill="white"/>
<path d="M49.4799 19.117H49.1078V19.4891H49.4799V19.117Z" fill="white"/>
<path d="M33.4788 4.97632V5.34843H35.7114H36.8278V4.97632H33.4788Z" fill="white"/>
<path d="M46.1307 4.97632H45.7585V5.34843H46.1307V4.97632Z" fill="white"/>
<path d="M43.5259 11.6744L43.1537 12.4186H43.5259V11.6744Z" fill="white"/>
<path d="M43.898 13.9071H43.5259V14.2792H43.898V13.9071Z" fill="white"/>
<path d="M44.2701 14.6513H43.898V15.0234H44.2701V14.6513Z" fill="white"/>
<path d="M43.5259 17.2561L43.1537 19.1167L43.5259 17.6282V17.2561Z" fill="white"/>
<path d="M46.8749 4.60376H46.5028V4.97588H46.8749V4.60376Z" fill="white"/>
<path d="M49.1076 4.60376H48.7355V4.97588H49.1076V4.60376Z" fill="white"/>
<path d="M8.54632 16.5117H8.17419V16.8838H8.54632V16.5117Z" fill="white"/>
<path d="M47.619 4.604V4.97612H48.3632V4.604H47.619Z" fill="white"/>
<path d="M50.2238 4.97612H49.8517V5.34823H50.2238V4.97612Z" fill="white"/>
<path d="M47.619 7.95303H47.2469V8.32515H47.619V7.95303Z" fill="white"/>
<path d="M53.945 11.6742V12.4184H54.3171V11.6742H53.945Z" fill="white"/>
<path d="M49.8517 13.5348H49.4796V13.9069H49.8517V13.5348Z" fill="white"/>
<path d="M30.5018 15.7674H30.1296V16.1396H30.5018V15.7674Z" fill="white"/>
<path fill-rule="evenodd" clip-rule="evenodd" d="M23.0592 4.97607H23.4313V5.3482H23.0592V4.97607ZM46.1308 7.95305H46.5029V8.32517H46.1308V7.95305ZM46.875 7.95305H47.2472V8.32517H46.875V7.95305ZM43.5259 10.1858H43.8981V10.5579H43.5259V10.1858ZM2.9646 10.5579H3.33672V10.93H2.9646V10.5579ZM5.19733 10.5579H5.56946V10.93H5.19733V10.5579ZM53.9454 10.93H54.3175V11.3022H53.9454V10.93ZM7.05794 11.6743L6.3137 11.3022H7.05794V11.6743ZM32.3623 13.5349V12.7906H32.7344V13.5349H32.3623ZM49.4799 12.7906H49.852V13.1628H49.4799V12.7906ZM53.9454 12.7906H54.3175V13.1628H53.9454V12.7906ZM23.0592 13.907H23.4313V14.2791H23.0592V13.907ZM53.5732 14.6513H53.9454V15.0234H53.5732V14.6513ZM46.1308 15.7676H46.5029V16.1397H46.1308V15.7676ZM23.8034 16.884H24.1756V17.2561H23.8034V16.884ZM45.3865 18.7446H45.7587V19.1167H45.3865V18.7446ZM27.1525 19.1167H27.5247V19.4888H27.1525V19.1167ZM47.2472 19.4888L46.5029 19.1167H47.2472V19.4888ZM48.7356 19.1167H49.1078V19.4888H48.7356V19.1167Z" fill="white"/>
<path d="M45.7588 7.95312H45.3866V8.32525H45.7588V7.95312Z" fill="white"/>
<path d="M30.8739 15.7677H30.5018V16.1398H30.8739V15.7677Z" fill="white"/>
<path d="M4.82532 17.2562V19.1168L5.19744 18.7447V17.2562H4.82532Z" fill="white"/>
<path d="M28.6411 19.1168H28.269V19.4889H28.6411V19.1168Z" fill="white"/>
<path fill-rule="evenodd" clip-rule="evenodd" d="M1.4762 13.5349H1.84831V13.907H1.4762V13.5349ZM11.1512 13.5349H11.5233V13.907H11.1512V13.5349ZM23.431 15.0234L23.0588 14.2791H23.431V15.0234ZM23.431 16.1397H23.8031V16.5118H23.431V16.1397ZM29.7569 19.1166H30.129V19.4887H29.7569V19.1166Z" fill="white"/>
<path d="M29.7575 15.7673H29.3854V16.1394H29.7575V15.7673Z" fill="white"/>
<path d="M43.8978 3.48779H43.5257V3.85991H43.8978V3.48779Z" fill="white"/>
<path d="M46.5026 4.60414H46.1305V4.97625H46.5026V4.60414Z" fill="white"/>
<path d="M54.317 9.81374H53.9449V10.1859H54.317V9.81374Z" fill="white"/>
<path d="M44.642 14.6512H44.2699V15.0233H44.642V14.6512Z" fill="white"/>
<path d="M29.0132 15.3955H28.6411V15.7676H29.0132V15.3955Z" fill="white"/>
<path fill-rule="evenodd" clip-rule="evenodd" d="M32.3622 4.97607H32.7343V5.3482H32.3622V4.97607ZM9.29059 5.72032H9.66271V6.09244H9.29059V5.72032ZM8.91847 6.09244H9.29059V6.46456H8.91847V6.09244ZM2.59239 12.7906H2.96451V13.1628H2.59239V12.7906ZM1.84814 13.1628H2.22027V13.5349H1.84814V13.1628ZM48.3634 15.0234H48.7355V15.3955H48.3634V15.0234ZM45.0143 15.3955H45.3864V15.7676H45.0143V15.3955ZM39.8046 19.1167H39.0604H39.4325H39.8046Z" fill="white"/>
<path d="M14.5005 6.09229H14.1283V6.4644H14.5005V6.09229Z" fill="white"/>
<path d="M52.4561 6.4644H52.084V6.83651H52.4561V6.4644Z" fill="white"/>
<path d="M31.6177 15.3951H31.2456V15.7673H31.6177V15.3951Z" fill="white"/>
<path d="M14.1283 16.8836H13.7562V17.2557H14.1283V16.8836Z" fill="white"/>
<path d="M25.2918 17.9999H24.9197V18.3721H25.2918V17.9999Z" fill="white"/>
<path d="M45.386 18.3721H45.0138V18.7442H45.386V18.3721Z" fill="white"/>
<path d="M30.5014 18.7442H30.1293V19.1163H30.5014V18.7442Z" fill="white"/>
<path d="M56.5503 0.882568H56.1782V1.25469H56.5503V0.882568Z" fill="white"/>
<path d="M1.10406 7.58077H0.731934V7.95289H1.10406V7.58077Z" fill="white"/>
<path d="M48.7357 8.32501H48.3636V8.69713H48.7357V8.32501Z" fill="white"/>
<path d="M11.5235 9.06926H11.8956V9.44138H11.5235V9.8135H11.1514V9.44138H11.5235V9.06926Z" fill="white"/>
<path d="M1.47618 9.44138H1.8483V9.8135H2.22042V10.1856H1.8483V9.8135H1.47618V9.44138Z" fill="white"/>
<path d="M8.91862 11.302H8.5465V11.6741H8.91862V11.302Z" fill="white"/>
<path d="M11.8956 14.279H11.5235V14.6511H11.8956V14.279Z" fill="white"/>
<path d="M7.80226 15.3953H7.43013V15.7675H7.80226V15.3953Z" fill="white"/>
<path d="M9.66287 18.0002H10.035V18.3723H10.4071V18.7444H10.035V18.3723H9.66287V18.0002Z" fill="white"/>
<path d="M44.6423 5.71997H44.2701V6.09209H44.6423V5.71997Z" fill="white"/>
<path d="M51.3405 5.71997H51.7126V6.09209H52.0847V6.46422H51.7126V6.09209H51.3405V5.71997Z" fill="white"/>
<path d="M43.898 6.46422H43.5259V6.83634H43.898V6.46422Z" fill="white"/>
<path d="M2.59246 10.1854H2.22034V10.5576H2.59246V10.1854Z" fill="white"/>
<path d="M10.407 10.9297H10.0349V11.3018H10.407V10.9297Z" fill="white"/>
<path d="M4.45307 12.4182H4.08095V12.7903H4.45307V12.4182Z" fill="white"/>
<path d="M10.7791 12.7903H10.407V13.1624H10.7791V12.7903Z" fill="white"/>
<path d="M5.94156 13.9067H6.31368V14.2788H6.6858V14.6509H6.31368V14.2788H5.94156V13.9067Z" fill="white"/>
<path d="M8.54641 16.8836H8.91854V17.2558H9.29066V17.6279H8.91854V17.2558H8.54641V16.8836Z" fill="white"/>
<path d="M32.7344 17.2558H32.3622V17.6279H32.7344V17.2558Z" fill="white"/>
<path d="M43.5259 17.2558H43.898V17.6279H44.2701V18H44.6423V18.3721H44.2701V18H43.898V17.6279H43.5259V17.2558Z" fill="white"/>
<path d="M8.91869 6.83667H8.54657V7.20879H8.91869V6.83667Z" fill="white"/>
<path d="M1.47625 9.0694H1.10413V9.44153H1.47625V9.0694Z" fill="white"/>
<path d="M6.68596 9.0694H7.05808V9.44153H6.68596V9.81365H6.31384V10.1858H5.94172V9.81365H6.31384V9.44153H6.68596V9.0694Z" fill="white"/>
<path d="M3.70898 10.5579H3.33686V10.93H3.70898V10.5579Z" fill="white"/>
<path d="M10.0351 12.0464H9.66294V12.4185H10.0351V12.0464Z" fill="white"/>
<path d="M12.2678 14.6512H11.8957V15.0234H12.2678V14.6512Z" fill="white"/>
<path d="M7.4302 15.0234H7.05808V15.3955H7.4302V15.0234Z" fill="white"/>
<path d="M24.1757 16.5118H23.8036V16.884H24.1757V16.5118Z" fill="white"/>
<path d="M14.5005 17.2561H14.1284V17.6282H14.5005V17.2561Z" fill="white"/>
<path d="M24.5478 17.2561H24.1757V17.6282H24.5478V17.2561Z" fill="white"/>
<path d="M26.4084 18.7446H26.0363V19.1167H26.4084V18.7446Z" fill="white"/>
<path d="M46.1309 18.7446H45.7588V19.1167H46.1309V18.7446Z" fill="white"/>
<path d="M13.0119 7.95312H12.6398V8.32524H13.0119V7.95312Z" fill="white"/>
<path d="M44.6417 8.69735H44.2695V9.06947H44.6417V8.69735Z" fill="white"/>
<path d="M12.6398 15.0233H12.2677V15.3954H12.6398V15.0233Z" fill="white"/>
<path d="M14.8725 17.6281H14.5004V18.0002H14.8725V17.6281Z" fill="white"/>
<path d="M10.035 4.97632H10.4071V5.34844H10.035V5.72056H9.66284V5.34844H10.035V4.97632Z" fill="white"/>
<path d="M53.2011 7.20905H52.829V7.58117H53.2011V7.20905Z" fill="white"/>
<path d="M53.9454 8.69754H53.5733V9.06966H53.9454V8.69754Z" fill="white"/>
<path d="M51.7127 18.0006H51.3405V18.3727H51.7127V18.0006Z" fill="white"/>
<path d="M8.54625 7.2085H8.17414V7.58061H8.54625V7.2085Z" fill="white"/>
<path d="M12.2674 8.32484H12.6395V8.69695H12.2674V9.06907H11.8953V8.69695H12.2674V8.32484Z" fill="white"/>
<path d="M5.94145 10.1854H5.56934V10.5575H5.94145V10.1854Z" fill="white"/>
<path d="M10.0347 11.3018H9.6626V11.6739H10.0347V11.3018Z" fill="white"/>
<path d="M10.4068 12.4181H10.0347V12.7902H10.4068V12.4181Z" fill="white"/>
<path d="M7.05779 14.6508H6.68568V15.0229H7.05779V14.6508Z" fill="white"/>
<path d="M55.0616 0.510742H54.6895V0.882864H55.0616V0.510742Z" fill="white"/>
<path d="M49.4798 4.60409H49.1077V4.97621H49.4798V4.60409Z" fill="white"/>
<path d="M50.5962 4.97621H50.224V5.34833H50.5962V4.97621Z" fill="white"/>
<path d="M45.0143 5.34833H44.6422V5.72045H45.0143V5.34833Z" fill="white"/>
<path d="M13.7561 6.83682H14.1282V7.20894H13.7561V7.58106H13.3839V7.20894H13.7561V6.83682Z" fill="white"/>
<path d="M7.42998 8.32531H7.05786V8.69743H7.42998V8.32531Z" fill="white"/>
<path d="M10.7791 10.1859H11.1512V10.558H10.7791V10.9302H10.407V10.558H10.7791V10.1859Z" fill="white"/>
<path d="M49.8519 12.4187H49.4798V12.7908H49.8519V12.4187Z" fill="white"/>
<path d="M32.3622 14.2793H31.9901V14.6514H32.3622V14.2793Z" fill="white"/>
<path d="M44.2701 14.2793H43.898V14.6514H44.2701V14.2793Z" fill="white"/>
<path d="M48.3634 15.3956H47.9913V15.7678H48.3634V15.3956Z" fill="white"/>
<path d="M52.8289 16.8841H52.4568V17.2562H52.8289V16.8841Z" fill="white"/>
<path d="M44.2702 6.09229H43.8981V6.4644H44.2702V6.09229Z" fill="white"/>
<path d="M45.0145 8.32497H44.6423V8.69709H45.0145V8.32497Z" fill="white"/>
<path d="M44.2702 9.0692H43.8981V9.44132H44.2702V9.0692Z" fill="white"/>
<path d="M43.8981 9.81343H43.526V10.1855H43.8981V9.81343Z" fill="white"/>
<path d="M55.4338 0.510742H55.0617V0.882864H55.4338V0.510742Z" fill="white"/>
<path d="M56.178 0.882864H55.8059V1.25499H56.178V0.882864Z" fill="white"/>
<path d="M1.10393 14.6514H0.731812V15.0235H1.10393V14.6514Z" fill="white"/>
<path d="M31.618 18.3726H31.2458V18.7447H31.618V18.3726Z" fill="white"/>
<path d="M49.48 14.2795H49.1079V14.6517H49.48V14.2795Z" fill="white"/>
<path d="M53.9455 14.2795H53.5733V14.6517H53.9455V14.2795Z" fill="white"/>
<path d="M12.6399 15.3959H13.012V15.768H13.3841V16.1402H13.012V15.768H12.6399V15.3959Z" fill="white"/>
<path d="M53.5733 15.3959H53.2012V15.768H53.5733V15.3959Z" fill="white"/>
<path d="M53.2012 16.1402H52.8291V16.5123H53.2012V16.1402Z" fill="white"/>
<path d="M52.457 17.2565H52.0849V17.6286H52.457V17.2565Z" fill="white"/>
<path d="M14.8726 18.0008H15.2447V18.3729H15.6169V18.745H15.2447V18.3729H14.8726V18.0008Z" fill="white"/>
<path d="M25.6642 18.3729H25.292V18.745H25.6642V18.3729Z" fill="white"/>
<path d="M50.9685 18.3729H50.5964V18.745H50.9685V18.3729Z" fill="white"/>
<path d="M37.1997 4.97607H36.8276V5.3482H37.1997V4.97607Z" fill="white"/>
<path d="M51.3404 5.3482H50.9683V5.72032H51.3404V5.3482Z" fill="white"/>
<path d="M53.5731 7.95305H53.201V8.32517H53.5731V7.95305Z" fill="white"/>
<path d="M49.4798 9.44154H49.1076V9.81366H49.4798V9.44154Z" fill="white"/>
<path d="M6.31358 12.0464H5.94146V12.4185H6.31358V12.0464Z" fill="white"/>
<path d="M11.1512 13.1628H10.779V13.5349H11.1512V13.1628Z" fill="white"/>
<path d="M5.94146 13.5349H5.56934V13.907H5.94146V13.5349Z" fill="white"/>
<path d="M28.2688 15.0234H27.8967V15.3955H28.2688V15.0234Z" fill="white"/>
<path d="M47.9907 7.95312H47.6186V8.32524H47.9907V7.95312Z" fill="white"/>
<path d="M9.66289 17.6281H9.29077V18.0002H9.66289V17.6281Z" fill="white"/>
<path d="M31.9898 17.6281H32.3619V18.0002H31.9898V18.3723H31.6176V18.0002H31.9898V17.6281Z" fill="white"/>
<path d="M8.17436 16.1399H7.80225V16.512H8.17436V16.1399Z" fill="white"/>
<path d="M13.7561 16.1399H13.384V16.512H13.7561V16.1399Z" fill="white"/>
<path d="M15.9888 18.7447H15.6167V19.1168H15.9888V18.7447Z" fill="white"/>
<path d="M13.384 7.58105H13.0118V7.95317H13.384V7.58105Z" fill="white"/>
</svg>
