<svg width="84" height="22" viewBox="0 0 84 22" fill="none" xmlns="http://www.w3.org/2000/svg">
<g clipPath="url(#clip0_2050_9354)">
<path d="M5.61525 7.51507H2.74719L2.74736 7.78817V20.9289H5.61525V12.2778C5.61525 10.9153 6.81822 9.88547 8.56287 9.79557C10.3075 9.70567 11.3191 10.2876 11.5415 12.1917V20.9468H13.8559C13.8685 18.0284 13.8862 12.1917 13.8559 12.1917C13.8559 10.6603 15.6385 9.90795 17.2649 9.83697C18.566 9.78018 19.804 10.8738 19.804 12.0334V20.9468H22.5457V10.469C22.0666 8.25904 20.0767 7.60537 17.9638 7.51507C15.8509 7.42477 13.5261 8.29707 13.131 9.85445C12.8038 8.38236 11.5767 7.51507 9.53684 7.51507C7.49697 7.51507 6.0725 8.64415 5.61525 9.2087V7.51507Z" fill="white"/>
<path d="M27.0918 20.9007V7.60352" stroke="white" strokeWidth="2.92672"/>
<path d="M65.5287 20.9007L65.5287 0.982422" stroke="white" strokeWidth="2.92672"/>
<circle cx="27.0919" cy="2.76195" r="2.24535" fill="white"/>
<path d="M44.8026 10.5494L41.9559 13.8306C41.763 12.7369 40.6544 10.4903 37.7629 10.2536C34.8714 10.017 33.8751 12.2624 33.7384 13.4147V15.6811C35.1979 20.172 39.9799 19.0858 40.9227 17.6366L45.7259 11.5988C46.5391 10.3738 49.0241 7.83701 52.4582 7.48991C55.8923 7.14282 57.4857 8.89357 57.8531 9.81234L57.7644 0.981934H60.6033V20.8481H57.8671V19.2041C57.56 19.9896 56.1792 21.5604 53.1117 21.5604C49.2322 21.7559 47.5875 18.0868 47.2501 16.2278L49.8579 12.977C49.5854 16.7408 51.2616 19.2552 53.4819 19.2041C55.7023 19.1531 57.5908 17.9025 57.795 14.6614C57.9992 11.4202 56.621 10.0675 53.4819 9.81234C50.9706 9.60817 48.3509 12.4061 47.3549 13.8306L43.4703 18.9816C42.7054 19.7691 40.3952 21.3856 37.2741 21.5521C32.7195 21.205 31.1241 17.597 30.8958 15.8363V13.8306C31.5593 9.32744 35.2239 7.44738 37.2741 7.48991C39.7037 7.48991 41.1023 8.12794 41.9559 10.0675V0.981934H44.8026V10.5494Z" fill="white"/>
<path fill-rule="evenodd" clip-rule="evenodd" d="M72.345 15.2087H81.6557C81.9452 12.6726 81.2248 7.57273 76.0276 7.46155C70.8303 7.35038 69.4615 10.8657 69.4615 14.0969V16.32C69.5889 18.115 71.0804 21.6562 76.0276 21.4617C80.5301 21.2671 81.6557 18.3698 81.6557 16.9454H78.7507C78.6001 17.756 77.56 18.9057 75.9042 18.9057C74.2484 18.9057 72.345 17.9772 72.345 15.2087ZM72.3837 12.9219H79.1092C79.0479 11.8193 78.2711 9.62515 75.6545 9.66925C73.0379 9.71335 72.3837 11.8561 72.3837 12.9219Z" fill="white"/>
</g>
<defs>
<clipPath id="clip0_2050_9354">
<rect width="82.7549" height="21.0649" fill="white" transform="translate(0.65332 0.467773)"/>
</clipPath>
</defs>
</svg>
