<svg width="92" height="15" viewBox="0 0 92 15" fill="none" xmlns="http://www.w3.org/2000/svg">
<path d="M9.28467 7.12889L10.6888 9.19809L13.5131 5.01519V14.2811H15.946V0.802819H13.4633L9.28467 7.12889Z" fill="white"/>
<path d="M2.4607 0.802415H0V14.2807H2.43903V5.01478L7.97642 13.2423L9.38891 11.1427L2.4607 0.802415Z" fill="white"/>
<path d="M30.5766 10.1029L32.8277 14.2807H35.7617L28.4009 0.802717H25.7558L25.7536 0.806927L29.4391 7.9546H24.5416L25.8199 5.62445L24.4867 3.09228L18.2844 14.2807H21.0285L23.3469 10.1038L30.5766 10.1029Z" fill="white"/>
<path d="M52.0072 0.801827H49.5675V7.34705L52.0072 9.62369V0.801827Z" fill="white"/>
<path d="M40.2314 0.802415H37.7494V14.2807H40.19V4.20941L50.1894 14.2807H52.006V12.6429L40.2314 0.802415Z" fill="white"/>
<path d="M69.0529 4.54282C67.8911 3.42204 66.0998 2.70431 64.09 2.70431C60.8827 2.70431 58.2317 4.5335 57.8089 6.9073H55.1227C55.4737 3.22277 59.532 0.506941 64.123 0.506941C66.8536 0.506941 69.3068 1.45159 70.9584 2.97151L69.0529 4.54282Z" fill="white"/>
<path d="M63.8666 12.3981C61.1888 12.3981 58.9093 11.0498 58.0591 9.1637H55.3188C56.225 12.4147 59.788 14.5831 64.0183 14.5831C65.0005 14.5831 66.1309 14.4929 67.0695 14.2764C69.1876 13.7894 71.5007 12.5103 71.5007 10.491V6.90751H63.8385L63.833 9.1637H69.052V10.1879C69.052 11.3189 67.2335 11.9731 66.1206 12.2027C65.5217 12.3263 64.7531 12.3981 64.1325 12.3981H63.8666Z" fill="white"/>
<path d="M91.6667 7.55464C91.6667 3.53497 87.7401 0.416584 82.9171 0.416584C78.2471 0.416584 74.1442 3.39097 74.1442 7.33819C74.1442 11.0599 77.3664 14.0418 81.7071 14.5147V12.263C78.8673 11.8283 76.721 9.85683 76.721 7.4858C76.721 4.7961 79.481 2.61416 82.8841 2.61416C86.2888 2.61416 89.0478 4.7961 89.0478 7.4858C89.0478 9.83849 86.9352 11.7968 84.1284 12.2522V14.5087C88.2934 14.0382 91.6667 11.1676 91.6667 7.55464Z" fill="white"/>
</svg>
