<svg width="66" height="35" viewBox="0 0 66 35" fill="none" xmlns="http://www.w3.org/2000/svg">
<path fill-rule="evenodd" clip-rule="evenodd" d="M55.7164 9.27887C54.7324 9.27887 53.9124 8.46504 53.9124 7.48838C53.9124 6.51178 54.7324 5.69792 55.7164 5.69792C56.7004 5.69792 57.5204 6.51178 57.5204 7.48838C57.5204 8.46504 56.7004 9.27887 55.7164 9.27887Z" fill="white"/>
<path fill-rule="evenodd" clip-rule="evenodd" d="M27.0712 13.5661C25.5405 13.5661 24.1191 16.3878 23.9551 19.9149C23.7911 22.5195 24.3378 24.9071 25.3218 25.9923C25.6498 26.3722 26.0325 26.535 26.4152 26.5892H26.4699C28.0006 26.5892 29.4219 23.7675 29.5859 20.2404C29.7499 17.6358 29.2032 15.2482 28.1645 14.163C27.8365 13.7832 27.4539 13.6204 27.0712 13.5661C27.1259 13.5661 27.0712 13.5661 27.0712 13.5661ZM49.649 33.752L49.7584 33.6434C52.1091 31.4729 53.8584 29.3566 55.4985 26.8063C57.2479 23.5505 57.8492 20.5118 57.4119 17.473C57.3025 16.9847 57.1385 16.9847 57.0838 16.9847C56.8652 16.9847 56.5372 17.2017 56.2092 17.473C52.4371 21.2172 50.469 25.1241 49.977 29.6822V29.7908L47.6263 30.3334V30.1706C47.517 24.4187 47.8996 18.7754 48.8836 12.8607H44.5102L44.4556 16.7676L42.1049 16.7134L41.9408 14.163C41.6675 13.6204 41.2848 13.4033 40.8475 13.4033C40.6288 13.4033 40.3555 13.4576 40.0821 13.6204C38.7155 14.3801 38.0048 16.1165 37.8408 19.4265C37.6768 22.1397 37.7314 24.0932 38.6608 25.0699C39.0981 25.504 39.6448 25.721 40.3555 25.721C40.6288 25.721 40.9022 25.721 41.1755 25.6668C42.3235 25.1241 43.1982 24.0389 43.9089 22.2482L43.9636 22.1397L45.1662 22.0311L45.1116 22.1939C44.4009 26.0466 42.5968 27.8373 39.3168 27.8373C38.9341 27.8373 38.5514 27.8373 38.1141 27.783C35.1073 27.0776 34.1233 23.9304 35.162 18.6668C35.7087 16.0079 36.7474 14.163 38.3875 12.9149H30.7886C31.882 14.3801 32.4287 16.3878 32.4287 18.8839C32.1007 24.0389 30.3513 26.8606 27.0165 27.783C26.5245 27.8916 26.0325 28.0001 25.4858 28.0001C24.8298 28.0001 24.0645 27.8916 23.3538 27.6745C22.0418 27.0776 21.2218 25.9923 21.003 24.5815C20.5111 21.2172 20.7844 19.6435 21.8778 16.442C22.5338 14.5428 23.7365 13.5118 24.8298 12.8607H16.411L16.5203 16.7676H14.8803V16.6048C14.9896 15.6823 14.8256 14.9227 14.3336 14.3801C13.8962 13.8916 13.1855 13.5661 12.3656 13.5661C11.7095 13.5661 11.1082 13.7832 10.7802 14.0545C10.0148 14.4343 9.57748 15.4653 9.63216 16.4963C9.74151 17.9071 10.7255 18.9924 12.3656 19.5351C15.0442 20.566 16.903 22.2482 17.9963 24.6901C19.035 28.1628 17.6136 31.1473 14.2789 32.2868C13.6776 32.3954 13.0762 32.4497 12.5295 32.4497C11.9829 32.4497 11.3815 32.3954 10.8349 32.2868C9.57748 32.0698 8.42945 31.6357 7.39078 31.0388L7.3361 30.9846V25.6125H8.97616V25.7753C8.75745 28.7055 9.52281 30.3334 11.2722 30.7675C11.6002 30.8218 11.9282 30.876 12.2562 30.876C13.6229 30.876 14.7709 30.3877 15.4816 29.5194C16.0283 28.814 16.1923 27.8916 15.919 26.9148C15.4816 25.3954 14.1696 24.1474 11.6548 23.0078C9.14013 21.9769 7.60942 20.2947 7.28142 18.1785C7.11745 15.8451 7.77345 14.2173 9.41345 13.0235H0.666626L3.07201 10.7987H49.321C49.649 7.65139 50.3597 4.23284 51.6171 0.325895L51.6717 0.217369H55.5532V1.57395H55.4438C53.4211 2.93053 52.2184 6.02354 51.8357 10.7987H65.6666L63.3162 12.9149H51.5624L50.9064 22.628C52.7104 19.2637 54.7332 16.6048 56.9199 14.7056L56.9745 14.6513H60.2546V14.7599C61.457 23.2792 58.7786 27.3489 55.6625 30.4962L50.9064 35L49.649 33.752Z" fill="white"/>
<path fill-rule="evenodd" clip-rule="evenodd" d="M57.3582 0.108586C56.9209 0.108586 56.5928 0.43409 56.5928 0.868097C56.5928 1.3021 56.9209 1.62761 57.3582 1.62761C57.7955 1.62761 58.1235 1.3021 58.1235 0.868097C58.1235 0.43409 57.7955 0.108586 57.3582 0.108586ZM57.3582 1.73611C56.8662 1.73611 56.4835 1.35635 56.4835 0.868097C56.4835 0.379839 56.8662 8.39233e-05 57.3582 8.39233e-05C57.8502 8.39233e-05 58.2329 0.379839 58.2329 0.868097C58.2876 1.35635 57.8502 1.73611 57.3582 1.73611Z" fill="white"/>
<path fill-rule="evenodd" clip-rule="evenodd" d="M57.1369 0.759574H57.3008C57.4102 0.759574 57.4649 0.759574 57.4649 0.759574C57.4649 0.759574 57.5195 0.759574 57.5195 0.705376V0.651179C57.5195 0.596987 57.5195 0.596987 57.5195 0.596987L57.4649 0.54279C57.4649 0.54279 57.4102 0.54279 57.3008 0.54279H57.1369V0.759574ZM56.9182 1.35572V0.326012H57.3555C57.4649 0.326012 57.5195 0.326012 57.5742 0.326012C57.6289 0.326012 57.6835 0.380207 57.6835 0.434402C57.7382 0.488597 57.7382 0.54279 57.7382 0.596987C57.7382 0.651179 57.7382 0.705376 57.6835 0.759574C57.6289 0.813765 57.5742 0.813765 57.4649 0.867963C57.5195 0.867963 57.5195 0.922154 57.5742 0.976352C57.6289 1.03054 57.6289 1.08474 57.6835 1.13894L57.7929 1.35572H57.5742L57.4102 1.13894C57.3555 1.08474 57.3008 1.03054 57.3008 0.976352L57.2462 0.922154C57.2462 0.922154 57.1915 0.922154 57.1369 0.922154H57.0822V1.35572H56.9182Z" fill="white"/>
</svg>
