<svg width="52" height="29" viewBox="0 0 52 29" fill="none" xmlns="http://www.w3.org/2000/svg">
<path d="M48.4844 13.8911C48.5706 11.2952 46.4166 9.1861 43.7457 9.10498C40.9887 9.02386 38.6624 11.0519 38.5762 13.5666C38.4901 16.2436 40.644 18.4339 43.4873 18.515C46.1582 18.515 48.3983 16.487 48.4844 13.8911ZM51.5 21.192H48.5706V19.6507C48.3983 19.7318 48.2259 19.8129 48.1398 19.8941C43.2288 23.0578 36.7669 20.3808 35.8192 14.8646C35.1299 10.8896 38.3178 6.91472 42.5395 6.42799C47.4505 5.86015 51.5 9.26723 51.5 13.8911V21.192ZM16.5197 17.2982C16.6921 16.9737 16.7782 16.8115 16.8644 16.5681C18.3291 13.2422 19.8799 9.99731 21.3446 6.67136C21.5169 6.34687 21.6892 6.18463 22.0339 6.26575C22.9816 6.26575 23.8432 6.26575 24.8771 6.26575C24.7909 6.42799 24.7909 6.59023 24.7048 6.75248C21.4308 13.81 18.2429 20.7864 14.9689 27.8439C14.7966 28.1684 14.7104 28.2495 14.2796 28.2495C13.3319 28.2495 12.3841 28.2495 11.4364 28.2495C11.5226 28.0873 11.6087 27.925 11.6087 27.7628C12.6426 25.6537 13.6765 23.4634 14.7104 21.3542C14.8827 21.0298 14.8827 20.7864 14.7104 20.4619C12.7288 15.9191 10.8333 11.3764 8.85166 6.8336C8.85166 6.67136 8.7655 6.59023 8.67934 6.34687C9.71324 6.34687 10.661 6.34687 11.6949 6.34687C11.8672 6.34687 12.0395 6.59023 12.0395 6.75248C13.2457 9.59171 14.4519 12.4309 15.6582 15.2702C15.9166 15.9191 16.1751 16.5681 16.5197 17.2982ZM0.666626 0.749527H3.596V15.3513C3.596 17.4604 4.45759 18.2716 6.61154 18.4339C7.21465 18.4339 7.7316 18.4339 8.42086 18.4339V21.192C6.52538 21.2731 4.54374 21.3542 2.82058 20.3808C1.44205 19.6507 0.666626 18.4339 0.666626 16.9737C0.666626 11.5386 0.666626 6.18463 0.666626 0.749527ZM26.6864 6.34687H29.6158V9.02386C31.1666 7.07696 33.0621 6.26575 35.4745 6.34687V9.02386C35.3884 9.02386 35.3022 9.10498 35.1299 9.10498C32.3728 8.94274 30.4774 10.7274 29.7881 13.161C29.6158 13.81 29.5296 14.459 29.5296 15.1891C29.5296 17.136 29.5296 19.164 29.5296 21.1109C29.5296 21.1109 29.5296 21.192 29.5296 21.2731H26.6864V6.34687Z" fill="white"/>
</svg>
