<svg width="95" height="25" viewBox="0 0 95 25" fill="none" xmlns="http://www.w3.org/2000/svg">
<path d="M27.8577 16.783V7.43702H29.7413L32.4909 13.4976H32.5212L35.2708 7.43702H37.1696V16.783H35.3923V11.0374H35.3315L32.6428 16.783H32.3389L29.6502 11.0374H29.6198V16.783H27.8577ZM43.9599 16.0029C43.3219 16.6629 42.532 16.993 41.5598 16.993C40.5875 16.993 39.7824 16.6629 39.1596 16.0029C38.5216 15.3428 38.2178 14.4277 38.2178 13.2576C38.2178 12.1025 38.5368 11.1874 39.19 10.5273C39.8432 9.86726 40.6331 9.52223 41.5749 9.52223C42.5168 9.52223 43.3067 9.85226 43.9599 10.5273C44.6131 11.1874 44.9321 12.1025 44.9321 13.2576C44.9017 14.4277 44.5979 15.3428 43.9599 16.0029ZM40.3597 14.8628C40.6483 15.2378 41.0433 15.4178 41.5446 15.4178C42.0459 15.4178 42.4408 15.2228 42.7294 14.8478C43.0181 14.4727 43.1548 13.9327 43.1548 13.2426C43.1548 12.5525 43.0029 12.0125 42.7143 11.6374C42.4256 11.2624 42.0307 11.0674 41.5294 11.0674C41.0281 11.0674 40.6331 11.2474 40.3445 11.6224C40.0559 11.9975 39.904 12.5375 39.904 13.2426C39.9343 13.9627 40.0711 14.4877 40.3597 14.8628ZM47.7728 16.783L44.9017 9.71725H46.7246L48.5019 14.2627H48.5323L50.3096 9.71725H52.1022L49.2311 16.798H47.7728V16.783ZM57.2518 14.3527L58.4823 15.4178C57.7531 16.4679 56.7657 16.993 55.5201 16.993C54.5175 16.993 53.6972 16.6479 53.0744 15.9729C52.4364 15.2978 52.1325 14.3827 52.1325 13.2576C52.1325 12.1325 52.4515 11.2174 53.0744 10.5423C53.6972 9.86727 54.4871 9.52223 55.4441 9.52223C56.4011 9.52223 57.1911 9.86727 57.7987 10.5423C58.4215 11.2174 58.7253 12.1325 58.7253 13.2576V13.7827H53.9099C53.9402 14.3227 54.0921 14.7428 54.3656 15.0278C54.639 15.3128 55.0188 15.4628 55.4897 15.4628C55.8999 15.4628 56.234 15.3578 56.4923 15.1628C56.7657 14.9528 57.0088 14.6827 57.2518 14.3527ZM53.9099 12.4775H57.024C56.9784 12.0275 56.8265 11.6674 56.5531 11.4124C56.2796 11.1574 55.915 11.0374 55.4441 11.0374C55.0188 11.0374 54.6542 11.1724 54.3808 11.4574C54.1073 11.7275 53.9402 12.0725 53.9099 12.4775ZM60.7153 16.783L59.1355 9.70225H60.852L61.7939 14.4277H61.8394L63.4345 9.70225H65.0295L66.503 14.4127H66.5334L67.6119 9.70225H69.2981L67.5816 16.783H65.8498L64.2092 11.6974H64.1788L62.4015 16.783H60.7153ZM75.2529 16.0029C74.6149 16.6629 73.825 16.993 72.8528 16.993C71.8806 16.993 71.0754 16.6629 70.4526 16.0029C69.8146 15.3428 69.5108 14.4277 69.5108 13.2576C69.5108 12.1025 69.8298 11.1874 70.483 10.5273C71.1362 9.86726 71.9261 9.52223 72.868 9.52223C73.8098 9.52223 74.5997 9.85226 75.2529 10.5273C75.9061 11.1874 76.2251 12.1025 76.2251 13.2576C76.1947 14.4277 75.8909 15.3428 75.2529 16.0029ZM71.6527 14.8628C71.9413 15.2378 72.3363 15.4178 72.8376 15.4178C73.3389 15.4178 73.7338 15.2228 74.0225 14.8478C74.3111 14.4727 74.4478 13.9327 74.4478 13.2426C74.4478 12.5525 74.2959 12.0125 74.0073 11.6374C73.7186 11.2624 73.3237 11.0674 72.8224 11.0674C72.3211 11.0674 71.9261 11.2474 71.6375 11.6224C71.3489 11.9975 71.197 12.5375 71.197 13.2426C71.2273 13.9627 71.3793 14.4877 71.6527 14.8628ZM77.2733 16.783V9.70225H78.9291V10.4523H78.9595C79.0962 10.1823 79.2937 9.97228 79.5671 9.80726C79.8253 9.64224 80.1292 9.56724 80.433 9.56724C80.6608 9.56724 80.8735 9.61224 81.0862 9.70225L80.8127 11.3824C80.6153 11.3074 80.433 11.2774 80.2659 11.2774C79.4456 11.2774 79.0354 11.8175 79.0354 12.8976V16.783H77.2733ZM88.4841 14.4577L90.0639 14.0527C90.1854 15.0428 90.7323 15.5378 91.6742 15.5378C92.0995 15.5378 92.4489 15.4628 92.7071 15.3278C92.9654 15.1928 93.0869 14.9978 93.0869 14.7428C93.0869 14.5327 92.9806 14.3827 92.7831 14.2777C92.5856 14.1727 92.1754 14.0377 91.5374 13.8577C91.3703 13.8127 91.2336 13.7827 91.1425 13.7527C90.307 13.5276 89.6993 13.2426 89.3196 12.9276C88.9246 12.6125 88.7423 12.1925 88.7423 11.6674C88.7423 11.0824 88.9854 10.5723 89.4715 10.1523C89.9576 9.73225 90.6108 9.50723 91.4463 9.50723C93.0565 9.50723 94.0591 10.1973 94.4541 11.5924L92.9957 12.0275C92.8742 11.6824 92.6919 11.4274 92.4641 11.2324C92.2362 11.0374 91.902 10.9324 91.4615 10.9324C91.1121 10.9324 90.8538 10.9924 90.6412 11.1274C90.4437 11.2624 90.3374 11.4124 90.3374 11.5924C90.3374 11.7875 90.4589 11.9375 90.7019 12.0575C90.945 12.1625 91.5374 12.3575 92.4944 12.6275C93.3299 12.8526 93.9072 13.1376 94.211 13.4676C94.5148 13.8127 94.6667 14.2477 94.6667 14.7878C94.6667 15.3578 94.4237 15.8679 93.9224 16.3179C93.4211 16.768 92.6919 16.993 91.7501 16.993C90.7627 16.993 89.988 16.753 89.4563 16.2579C88.9246 15.7629 88.5904 15.1628 88.4841 14.4577ZM85.6434 13.0926L88.5145 16.798H86.327L83.8053 13.4376V16.798H82.028V7.04698H83.8053V12.7176L86.327 9.71725H88.5145L85.6434 13.0926Z" fill="white"/>
<path d="M11.4374 11.2178H0.5V0.416664L11.4374 11.2178ZM11.4374 0.416664V11.2328H22.3899L11.4374 0.416664Z" fill="white"/>
<path d="M0.500122 23.8193V13.0032H11.4527L0.500122 23.8193ZM22.39 13.0182H11.4375V23.8343L22.39 13.0182Z" fill="white"/>
<path d="M27.8577 19.4238H28.3134V23.3083H27.8577V19.4238Z" fill="white"/>
<path d="M29.1777 20.3691H29.603V20.6391H29.6182C29.8005 20.4291 30.1347 20.2791 30.4537 20.2791C31.1525 20.2791 31.5778 20.7141 31.5778 21.404V23.3087H31.1373V21.449C31.1373 20.969 30.8487 20.6841 30.3929 20.6841C29.922 20.6841 29.603 20.999 29.603 21.449V23.2937H29.1625V20.3691H29.1777Z" fill="white"/>
<path d="M32.1276 22.3039L32.5529 22.2289C32.6441 22.7688 32.9023 22.9938 33.4492 22.9938C33.8593 22.9938 34.1024 22.8288 34.1024 22.5739C34.1024 22.2889 33.9201 22.1689 33.2821 21.974C32.5225 21.764 32.2643 21.539 32.2643 21.1341C32.2643 20.6391 32.6896 20.2942 33.2973 20.2942C33.8897 20.2942 34.3302 20.6391 34.4518 21.1641L34.0264 21.254C33.9201 20.8791 33.677 20.6841 33.2973 20.6841C32.9327 20.6841 32.6896 20.8491 32.6896 21.1041C32.6896 21.314 32.8567 21.419 33.4188 21.584C34.2391 21.824 34.5429 22.0789 34.5429 22.5439C34.5429 23.0538 34.1024 23.3838 33.434 23.3838C32.6896 23.3838 32.2035 22.9938 32.1276 22.3039Z" fill="white"/>
<path d="M35.6347 20.7593V22.6341C35.6347 22.8291 35.7107 22.904 35.9537 22.904H36.1968V23.309H35.9081C35.3613 23.309 35.179 23.129 35.179 22.6341V20.7593H34.7233V20.3694H35.179V19.7094H35.6195V20.3694H36.3487V20.7593H35.6347Z" fill="white"/>
<path d="M36.6234 22.5588C36.6234 22.0639 36.9272 21.8089 37.6716 21.6289C38.2488 21.494 38.4311 21.374 38.4311 21.134C38.4311 20.864 38.1881 20.6841 37.8235 20.6841C37.4285 20.6841 37.1551 20.924 37.0791 21.314L36.6386 21.224C36.7449 20.6541 37.2007 20.2791 37.8235 20.2791C38.4919 20.2791 38.902 20.6391 38.902 21.239V23.3087H38.4919V22.9938H38.4767C38.3096 23.2337 37.9906 23.3837 37.6108 23.3837C37.0032 23.3837 36.6234 23.0688 36.6234 22.5588ZM38.4615 22.3039V21.6439H38.4463C38.3855 21.7939 38.1881 21.8839 37.7931 21.9889C37.2766 22.1239 37.0639 22.2739 37.0639 22.5288C37.0639 22.8288 37.2614 22.9788 37.6412 22.9788C38.1121 22.9788 38.4615 22.6938 38.4615 22.3039Z" fill="white"/>
<path d="M39.6014 20.3691H40.0267V20.6391H40.0419C40.2242 20.4291 40.5584 20.2791 40.8774 20.2791C41.5762 20.2791 42.0015 20.7141 42.0015 21.404V23.3087H41.561V21.449C41.561 20.969 41.2724 20.6841 40.8166 20.6841C40.3457 20.6841 40.0267 20.999 40.0267 21.449V23.2937H39.5862V20.3691H39.6014Z" fill="white"/>
<path d="M43.2915 20.7593V22.6341C43.2915 22.8291 43.3674 22.904 43.6105 22.904H43.8535V23.309H43.5649C43.018 23.309 42.8357 23.129 42.8357 22.6341V20.7593H42.38V20.3694H42.8357V19.7094H43.2763V20.3694H44.0054V20.7593H43.2915Z" fill="white"/>
<path d="M46.086 19.259H46.5265V20.6388H46.5417C46.7088 20.4289 47.043 20.2789 47.362 20.2789C48.0456 20.2789 48.4861 20.7138 48.4861 21.3887V23.2935H48.0456V21.4487C48.0456 20.9688 47.757 20.6838 47.3013 20.6838C46.8303 20.6838 46.5113 20.9988 46.5113 21.4487V23.2935H46.0708V19.259H46.086Z" fill="white"/>
<path d="M49.094 21.8389C49.094 20.909 49.6561 20.2791 50.4764 20.2791C51.2815 20.2791 51.8131 20.864 51.8131 21.7339V21.9589H49.5497C49.5649 22.5138 49.9143 22.9938 50.4764 22.9938C50.9017 22.9938 51.1296 22.8438 51.3878 22.4088L51.7524 22.6188C51.4941 23.1287 51.0536 23.3837 50.4915 23.3837C49.6409 23.3837 49.094 22.7538 49.094 21.8389ZM51.3574 21.6139C51.3422 21.089 50.9928 20.6691 50.4764 20.6691C49.9599 20.6691 49.5649 21.119 49.5497 21.6139H51.3574Z" fill="white"/>
<path d="M52.4203 19.259H52.8608V23.3085H52.4203V19.259Z" fill="white"/>
<path d="M53.6076 20.3692H54.0481V20.6841H54.0633C54.2608 20.4441 54.5646 20.2942 54.9292 20.2942C55.7191 20.2942 56.266 20.9241 56.266 21.854C56.266 22.7838 55.7039 23.4138 54.9292 23.4138C54.5646 23.4138 54.2304 23.2638 54.0481 23.0388H54.0329V24.5836H53.5924L53.6076 20.3692ZM55.8254 21.839C55.8254 21.1491 55.4609 20.6841 54.914 20.6841C54.4127 20.6841 54.0329 21.0741 54.0329 21.539V22.1089C54.0329 22.5889 54.4279 22.9788 54.8988 22.9788C55.4609 22.9788 55.8254 22.5289 55.8254 21.839Z" fill="white"/>
<path d="M58.1326 22.5588C58.1326 22.0639 58.4364 21.8089 59.1807 21.6289C59.758 21.494 59.9403 21.374 59.9403 21.134C59.9403 20.864 59.6972 20.6841 59.3326 20.6841C58.9377 20.6841 58.6642 20.924 58.5883 21.314L58.1478 21.224C58.2541 20.6541 58.7098 20.2791 59.3326 20.2791C60.001 20.2791 60.4112 20.6391 60.4112 21.239V23.3087H60.001V22.9938H59.9858C59.8187 23.2337 59.4997 23.3837 59.12 23.3837C58.5123 23.3837 58.1326 23.0688 58.1326 22.5588ZM59.9555 22.3039V21.6439H59.9403C59.8795 21.7939 59.682 21.8839 59.2871 21.9889C58.7706 22.1239 58.5579 22.2739 58.5579 22.5288C58.5579 22.8288 58.7554 22.9788 59.1352 22.9788C59.6213 22.9788 59.9555 22.6938 59.9555 22.3039Z" fill="white"/>
<path d="M61.6863 20.7593V22.6341C61.6863 22.8291 61.7623 22.904 62.0054 22.904H62.2484V23.309H61.9598C61.4129 23.309 61.2306 23.129 61.2306 22.6341V20.7593H60.7749V20.3694H61.2306V19.7094H61.6712V20.3694H62.4003V20.7593H61.6863Z" fill="white"/>
<path d="M64.1337 20.369H64.559L65.1059 22.6487H65.1211L65.9262 20.369H66.3211L67.1262 22.6487H67.1414L67.6883 20.369H68.1136L67.3997 23.3087H66.9895L66.1388 20.909H66.1237L65.273 23.3087H64.8628L64.1337 20.369Z" fill="white"/>
<path d="M68.3722 21.8385C68.3722 20.9086 68.9343 20.2787 69.7697 20.2787C70.6204 20.2787 71.1825 20.9086 71.1825 21.8385C71.1825 22.7684 70.6204 23.3983 69.7697 23.3983C68.9343 23.3833 68.3722 22.7534 68.3722 21.8385ZM70.742 21.8385C70.742 21.1336 70.3622 20.6836 69.7697 20.6836C69.1773 20.6836 68.8127 21.1336 68.8127 21.8385C68.8127 22.5434 69.1773 22.9934 69.7697 22.9934C70.3622 22.9784 70.742 22.5284 70.742 21.8385Z" fill="white"/>
<path d="M71.8055 20.3684H72.2157V20.6084H72.2309C72.3372 20.4284 72.5651 20.3084 72.8537 20.3084C72.96 20.3084 73.0512 20.3234 73.1575 20.3534L73.0664 20.8033C72.96 20.7734 72.8689 20.7584 72.7778 20.7584C72.4284 20.7584 72.2613 20.9833 72.2613 21.5383V23.308H71.8207L71.8055 20.3684Z" fill="white"/>
<path d="M73.6289 19.259H74.0694V21.6737H74.0846L75.3303 20.3689H75.9531L74.8442 21.5087L76.0291 23.3085H75.5126L74.5404 21.8087H74.5252L74.0694 22.2736V23.2935H73.6289V19.259Z" fill="white"/>
<path d="M76.651 22.6644H77.3194V23.3081H76.651V22.6644Z" fill="white"/>
<path d="M77.5325 19.4241H77.2743V19.2741H77.9579V19.4241H77.6996V20.1591H77.5477V19.4241H77.5325ZM78.0794 19.2741H78.2921L78.5655 19.9341L78.8389 19.2741H79.0516V20.1441H78.8997V19.4991L78.6263 20.1591H78.5048L78.2313 19.4991V20.1591H78.0794V19.2741Z" fill="white"/>
</svg>
