<svg width="97" height="19" viewBox="0 0 97 19" fill="none" xmlns="http://www.w3.org/2000/svg">
<g clipPath="url(#clip0_2050_8080)">
<path fill-rule="evenodd" clip-rule="evenodd" d="M31.6403 0.686676C31.7374 0.686676 31.9017 0.73149 32.0138 0.791241C32.1333 0.850993 32.305 0.985433 32.4096 1.09747C32.5515 1.24685 32.5963 1.38129 32.5963 1.63523C32.5963 1.92652 32.559 2.00121 32.3125 2.22528C32.0735 2.44188 31.9839 2.47922 31.6627 2.47922C31.3714 2.47922 31.237 2.43441 31.0652 2.2925C30.9382 2.18793 30.8113 1.9788 30.7664 1.82195C30.7067 1.60535 30.7216 1.49332 30.8262 1.28419C30.8934 1.14228 31.0652 0.948089 31.2071 0.858461C31.349 0.761365 31.5432 0.686676 31.6403 0.686676ZM2.52642 0.910744C3.65423 0.910744 4.37871 0.948089 4.69988 1.01531C4.96876 1.06759 5.3198 1.18709 5.48412 1.26925C5.64843 1.35141 5.90985 1.5456 6.06669 1.70992C6.22354 1.86677 6.4252 2.14312 6.51483 2.32984C6.64927 2.59872 6.67914 2.80038 6.67914 3.33815C6.67914 3.90579 6.64927 4.0701 6.49242 4.3838C6.38039 4.6004 6.16379 4.85434 5.63349 5.26513L6.04429 5.46679C6.26835 5.5863 6.56711 5.80289 6.70902 5.96721C6.85093 6.12406 7.03765 6.40041 7.11981 6.58713C7.22438 6.83361 7.26919 7.09502 7.26919 7.55809C7.27666 8.09586 7.24678 8.2527 7.075 8.60374C6.97043 8.82781 6.73143 9.14898 6.55217 9.30582C6.38039 9.47014 6.08163 9.6718 5.89491 9.74649C5.70818 9.82865 5.34221 9.94068 5.07332 9.99297C4.73722 10.0602 3.99033 10.0975 0.741345 10.0975L0.726407 5.55642C0.718938 3.05433 0.741345 0.985433 0.778689 0.963027C0.816034 0.933151 1.60027 0.910744 2.52642 0.910744ZM2.54136 3.62944L2.53389 4.7199C3.8783 4.7199 4.08743 4.69002 4.32643 4.57052C4.49075 4.48836 4.67747 4.32405 4.73722 4.19707C4.79697 4.0701 4.84926 3.8311 4.84926 3.65184C4.84926 3.47259 4.78951 3.24105 4.69988 3.09167C4.61772 2.9647 4.46087 2.79291 4.34884 2.71823C4.19946 2.62113 3.94552 2.58378 3.348 2.56138L2.54883 2.53897L2.54136 3.62944ZM2.53389 8.52905C3.84095 8.52905 4.3339 8.49918 4.47581 8.45437C4.61772 8.41702 4.84179 8.29005 4.96876 8.17802C5.09573 8.06598 5.24511 7.83444 5.29739 7.67013C5.35714 7.4834 5.37208 7.25934 5.33474 7.07261C5.29739 6.87095 5.19283 6.68423 5.01357 6.50497C4.86419 6.3556 4.60278 6.19128 4.43847 6.14647C4.27415 6.10165 3.7812 6.06431 3.34053 6.06431H2.53389V8.52905ZM91.4889 3.22611L91.7652 4.06263C91.9146 4.52571 92.288 5.57883 92.5868 6.40041C92.8855 7.22199 93.1544 7.90913 93.1694 7.93154C93.1918 7.95395 93.2217 7.95395 93.2291 7.93154C93.2441 7.90913 93.61 6.84855 94.8275 3.26346L95.6789 3.24105C96.1495 3.23358 96.5528 3.24852 96.5901 3.2784C96.62 3.30827 96.5752 3.50246 96.493 3.71159C96.4109 3.91325 95.8059 5.52654 95.1412 7.29668C94.4764 9.05935 93.8192 10.7623 93.6698 11.0685C93.4905 11.4345 93.2441 11.7855 92.9453 12.0843C92.6167 12.4204 92.3851 12.5847 92.0714 12.7042C91.8324 12.7863 91.4142 12.8909 91.1378 12.9357C90.8615 12.9731 90.503 13.0104 90.0698 13.0104V11.5166H90.503C90.7345 11.5166 91.0781 11.4718 91.2648 11.4046C91.4515 11.3448 91.7055 11.188 91.8324 11.0536C91.9519 10.9191 92.1162 10.6577 92.3254 10.1349L91.4814 7.93154C91.0183 6.72157 90.4357 5.19044 90.1818 4.53318C89.9278 3.87591 89.7337 3.31574 89.7486 3.2784C89.7635 3.24852 90.1669 3.22611 91.4889 3.22611ZM24.2162 14.7656L24.4701 15.5125C24.612 15.9233 24.7614 16.2893 24.7913 16.3341C24.8286 16.3789 24.9706 16.0503 25.3888 14.7283H25.7249C26.0162 14.7283 26.0536 14.7432 26.0162 14.8552C25.9938 14.9299 25.7697 15.5274 25.5233 16.1847C25.2768 16.842 25.0303 17.4619 24.978 17.5665C24.9257 17.671 24.7988 17.8279 24.7091 17.9175C24.612 18.0146 24.3805 18.1341 24.1938 18.1864C24.0071 18.2461 23.8203 18.276 23.7681 18.2611C23.7158 18.2461 23.671 18.1192 23.671 17.9773C23.671 17.7382 23.6859 17.7158 23.9025 17.7158C24.0444 17.7158 24.1938 17.6486 24.3133 17.5291C24.4104 17.4246 24.4925 17.305 24.4925 17.2677C24.4925 17.2229 24.2909 16.6627 24.0444 16.0129C23.7979 15.3706 23.5963 14.8104 23.6037 14.7806C23.6037 14.7432 23.7457 14.7283 24.2162 14.7656ZM23.5216 0.910744H25.0901V3.37549C25.0901 4.96637 25.1199 5.84024 25.1647 5.84024C25.2096 5.84024 25.7847 5.21285 27.6668 3.06927L28.5855 3.07673C29.0859 3.07673 29.5117 3.09914 29.5266 3.12902C29.549 3.16636 29.1382 3.64437 28.6154 4.19707C28.0926 4.75724 27.6071 5.28007 27.5324 5.35476C27.4054 5.49667 27.4204 5.54148 28.0851 6.69917C28.466 7.35643 29.0561 8.37221 29.3996 8.95478C29.7432 9.54483 30.0196 10.0378 30.0196 10.0602C30.0196 10.0826 29.6162 10.0975 28.227 10.0975L28.0552 9.81371C27.9581 9.66433 27.51 8.89503 26.2552 6.69917L25.0901 7.93154V10.0975H23.5216V0.910744ZM57.5052 0.910744V2.47922H53.7708V4.57052H56.9824V6.21369H53.7708V10.0975H51.9782L51.9633 5.55642C51.9633 3.05433 51.9857 0.985433 52.0156 0.963027C52.0529 0.933151 53.3002 0.910744 57.5052 0.910744ZM73.1974 0.903275L74.7958 0.948089L74.8331 3.22611H76.4763V4.57052H74.8331L74.8556 6.54979C74.8705 8.18548 74.8929 8.54399 74.9825 8.64109C75.0423 8.70084 75.229 8.77553 75.3933 8.79794C75.6174 8.83528 75.7742 8.80541 76.3269 8.52905L76.5211 9.02947C76.7078 9.51495 76.7078 9.53736 76.5734 9.64193C76.4987 9.69421 76.2896 9.81371 76.1029 9.89587C75.8415 10.0228 75.6323 10.0602 75.1319 10.0527C74.6688 10.0452 74.4074 10.0079 74.1609 9.89587C73.9742 9.81371 73.7203 9.61952 73.5858 9.47014C73.4514 9.32076 73.3095 9.07429 73.2647 8.91744C73.2273 8.76806 73.19 7.72241 73.19 4.57052H71.9203L71.9576 3.26346L73.19 3.22611L73.1974 0.903275ZM11.7207 3.11408C12.0344 3.12902 12.4526 3.20371 12.6543 3.27093C12.8634 3.34562 13.1472 3.46512 13.2891 3.54728C13.4385 3.62944 13.6999 3.8311 13.8792 4.00288C14.0584 4.1672 14.2825 4.42861 14.3796 4.58546C14.4842 4.74231 14.6261 5.02613 14.7008 5.22032C14.7829 5.41451 14.88 5.8253 14.9248 6.139C14.9771 6.51244 14.9771 6.86348 14.9323 7.22199C14.8875 7.52822 14.7531 7.96142 14.6111 8.26764C14.4618 8.58134 14.2078 8.94731 13.9763 9.17885C13.7223 9.44026 13.3937 9.66433 13.0128 9.84359C12.5198 10.0751 12.3331 10.1274 11.7954 10.1573C11.4518 10.1722 10.9812 10.1498 10.7497 10.105C10.5256 10.0602 10.1373 9.92575 9.89079 9.79877C9.63684 9.67927 9.2858 9.41039 9.0692 9.18632C8.86007 8.96972 8.59866 8.61121 8.48663 8.39461C8.37459 8.17801 8.23268 7.77469 8.16546 7.49834C8.0833 7.15477 8.0609 6.80373 8.09077 6.40041C8.10571 6.07178 8.18787 5.61617 8.26256 5.3921C8.33725 5.16057 8.53144 4.77965 8.70323 4.53318C8.86754 4.2867 9.17377 3.95807 9.37543 3.80122C9.57709 3.64437 9.92813 3.45018 10.1522 3.36802C10.3837 3.2784 10.6974 3.1813 10.8617 3.14395C11.0261 3.10661 11.4144 3.09914 11.7207 3.11408ZM10.1671 5.16804C10.0327 5.35476 9.86838 5.68339 9.80116 5.91493C9.72647 6.17634 9.70406 6.49751 9.72647 6.8112C9.74141 7.07261 9.83103 7.461 9.92066 7.67013C10.0178 7.87179 10.1821 8.1332 10.2866 8.2527C10.3987 8.37221 10.6227 8.53652 10.7871 8.61868C11.0261 8.73818 11.1978 8.76059 11.6161 8.73818C12.0269 8.71578 12.2062 8.67096 12.4228 8.52905C12.5796 8.42449 12.8037 8.18548 12.9232 8.00623C13.0501 7.81951 13.1846 7.53569 13.2294 7.37137C13.2742 7.20705 13.2966 6.80373 13.2742 6.4751C13.2518 6.02696 13.1921 5.78049 13.0576 5.50414C12.953 5.29501 12.7514 5.03359 12.6095 4.91409C12.475 4.79459 12.251 4.64521 12.1165 4.59293C11.9821 4.54064 11.6983 4.49583 11.4817 4.49583C11.2128 4.49583 10.9738 4.54811 10.7497 4.66762C10.5705 4.76471 10.3016 4.98878 10.1671 5.16804ZM19.0029 3.0842C19.1672 3.07673 19.5257 3.12155 19.7871 3.1813C20.056 3.23358 20.4593 3.37549 20.6834 3.48753C20.9149 3.59956 21.2585 3.84603 21.4602 4.04023C21.6618 4.22695 21.9307 4.6004 22.0651 4.86928C22.1996 5.13069 22.349 5.55642 22.4012 5.80289C22.461 6.06431 22.4834 6.52738 22.461 6.92323C22.4386 7.42365 22.3788 7.71494 22.2295 8.08092C22.1174 8.34233 21.9083 8.71578 21.7589 8.9025C21.617 9.08176 21.3257 9.36558 21.1091 9.52242C20.9 9.67927 20.5415 9.87346 20.3099 9.95562C20.0859 10.0378 19.6303 10.1274 19.3016 10.1498C18.973 10.1722 18.5249 10.1498 18.2933 10.105C18.0693 10.0602 17.6809 9.91828 17.4344 9.79877C17.1879 9.6718 16.8593 9.44773 16.695 9.29089C16.5381 9.14151 16.3066 8.85769 16.1796 8.67843C16.0527 8.49171 15.8883 8.15561 15.8062 7.93154C15.7166 7.6776 15.6419 7.2444 15.6269 6.8112C15.597 6.28091 15.6195 5.98215 15.7166 5.65352C15.7912 5.40704 15.9481 5.00372 16.0825 4.76471C16.2095 4.51824 16.4859 4.1672 16.6875 3.98794C16.8966 3.80122 17.2327 3.56968 17.4344 3.46512C17.6435 3.36055 18.0095 3.23358 18.256 3.1813C18.5025 3.12902 18.8386 3.0842 19.0029 3.0842ZM17.7929 5.056C17.6884 5.1755 17.539 5.41451 17.4568 5.57883C17.3597 5.76555 17.285 6.07925 17.2701 6.43775C17.2402 6.81867 17.2701 7.13236 17.3522 7.42365C17.4344 7.7 17.5763 7.96142 17.7556 8.16308C17.9124 8.32739 18.1589 8.52905 18.3157 8.61121C18.495 8.70084 18.7564 8.75312 19.0402 8.75312C19.3315 8.75312 19.5929 8.70084 19.7722 8.61121C19.929 8.53652 20.183 8.32739 20.3323 8.14067C20.5041 7.94648 20.6685 7.65519 20.7357 7.40871C20.8178 7.13983 20.8477 6.8112 20.8253 6.4751C20.8029 6.11659 20.7282 5.81783 20.5938 5.54148C20.4892 5.30995 20.2875 5.02613 20.1456 4.90662C19.9962 4.77965 19.7498 4.63774 19.5929 4.58546C19.4361 4.53318 19.1523 4.49583 18.9655 4.49583C18.7639 4.49583 18.5025 4.55558 18.3008 4.66015C18.1215 4.74977 17.89 4.92903 17.7929 5.056ZM37.7499 3.11408C38.0412 3.13649 38.4072 3.19624 38.5715 3.24105C38.7358 3.29333 39.0271 3.48753 39.2287 3.67425C39.4678 3.89085 39.6395 4.12985 39.7292 4.3838C39.8039 4.58546 39.9084 5.04106 39.9532 5.3921C39.9981 5.73567 40.0279 6.93817 40.0279 10.0975H38.3848L38.3698 7.75975C38.3549 5.59376 38.3399 5.40704 38.198 5.13069C38.1159 4.97384 37.959 4.77218 37.8395 4.68255C37.7126 4.59293 37.4735 4.51824 37.242 4.5033C37.0329 4.48836 36.7341 4.49583 36.5773 4.51824C36.4204 4.54811 36.1889 4.66015 36.0545 4.77965C35.92 4.89915 35.7482 5.13816 35.6661 5.31741C35.5316 5.62364 35.5167 5.84771 35.4719 10.0975H33.9034V3.22611H35.4719V3.65184C35.4719 3.89085 35.4868 4.10745 35.5092 4.13732C35.5316 4.1672 35.6735 4.05516 35.8304 3.89085C35.9872 3.71906 36.2262 3.50993 36.3681 3.42777C36.5175 3.33815 36.764 3.22611 36.9283 3.17383C37.1225 3.10661 37.4213 3.09167 37.7499 3.11408ZM43.9491 3.07673C44.1134 3.07673 44.4197 3.12155 44.6213 3.1813C44.8379 3.24105 45.1441 3.41284 45.3309 3.57715C45.5176 3.74147 45.7491 3.99541 45.8388 4.14479C45.9284 4.29417 46.0404 4.42114 46.0778 4.42114C46.1226 4.42114 46.1524 4.1672 46.1524 3.22611H47.7209L47.7284 6.67676C47.7284 9.92575 47.7209 10.1573 47.579 10.6204C47.4969 10.8818 47.3027 11.2702 47.1458 11.4793C46.989 11.6809 46.6753 11.9722 46.4512 12.1216C46.2271 12.2785 45.8238 12.4727 45.5549 12.5623C45.2338 12.6743 44.8155 12.7415 44.2852 12.7639C43.6802 12.7938 43.4039 12.7714 43.0528 12.6743C42.8064 12.5996 42.4553 12.4652 42.2686 12.3681C42.0894 12.2785 41.8728 12.1515 41.7981 12.0992C41.6562 12.0021 41.6636 11.9797 41.8952 11.4046C42.0296 11.076 42.1566 10.7772 42.1715 10.7473C42.1864 10.7175 42.3284 10.7996 42.4852 10.9341C42.6495 11.0685 42.9408 11.2328 43.1425 11.3075C43.3441 11.3747 43.6578 11.4569 43.8371 11.4793C44.0238 11.5092 44.3599 11.4942 44.584 11.4494C44.8155 11.4046 45.1591 11.2627 45.3682 11.1208C45.6072 10.9639 45.8014 10.7623 45.9134 10.5457C46.0329 10.3067 46.1002 10.0079 46.1375 9.53736C46.1823 9.01453 46.1749 8.88009 46.1002 8.9025C46.0479 8.92491 45.8761 9.10416 45.7267 9.30582C45.5624 9.51495 45.2786 9.76143 45.0321 9.90334C44.6512 10.1199 44.5765 10.1349 43.8744 10.1349C43.1873 10.1349 43.0902 10.1125 42.6421 9.89587C42.3358 9.74649 42.0445 9.52989 41.8354 9.29836C41.6636 9.09669 41.4321 8.75312 41.3275 8.52905C41.2155 8.29752 41.0885 7.8942 41.0288 7.63278C40.9765 7.3639 40.9317 6.89336 40.9317 6.58713C40.9242 6.2585 40.9914 5.77302 41.081 5.42945C41.1632 5.10081 41.3126 4.69749 41.4097 4.53318C41.5068 4.36886 41.7234 4.08504 41.8877 3.91325C42.0595 3.74147 42.3433 3.52487 42.5151 3.43524C42.6869 3.34562 43.0155 3.22611 43.2396 3.17383C43.4711 3.12902 43.7848 3.0842 43.9491 3.07673ZM43.2545 4.99625C43.023 5.22779 42.8512 5.48173 42.769 5.72821C42.7018 5.92987 42.6421 6.31825 42.6421 6.58713C42.6421 6.84855 42.6943 7.23693 42.7541 7.44606C42.8138 7.64772 42.9632 7.96142 43.0902 8.1332C43.2172 8.30499 43.4412 8.51412 43.5981 8.58881C43.7549 8.6635 43.979 8.75312 44.0985 8.783C44.2255 8.80541 44.4943 8.79794 44.696 8.75312C44.9275 8.70831 45.189 8.58134 45.3607 8.43196C45.5251 8.29752 45.7417 8.02117 45.8462 7.81951C45.9807 7.54316 46.0404 7.28921 46.0628 6.84855C46.0927 6.43775 46.0628 6.11659 45.9807 5.84024C45.9209 5.6087 45.7715 5.29501 45.652 5.13069C45.5325 4.96637 45.3085 4.76471 45.1441 4.68255C44.9798 4.60787 44.6811 4.53318 44.4719 4.51824C44.2703 4.51077 43.9939 4.53318 43.8595 4.57052C43.725 4.60787 43.4562 4.80206 43.2545 4.99625ZM61.2397 3.07673C61.5534 3.07673 61.9716 3.12155 62.1733 3.17383C62.3824 3.22611 62.6812 3.33815 62.8455 3.41284C63.0098 3.49499 63.2936 3.69666 63.4804 3.86097C63.697 4.05516 63.8986 4.34645 64.2646 5.13069L64.302 7.01286C64.3393 8.58134 64.3617 8.91744 64.4513 8.97719C64.5186 9.01453 64.6156 9.04441 64.6754 9.05188C64.7426 9.05188 64.9144 8.99213 65.0713 8.91744C65.2206 8.84275 65.3625 8.80541 65.3924 8.82781C65.4148 8.84275 65.4298 9.05188 65.4298 9.29089C65.4223 9.67927 65.3999 9.73902 65.1982 9.91081C65.0713 10.0154 64.8024 10.1274 64.5484 10.1722C64.3094 10.217 63.9808 10.232 63.8165 10.2021C63.6522 10.1722 63.4356 10.1125 63.331 10.0602C63.2339 10.0079 63.0546 9.85852 62.9426 9.73155C62.8306 9.60458 62.7409 9.44026 62.7409 9.36557C62.7409 9.27595 62.6438 9.3357 62.4198 9.56724C62.248 9.74649 61.9492 9.97056 61.7625 10.0527C61.4936 10.1797 61.2845 10.2021 60.6422 10.2021C59.9998 10.1946 59.7982 10.1648 59.4845 10.0303C59.2828 9.93321 58.9841 9.73902 58.8272 9.58217C58.6704 9.4328 58.4687 9.17885 58.3866 9.01453C58.282 8.81287 58.2222 8.52159 58.1998 8.15561C58.1774 7.75975 58.1998 7.50581 58.282 7.29668C58.3417 7.13236 58.5583 6.84108 58.7525 6.65435C59.0289 6.38547 59.238 6.26597 59.6339 6.14647C59.9849 6.03443 60.3509 5.98215 60.7169 5.98962C61.0306 5.98962 61.516 6.0419 61.7999 6.10912C62.0911 6.16887 62.4048 6.23609 62.4945 6.2585C62.6513 6.28091 62.6588 6.2585 62.6588 5.89252C62.6588 5.67592 62.599 5.3697 62.5243 5.20538C62.4497 5.04106 62.2629 4.80206 62.1061 4.68255C61.8596 4.49583 61.7326 4.45102 61.3218 4.42861C61.0007 4.41367 60.7318 4.44355 60.5301 4.51824C60.3658 4.58546 60.1194 4.75724 59.7086 5.1531L59.238 4.76471C58.9766 4.55558 58.7451 4.34645 58.7227 4.30911C58.7003 4.26429 58.8198 4.09998 58.9915 3.93566C59.1559 3.77134 59.4546 3.55475 59.6488 3.45018C59.8505 3.34562 60.1642 3.22611 60.3434 3.17383C60.5301 3.12155 60.9335 3.0842 61.2397 3.07673ZM59.9252 7.64772C59.8455 7.81204 59.8206 7.99378 59.8505 8.19295C59.8729 8.39461 59.9625 8.55146 60.1194 8.69337C60.2463 8.8054 60.4704 8.93238 60.6272 8.97719C60.7841 9.01453 61.0903 9.05188 61.3144 9.05188C61.5982 9.05188 61.8372 8.99213 62.0613 8.88009C62.2853 8.76806 62.4497 8.61868 62.5318 8.45437C62.6289 8.26764 62.6588 8.05851 62.6438 7.74482L62.6214 7.29668C62.1584 7.16224 61.7102 7.11743 61.3144 7.11743C60.7542 7.11743 60.5525 7.1473 60.3285 7.25934C60.1716 7.34149 59.9924 7.51328 59.9252 7.64772ZM68.9551 3.0842C69.1119 3.07673 69.4107 3.11408 69.6273 3.15889C69.8439 3.20371 70.1725 3.31574 70.3518 3.3979C70.5385 3.48753 70.8447 3.71159 71.0464 3.89832C71.2481 4.07757 71.3974 4.24936 71.39 4.27923C71.375 4.30164 71.1286 4.52571 70.3144 5.23526L70.1501 5.01119C70.0605 4.89169 69.8364 4.7199 69.6646 4.63027C69.4032 4.5033 69.2613 4.48089 68.858 4.51824C68.492 4.54811 68.3053 4.60787 68.0738 4.77218C67.887 4.90662 67.6928 5.14563 67.5509 5.42198C67.3493 5.8253 67.3269 5.92987 67.3343 6.57966C67.3343 6.97552 67.3717 7.40871 67.424 7.55809C67.4688 7.7 67.6107 7.96142 67.7377 8.1332C67.8721 8.31992 68.0962 8.51412 68.2829 8.59628C68.4696 8.6859 68.7609 8.74565 68.9924 8.74565C69.2165 8.74565 69.5003 8.69337 69.6572 8.61868C69.8066 8.54399 70.053 8.34233 70.4638 7.84938L71.6215 8.75312L71.3526 9.06682C71.1958 9.2386 70.9194 9.49255 70.7327 9.62699C70.546 9.76143 70.2398 9.92575 70.053 9.9855C69.8738 10.0452 69.5377 10.1125 69.3061 10.1423C69.0821 10.1648 68.6638 10.1498 68.3725 10.0975C68.0514 10.0452 67.6555 9.90334 67.3343 9.73155C67.0505 9.58217 66.6995 9.32076 66.5501 9.15645C66.4082 8.98466 66.1916 8.6859 66.087 8.48424C65.975 8.28258 65.8331 7.9166 65.7659 7.67013C65.6986 7.42365 65.6464 6.95311 65.6464 6.62448C65.6464 6.29584 65.6986 5.8253 65.7659 5.57883C65.8331 5.33235 65.975 4.95891 66.087 4.75724C66.1916 4.55558 66.4381 4.23442 66.6173 4.04023C66.804 3.8535 67.17 3.59209 67.424 3.45765C67.6779 3.33068 68.0663 3.19624 68.2829 3.15889C68.4995 3.12155 68.7982 3.0842 68.9551 3.0842ZM80.3975 3.10661C80.6888 3.12902 81.0921 3.19624 81.2938 3.25599C81.5029 3.31574 81.8838 3.50246 82.1378 3.66678C82.4216 3.8535 82.7278 4.13732 82.922 4.39874C83.1012 4.63774 83.3178 5.04853 83.4149 5.31741C83.512 5.5863 83.6017 6.07178 83.6241 6.43775C83.6539 6.90083 83.639 7.19958 83.5494 7.53569C83.4822 7.78963 83.3328 8.17801 83.2282 8.39461C83.1162 8.61121 82.8772 8.94732 82.683 9.14898C82.4963 9.35064 82.1751 9.60458 81.966 9.72408C81.7643 9.84359 81.3759 9.99297 81.107 10.0602C80.7635 10.1498 80.4274 10.1797 79.9494 10.1573C79.3668 10.1274 79.2025 10.0826 78.702 9.84359C78.3137 9.66433 77.9925 9.44026 77.7386 9.17885C77.5294 8.96225 77.283 8.63362 77.1859 8.45437C77.0962 8.26764 76.9618 7.93154 76.8946 7.70747C76.8199 7.45353 76.7751 7.0278 76.7751 6.62448C76.7751 6.17634 76.8199 5.79543 76.9095 5.50414C76.9842 5.25766 77.1336 4.89915 77.2381 4.7199C77.3502 4.53318 77.5966 4.22695 77.7983 4.04023C78 3.84603 78.3435 3.59956 78.5676 3.48753C78.7991 3.37549 79.1801 3.23358 79.4265 3.17383C79.6879 3.12155 80.0987 3.09167 80.3975 3.10661ZM78.9261 5.09335C78.7693 5.28007 78.59 5.57883 78.5303 5.76555C78.4705 5.9448 78.4182 6.37053 78.4182 6.69917C78.4182 7.22199 78.4481 7.34896 78.6647 7.78216C78.8365 8.12573 79.0008 8.32739 79.2323 8.49171C79.5012 8.67843 79.6431 8.71578 80.0913 8.73818C80.5095 8.76059 80.6888 8.73818 80.9203 8.61868C81.0846 8.53652 81.3236 8.35727 81.4431 8.21536C81.5626 8.08092 81.727 7.81204 81.8091 7.63278C81.9286 7.37137 81.966 7.1473 81.9585 6.66182C81.9585 6.16887 81.9212 5.93734 81.7942 5.65352C81.6971 5.44439 81.5178 5.16057 81.3834 5.02613C81.2564 4.88422 81.0099 4.71243 80.8456 4.63774C80.6813 4.55558 80.3826 4.49583 80.1734 4.49583C79.9718 4.49583 79.6655 4.55558 79.5012 4.63027C79.3369 4.70496 79.083 4.91409 78.9261 5.09335ZM88.0905 3.11408C88.2996 3.13649 88.5461 3.19624 88.6357 3.26346C88.7254 3.32321 88.8523 3.46512 88.9121 3.57715C89.0017 3.75641 88.9942 3.86097 88.8598 4.45849C88.7776 4.82446 88.6955 5.13816 88.6805 5.14563C88.6656 5.1531 88.5461 5.04853 88.4117 4.91409C88.2548 4.75724 88.0681 4.64521 87.8888 4.61533C87.732 4.58546 87.4631 4.60787 87.2913 4.65268C87.1046 4.69749 86.8731 4.8394 86.7312 4.98878C86.5892 5.13816 86.4399 5.39957 86.3726 5.63111C86.2905 5.93734 86.2606 6.46763 86.2606 10.0975H84.6174L84.6548 3.26346L86.2606 3.22611V3.6369C86.2606 3.86097 86.2905 4.06263 86.3204 4.07757C86.3502 4.09251 86.4399 4.01035 86.522 3.88338C86.6042 3.76388 86.7909 3.57715 86.9328 3.46512C87.0822 3.36055 87.3137 3.22611 87.4556 3.17383C87.6125 3.11408 87.8739 3.09167 88.0905 3.11408ZM32.4843 3.22611V10.0975H30.8411L30.8337 6.70663C30.8262 4.84687 30.8486 3.3008 30.8785 3.27093C30.9158 3.24852 31.2893 3.22611 32.4843 3.22611ZM19.0402 13.9067H19.5631V17.193H19.3016C19.0925 17.193 19.0402 17.1631 19.0402 17.0436C19.0402 16.9615 19.0104 16.8719 18.9655 16.8569C18.9282 16.8345 18.861 16.8868 18.8162 16.9689C18.7788 17.0511 18.6518 17.1482 18.5398 17.1781C18.4278 17.2154 18.1962 17.2229 18.0245 17.2005C17.8601 17.1706 17.6435 17.0885 17.5464 17.0063C17.4568 16.9241 17.3298 16.7374 17.2701 16.5955C17.2103 16.4461 17.1655 16.1399 17.1655 15.9009C17.173 15.6619 17.2253 15.3706 17.285 15.2511C17.3522 15.1241 17.4942 14.9523 17.6062 14.8702C17.7182 14.788 17.9124 14.6984 18.0319 14.676C18.1664 14.6536 18.3755 14.6909 18.5398 14.7581C18.6967 14.8179 18.8386 14.9225 18.8535 14.9897C18.8759 15.0494 18.9282 15.0793 18.9655 15.0644C19.0104 15.042 19.0402 14.7731 19.0402 14.4669V13.9067ZM17.8676 15.5125C17.8153 15.6096 17.7705 15.8337 17.7705 15.998C17.7705 16.2295 17.8228 16.3416 17.9946 16.5208C18.1215 16.6403 18.2709 16.7449 18.3307 16.7449C18.3979 16.7449 18.5323 16.7001 18.6294 16.6478C18.734 16.5955 18.8535 16.476 18.8908 16.3864C18.9357 16.2967 18.9655 16.0652 18.9655 15.886C18.9655 15.6245 18.9282 15.505 18.7788 15.3631C18.6817 15.2586 18.5174 15.1764 18.4278 15.1764C18.3381 15.1839 18.1888 15.2137 18.1066 15.2511C18.0245 15.2884 17.9199 15.4079 17.8676 15.5125ZM21.0568 13.9067H21.5797V14.4071C21.5797 14.6835 21.6021 14.9374 21.6394 14.9673C21.6693 14.9971 21.7739 14.9523 21.871 14.8552C21.9979 14.7357 22.1324 14.6909 22.3564 14.6909C22.5282 14.6909 22.7672 14.7432 22.8718 14.8179C22.9838 14.8926 23.1407 15.0942 23.2228 15.266C23.3125 15.4528 23.3722 15.744 23.3722 15.9606C23.3722 16.1698 23.3125 16.4685 23.2228 16.6478C23.1407 16.8196 22.9988 17.0138 22.9091 17.081C22.8195 17.1407 22.573 17.193 22.3639 17.193C22.0875 17.2005 21.9606 17.1631 21.8411 17.0436C21.7589 16.9615 21.6693 16.8943 21.6394 16.8943C21.6095 16.8943 21.5797 16.9615 21.5797 17.0436C21.5797 17.1631 21.5348 17.193 21.0568 17.193V13.9067ZM21.617 15.7889C21.5871 15.9382 21.617 16.1399 21.6917 16.3117C21.7514 16.4685 21.8859 16.6328 21.9755 16.6777C22.0651 16.7225 22.2369 16.7374 22.349 16.715C22.4759 16.6851 22.5954 16.5806 22.6627 16.4461C22.7299 16.3192 22.7747 16.1026 22.7747 15.9606C22.7747 15.8113 22.7299 15.6021 22.6776 15.4901C22.6178 15.3781 22.5207 15.2586 22.4535 15.2287C22.3863 15.1988 22.2593 15.1764 22.1772 15.1764C22.095 15.1764 21.9456 15.2586 21.8411 15.3631C21.744 15.4602 21.6394 15.6544 21.617 15.7889ZM30.0196 13.9814V17.5665H29.4071C28.9067 17.5665 28.72 17.5291 28.4137 17.3797C28.2121 17.2826 27.9432 17.0735 27.8237 16.9167C27.6967 16.7598 27.5623 16.5133 27.51 16.3714C27.4577 16.2221 27.4129 15.9756 27.4129 15.8113C27.4129 15.6469 27.4502 15.3781 27.4951 15.2137C27.5473 15.0345 27.7191 14.7656 27.9208 14.5565C28.115 14.3548 28.3988 14.1532 28.5631 14.0934C28.7274 14.0337 29.1233 13.9888 30.0196 13.9814ZM32.559 13.9814C32.7457 13.9814 33.0519 14.0486 33.2312 14.1308C33.4179 14.2204 33.6644 14.3772 33.7839 14.4893C33.9034 14.5938 34.0602 14.8104 34.1349 14.9673C34.2171 15.1241 34.2993 15.3706 34.3291 15.5274C34.3515 15.6843 34.3291 15.9905 34.2768 16.2221C34.2022 16.5507 34.1051 16.7001 33.7988 17.0063C33.5449 17.2602 33.3134 17.4171 33.0818 17.4843C32.9026 17.5366 32.5814 17.5665 32.3723 17.5515C32.1333 17.5291 31.8718 17.447 31.6254 17.2976C31.3714 17.1407 31.1847 16.9465 31.0129 16.6627C30.8113 16.3266 30.7664 16.1772 30.7664 15.8113C30.7664 15.4677 30.8187 15.266 30.9756 14.9523C31.0876 14.7283 31.2818 14.4743 31.4013 14.3772C31.5283 14.2876 31.7598 14.1606 31.9241 14.1009C32.0884 14.0411 32.3797 13.9888 32.559 13.9814ZM35.0984 13.9814L35.6063 13.9739C35.8827 13.9739 36.2636 14.0262 36.4428 14.0934C36.6296 14.1606 36.891 14.2951 37.0254 14.3922C37.1599 14.4967 37.354 14.7507 37.4586 14.9673C37.6229 15.2959 37.6453 15.4453 37.6304 15.8934C37.608 16.349 37.5706 16.476 37.3765 16.7523C37.2495 16.9316 36.9806 17.1781 36.7864 17.305C36.4652 17.4992 36.3457 17.5291 35.0984 17.5665V13.9814ZM40.0653 13.9814C40.2296 13.9814 40.5358 14.0337 40.7375 14.1083C40.9815 14.198 41.2055 14.3548 41.4097 14.5789C41.574 14.7656 41.7532 15.0494 41.8055 15.2137C41.8578 15.3781 41.8952 15.6469 41.8952 15.8113C41.8952 15.9756 41.8503 16.2221 41.7981 16.3714C41.7458 16.5133 41.6039 16.7598 41.4844 16.9092C41.3649 17.066 41.096 17.2752 40.8869 17.3797C40.6254 17.5067 40.3939 17.5665 40.1026 17.5665C39.8263 17.5665 39.5798 17.5067 39.3184 17.3797C39.1167 17.2826 38.8478 17.0735 38.7283 16.9167C38.6088 16.7598 38.4669 16.5208 38.4146 16.3864C38.3549 16.2519 38.3175 15.9681 38.3175 15.7515C38.3175 15.5349 38.3773 15.2287 38.452 15.0644C38.5267 14.9001 38.7134 14.6461 38.8628 14.5042C39.0121 14.3548 39.2736 14.183 39.4528 14.1158C39.6246 14.0411 39.901 13.9814 40.0653 13.9814ZM2.40692 14.6536C2.48161 14.6536 2.66086 14.7059 2.80277 14.7806C2.95215 14.8552 3.12393 14.9897 3.17622 15.0793C3.23597 15.1689 3.32559 15.4079 3.37041 15.6021C3.43016 15.8635 3.43016 16.0577 3.37041 16.3341C3.31066 16.603 3.22103 16.7748 3.02684 16.9465C2.87746 17.081 2.66833 17.193 2.55629 17.2005C2.44426 17.208 2.27994 17.208 2.19779 17.2005C2.11563 17.193 1.98119 17.1183 1.89903 17.0362C1.81687 16.954 1.72724 16.9167 1.69737 16.9465C1.66002 16.9764 1.63762 17.2453 1.63762 18.0893L1.07745 18.0519V14.7656L1.33886 14.7357C1.56293 14.7208 1.61521 14.7432 1.66002 14.8851C1.69737 15.0121 1.73471 15.0345 1.78699 14.9747C1.83181 14.9225 1.95131 14.8328 2.07081 14.7656C2.18285 14.7059 2.33223 14.6536 2.40692 14.6536ZM1.66002 15.8113C1.63762 15.9756 1.65255 16.2071 1.70484 16.3341C1.75712 16.4685 1.87662 16.5955 2.03347 16.6627C2.2426 16.7523 2.30235 16.7523 2.4592 16.6553C2.56376 16.5955 2.69074 16.4685 2.74302 16.364C2.80277 16.2519 2.82518 16.0503 2.80277 15.8486C2.78036 15.632 2.70567 15.4453 2.59364 15.3407C2.50401 15.2436 2.35463 15.1689 2.26501 15.1689C2.17538 15.1689 2.01106 15.2511 1.89903 15.3407C1.77953 15.4528 1.6899 15.6171 1.66002 15.8113ZM4.8866 14.6461C5.01357 14.6461 5.26752 14.7283 5.44677 14.8179C5.70072 14.9449 5.82769 15.0718 5.95466 15.3258C6.04429 15.505 6.12644 15.7963 6.11898 15.9606C6.11898 16.125 6.04429 16.4013 5.95466 16.5806C5.86503 16.7598 5.68578 16.9689 5.55881 17.0511C5.4169 17.1333 5.19283 17.1855 4.92395 17.1855C4.66253 17.193 4.42353 17.1407 4.25174 17.0511C4.09489 16.9615 3.93058 16.7822 3.82601 16.5806C3.72892 16.4013 3.65423 16.125 3.65423 15.9606C3.65423 15.7963 3.72892 15.505 3.82601 15.3258C3.95299 15.0718 4.07996 14.9449 4.32643 14.8179C4.51315 14.7283 4.7671 14.6461 4.8866 14.6461ZM4.25921 15.9532C4.25921 16.237 4.29656 16.3341 4.47581 16.5208C4.61025 16.6478 4.78204 16.7449 4.89407 16.7449C5.01357 16.7449 5.17789 16.6553 5.30486 16.5208C5.48412 16.3341 5.52146 16.2295 5.52146 15.9606C5.52146 15.6843 5.48412 15.5797 5.29739 15.4005C5.17042 15.266 4.99864 15.1764 4.8866 15.1764C4.7671 15.1764 4.60278 15.2586 4.47581 15.393C4.31149 15.5648 4.26668 15.6843 4.25921 15.9532ZM11.4593 14.6536C11.5862 14.6536 11.8028 14.7059 11.9447 14.7806C12.0867 14.8552 12.2808 15.027 12.3779 15.1764C12.4825 15.3333 12.5497 15.5424 12.5423 15.998H11.758C10.9962 15.998 10.9738 15.998 10.9738 16.1623C10.9738 16.2519 11.041 16.4237 11.1232 16.5357C11.2277 16.6702 11.3472 16.7449 11.4817 16.7449C11.5937 16.7449 11.7505 16.6777 11.8327 16.5955C11.9323 16.4909 12.0767 16.4387 12.2659 16.4387C12.4228 16.4387 12.5423 16.476 12.5423 16.5208C12.5423 16.5582 12.4377 16.715 12.3033 16.8569C12.1688 17.0063 11.9597 17.1557 11.8327 17.1855C11.7132 17.2229 11.4742 17.2229 11.3099 17.193C11.1456 17.1631 10.9364 17.1034 10.8468 17.0511C10.7572 17.0063 10.6078 16.8196 10.5182 16.6478C10.3912 16.3938 10.3688 16.2295 10.3912 15.8337C10.4061 15.4752 10.4584 15.2735 10.5705 15.1241C10.6601 15.0046 10.8393 14.8552 10.9812 14.7806C11.1232 14.7059 11.3398 14.6536 11.4593 14.6536ZM10.9812 15.5424C10.9812 15.5872 11.1754 15.6245 11.4593 15.6245C11.8999 15.6245 11.9447 15.6096 11.9447 15.4752C11.9447 15.393 11.8701 15.2735 11.7804 15.2063C11.6908 15.1465 11.5489 15.0942 11.4817 15.0942C11.407 15.1017 11.2651 15.1839 11.1605 15.281C11.0634 15.3855 10.9812 15.4976 10.9812 15.5424ZM14.1182 14.6536C14.2004 14.6536 14.3124 14.6984 14.3721 14.7656C14.4394 14.8254 14.4842 14.9299 14.4842 15.0046C14.4767 15.0793 14.4543 15.2063 14.4244 15.2884C14.3796 15.393 14.3497 15.4079 14.3124 15.3407C14.29 15.2884 14.1481 15.2511 13.9987 15.2511C13.812 15.2511 13.7074 15.2959 13.6253 15.4154C13.5431 15.5424 13.5132 15.7963 13.5132 17.193H12.9157V14.7283H13.2145C13.4759 14.7283 13.5132 14.7507 13.5132 14.8776C13.5057 15.0345 13.5207 15.027 13.7448 14.8403C13.8717 14.7357 14.0435 14.6536 14.1182 14.6536ZM15.7912 14.6536C15.9182 14.6536 16.1348 14.7059 16.2767 14.7806C16.4186 14.8552 16.6128 15.027 16.7099 15.1764C16.8145 15.3333 16.8817 15.5424 16.8742 15.998H16.09C15.3282 15.998 15.3058 15.998 15.3058 16.1623C15.3058 16.2519 15.373 16.4237 15.4551 16.5357C15.5597 16.6777 15.6717 16.7449 15.8286 16.7449C15.963 16.7449 16.1124 16.6777 16.1871 16.588C16.2767 16.4909 16.4112 16.4387 16.5979 16.4387C16.7547 16.4461 16.8742 16.4611 16.8742 16.4835C16.8742 16.4984 16.8294 16.6104 16.7622 16.7225C16.7025 16.8345 16.5381 16.9914 16.4112 17.0735C16.2468 17.1706 16.0527 17.2154 15.8136 17.2005C15.6195 17.193 15.358 17.1407 15.2311 17.081C15.1041 17.0138 14.9398 16.8345 14.8502 16.6478C14.7232 16.3938 14.7008 16.2295 14.7232 15.8486C14.7456 15.4901 14.7979 15.2959 14.9248 15.1092C15.0219 14.9673 15.2087 14.8104 15.3356 14.7581C15.4626 14.6984 15.6717 14.6536 15.7912 14.6536ZM15.3132 15.5424C15.3132 15.5872 15.5149 15.6245 15.8286 15.6245C16.3365 15.6245 16.3514 15.6171 16.2991 15.4602C16.2693 15.3706 16.1722 15.2511 16.09 15.1988C16.0078 15.1465 15.8809 15.0942 15.8136 15.0942C15.739 15.1017 15.597 15.1839 15.4925 15.281C15.3954 15.3855 15.3132 15.4976 15.3132 15.5424ZM6.90321 14.7656L7.12728 15.5125C7.25425 15.9308 7.38869 16.2743 7.42604 16.2893C7.47085 16.2967 7.60529 15.9532 7.95633 14.7656L8.50903 14.7283L8.7331 15.4752C8.86007 15.886 8.95717 16.2519 8.95717 16.2967C8.95717 16.3341 8.99451 16.3714 9.03186 16.3714C9.07667 16.3714 9.18124 16.125 9.2634 15.8262C9.35302 15.5274 9.45759 15.1615 9.50987 15.0046C9.59203 14.7432 9.61444 14.7208 9.87585 14.7208C10.0327 14.7208 10.1522 14.7507 10.1522 14.7806C10.1522 14.8104 9.98041 15.3631 9.36796 17.193H8.77045L8.53144 16.3864C8.38953 15.9457 8.25509 15.6096 8.23268 15.6469C8.20281 15.6768 8.07584 16.0353 7.7248 17.1557L7.08994 17.193L6.71649 16.0503C6.51483 15.4229 6.35051 14.8702 6.35051 14.8104C6.35798 14.7507 6.44014 14.7208 6.90321 14.7656Z" fill="white"/>
</g>
<defs>
<clipPath id="clip0_2050_8080">
<rect width="95.9758" height="17.6267" fill="white" transform="translate(0.666626 0.686661)"/>
</clipPath>
</defs>
</svg>
