<svg width="100" height="20" viewBox="0 0 100 20" fill="none" xmlns="http://www.w3.org/2000/svg">
<path fill-rule="evenodd" clip-rule="evenodd" d="M91.6398 16.6774C90.8547 16.6774 90.4622 16.1693 90.4622 15.1533V0.906006H88.9151V15.315C88.9151 16.2078 89.1306 16.9006 89.5616 17.3932C89.9927 17.8704 90.57 18.109 91.2935 18.109C91.9093 18.109 92.5712 17.855 93.2793 17.347L92.933 16.1463C92.4865 16.5003 92.0555 16.6774 91.6398 16.6774ZM44.8114 18.0165V5.91669H43.2643V8.64146C42.8024 7.7486 42.1482 7.05586 41.3015 6.56325C40.4702 6.07063 39.5004 5.82433 38.392 5.82433C37.2682 5.82433 36.2599 6.08603 35.367 6.60943C34.6626 7.02961 34.0822 7.57876 33.6258 8.25688C33.0278 9.03535 32.3747 10.0966 32.0183 11.2234L33.5118 11.2801L33.5119 11.2799L33.5293 11.2805C33.7841 10.7201 34.0637 10.2314 34.3516 9.80826C34.6364 9.39948 34.936 9.03556 35.2236 8.72932C35.3244 8.62503 35.4241 8.52801 35.5221 8.43799C35.7724 8.18901 36.0517 7.97204 36.36 7.78708C37.0527 7.37144 37.8378 7.16362 38.7153 7.16362C39.9622 7.16362 41.0013 7.57156 41.8326 8.38746C42.6639 9.18795 43.1411 10.2271 43.2643 11.5048V12.4746C43.1411 13.7523 42.6639 14.7914 41.8326 15.5919C41.0013 16.377 39.9622 16.7696 38.7153 16.7696C37.8378 16.7696 37.045 16.5695 36.3369 16.1692C35.6441 15.7536 35.0976 15.184 34.6974 14.4605C34.6693 14.4077 34.6423 14.3544 34.6162 14.3005L37.44 14.3817L37.4778 13.0649L32.6832 12.927L32.0248 12.908L32.0059 13.5664L31.8693 18.3142L33.1861 18.3521L33.2806 15.0695C33.2909 15.0897 33.3014 15.11 33.3119 15.1301C33.8045 16.0692 34.4973 16.8004 35.3901 17.3238C36.283 17.8472 37.299 18.1089 38.4382 18.1089C39.5312 18.1089 40.4933 17.8626 41.3246 17.37C42.1559 16.8774 42.8024 16.1846 43.2643 15.2917V18.0165H44.8114ZM30.4437 15.0407L30.4436 15.0406L30.4659 14.3802C29.569 15.524 28.5938 16.1688 28.192 16.3738C27.5765 16.6531 26.9033 16.7927 26.1722 16.7927C25.1408 16.7927 24.2402 16.5233 23.4705 15.9845C22.7008 15.4457 22.1543 14.7068 21.8311 13.7677L31.437 10.3502C31.2215 8.96474 30.6211 7.87175 29.6359 7.07125C28.6507 6.27076 27.4422 5.87051 26.0106 5.87051C24.8406 5.87051 23.7938 6.13221 22.8702 6.65561C21.9619 7.16362 21.2538 7.87945 20.7458 8.8031C20.2378 9.72675 19.9837 10.7736 19.9837 11.9435C19.9837 13.1289 20.2378 14.1911 20.7458 15.1301C21.2692 16.0538 21.9927 16.7773 22.9163 17.3007C23.84 17.8087 24.8945 18.0627 26.0798 18.0627C27.2148 18.0627 28.2363 17.812 29.1442 17.3105C29.4713 17.1391 29.9143 16.8716 30.3951 16.4793L30.398 16.3919L30.398 16.3919L30.4437 15.0407ZM26.0337 7.16362C24.679 7.16362 23.586 7.59466 22.7547 8.45673C21.9388 9.30341 21.5309 10.4503 21.5309 11.8973C21.5309 12.0513 21.5463 12.2822 21.577 12.5901L29.8437 9.5882C29.5358 8.7877 29.0509 8.18733 28.389 7.78708C27.727 7.37144 26.9419 7.16362 26.0337 7.16362ZM-0.000488281 5.91669H1.66208L5.37978 16.4694L9.05129 5.91669H10.6908L14.3854 16.4694L18.08 5.91669H19.6964L15.1705 18.0165H13.5541L9.85949 7.78708L6.16488 18.0165H4.54849L-0.000488281 5.91669ZM50.1888 8.73383C50.589 7.81017 51.1586 7.10974 51.8975 6.63252C52.6518 6.1399 53.5524 5.8859 54.5992 5.87051V7.32526C53.3215 7.30986 52.2901 7.68702 51.505 8.45673C50.7352 9.21105 50.2965 10.2425 50.1888 11.551V18.0165H48.6416V5.91669H50.1888V8.73383ZM56.9651 5.9399H55.3025L59.8515 18.0397H61.4679L65.1625 7.8103L68.8571 18.0397H70.4735L74.9993 5.9399H73.383L69.6883 16.4926L65.9938 5.9399H64.3543L60.6828 16.4926L56.9651 5.9399ZM81.4752 16.8159C83.0762 16.8159 84.4001 16.1463 85.4469 14.807L86.4167 15.6382C85.1082 17.27 83.4302 18.0859 81.3828 18.0859C80.1975 18.0859 79.143 17.8319 78.2193 17.3239C77.2957 16.8005 76.5721 16.077 76.0487 15.1533C75.5407 14.2143 75.2867 13.1521 75.2867 11.9667C75.2867 10.7968 75.5407 9.74997 76.0487 8.82631C76.5567 7.90266 77.2649 7.18683 78.1731 6.67883C79.0968 6.15542 80.1436 5.89372 81.3135 5.89372C82.7452 5.89372 83.9537 6.29397 84.9389 7.09447C85.9241 7.89497 86.5245 8.98795 86.74 10.3734L77.134 13.7909C77.4573 14.73 78.0038 15.4689 78.7735 16.0077C79.5432 16.5465 80.4438 16.8159 81.4752 16.8159ZM81.3366 7.18683C79.9819 7.18683 78.889 7.61787 78.0577 8.47995C77.2418 9.32663 76.8338 10.4735 76.8338 11.9205C76.8338 12.0745 76.8492 12.3054 76.88 12.6133L85.1467 9.61142C84.8388 8.81092 84.3539 8.21055 83.6919 7.8103C83.03 7.39466 82.2449 7.18683 81.3366 7.18683ZM96.3315 15.1533C96.3315 16.1693 96.7241 16.6774 97.5092 16.6774C97.9248 16.6774 98.3559 16.5003 98.8023 16.1463L99.1487 17.347C98.4405 17.855 97.7786 18.109 97.1628 18.109C96.4393 18.109 95.862 17.8704 95.431 17.3932C94.9999 16.9006 94.7844 16.2078 94.7844 15.315V0.906006H96.3315V15.1533Z" fill="white"/>
</svg>
