<svg width="108" height="32" viewBox="0 0 108 32" fill="none" xmlns="http://www.w3.org/2000/svg">
<g clipPath="url(#clip0_2050_8763)">
<path d="M4.49524 5.81372H24.8679L17.4696 13.1281H4.49524V5.81372Z" fill="url(#paint0_linear_2050_8763)"/>
<path d="M24.8676 5.81348L24.8676 26.1861L17.5532 26.1861L17.5532 13.0375L24.8676 5.81348Z" fill="url(#paint1_linear_2050_8763)"/>
<path d="M4.49524 5.81372L24.8678 26.1863H4.49524V5.81372Z" fill="#1E8C51"/>
</g>
<path d="M36.9072 10.8136V11.7003H33.9413V21.5H32.8711V11.7003H29.8899V10.8136H36.9072ZM44.2841 21.5L41.6393 17.0359H39.6671V21.5H38.597V10.8136H41.8075C42.9999 10.8136 43.9019 11.099 44.5135 11.6698C45.1352 12.2405 45.446 12.9896 45.446 13.9171C45.446 14.6917 45.2218 15.3542 44.7734 15.9046C44.3351 16.4447 43.6828 16.7964 42.8165 16.9594L45.5683 21.5H44.2841ZM39.6671 16.1645H41.8228C42.6585 16.1645 43.2853 15.9606 43.7032 15.5529C44.1313 15.1452 44.3453 14.6 44.3453 13.9171C44.3453 13.2139 44.1414 12.6737 43.7338 12.2966C43.3261 11.9093 42.684 11.7156 41.8075 11.7156H39.6671V16.1645ZM53.7614 18.9622H48.8998L47.9673 21.5H46.8359L50.7344 10.9512H51.9422L55.8253 21.5H54.694L53.7614 18.9622ZM53.4404 18.0755L51.3306 12.2966L49.2209 18.0755H53.4404ZM60.7075 10.8136C61.8898 10.8136 62.9039 11.0277 63.7498 11.4557C64.5958 11.8838 65.243 12.5004 65.6914 13.3056C66.1399 14.1108 66.3641 15.0688 66.3641 16.1797C66.3641 17.2805 66.1399 18.2334 65.6914 19.0386C65.243 19.8336 64.5958 20.4451 63.7498 20.8732C62.9039 21.2911 61.8898 21.5 60.7075 21.5H57.5429V10.8136H60.7075ZM60.7075 20.6133C62.1955 20.6133 63.3269 20.226 64.1015 19.4514C64.8862 18.6666 65.2786 17.5761 65.2786 16.1797C65.2786 14.7732 64.8862 13.6776 64.1015 12.8928C63.3269 12.0978 62.1955 11.7003 60.7075 11.7003H58.613V20.6133H60.7075ZM69.4073 11.685V15.6752H73.4586V16.5619H69.4073V20.6133H73.9172V21.5H68.3371V10.7983H73.9172V11.685H69.4073ZM82.08 10.8289V18.3201C82.08 19.3597 81.7793 20.1699 81.178 20.7509C80.5767 21.3216 79.7715 21.607 78.7625 21.607C77.7433 21.607 76.9177 21.3114 76.2858 20.7203C75.6641 20.1292 75.3533 19.3036 75.3533 18.2436H77.4936C77.5038 18.7023 77.6108 19.059 77.8146 19.3138C78.0287 19.5686 78.3344 19.696 78.7319 19.696C79.1192 19.696 79.4148 19.5737 79.6186 19.3291C79.8225 19.0845 79.9244 18.7481 79.9244 18.3201V10.8289H82.08ZM86.7171 10.8289V21.5H84.5768V10.8289H86.7171ZM97.9587 21.5H95.8184L90.9721 14.177V21.5H88.8317V10.8136H90.9721L95.8184 18.1519V10.8136H97.9587V21.5ZM102.214 10.8289V21.5H100.074V10.8289H102.214Z" fill="white"/>
<g clipPath="url(#clip1_2050_8763)">
<path d="M4.49524 5.81372H24.8679L17.4696 13.1281H4.49524V5.81372Z" fill="white"/>
<path d="M24.8676 5.81348L24.8676 26.1861L17.5532 26.1861L17.5532 13.0375L24.8676 5.81348Z" fill="white"/>
<path d="M4.49524 5.81372L24.8678 26.1863H4.49524V5.81372Z" fill="white"/>
</g>
<path d="M36.9072 10.8136V11.7003H33.9413V21.5H32.8711V11.7003H29.8899V10.8136H36.9072ZM44.2841 21.5L41.6393 17.0359H39.6671V21.5H38.597V10.8136H41.8075C42.9999 10.8136 43.9019 11.099 44.5135 11.6698C45.1352 12.2405 45.446 12.9896 45.446 13.9171C45.446 14.6917 45.2218 15.3542 44.7734 15.9046C44.3351 16.4447 43.6828 16.7964 42.8165 16.9594L45.5683 21.5H44.2841ZM39.6671 16.1645H41.8228C42.6585 16.1645 43.2853 15.9606 43.7032 15.5529C44.1313 15.1452 44.3453 14.6 44.3453 13.9171C44.3453 13.2139 44.1414 12.6737 43.7338 12.2966C43.3261 11.9093 42.684 11.7156 41.8075 11.7156H39.6671V16.1645ZM53.7614 18.9622H48.8998L47.9673 21.5H46.8359L50.7344 10.9512H51.9422L55.8253 21.5H54.694L53.7614 18.9622ZM53.4404 18.0755L51.3306 12.2966L49.2209 18.0755H53.4404ZM60.7075 10.8136C61.8898 10.8136 62.9039 11.0277 63.7498 11.4557C64.5958 11.8838 65.243 12.5004 65.6914 13.3056C66.1399 14.1108 66.3641 15.0688 66.3641 16.1797C66.3641 17.2805 66.1399 18.2334 65.6914 19.0386C65.243 19.8336 64.5958 20.4451 63.7498 20.8732C62.9039 21.2911 61.8898 21.5 60.7075 21.5H57.5429V10.8136H60.7075ZM60.7075 20.6133C62.1955 20.6133 63.3269 20.226 64.1015 19.4514C64.8862 18.6666 65.2786 17.5761 65.2786 16.1797C65.2786 14.7732 64.8862 13.6776 64.1015 12.8928C63.3269 12.0978 62.1955 11.7003 60.7075 11.7003H58.613V20.6133H60.7075ZM69.4073 11.685V15.6752H73.4586V16.5619H69.4073V20.6133H73.9172V21.5H68.3371V10.7983H73.9172V11.685H69.4073ZM82.08 10.8289V18.3201C82.08 19.3597 81.7793 20.1699 81.178 20.7509C80.5767 21.3216 79.7715 21.607 78.7625 21.607C77.7433 21.607 76.9177 21.3114 76.2858 20.7203C75.6641 20.1292 75.3533 19.3036 75.3533 18.2436H77.4936C77.5038 18.7023 77.6108 19.059 77.8146 19.3138C78.0287 19.5686 78.3344 19.696 78.7319 19.696C79.1192 19.696 79.4148 19.5737 79.6186 19.3291C79.8225 19.0845 79.9244 18.7481 79.9244 18.3201V10.8289H82.08ZM86.7171 10.8289V21.5H84.5768V10.8289H86.7171ZM97.9587 21.5H95.8184L90.9721 14.177V21.5H88.8317V10.8136H90.9721L95.8184 18.1519V10.8136H97.9587V21.5ZM102.214 10.8289V21.5H100.074V10.8289H102.214Z" fill="white"/>
<defs>
<linearGradient id="paint0_linear_2050_8763" x1="-4.60683" y1="9.81009" x2="30.5565" y2="9.47091" gradientUnits="userSpaceOnUse">
<stop stopColor="#18944A"/>
<stop offset="1" stopColor="#86D3BB"/>
</linearGradient>
<linearGradient id="paint1_linear_2050_8763" x1="21.2104" y1="25.5747" x2="21.2104" y2="14.2883" gradientUnits="userSpaceOnUse">
<stop stopColor="#1E975D"/>
<stop offset="1" stopColor="#86D3BB"/>
</linearGradient>
<clipPath id="clip0_2050_8763">
<rect x="4.49524" y="5.81372" width="20.3726" height="20.3726" rx="2.39036" fill="white"/>
</clipPath>
<clipPath id="clip1_2050_8763">
<rect x="4.49524" y="5.81372" width="20.3726" height="20.3726" rx="2.39036" fill="white"/>
</clipPath>
</defs>
</svg>
