<svg width="64" height="63" viewBox="0 0 64 63" fill="none" xmlns="http://www.w3.org/2000/svg">
<path d="M48.8165 18.2288C48.8165 27.425 41.3615 34.88 32.1653 34.88C22.9691 34.88 15.5142 27.425 15.5142 18.2288C15.5142 9.03262 22.9691 1.57764 32.1653 1.57764C41.3615 1.57764 48.8165 9.03262 48.8165 18.2288Z" stroke="black" stroke-width="2"/>
<path d="M62.0548 34.4093C62.0548 42.7931 55.2584 49.5895 46.8746 49.5895C38.4908 49.5895 31.6943 42.7931 31.6943 34.4093C31.6943 26.0254 38.4908 19.229 46.8746 19.229C55.2584 19.229 62.0548 26.0254 62.0548 34.4093Z" fill="white" stroke="black" stroke-width="2"/>
<path d="M45.8745 49.854C45.8745 56.2069 40.7244 61.3569 34.3716 61.3569C28.0187 61.3569 22.8687 56.2069 22.8687 49.854C22.8687 43.5011 28.0187 38.3511 34.3716 38.3511C40.7244 38.3511 45.8745 43.5011 45.8745 49.854Z" fill="white" stroke="black" stroke-width="2"/>
<path d="M2.50091 16.2869H29.469C30.4057 16.2869 31.1652 17.0463 31.1652 17.9831V44.9511C31.1652 45.8879 30.4057 46.6473 29.469 46.6473H2.50091C1.56411 46.6473 0.804688 45.8879 0.804688 44.9511V17.9831C0.804688 17.0463 1.56411 16.2869 2.50091 16.2869Z" fill="white" stroke="black" stroke-width="2"/>
<path d="M10.7677 27.272L10.7669 27.3004C10.7518 27.8978 10.8926 28.4887 11.1752 29.015C11.4805 29.5311 11.8986 29.9715 12.3983 30.3033C13.1622 30.8051 13.9742 31.2296 14.8223 31.5705L14.8297 31.5735L14.8371 31.5766C15.9812 32.0581 16.8683 32.4543 17.4859 32.7626C18.0929 33.0507 18.6476 33.438 19.1272 33.9088L19.131 33.9125C19.6422 34.4198 19.9287 35.1106 19.9268 35.8303C19.9439 36.8483 19.4025 37.7946 18.515 38.2954L18.501 38.3034L18.4867 38.3109C17.5173 38.8174 16.4286 39.0506 15.3371 38.9859C14.2633 38.9671 13.1976 38.7961 12.1718 38.4779C11.7039 38.347 11.2476 38.1804 10.807 37.98V39.1419C11.3859 39.3501 11.9831 39.5051 12.5911 39.6046L12.5967 39.6055C13.609 39.777 14.6343 39.8609 15.6611 39.8562L15.6711 39.8562L15.681 39.8563C16.7829 39.8732 17.8805 39.7138 18.9321 39.3842L18.9356 39.3831C19.7224 39.1396 20.4209 38.6718 20.9456 38.0373C21.4501 37.3621 21.7056 36.5329 21.6683 35.6904L21.6664 35.6484L21.6681 35.6064C21.6953 34.9237 21.5379 34.2464 21.2127 33.6458C20.8872 33.116 20.4422 32.6697 19.9132 32.3428C19.0764 31.8373 18.198 31.4042 17.2874 31.0484L17.2475 31.0327L17.209 31.0138C17.1531 30.9862 17.095 30.9628 17.0353 30.9439L16.9945 30.9311L16.9549 30.9147C15.9755 30.5102 15.2176 30.1767 14.6953 29.9172C14.148 29.6599 13.6524 29.3045 13.233 28.8687L13.2323 28.868C12.767 28.3836 12.5086 27.7369 12.5122 27.0651M10.7677 27.272L13.5122 27.0691M10.7677 27.272L10.7668 27.2437C10.7415 26.4395 11.0114 25.6541 11.5254 25.0354C12.1146 24.368 12.8745 23.8736 13.7236 23.6055L13.7236 23.6056L13.7352 23.6018C14.8014 23.2508 15.9181 23.0779 17.0405 23.09L17.0642 23.0902L17.0878 23.0894C18.3509 23.0432 19.6124 23.1842 20.8318 23.5067M10.7677 27.272L20.8318 23.5067M12.5122 27.0651C12.5122 27.0644 12.5122 27.0637 12.5122 27.063L13.5122 27.0691M12.5122 27.0651C12.5122 27.0658 12.5122 27.0665 12.5122 27.0672L13.5122 27.0691M12.5122 27.0651C12.5151 25.9965 13.1468 25.0305 14.1229 24.5988M13.5122 27.0691C13.5135 26.3898 13.918 25.7761 14.5419 25.507M14.1229 24.5988C14.1164 24.6019 14.1099 24.6051 14.1034 24.6083L14.5419 25.507M14.1229 24.5988C15.0676 24.1419 16.1092 23.9215 17.158 23.9569M14.1229 24.5988C14.1305 24.5954 14.1382 24.5921 14.1458 24.5888L14.5419 25.507M14.5419 25.507L17.158 23.9569M17.158 23.9569C17.1517 23.9569 17.1454 23.9569 17.1391 23.9569L17.141 24.9569L17.1777 23.9575C17.1711 23.9573 17.1646 23.9571 17.158 23.9569ZM17.158 23.9569C18.0829 23.9566 19.0044 24.0676 19.9028 24.2875M17.158 23.9569L19.6695 25.2599M19.9028 24.2875C19.9012 24.2871 19.8995 24.2867 19.8979 24.2863L19.6695 25.2599M19.9028 24.2875C19.9044 24.2879 19.9061 24.2883 19.9077 24.2887L19.6695 25.2599M19.9028 24.2875C20.2179 24.3616 20.5281 24.4536 20.8318 24.5629M19.6695 25.2599C20.0672 25.3532 20.4559 25.4788 20.8318 25.6352V24.5629M20.8318 24.5629V23.5067M20.8318 24.5629C21.174 24.6861 21.508 24.8313 21.8318 24.9976L20.8318 23.5067" stroke="black" stroke-width="2"/>
</svg>
