<svg width="64" height="63" viewBox="0 0 64 63" fill="none" xmlns="http://www.w3.org/2000/svg">
<path d="M36.4033 17.4271C37.4631 15.6959 39.9778 15.6959 41.0376 17.4271L47.6195 28.1789C47.8438 28.5453 48.1518 28.8533 48.5182 29.0776L59.27 35.6595C61.0012 36.7193 61.0012 39.234 59.27 40.2938L48.5182 46.8757C48.1518 47.1 47.8438 47.408 47.6195 47.7744L41.0376 58.5262C39.9778 60.2574 37.4631 60.2574 36.4033 58.5262L29.8214 47.7744C29.5971 47.408 29.2891 47.1 28.9227 46.8757L18.1709 40.2938C16.4397 39.234 16.4397 36.7193 18.1709 35.6595L28.9227 29.0776C29.2891 28.8533 29.5971 28.5453 29.8214 28.1789L36.4033 17.4271Z" stroke="black" strokeWidth="2"/>
<path d="M11.4367 3.47395C12.4964 1.74281 15.0112 1.74281 16.0709 3.47395L18.4311 7.32948C18.6554 7.69587 18.9634 8.00385 19.3298 8.22814L23.1853 10.5884C24.9165 11.6481 24.9165 14.1629 23.1853 15.2226L19.3298 17.5828C18.9634 17.8071 18.6554 18.1151 18.4311 18.4815L16.0709 22.337C15.0112 24.0682 12.4964 24.0682 11.4367 22.337L9.07644 18.4815C8.85215 18.1151 8.54417 17.8071 8.17778 17.5828L4.32225 15.2226C2.5911 14.1629 2.5911 11.6481 4.32225 10.5884L8.17778 8.22814C8.54417 8.00385 8.85215 7.69587 9.07644 7.32948L11.4367 3.47395Z" stroke="black" strokeWidth="2"/>
</svg>
