<svg width="63" height="44" viewBox="0 0 63 44" fill="none" xmlns="http://www.w3.org/2000/svg">
<mask id="mask0_3027_1641" style="mask-type:luminance" maskUnits="userSpaceOnUse" x="0" y="0" width="63" height="44">
<path d="M0.298584 0.11499H62.8387V43.8011H0.298584V0.11499Z" fill="white"/>
</mask>
<g mask="url(#mask0_3027_1641)">
<mask id="path-2-inside-1_3027_1641" fill="white">
<path fill-rule="evenodd" clip-rule="evenodd" d="M26.2664 4.89747C28.2852 2.79594 31.0949 1.49456 34.1989 1.49456C38.3375 1.49456 41.9244 3.79382 43.8558 7.21973C45.5702 6.45333 47.4271 6.05765 49.3051 6.0586C56.7547 6.0586 62.8018 12.1517 62.8018 19.6703C62.8018 27.1889 56.7547 33.2819 49.3051 33.2819C48.3945 33.2819 47.507 33.1904 46.6379 33.0175C44.9479 36.0296 41.7175 38.0759 38.0386 38.0759C36.5409 38.0789 35.0623 37.7391 33.716 37.0826C32.0031 41.1063 28.0138 43.9344 23.3693 43.9344C18.5179 43.9344 14.4022 40.8764 12.8157 36.5768C12.1096 36.7258 11.3898 36.8007 10.6682 36.8003C4.89701 36.8003 0.229492 32.0638 0.229492 26.2466C0.229492 22.3379 2.33102 18.935 5.44883 17.0955C4.78738 15.5718 4.44692 13.9282 4.44865 12.2671C4.44865 5.55322 9.89791 0.126953 16.6118 0.126953C20.5435 0.126953 24.0614 2.00086 26.2687 4.90943"/>
</mask>
<path d="M43.8558 7.21973L42.1136 8.20192L43.0085 9.78927L44.672 9.0456L43.8558 7.21973ZM49.3051 6.0586L49.304 8.0586H49.3051V6.0586ZM46.6379 33.0175L47.0281 31.056L45.6041 30.7727L44.8937 32.0389L46.6379 33.0175ZM38.0386 38.0759V36.0759L38.0347 36.0759L38.0386 38.0759ZM33.716 37.0826L34.5926 35.285L32.7004 34.3623L31.8758 36.2992L33.716 37.0826ZM12.8157 36.5768L14.692 35.8844L14.0937 34.263L12.4027 34.6199L12.8157 36.5768ZM10.6682 36.8003L10.6694 34.8003H10.6682V36.8003ZM5.44883 17.0955L6.46509 18.8181L7.9871 17.9202L7.28343 16.2992L5.44883 17.0955ZM4.44865 12.2671L6.44865 12.2692V12.2671H4.44865ZM27.7087 6.283C29.3707 4.55284 31.6679 3.49456 34.1989 3.49456V-0.505443C30.5218 -0.505443 27.1996 1.03905 24.8241 3.51195L27.7087 6.283ZM34.1989 3.49456C37.5669 3.49456 40.5121 5.36114 42.1136 8.20192L45.598 6.23755C43.3368 2.22651 39.1082 -0.505443 34.1989 -0.505443V3.49456ZM44.672 9.0456C46.1293 8.39413 47.7078 8.05779 49.304 8.0586L49.3061 4.0586C47.1465 4.05751 45.0111 4.51253 43.0396 5.39387L44.672 9.0456ZM49.3051 8.0586C55.6347 8.0586 60.8018 13.2407 60.8018 19.6703H64.8018C64.8018 11.0626 57.8747 4.0586 49.3051 4.0586V8.0586ZM60.8018 19.6703C60.8018 26.0998 55.6347 31.2819 49.3051 31.2819V35.2819C57.8747 35.2819 64.8018 28.2779 64.8018 19.6703H60.8018ZM49.3051 31.2819C48.5298 31.2819 47.773 31.2041 47.0281 31.056L46.2477 34.9791C47.241 35.1767 48.2593 35.2819 49.3051 35.2819V31.2819ZM44.8937 32.0389C43.5407 34.4503 40.9602 36.0759 38.0386 36.0759V40.0759C42.4748 40.0759 46.3552 37.6088 48.3821 33.9961L44.8937 32.0389ZM38.0347 36.0759C36.842 36.0783 35.6646 35.8077 34.5926 35.285L32.8394 38.8803C34.4599 39.6705 36.2397 40.0795 38.0426 40.0759L38.0347 36.0759ZM31.8758 36.2992C30.4647 39.6141 27.1811 41.9344 23.3693 41.9344V45.9344C28.8466 45.9344 33.5415 42.5986 35.5562 37.866L31.8758 36.2992ZM23.3693 41.9344C19.3838 41.9344 15.9985 39.4252 14.692 35.8844L10.9393 37.2691C12.8058 42.3276 17.652 45.9344 23.3693 45.9344V41.9344ZM12.4027 34.6199C11.8328 34.7402 11.2518 34.8006 10.6694 34.8003L10.667 38.8003C11.5278 38.8008 12.3864 38.7114 13.2287 38.5337L12.4027 34.6199ZM10.6682 34.8003C6.02433 34.8003 2.22949 30.9821 2.22949 26.2466H-1.77051C-1.77051 33.1455 3.76968 38.8003 10.6682 38.8003V34.8003ZM2.22949 26.2466C2.22949 23.0732 3.93279 20.3121 6.46509 18.8181L4.43257 15.373C0.729254 17.5578 -1.77051 21.6025 -1.77051 26.2466H2.22949ZM7.28343 16.2992C6.73137 15.0274 6.4472 13.6556 6.44865 12.2692L2.44865 12.265C2.44663 14.2008 2.8434 16.1162 3.61423 17.8919L7.28343 16.2992ZM6.44865 12.2671C6.44865 6.66272 10.9975 2.12695 16.6118 2.12695V-1.87305C8.79827 -1.87305 2.44865 4.44373 2.44865 12.2671H6.44865ZM16.6118 2.12695C19.8973 2.12695 22.8337 3.69144 24.6755 6.11848L27.8619 3.70038C25.2891 0.310272 21.1898 -1.87305 16.6118 -1.87305V2.12695Z" fill="black" mask="url(#path-2-inside-1_3027_1641)"/>
<path d="M26.0388 7.62187L24.7075 6.10722L26.3144 4.8905L27.7376 6.29073L26.0388 7.62187Z" fill="black"/>
</g>
<mask id="path-5-inside-2_3027_1641" fill="white">
<path fill-rule="evenodd" clip-rule="evenodd" d="M9.34381 22.8317C9.30449 22.9342 9.35784 22.9556 9.37048 22.9738C9.48797 23.0588 9.60731 23.1205 9.72687 23.1897C10.3661 23.5277 10.9685 23.6265 11.5985 23.6265C12.8815 23.6265 13.6793 22.9436 13.6793 21.8446V21.823C13.6793 20.8067 12.778 20.4365 11.9365 20.1721L11.8263 20.1365C11.1894 19.93 10.6399 19.7502 10.6399 19.3317V19.3103C10.6399 18.9517 10.9618 18.6872 11.4584 18.6872C12.0103 18.6872 12.6679 18.871 13.0886 19.1034C13.0886 19.1034 13.2132 19.1839 13.2585 19.0636C13.2831 18.9986 13.4977 18.4244 13.5207 18.3601C13.545 18.2927 13.5023 18.2419 13.4583 18.2157C12.9755 17.9214 12.3087 17.7213 11.6189 17.7213L11.4909 17.7218C10.3159 17.7218 9.4951 18.4323 9.4951 19.4485V19.4704C9.4951 20.5418 10.401 20.8913 11.2471 21.1327L11.3833 21.1751C11.9995 21.3645 12.5329 21.5291 12.5329 21.9614V21.983C12.5329 22.3808 12.1857 22.6774 11.6293 22.6774C11.4129 22.6774 10.7234 22.6737 9.97611 22.2014C9.88575 22.1488 9.83424 22.1109 9.76458 22.0683C9.72779 22.046 9.63582 22.0058 9.59581 22.1263L9.34289 22.8298M28.1279 22.8298C28.0886 22.9324 28.1419 22.9538 28.155 22.9719C28.2721 23.057 28.3919 23.1186 28.5114 23.1878C29.1506 23.5258 29.753 23.6247 30.383 23.6247C31.666 23.6247 32.4639 22.9418 32.4639 21.8428V21.8211C32.4639 20.8049 31.5648 20.4347 30.721 20.1703L30.6109 20.1346C29.974 19.9282 29.4245 19.7484 29.4245 19.3299V19.3085C29.4245 18.9498 29.7464 18.6854 30.243 18.6854C30.7948 18.6854 31.4501 18.8691 31.8732 19.1016C31.8732 19.1016 31.9978 19.182 32.0433 19.0618C32.0677 18.9967 32.2825 18.4226 32.3031 18.3582C32.3277 18.2909 32.2847 18.24 32.2411 18.2138C31.7582 17.9195 31.0914 17.7195 30.4016 17.7195L30.2733 17.7199C29.0984 17.7199 28.2776 18.4304 28.2776 19.4467V19.4685C28.2776 20.54 29.1835 20.8895 30.0296 21.1309L30.1655 21.1732C30.784 21.3627 31.3151 21.5273 31.3151 21.9596V21.9812C31.3151 22.3789 30.968 22.6756 30.4115 22.6756C30.1947 22.6756 29.5033 22.6719 28.7584 22.1996C28.668 22.147 28.6151 22.1106 28.5466 22.0665C28.5234 22.0518 28.4151 22.0095 28.3781 22.1244L28.1251 22.828M40.9551 20.6759C40.9551 21.2967 40.8392 21.7864 40.6125 22.1336C40.3862 22.4762 40.0445 22.6441 39.5686 22.6441C39.0927 22.6441 38.7524 22.4776 38.5293 22.1359C38.3047 21.791 38.1913 21.299 38.1913 20.6782C38.1913 20.0574 38.3054 19.5699 38.5293 19.2273C38.7519 18.8871 39.0904 18.7238 39.5686 18.7238C40.0468 18.7238 40.3871 18.8887 40.6125 19.2273C40.8406 19.5699 40.9551 20.0574 40.9551 20.6782M42.0265 19.5262C41.921 19.1699 41.7575 18.8572 41.5391 18.595C41.3204 18.3329 41.0447 18.1214 40.7159 17.9696C40.3894 17.8167 40.0032 17.7397 39.5663 17.7397C39.1294 17.7397 38.7455 17.8172 38.4167 17.9696C38.0902 18.1223 37.812 18.3329 37.5935 18.595C37.3756 18.8572 37.2118 19.1699 37.1061 19.5262C37.0015 19.8803 36.9484 20.2666 36.9484 20.6782C36.9484 21.0897 37.0015 21.476 37.1061 21.8301C37.2112 22.1865 37.3751 22.4992 37.5935 22.7613C37.8122 23.0234 38.0902 23.2327 38.4167 23.3821C38.7455 23.5311 39.1317 23.607 39.5663 23.607C40.0009 23.607 40.3871 23.5311 40.7136 23.3821C41.0401 23.2331 41.3183 23.0234 41.5368 22.7613C41.755 22.4992 41.9184 22.1865 42.0242 21.8301C42.1286 21.476 42.1817 21.0897 42.1817 20.6782C42.1817 20.2689 42.1286 19.8803 42.0242 19.5262M50.8304 22.4693C50.7952 22.3652 50.6936 22.4045 50.6936 22.4045C50.5379 22.464 50.3717 22.5192 50.1947 22.5468C50.0162 22.5748 49.8176 22.5889 49.6083 22.5889C49.091 22.5889 48.6771 22.4346 48.3828 22.129C48.0862 21.8232 47.9207 21.3312 47.923 20.6644C47.9246 20.0574 48.0713 19.6021 48.3346 19.2526C48.5944 18.9077 48.9944 18.7284 49.5233 18.7284C49.9647 18.7284 50.3027 18.7797 50.6568 18.8905C50.6568 18.8905 50.7407 18.9271 50.781 18.8165C50.875 18.5566 50.9445 18.3704 51.0454 18.0853C51.0739 18.0037 51.004 17.9692 50.9785 17.9593C50.8396 17.905 50.5117 17.8161 50.2634 17.7786C50.0312 17.7432 49.7622 17.7248 49.4587 17.7248C49.008 17.7248 48.6079 17.8018 48.2653 17.9545C47.9228 18.1069 47.633 18.3178 47.4031 18.5799C47.1732 18.842 46.9985 19.1547 46.8812 19.5111C46.7651 19.8652 46.7064 20.2537 46.7064 20.6653C46.7064 21.5528 46.9456 22.2725 47.4192 22.799C47.8929 23.3279 48.6056 23.5946 49.5345 23.5946C50.0841 23.5946 50.6474 23.4835 51.0521 23.3233C51.0521 23.3233 51.1293 23.286 51.0957 23.1959L50.8313 22.4693M52.7052 20.0781C52.7565 19.7332 52.851 19.4458 52.9995 19.2227C53.2219 18.8825 53.5606 18.6962 54.0365 18.6962C54.5125 18.6962 54.8275 18.8834 55.0528 19.2227C55.2022 19.4469 55.2675 19.7447 55.2919 20.0781L52.6937 20.0776L52.7052 20.0781ZM56.3151 19.3193C56.2238 18.9767 55.9978 18.6295 55.8506 18.4709C55.6161 18.2203 55.3885 18.0432 55.1609 17.9466C54.8322 17.8069 54.4787 17.7352 54.1216 17.7358C53.6686 17.7358 53.2571 17.8124 52.9237 17.968C52.5903 18.1248 52.3098 18.3382 52.089 18.6049C51.8685 18.8716 51.7028 19.1866 51.597 19.5476C51.4912 19.904 51.4379 20.2949 51.4379 20.7042C51.4379 21.1226 51.4933 21.5112 51.6023 21.863C51.7124 22.2171 51.8897 22.5275 52.1288 22.785C52.3679 23.0448 52.6737 23.2471 53.0416 23.3897C53.4072 23.5311 53.851 23.6045 54.3591 23.6028C55.4076 23.5994 55.9594 23.366 56.1847 23.2396C56.225 23.217 56.2629 23.1782 56.2155 23.0662L55.9787 22.4017C55.9424 22.3026 55.8421 22.3385 55.8421 22.3385C55.5823 22.4355 55.2144 22.6098 54.3522 22.6075C53.7889 22.6066 53.3727 22.4403 53.1106 22.1798C52.8439 21.9131 52.7105 21.5245 52.6898 20.9727L56.3227 20.9755C56.3227 20.9755 56.4183 20.9746 56.4282 20.8812C56.4321 20.8426 56.5526 20.1362 56.3199 19.32L56.3151 19.3193ZM23.6655 20.0781C23.7168 19.7332 23.8115 19.4458 23.9598 19.2227C24.1824 18.8825 24.5208 18.6962 24.9968 18.6962C25.4727 18.6962 25.7877 18.8834 26.013 19.2227C26.1623 19.4469 26.2276 19.7447 26.2522 20.0781L23.654 20.0776L23.6655 20.0781ZM27.2753 19.3193C27.1843 18.9767 26.958 18.6295 26.8109 18.4709C26.5764 18.2203 26.3487 18.0432 26.1211 17.9466C25.7925 17.8069 25.4389 17.7352 25.0818 17.7358C24.6289 17.7358 24.2173 17.8124 23.8839 17.968C23.5505 18.1248 23.27 18.3382 23.0493 18.6049C22.8292 18.8716 22.663 19.1866 22.5572 19.5476C22.4517 19.904 22.3986 20.2949 22.3986 20.7042C22.3986 21.1226 22.4535 21.5112 22.5632 21.863C22.6731 22.2171 22.8506 22.5275 23.0875 22.785C23.3266 23.0448 23.6324 23.2471 24.0003 23.3897C24.3658 23.5311 24.8073 23.6045 25.3177 23.6028C26.3662 23.5994 26.918 23.366 27.1434 23.2396C27.1834 23.217 27.2215 23.1782 27.1739 23.0662L26.9371 22.4017C26.9006 22.3026 26.8003 22.3385 26.8003 22.3385C26.5405 22.4355 26.1726 22.6098 25.3104 22.6075C24.7494 22.6066 24.3309 22.4403 24.0688 22.1798C23.8021 21.9131 23.6687 21.5245 23.648 20.9727L27.2809 20.9755C27.2809 20.9755 27.3765 20.9746 27.3864 20.8812C27.3903 20.8426 27.5108 20.1362 27.2779 19.32L27.2753 19.3193ZM15.825 22.4463C15.6827 22.3327 15.6629 22.3049 15.6158 22.2311C15.5438 22.1201 15.507 21.9621 15.507 21.7598C15.507 21.4425 15.6128 21.2125 15.8312 21.0585C15.8289 21.0589 16.1439 20.7872 16.8843 20.7964C17.2138 20.8023 17.5426 20.8303 17.8683 20.8803V22.5289H17.8688C17.8688 22.5289 17.409 22.628 16.8893 22.6592C16.1513 22.7036 15.8248 22.4468 15.8271 22.4475L15.825 22.4463ZM17.2689 19.8941C17.1218 19.8833 16.9309 19.878 16.7033 19.878C16.3929 19.878 16.0917 19.9167 15.8112 19.9925C15.5284 20.0689 15.2732 20.1871 15.0547 20.3443C14.8357 20.5006 14.6555 20.7051 14.5282 20.9421C14.3997 21.1813 14.3341 21.4618 14.3341 21.7791C14.3341 22.101 14.39 22.3792 14.5004 22.6068C14.6085 22.8326 14.7713 23.0278 14.974 23.1747C15.1757 23.3214 15.4247 23.4299 15.7121 23.4943C15.9972 23.5594 16.3191 23.5923 16.6732 23.5923C17.0457 23.5923 17.4158 23.561 17.7745 23.5005C18.08 23.4478 18.3844 23.3887 18.6873 23.323C18.8083 23.2952 18.9426 23.2586 18.9426 23.2586C19.0322 23.2359 19.0253 23.14 19.0253 23.14L19.0233 19.8291C19.0233 19.1025 18.8292 18.5622 18.4461 18.2288C18.0645 17.8954 17.5057 17.7275 16.7815 17.7275C16.5102 17.7275 16.071 17.7643 15.8089 17.817C15.8089 17.817 15.0179 17.9706 14.6914 18.2262C14.6914 18.2262 14.6197 18.2704 14.6588 18.3704L14.9163 19.0602C14.9483 19.1496 15.0354 19.119 15.0354 19.119C15.0354 19.119 15.0628 19.1082 15.095 19.0892C15.7916 18.7098 16.6746 18.7213 16.6746 18.7213C17.0654 18.7213 17.3689 18.8006 17.5713 18.9558C17.7692 19.1078 17.8702 19.3375 17.8702 19.8203V19.9737C17.5598 19.9286 17.2724 19.9026 17.2724 19.9026L17.2689 19.8941ZM46.4696 18.0248C46.4748 18.0127 46.4776 17.9996 46.4777 17.9864C46.4777 17.9732 46.4752 17.9602 46.4701 17.948C46.465 17.9358 46.4575 17.9247 46.4481 17.9155C46.4386 17.9063 46.4274 17.899 46.4151 17.8942C46.3533 17.8708 46.0449 17.8057 45.8081 17.791C45.3529 17.7625 45.0999 17.8393 44.8723 17.9414C44.6475 18.0428 44.3987 18.2058 44.2607 18.3943L44.2603 17.9529C44.2603 17.8922 44.2173 17.8432 44.1561 17.8432H43.2272C43.167 17.8432 43.1233 17.8922 43.1233 17.9529V23.3561C43.1233 23.3853 43.135 23.4133 43.1556 23.4339C43.1762 23.4546 43.2042 23.4662 43.2334 23.4663H44.1853C44.2145 23.4662 44.2424 23.4546 44.263 23.4339C44.2836 23.4133 44.2952 23.3853 44.2952 23.3561V20.643C44.2952 20.2797 44.3352 19.9187 44.415 19.6911C44.4936 19.466 44.6005 19.2864 44.7323 19.1577C44.858 19.0333 45.0118 18.941 45.1806 18.8887C45.3391 18.8432 45.5032 18.8201 45.6681 18.8201C45.8578 18.8201 46.0659 18.8689 46.0659 18.8689C46.1358 18.8767 46.1746 18.8339 46.1983 18.7709C46.2606 18.6052 46.4374 18.1087 46.4719 18.0099"/>
</mask>
<path d="M9.37048 22.9738L8.54979 23.5451L8.64667 23.6843L8.78401 23.7837L9.37048 22.9738ZM9.72687 23.1897L9.2259 24.0551L9.24248 24.0647L9.25942 24.0737L9.72687 23.1897ZM11.9365 20.1721L11.6286 21.1236L11.6367 21.1261L11.9365 20.1721ZM11.8263 20.1365L11.5179 21.0877L11.5185 21.0879L11.8263 20.1365ZM13.0886 19.1034L13.6311 18.2633L13.6023 18.2447L13.5722 18.2281L13.0886 19.1034ZM13.2585 19.0636L12.3232 18.71L12.3227 18.7111L13.2585 19.0636ZM13.5207 18.3601L12.5803 18.0199L12.5789 18.0237L13.5207 18.3601ZM13.4583 18.2157L12.9379 19.0696L12.9458 19.0743L13.4583 18.2157ZM11.6189 17.7213V16.7213L11.6153 16.7213L11.6189 17.7213ZM11.4909 17.7218V18.7218L11.4945 18.7218L11.4909 17.7218ZM11.2471 21.1327L11.5439 20.1778L11.5328 20.1743L11.5215 20.1711L11.2471 21.1327ZM11.3833 21.1751L11.0865 22.13L11.0894 22.1309L11.3833 21.1751ZM9.97611 22.2014L10.5104 21.3561L10.4951 21.3465L10.4796 21.3374L9.97611 22.2014ZM9.76458 22.0683L10.2857 21.2148L10.283 21.2132L9.76458 22.0683ZM9.59581 22.1263L10.5369 22.4645L10.541 22.453L10.5449 22.4414L9.59581 22.1263ZM28.155 22.9719L27.3441 23.557L27.4377 23.6868L27.5671 23.7808L28.155 22.9719ZM28.5114 23.1878L28.0105 24.0533L28.027 24.0629L28.044 24.0718L28.5114 23.1878ZM30.721 20.1703L30.4131 21.1217L30.422 21.1245L30.721 20.1703ZM30.6109 20.1346L30.3025 21.0859L30.303 21.0861L30.6109 20.1346ZM31.8732 19.1016L32.4157 18.2615L32.3858 18.2422L32.3547 18.2252L31.8732 19.1016ZM32.0433 19.0618L32.9786 19.4159L32.9798 19.4126L32.0433 19.0618ZM32.3031 18.3582L31.3638 18.0152L31.3571 18.0336L31.3511 18.0522L32.3031 18.3582ZM32.2411 18.2138L31.7206 19.0677L31.7266 19.0713L32.2411 18.2138ZM30.4016 17.7195V16.7195L30.3981 16.7195L30.4016 17.7195ZM30.2733 17.7199V18.7199L30.2769 18.7199L30.2733 17.7199ZM30.0296 21.1309L30.3269 20.1761L30.3155 20.1726L30.304 20.1693L30.0296 21.1309ZM30.1655 21.1732L29.8682 22.128L29.8726 22.1294L30.1655 21.1732ZM28.7584 22.1996L29.2938 21.355L29.278 21.345L29.2618 21.3356L28.7584 22.1996ZM28.5466 22.0665L29.0882 21.2258L29.0819 21.2218L28.5466 22.0665ZM28.3781 22.1244L29.3191 22.4627L29.3248 22.4469L29.3299 22.4309L28.3781 22.1244ZM40.6125 22.1336L41.4469 22.6847L41.4498 22.6804L40.6125 22.1336ZM38.5293 22.1359L37.6914 22.6817L37.6919 22.6825L38.5293 22.1359ZM38.5293 19.2273L37.6924 18.68L37.6923 18.6802L38.5293 19.2273ZM40.6125 19.2273L39.7799 19.7813L39.7801 19.7815L40.6125 19.2273ZM41.5391 18.595L42.3073 17.9549L42.307 17.9545L41.5391 18.595ZM40.7159 17.9696L40.2918 18.8753L40.2969 18.8776L40.7159 17.9696ZM38.4167 17.9696L37.996 17.0624L37.9931 17.0638L38.4167 17.9696ZM37.5935 18.595L36.8253 17.9549L36.8246 17.9557L37.5935 18.595ZM37.1061 19.5262L36.1474 19.2417L36.1471 19.2429L37.1061 19.5262ZM37.1061 21.8301L38.0653 21.5473L38.0651 21.5468L37.1061 21.8301ZM37.5935 22.7613L36.8253 23.4015L36.8256 23.4019L37.5935 22.7613ZM38.4167 23.3821L38.0004 24.2914L38.0039 24.293L38.4167 23.3821ZM41.5368 22.7613L42.305 23.4015L42.3053 23.4011L41.5368 22.7613ZM42.0242 21.8301L42.9829 22.1146L42.9834 22.1129L42.0242 21.8301ZM50.6936 22.4045L51.0509 23.3385L51.0544 23.3371L50.6936 22.4045ZM50.1947 22.5468L50.0407 21.5587L50.0394 21.5589L50.1947 22.5468ZM48.3828 22.129L49.1031 21.4353L49.1007 21.4328L48.3828 22.129ZM47.923 20.6644L48.923 20.6678L48.923 20.667L47.923 20.6644ZM48.3346 19.2526L47.5358 18.6509L47.5358 18.651L48.3346 19.2526ZM50.6568 18.8905L51.0562 17.9737L51.0069 17.9522L50.9555 17.9362L50.6568 18.8905ZM50.781 18.8165L51.7207 19.1584L51.7213 19.1568L50.781 18.8165ZM51.0454 18.0853L51.9881 18.419L51.9895 18.4151L51.0454 18.0853ZM50.9785 17.9593L50.6145 18.8907L50.6173 18.8918L50.9785 17.9593ZM50.2634 17.7786L50.1127 18.7671L50.1142 18.7674L50.2634 17.7786ZM48.2653 17.9545L48.6719 18.8681L48.6724 18.8679L48.2653 17.9545ZM46.8812 19.5111L45.9313 19.1985L45.931 19.1995L46.8812 19.5111ZM47.4192 22.799L48.1641 22.1318L48.1627 22.1302L47.4192 22.799ZM51.0521 23.3233L51.4203 24.253L51.4538 24.2397L51.4864 24.224L51.0521 23.3233ZM51.0957 23.1959L50.156 23.5379L50.1586 23.5449L51.0957 23.1959ZM52.7052 20.0781L52.6653 21.0773L53.5623 21.1131L53.6944 20.2251L52.7052 20.0781ZM52.9995 19.2227L53.8319 19.7771L53.8367 19.7697L52.9995 19.2227ZM55.0528 19.2227L54.2197 19.7759L54.2207 19.7774L55.0528 19.2227ZM55.2919 20.0781L55.2917 21.0781L56.3677 21.0783L56.2892 20.0052L55.2919 20.0781ZM52.6937 20.0776L52.6939 19.0776L52.6538 21.0768L52.6937 20.0776ZM56.3151 19.3193L55.3488 19.5768L55.5191 20.2158L56.1737 20.3093L56.3151 19.3193ZM55.8506 18.4709L56.5838 17.7908L56.5808 17.7876L55.8506 18.4709ZM55.1609 17.9466L54.7695 18.8669L54.7703 18.8672L55.1609 17.9466ZM54.1216 17.7358V18.7358L54.1233 18.7358L54.1216 17.7358ZM52.9237 17.968L52.5006 17.0619L52.498 17.0631L52.9237 17.968ZM52.089 18.6049L51.3186 17.9674L51.3183 17.9678L52.089 18.6049ZM51.597 19.5476L52.5557 19.8321L52.5566 19.8288L51.597 19.5476ZM51.6023 21.863L50.6471 22.1589L50.6474 22.16L51.6023 21.863ZM52.1288 22.785L52.8646 22.1078L52.8616 22.1045L52.1288 22.785ZM53.0416 23.3897L52.6803 24.3221L52.6809 24.3224L53.0416 23.3897ZM54.3591 23.6028L54.3623 24.6028L54.3624 24.6028L54.3591 23.6028ZM56.1847 23.2396L55.6961 22.3671L55.6953 22.3675L56.1847 23.2396ZM56.2155 23.0662L55.2736 23.4019L55.2833 23.4291L55.2945 23.4558L56.2155 23.0662ZM55.9787 22.4017L56.9207 22.066L56.9176 22.0575L55.9787 22.4017ZM55.8421 22.3385L55.5052 21.3968L55.4923 21.4017L55.8421 22.3385ZM54.3522 22.6075L54.3549 21.6075L54.3538 21.6075L54.3522 22.6075ZM53.1106 22.1798L52.4035 22.8869L52.4057 22.8891L53.1106 22.1798ZM52.6898 20.9727L52.6906 19.9727L51.6516 19.9719L51.6905 21.0102L52.6898 20.9727ZM56.3227 20.9755L56.3219 21.9755L56.3323 21.9754L56.3227 20.9755ZM56.4282 20.8812L57.4227 20.9865L57.4231 20.9819L56.4282 20.8812ZM56.3199 19.32L57.2816 19.0459L57.1037 18.4218L56.4613 18.33L56.3199 19.32ZM23.6655 20.0781L23.6255 21.0773L24.5226 21.1131L24.6546 20.2251L23.6655 20.0781ZM23.9598 19.2227L24.7925 19.7765L24.7967 19.7701L23.9598 19.2227ZM26.013 19.2227L25.1799 19.7759L25.1806 19.7769L26.013 19.2227ZM26.2522 20.0781L26.252 21.0781L27.3287 21.0783L27.2495 20.0045L26.2522 20.0781ZM23.654 20.0776L23.6542 19.0776L23.614 21.0768L23.654 20.0776ZM27.2753 19.3193L26.3089 19.5762L26.4568 20.1327L27.0124 20.2841L27.2753 19.3193ZM26.8109 18.4709L27.5441 17.7908L27.541 17.7876L26.8109 18.4709ZM26.1211 17.9466L25.7298 18.8669L25.7306 18.8672L26.1211 17.9466ZM25.0818 17.7358V18.7358L25.0836 18.7358L25.0818 17.7358ZM23.8839 17.968L23.4609 17.0619L23.4583 17.0631L23.8839 17.968ZM23.0493 18.6049L22.2789 17.9674L22.2779 17.9685L23.0493 18.6049ZM22.5572 19.5476L23.5161 19.8316L23.5169 19.8288L22.5572 19.5476ZM22.5632 21.863L23.5183 21.5666L23.5179 21.5654L22.5632 21.863ZM23.0875 22.785L22.3514 23.4619L22.3517 23.4622L23.0875 22.785ZM24.0003 23.3897L23.6389 24.3221L23.6395 24.3224L24.0003 23.3897ZM25.3177 23.6028L25.3209 24.6028L25.321 24.6028L25.3177 23.6028ZM27.1434 23.2396L27.6328 24.1116L27.6341 24.1109L27.1434 23.2396ZM27.1739 23.0662L26.232 23.4019L26.242 23.43L26.2536 23.4574L27.1739 23.0662ZM26.9371 22.4017L27.8791 22.066L27.8753 22.0556L26.9371 22.4017ZM26.8003 22.3385L26.4634 21.3968L26.4505 21.4017L26.8003 22.3385ZM25.3104 22.6075L25.313 21.6075L25.312 21.6075L25.3104 22.6075ZM24.0688 22.1798L23.3617 22.8869L23.3639 22.8891L24.0688 22.1798ZM23.648 20.9727L23.6488 19.9727L22.6098 19.9719L22.6487 21.0102L23.648 20.9727ZM27.2809 20.9755L27.2801 21.9755L27.2905 21.9754L27.2809 20.9755ZM27.3864 20.8812L28.3808 20.9865L28.3813 20.9819L27.3864 20.8812ZM27.2779 19.32L28.2395 19.0456L28.0848 18.5034L27.5408 18.3552L27.2779 19.32ZM15.825 22.4463L15.2012 23.2279L15.2666 23.2801L15.3397 23.3206L15.825 22.4463ZM15.6158 22.2311L16.4586 21.6929L16.4549 21.6873L15.6158 22.2311ZM15.8312 21.0585L16.4075 21.8757L15.6351 20.0779L15.8312 21.0585ZM16.8843 20.7964L16.9022 19.7965L16.8967 19.7964L16.8843 20.7964ZM17.8683 20.8803H18.8683V20.022L18.02 19.8919L17.8683 20.8803ZM17.8683 22.5289H16.8683V23.5289H17.8683V22.5289ZM17.8688 22.5289L18.0795 23.5064L17.8688 21.5289V22.5289ZM16.8893 22.6592L16.9493 23.6574L16.9494 23.6574L16.8893 22.6592ZM15.8271 22.4475L15.5397 23.4053L16.3124 21.5731L15.8271 22.4475ZM17.2689 19.8941L18.1956 19.5182L17.962 18.9423L17.3422 18.8968L17.2689 19.8941ZM15.8112 19.9925L16.0718 20.958L16.0723 20.9578L15.8112 19.9925ZM15.0547 20.3443L15.6355 21.1584L15.639 21.1559L15.0547 20.3443ZM14.5282 20.9421L15.409 21.4156L15.4091 21.4154L14.5282 20.9421ZM14.5004 22.6068L15.4023 22.1748L15.4002 22.1705L14.5004 22.6068ZM14.974 23.1747L15.5623 22.3661L15.5609 22.3651L14.974 23.1747ZM15.7121 23.4943L15.9346 22.5194L15.9307 22.5185L15.7121 23.4943ZM17.7745 23.5005L17.9408 24.4866L17.9445 24.486L17.7745 23.5005ZM18.6873 23.323L18.8991 24.3004L18.9115 24.2976L18.6873 23.323ZM18.9426 23.2586L18.6965 22.2894L18.6882 22.2915L18.6799 22.2938L18.9426 23.2586ZM19.0253 23.14L18.0253 23.1406L18.0254 23.1762L18.0279 23.2118L19.0253 23.14ZM19.0233 19.8291H18.0233V19.8297L19.0233 19.8291ZM18.4461 18.2288L17.7883 18.9819L17.7896 18.9831L18.4461 18.2288ZM15.8089 17.817L15.9995 18.7987L16.0058 18.7974L15.8089 17.817ZM14.6914 18.2262L15.2156 19.0779L15.2636 19.0483L15.308 19.0136L14.6914 18.2262ZM14.6588 18.3704L15.5956 18.0207L15.593 18.0135L15.5902 18.0064L14.6588 18.3704ZM14.9163 19.0602L15.8581 18.7237L15.8532 18.7104L14.9163 19.0602ZM15.0354 19.119L15.3666 20.0626L15.3848 20.0562L15.4027 20.0491L15.0354 19.119ZM15.095 19.0892L14.6167 18.2109L14.6007 18.2197L14.585 18.229L15.095 19.0892ZM16.6746 18.7213L16.6615 19.7213H16.6746V18.7213ZM17.5713 18.9558L18.1802 18.1626L18.1799 18.1623L17.5713 18.9558ZM17.8702 19.9737L17.7265 20.9633L18.8702 21.1294V19.9737H17.8702ZM17.2724 19.9026L16.3457 20.2785L16.575 20.8437L17.1823 20.8986L17.2724 19.9026ZM46.4151 17.8942L46.7797 16.963L46.7697 16.9592L46.4151 17.8942ZM45.8081 17.791L45.7456 18.789L45.7461 18.7891L45.8081 17.791ZM44.8723 17.9414L44.4631 17.0289L44.4613 17.0298L44.8723 17.9414ZM44.2607 18.3943L43.2607 18.3954L43.2639 21.4501L45.0677 18.9848L44.2607 18.3943ZM44.2603 17.9529H43.2603L43.2603 17.9539L44.2603 17.9529ZM43.1233 23.3561H42.1233L42.1233 23.3582L43.1233 23.3561ZM43.2334 23.4663L43.2313 24.4663H43.2334V23.4663ZM44.1853 23.4663V24.4663L44.1874 24.4663L44.1853 23.4663ZM44.2952 23.3561H43.2952V23.3561L44.2952 23.3561ZM44.415 19.6911L45.3587 20.0219L45.3591 20.0209L44.415 19.6911ZM44.7323 19.1577L45.4313 19.8729L45.4356 19.8685L44.7323 19.1577ZM45.1806 18.8887L44.9048 17.9275L44.8946 17.9304L44.8844 17.9335L45.1806 18.8887ZM45.6681 18.8201L45.6679 19.8201H45.6681V18.8201ZM46.0659 18.8689L45.8378 19.8425L45.8957 19.8561L45.9547 19.8627L46.0659 18.8689ZM46.1983 18.7709L47.1344 19.1228L47.1344 19.1228L46.1983 18.7709ZM8.41009 22.4737C8.32695 22.6905 8.26935 23.0264 8.43947 23.374C8.51317 23.5246 8.60513 23.6222 8.64855 23.6656C8.64915 23.6662 8.70003 23.7158 8.66655 23.6832C8.66455 23.6813 8.60688 23.6271 8.54979 23.5451L10.1912 22.4024C10.1309 22.3158 10.0688 22.2571 10.0616 22.2501C10.0551 22.2438 10.0466 22.2357 10.0496 22.2385C10.0497 22.2386 10.0552 22.2438 10.0623 22.251C10.0934 22.2821 10.1721 22.3646 10.2358 22.4947C10.3031 22.6322 10.3321 22.7775 10.3294 22.9144C10.3269 23.0414 10.2977 23.137 10.2775 23.1897L8.41009 22.4737ZM8.78401 23.7837C8.95649 23.9086 9.15754 24.0156 9.2259 24.0551L10.2278 22.3242C10.0571 22.2254 10.0195 22.2091 9.95696 22.1638L8.78401 23.7837ZM9.25942 24.0737C10.0768 24.5059 10.8492 24.6265 11.5985 24.6265V22.6265C11.0878 22.6265 10.6553 22.5494 10.1943 22.3056L9.25942 24.0737ZM11.5985 24.6265C12.409 24.6265 13.1828 24.4104 13.7704 23.9073C14.376 23.3888 14.6793 22.6533 14.6793 21.8446H12.6793C12.6793 22.135 12.5837 22.2904 12.4696 22.3881C12.3376 22.5012 12.0709 22.6265 11.5985 22.6265V24.6265ZM14.6793 21.8446V21.823H12.6793V21.8446H14.6793ZM14.6793 21.823C14.6793 20.9546 14.2673 20.3312 13.7307 19.9211C13.2474 19.5517 12.6594 19.3511 12.2362 19.2181L11.6367 21.1261C12.0551 21.2576 12.3385 21.3743 12.5162 21.5101C12.5931 21.5689 12.6274 21.615 12.6444 21.6468C12.6591 21.674 12.6793 21.7236 12.6793 21.823H14.6793ZM12.2443 19.2207L12.1342 19.185L11.5185 21.0879L11.6286 21.1235L12.2443 19.2207ZM12.1347 19.1852C11.9715 19.1323 11.8383 19.0889 11.7206 19.0451C11.6018 19.0009 11.5295 18.9675 11.4876 18.9438C11.4423 18.918 11.4757 18.9276 11.5247 18.9905C11.552 19.0256 11.5828 19.0757 11.6061 19.1404C11.6296 19.2061 11.6399 19.2719 11.6399 19.3317H9.63991C9.63991 20.0836 10.1712 20.4964 10.5009 20.6834C10.8254 20.8675 11.2321 20.9951 11.5179 21.0877L12.1347 19.1852ZM11.6399 19.3317V19.3103H9.63991V19.3317H11.6399ZM11.6399 19.3103C11.6399 19.3735 11.6249 19.4444 11.5908 19.5119C11.5573 19.5785 11.5139 19.6248 11.4771 19.6535C11.4065 19.7084 11.3797 19.6872 11.4584 19.6872V17.6872C11.0405 17.6872 10.6045 17.7983 10.2488 18.0751C9.8774 18.3641 9.63991 18.8044 9.63991 19.3103H11.6399ZM11.4584 19.6872C11.8356 19.6872 12.3274 19.8253 12.6051 19.9787L13.5722 18.2281C13.0083 17.9166 12.185 17.6872 11.4584 17.6872V19.6872ZM13.0886 19.1034C12.5461 19.9435 12.5465 19.9437 12.5468 19.9439C12.547 19.944 12.5473 19.9442 12.5475 19.9444C12.548 19.9447 12.5485 19.945 12.549 19.9453C12.5499 19.9459 12.5509 19.9465 12.5519 19.9472C12.5539 19.9484 12.5559 19.9497 12.5581 19.9511C12.5623 19.9537 12.5668 19.9565 12.5716 19.9594C12.5812 19.9652 12.592 19.9716 12.604 19.9783C12.6276 19.9916 12.6576 20.0074 12.693 20.0235C12.7567 20.0527 12.8713 20.0987 13.0197 20.1192C13.1689 20.1398 13.4148 20.1424 13.6734 20.0082C13.9498 19.8648 14.113 19.632 14.1944 19.4161L12.3227 18.7111C12.3814 18.5554 12.5121 18.3576 12.7524 18.2329C12.9749 18.1175 13.1811 18.1225 13.2935 18.138C13.4051 18.1534 13.4857 18.1869 13.5246 18.2047C13.5477 18.2152 13.5676 18.2256 13.5842 18.235C13.5926 18.2397 13.6007 18.2445 13.6085 18.2492C13.6123 18.2515 13.6162 18.2539 13.6199 18.2562C13.6218 18.2574 13.6237 18.2586 13.6255 18.2598C13.6265 18.2604 13.6274 18.261 13.6283 18.2616C13.6288 18.2619 13.6293 18.2622 13.6297 18.2624C13.63 18.2626 13.6303 18.2628 13.6304 18.2629C13.6308 18.2631 13.6311 18.2633 13.0886 19.1034ZM14.1939 19.4173C14.2178 19.354 14.4357 18.771 14.4624 18.6964L12.5789 18.0237C12.579 18.0234 12.5788 18.0241 12.578 18.0262C12.5773 18.0281 12.5764 18.0307 12.5752 18.034C12.5727 18.0407 12.5695 18.0493 12.5657 18.0599C12.5579 18.0809 12.5478 18.1082 12.536 18.1399C12.5125 18.2031 12.483 18.2824 12.4533 18.3621C12.3934 18.5226 12.3345 18.68 12.3232 18.71L14.1939 19.4173ZM14.461 18.7003C14.5764 18.3814 14.5345 18.0564 14.3956 17.7984C14.2738 17.572 14.1001 17.4341 13.9709 17.357L12.9458 19.0743C12.8606 19.0234 12.7302 18.924 12.6346 18.7464C12.522 18.5373 12.4893 18.2714 12.5803 18.0199L14.461 18.7003ZM13.9788 17.3618C13.3352 16.9695 12.4876 16.7213 11.6189 16.7213V18.7213C12.1299 18.7213 12.6158 18.8732 12.9379 19.0695L13.9788 17.3618ZM11.6153 16.7213L11.4873 16.7218L11.4945 18.7218L11.6225 18.7213L11.6153 16.7213ZM11.4909 16.7218C10.705 16.7218 9.96122 16.9605 9.39804 17.4479C8.82444 17.9442 8.4951 18.6528 8.4951 19.4485H10.4951C10.4951 19.228 10.5762 19.0732 10.7067 18.9602C10.8477 18.8383 11.1018 18.7218 11.4909 18.7218V16.7218ZM8.4951 19.4485V19.4704H10.4951V19.4485H8.4951ZM8.4951 19.4704C8.4951 20.3505 8.89432 20.9893 9.4503 21.4102C9.9456 21.7851 10.5471 21.9729 10.9728 22.0944L11.5215 20.1711C11.101 20.0511 10.8265 19.9435 10.6573 19.8155C10.586 19.7614 10.5532 19.7176 10.5355 19.6839C10.5193 19.6528 10.4951 19.5918 10.4951 19.4704H8.4951ZM10.9503 22.0877L11.0865 22.13L11.6801 20.2201L11.5439 20.1778L10.9503 22.0877ZM11.0894 22.1309C11.2481 22.1797 11.3747 22.2189 11.4864 22.2588C11.599 22.299 11.6632 22.3286 11.6972 22.3478C11.7334 22.3683 11.6932 22.3536 11.6411 22.2844C11.6128 22.2468 11.5836 22.1964 11.5624 22.1344C11.5411 22.0721 11.5329 22.0124 11.5329 21.9614H13.5329C13.5329 21.2222 13.0323 20.805 12.6811 20.6065C12.3557 20.4227 11.9497 20.303 11.6771 20.2192L11.0894 22.1309ZM11.5329 21.9614V21.983H13.5329V21.9614H11.5329ZM11.5329 21.983C11.5329 21.9342 11.5442 21.8756 11.5728 21.8175C11.6011 21.76 11.638 21.7199 11.6687 21.6956C11.7279 21.6487 11.7372 21.6774 11.6293 21.6774V23.6774C12.0778 23.6774 12.5388 23.5578 12.9107 23.2632C13.298 22.9563 13.5329 22.498 13.5329 21.983H11.5329ZM11.6293 21.6774C11.476 21.6774 11.017 21.6763 10.5104 21.3561L9.44186 23.0468C10.4297 23.6711 11.3498 23.6774 11.6293 23.6774V21.6774ZM10.4796 21.3374C10.4545 21.3228 10.4344 21.3101 10.4078 21.2928C10.3844 21.2776 10.3363 21.2458 10.2857 21.2148L9.24347 22.9218C9.26247 22.9334 9.275 22.9418 9.31739 22.9694C9.35654 22.9949 9.40734 23.0274 9.47265 23.0655L10.4796 21.3374ZM10.283 21.2132C10.2218 21.1761 9.96582 21.0221 9.61366 21.046C9.40489 21.0602 9.17595 21.1372 8.97967 21.3069C8.79362 21.4679 8.6969 21.6601 8.64676 21.8111L10.5449 22.4414C10.5147 22.5321 10.4445 22.6843 10.2881 22.8196C10.1215 22.9637 9.92532 23.0295 9.74914 23.0414C9.46216 23.0609 9.2706 22.9383 9.24616 22.9234L10.283 21.2132ZM8.65477 21.788L8.40185 22.4915L10.2839 23.1681L10.5369 22.4645L8.65477 21.788ZM27.1942 22.4718C27.1112 22.6883 27.0529 23.0254 27.2246 23.3742C27.299 23.5254 27.3919 23.6233 27.4365 23.6675C27.4426 23.6735 27.4845 23.7135 27.457 23.6872C27.4559 23.6862 27.4001 23.6347 27.3441 23.557L28.966 22.3868C28.9067 22.3046 28.8464 22.2485 28.84 22.2424C28.8343 22.237 28.8255 22.2288 28.8292 22.2322C28.8297 22.2327 28.8354 22.2381 28.8429 22.2455C28.8751 22.2773 28.9546 22.3601 29.019 22.4909C29.087 22.629 29.1162 22.7749 29.1135 22.9121C29.1111 23.0395 29.0818 23.1352 29.0616 23.1878L27.1942 22.4718ZM27.5671 23.7808C27.74 23.9066 27.9441 24.0149 28.0105 24.0533L29.0124 22.3224C28.8396 22.2223 28.8041 22.2075 28.743 22.1631L27.5671 23.7808ZM28.044 24.0718C28.8614 24.5041 29.6337 24.6247 30.383 24.6247V22.6247C29.8723 22.6247 29.4399 22.5476 28.9789 22.3038L28.044 24.0718ZM30.383 24.6247C31.1935 24.6247 31.9673 24.4086 32.555 23.9055C33.1606 23.3869 33.4639 22.6514 33.4639 21.8428H31.4639C31.4639 22.1331 31.3682 22.2886 31.2542 22.3863C31.1221 22.4993 30.8555 22.6247 30.383 22.6247V24.6247ZM33.4639 21.8428V21.8211H31.4639V21.8428H33.4639ZM33.4639 21.8211C33.4639 20.9537 33.0533 20.3302 32.5165 19.9195C32.0331 19.5497 31.4448 19.3491 31.02 19.216L30.422 21.1245C30.8411 21.2558 31.1242 21.3725 31.3013 21.508C31.3778 21.5666 31.412 21.6126 31.4289 21.6442C31.4436 21.6715 31.4639 21.7213 31.4639 21.8211H33.4639ZM31.0289 19.2188L30.9188 19.1832L30.303 21.0861L30.4131 21.1217L31.0289 19.2188ZM30.9193 19.1834C30.756 19.1305 30.6229 19.087 30.5052 19.0433C30.3863 18.9991 30.3141 18.9657 30.2722 18.9419C30.2268 18.9162 30.2602 18.9258 30.3092 18.9887C30.3365 19.0238 30.3674 19.0738 30.3906 19.1386C30.4142 19.2043 30.4245 19.2701 30.4245 19.3299H28.4245C28.4245 20.0818 28.9557 20.4946 29.2855 20.6816C29.61 20.8656 30.0166 20.9932 30.3025 21.0859L30.9193 19.1834ZM30.4245 19.3299V19.3085H28.4245V19.3299H30.4245ZM30.4245 19.3085C30.4245 19.3717 30.4095 19.4425 30.3754 19.5101C30.3418 19.5767 30.2985 19.623 30.2617 19.6516C30.191 19.7066 30.1643 19.6854 30.243 19.6854V17.6854C29.8251 17.6854 29.389 17.7964 29.0333 18.0733C28.662 18.3623 28.4245 18.8026 28.4245 19.3085H30.4245ZM30.243 19.6854C30.619 19.6854 31.1094 19.8229 31.3916 19.978L32.3547 18.2252C31.7908 17.9153 30.9706 17.6854 30.243 17.6854V19.6854ZM31.8732 19.1016C31.3307 19.9416 31.3311 19.9419 31.3314 19.9421C31.3315 19.9422 31.3319 19.9424 31.3321 19.9426C31.3326 19.9429 31.3331 19.9432 31.3335 19.9435C31.3345 19.9441 31.3355 19.9447 31.3365 19.9453C31.3385 19.9466 31.3405 19.9479 31.3426 19.9492C31.3469 19.9519 31.3514 19.9547 31.3562 19.9576C31.3658 19.9634 31.3766 19.9698 31.3886 19.9765C31.4122 19.9898 31.4422 20.0056 31.4776 20.0218C31.5414 20.0509 31.6561 20.0969 31.8044 20.1174C31.9536 20.138 32.1991 20.1405 32.4574 20.0067C32.7334 19.8638 32.8969 19.6316 32.9785 19.4159L31.1081 18.7077C31.167 18.5521 31.2978 18.355 31.5377 18.2308C31.7598 18.1157 31.9656 18.1207 32.0779 18.1362C32.1895 18.1516 32.2701 18.185 32.3091 18.2028C32.3321 18.2133 32.352 18.2237 32.3687 18.2331C32.3771 18.2379 32.3853 18.2426 32.393 18.2473C32.3969 18.2497 32.4007 18.252 32.4044 18.2544C32.4063 18.2555 32.4082 18.2567 32.4101 18.2579C32.411 18.2585 32.4119 18.2591 32.4129 18.2597C32.4133 18.26 32.4138 18.2603 32.4143 18.2606C32.4145 18.2608 32.4148 18.261 32.415 18.261C32.4153 18.2613 32.4157 18.2615 31.8732 19.1016ZM32.9798 19.4126C32.9956 19.3704 33.2249 18.7585 33.2552 18.6642L31.3511 18.0522C31.3538 18.044 31.3456 18.0676 31.3183 18.142C31.2957 18.2039 31.2667 18.2822 31.2372 18.3616C31.1783 18.5201 31.1189 18.679 31.1069 18.711L32.9798 19.4126ZM33.2425 18.7012C33.3594 18.381 33.3172 18.0547 33.1782 17.7966C33.0565 17.5705 32.8833 17.4329 32.7556 17.3563L31.7266 19.0713C31.6426 19.0209 31.5126 18.9219 31.4172 18.7446C31.3045 18.5352 31.2715 18.2681 31.3638 18.0152L33.2425 18.7012ZM32.7615 17.3599C32.1179 16.9676 31.2703 16.7195 30.4016 16.7195V18.7195C30.9126 18.7195 31.3985 18.8714 31.7206 19.0677L32.7615 17.3599ZM30.3981 16.7195L30.2698 16.7199L30.2769 18.7199L30.4052 18.7195L30.3981 16.7195ZM30.2733 16.7199C29.4875 16.7199 28.7437 16.9587 28.1805 17.446C27.6069 17.9424 27.2776 18.6509 27.2776 19.4467H29.2776C29.2776 19.2262 29.3587 19.0714 29.4892 18.9584C29.6302 18.8364 29.8843 18.7199 30.2733 18.7199V16.7199ZM27.2776 19.4467V19.4685H29.2776V19.4467H27.2776ZM27.2776 19.4685C27.2776 20.3487 27.6768 20.9875 28.2328 21.4083C28.7281 21.7832 29.3296 21.9711 29.7553 22.0925L30.304 20.1693C29.8835 20.0493 29.609 19.9417 29.4398 19.8136C29.3684 19.7596 29.3357 19.7158 29.318 19.682C29.3018 19.651 29.2776 19.5899 29.2776 19.4685H27.2776ZM29.7324 22.0857L29.8682 22.128L30.4628 20.2184L30.3269 20.1761L29.7324 22.0857ZM29.8726 22.1294C30.0315 22.178 30.1584 22.2172 30.2698 22.257C30.3824 22.2972 30.4462 22.3267 30.4798 22.3457C30.5155 22.3659 30.475 22.3509 30.4228 22.2814C30.3945 22.2436 30.3654 22.1933 30.3444 22.1315C30.3233 22.0694 30.3151 22.01 30.3151 21.9596H32.3151C32.3151 21.222 31.8173 20.8045 31.4647 20.605C31.139 20.4207 30.7328 20.3011 30.4584 20.2171L29.8726 22.1294ZM30.3151 21.9596V21.9812H32.3151V21.9596H30.3151ZM30.3151 21.9812C30.3151 21.9324 30.3265 21.8737 30.3551 21.8157C30.3834 21.7582 30.4202 21.7181 30.451 21.6937C30.5102 21.6468 30.5194 21.6756 30.4115 21.6756V23.6756C30.8601 23.6756 31.3211 23.556 31.693 23.2613C32.0803 22.9545 32.3151 22.4961 32.3151 21.9812H30.3151ZM30.4115 21.6756C30.2568 21.6756 29.7972 21.6742 29.2938 21.355L28.2229 23.0442C29.2094 23.6696 30.1326 23.6756 30.4115 23.6756V21.6756ZM29.2618 21.3356C29.197 21.2978 29.1757 21.2822 29.0882 21.2258L28.005 22.9071C28.0545 22.939 28.139 22.9961 28.2549 23.0636L29.2618 21.3356ZM29.0819 21.2218C28.944 21.1344 28.7064 21.0317 28.4111 21.0484C28.2376 21.0582 28.0166 21.1126 27.8109 21.2692C27.6034 21.4272 27.4858 21.6327 27.4262 21.8179L29.3299 22.4309C29.2888 22.5587 29.1986 22.7263 29.0225 22.8604C28.8483 22.9931 28.6628 23.0374 28.5239 23.0452C28.393 23.0526 28.2894 23.0295 28.2258 23.0102C28.1673 22.9925 28.0934 22.9631 28.0113 22.9112L29.0819 21.2218ZM27.437 21.7861L27.1841 22.4897L29.0662 23.1663L29.3191 22.4627L27.437 21.7861ZM39.9551 20.6759C39.9551 21.191 39.8559 21.4632 39.7752 21.5869L41.4498 22.6804C41.8224 22.1096 41.9551 21.4023 41.9551 20.6759H39.9551ZM39.778 21.5825C39.7649 21.6024 39.7561 21.6108 39.7533 21.6133C39.7508 21.6156 39.7488 21.6171 39.7445 21.6192C39.7369 21.6229 39.6898 21.6441 39.5686 21.6441V23.6441C40.3204 23.6441 41.0047 23.3543 41.4469 22.6847L39.778 21.5825ZM39.5686 21.6441C39.4461 21.6441 39.3995 21.6227 39.3934 21.6198C39.39 21.6181 39.3892 21.6173 39.388 21.6163C39.3864 21.6149 39.3788 21.6078 39.3667 21.5893L37.6919 22.6825C38.1326 23.3576 38.8201 23.6441 39.5686 23.6441V21.6441ZM39.3673 21.5901C39.29 21.4715 39.1913 21.199 39.1913 20.6782H37.1913C37.1913 21.399 37.3194 22.1105 37.6914 22.6817L39.3673 21.5901ZM39.1913 20.6782C39.1913 20.1593 39.29 19.8913 39.3664 19.7745L37.6923 18.6802C37.3207 19.2486 37.1913 19.9555 37.1913 20.6782H39.1913ZM39.3662 19.7747C39.378 19.7568 39.385 19.7505 39.3856 19.7499C39.3859 19.7497 39.3859 19.7495 39.3887 19.7481C39.3941 19.7455 39.4416 19.7238 39.5686 19.7238V17.7238C38.824 17.7238 38.1355 18.0025 37.6924 18.68L39.3662 19.7747ZM39.5686 19.7238C39.694 19.7238 39.7428 19.7454 39.7505 19.7491C39.7547 19.7511 39.7561 19.7522 39.7577 19.7536C39.7596 19.7553 39.7675 19.7627 39.7799 19.7813L41.445 18.6734C41.0005 18.0053 40.3155 17.7238 39.5686 17.7238V19.7238ZM39.7801 19.7815C39.8559 19.8954 39.9551 20.1593 39.9551 20.6782H41.9551C41.9551 19.9555 41.8252 19.2445 41.4449 18.6732L39.7801 19.7815ZM42.9854 19.2423C42.8448 18.7677 42.6207 18.3309 42.3073 17.9549L40.7708 19.2352C40.8943 19.3834 40.9971 19.572 41.0677 19.8102L42.9854 19.2423ZM42.307 17.9545C41.9906 17.5753 41.5946 17.2738 41.135 17.0617L40.2969 18.8776C40.4948 18.969 40.6502 19.0906 40.7712 19.2356L42.307 17.9545ZM41.14 17.064C40.6552 16.837 40.1186 16.7397 39.5663 16.7397V18.7397C39.8877 18.7397 40.1236 18.7965 40.2918 18.8753L41.14 17.064ZM39.5663 16.7397C39.0116 16.7397 38.4794 16.8383 37.996 17.0624L38.8373 18.8769C39.0115 18.7961 39.2473 18.7397 39.5663 18.7397V16.7397ZM37.9931 17.0638C37.543 17.2743 37.1441 17.5723 36.8253 17.9549L38.3617 19.2352C38.4798 19.0936 38.6374 18.9704 38.8402 18.8755L37.9931 17.0638ZM36.8246 17.9557C36.5125 18.331 36.2882 18.7672 36.1474 19.2417L38.0648 19.8108C38.1355 19.5725 38.2386 19.3833 38.3624 19.2344L36.8246 17.9557ZM36.1471 19.2429C36.0125 19.6983 35.9484 20.1809 35.9484 20.6782H37.9484C37.9484 20.3523 37.9904 20.0623 38.0651 19.8096L36.1471 19.2429ZM35.9484 20.6782C35.9484 21.1754 36.0125 21.658 36.1471 22.1135L38.0651 21.5468C37.9904 21.294 37.9484 21.0041 37.9484 20.6782H35.9484ZM36.1469 22.1129C36.2873 22.5891 36.5124 23.026 36.8253 23.4015L38.3617 22.1211C38.2378 21.9724 38.135 21.7839 38.0653 21.5473L36.1469 22.1129ZM36.8256 23.4019C37.1456 23.7854 37.5463 24.0835 38.0005 24.2914L38.8329 22.4729C38.634 22.3818 38.4788 22.2615 38.3614 22.1207L36.8256 23.4019ZM38.0039 24.293C38.4854 24.5111 39.017 24.607 39.5663 24.607V22.607C39.2465 22.607 39.0055 22.5511 38.8294 22.4713L38.0039 24.293ZM39.5663 24.607C40.115 24.607 40.6478 24.5114 41.1288 24.2919L40.2985 22.4724C40.1265 22.5509 39.8868 22.607 39.5663 22.607V24.607ZM41.1288 24.2919C41.5842 24.0841 41.9854 23.785 42.305 23.4015L40.7686 22.1211C40.6513 22.2619 40.4961 22.3822 40.2985 22.4724L41.1288 24.2919ZM42.3053 23.4011C42.6182 23.0252 42.8422 22.5888 42.9829 22.1146L41.0655 21.5456C40.9947 21.7842 40.8917 21.9732 40.7682 22.1215L42.3053 23.4011ZM42.9834 22.1129C43.1176 21.6578 43.1817 21.1754 43.1817 20.6782H41.1817C41.1817 21.0041 41.1396 21.2942 41.065 21.5473L42.9834 22.1129ZM43.1817 20.6782C43.1817 20.1835 43.1176 19.6988 42.9834 19.2435L41.065 19.809C41.1396 20.0619 41.1817 20.3543 41.1817 20.6782H43.1817ZM51.7778 22.1493C51.7139 21.9599 51.5932 21.7659 51.3979 21.618C51.2078 21.4741 51.0079 21.4199 50.8552 21.4035C50.7079 21.3877 50.586 21.4046 50.5099 21.4202C50.4692 21.4285 50.434 21.438 50.4053 21.4468C50.3908 21.4512 50.3775 21.4556 50.3655 21.4598C50.3595 21.4619 50.3537 21.464 50.3483 21.466C50.3456 21.467 50.3429 21.468 50.3403 21.4689C50.339 21.4694 50.3378 21.4699 50.3365 21.4704C50.3359 21.4706 50.3353 21.4709 50.3346 21.4711C50.3343 21.4712 50.3339 21.4714 50.3337 21.4715C50.3332 21.4717 50.3328 21.4718 50.6936 22.4045C51.0544 23.3371 51.054 23.3373 51.0535 23.3375C51.0534 23.3375 51.0529 23.3377 51.0526 23.3378C51.052 23.3381 51.0514 23.3383 51.0507 23.3385C51.0495 23.339 51.0483 23.3395 51.047 23.3399C51.0445 23.3409 51.042 23.3418 51.0395 23.3427C51.0344 23.3446 51.0293 23.3465 51.024 23.3483C51.0135 23.352 51.0024 23.3556 50.9907 23.3592C50.9678 23.3662 50.9408 23.3735 50.9102 23.3797C50.8542 23.3912 50.76 23.4047 50.6424 23.3922C50.5195 23.379 50.3516 23.3345 50.1905 23.2125C50.0242 23.0865 49.9294 22.9266 49.883 22.7893L51.7778 22.1493ZM50.3363 21.4705C50.2056 21.5205 50.1154 21.5471 50.0407 21.5587L50.3486 23.5349C50.628 23.4913 50.8703 23.4076 51.0509 23.3385L50.3363 21.4705ZM50.0394 21.5589C49.9207 21.5776 49.7748 21.5889 49.6083 21.5889V23.5889C49.8604 23.5889 50.1118 23.5721 50.35 23.5347L50.0394 21.5589ZM49.6083 21.5889C49.2963 21.5889 49.1673 21.502 49.1031 21.4353L47.6626 22.8227C48.187 23.3672 48.8858 23.5889 49.6083 23.5889V21.5889ZM49.1007 21.4328C49.0532 21.3839 48.9212 21.1896 48.923 20.6678L46.923 20.6609C46.9202 21.4728 47.1193 22.2626 47.665 22.8252L49.1007 21.4328ZM48.923 20.667C48.9242 20.2267 49.0271 19.9954 49.1333 19.8543L47.5358 18.651C47.1155 19.2089 46.925 19.8881 46.923 20.6617L48.923 20.667ZM49.1333 19.8543C49.1651 19.8121 49.2373 19.7284 49.5233 19.7284V17.7284C48.7516 17.7284 48.0237 18.0034 47.5358 18.6509L49.1333 19.8543ZM49.5233 19.7284C49.874 19.7284 50.1103 19.7673 50.3581 19.8448L50.9555 17.9362C50.4951 17.7921 50.0554 17.7284 49.5233 17.7284V19.7284ZM50.6568 18.8905C50.2575 19.8073 50.258 19.8075 50.2586 19.8078C50.2588 19.8079 50.2594 19.8081 50.2598 19.8083C50.2605 19.8086 50.2613 19.809 50.2621 19.8093C50.2637 19.81 50.2653 19.8107 50.2669 19.8113C50.2701 19.8127 50.2734 19.8141 50.2768 19.8155C50.2835 19.8182 50.2906 19.8211 50.298 19.8239C50.3129 19.8297 50.3292 19.8356 50.347 19.8414C50.3821 19.853 50.425 19.8652 50.4744 19.8751C50.5697 19.8941 50.7126 19.9095 50.8811 19.8791C51.3028 19.8032 51.5955 19.5025 51.7207 19.1584L49.8412 18.4746C49.8755 18.3805 49.9445 18.2489 50.0771 18.1301C50.2141 18.0073 50.3743 17.9382 50.5266 17.9108C50.669 17.8851 50.7884 17.8982 50.8667 17.9139C50.9076 17.9221 50.9436 17.9322 50.974 17.9423C50.9894 17.9474 51.0039 17.9526 51.0175 17.9578C51.0243 17.9604 51.0309 17.9631 51.0373 17.9657C51.0406 17.9671 51.0437 17.9684 51.0469 17.9697C51.0484 17.9704 51.05 17.971 51.0516 17.9717C51.0523 17.972 51.0531 17.9724 51.0539 17.9727C51.0543 17.9729 51.0548 17.9731 51.055 17.9732C51.0556 17.9735 51.0562 17.9737 50.6568 18.8905ZM51.7213 19.1568C51.812 18.9063 51.8857 18.708 51.9881 18.419L50.1027 17.7516C50.0032 18.0328 49.9381 18.207 49.8407 18.4761L51.7213 19.1568ZM51.9895 18.4151C52.1262 18.0237 52.0303 17.6248 51.7932 17.3467C51.6143 17.1367 51.404 17.0517 51.3397 17.0268L50.6173 18.8918C50.5785 18.8768 50.4159 18.8139 50.2712 18.6441C50.1882 18.5468 50.1053 18.4069 50.0696 18.2267C50.0335 18.0446 50.0576 17.8806 50.1013 17.7555L51.9895 18.4151ZM51.3424 17.0279C51.1246 16.9428 50.7233 16.8367 50.4126 16.7898L50.1142 18.7674C50.1939 18.7794 50.3025 18.8026 50.4116 18.8308C50.4643 18.8444 50.512 18.8579 50.5507 18.8697C50.5699 18.8756 50.5855 18.8806 50.5974 18.8847C50.6098 18.8889 50.6151 18.8909 50.6145 18.8907L51.3424 17.0279ZM50.4141 16.79C50.1214 16.7454 49.8006 16.7248 49.4587 16.7248V18.7248C49.7237 18.7248 49.941 18.741 50.1127 18.7671L50.4141 16.79ZM49.4587 16.7248C48.8955 16.7248 48.3521 16.821 47.8583 17.0411L48.6724 18.8679C48.8638 18.7826 49.1206 18.7248 49.4587 18.7248V16.7248ZM47.8588 17.0408C47.3927 17.2482 46.9826 17.5428 46.6514 17.9204L48.1549 19.2393C48.2835 19.0927 48.4528 18.9656 48.6719 18.8681L47.8588 17.0408ZM46.6514 17.9204C46.3253 18.2921 46.0869 18.7255 45.9313 19.1985L47.8311 19.8236C47.91 19.5839 48.0211 19.3918 48.1549 19.2393L46.6514 17.9204ZM45.931 19.1995C45.7785 19.6645 45.7064 20.1594 45.7064 20.6653H47.7064C47.7064 20.3481 47.7517 20.0658 47.8314 19.8227L45.931 19.1995ZM45.7064 20.6653C45.7064 21.7329 45.9971 22.7134 46.6758 23.4678L48.1627 22.1302C47.894 21.8316 47.7064 21.3727 47.7064 20.6653H45.7064ZM46.6743 23.4662C47.3929 24.2685 48.4162 24.5946 49.5345 24.5946V22.5946C48.795 22.5946 48.3928 22.3872 48.1641 22.1318L46.6743 23.4662ZM49.5345 24.5946C50.2007 24.5946 50.8899 24.463 51.4203 24.253L50.6839 22.3935C50.4048 22.504 49.9674 22.5946 49.5345 22.5946V24.5946ZM51.0521 23.3233C51.4864 24.224 51.4869 24.2238 51.4873 24.2236C51.4875 24.2235 51.488 24.2232 51.4883 24.2231C51.489 24.2228 51.4897 24.2224 51.4903 24.2221C51.4917 24.2215 51.493 24.2208 51.4944 24.2201C51.4971 24.2188 51.4999 24.2174 51.5027 24.216C51.5084 24.2131 51.5142 24.2101 51.5203 24.2069C51.5324 24.2005 51.5455 24.1932 51.5593 24.1852C51.5868 24.1692 51.6186 24.149 51.6529 24.1239C51.7188 24.0758 51.809 23.999 51.8924 23.8854C52.0922 23.6134 52.1757 23.2304 52.0329 22.8469L50.1586 23.5449C50.1135 23.4236 50.0885 23.2697 50.115 23.0997C50.1411 22.9324 50.2094 22.7982 50.2806 22.7013C50.3489 22.6083 50.4218 22.5464 50.4743 22.5081C50.5019 22.488 50.528 22.4714 50.5513 22.4578C50.5631 22.4509 50.5745 22.4446 50.5855 22.4388C50.5911 22.4358 50.5965 22.433 50.6019 22.4303C50.6045 22.429 50.6072 22.4276 50.6099 22.4263C50.6112 22.4257 50.6125 22.425 50.6138 22.4244C50.6145 22.4241 50.6151 22.4238 50.6158 22.4234C50.6161 22.4233 50.6166 22.423 50.6168 22.423C50.6173 22.4227 50.6178 22.4225 51.0521 23.3233ZM52.0355 22.8539L51.771 22.1273L49.8916 22.8113L50.156 23.5379L52.0355 22.8539ZM53.6944 20.2251C53.7326 19.9676 53.7923 19.8365 53.8319 19.777L52.1672 18.6684C51.9098 19.0551 51.7804 19.4987 51.7161 19.931L53.6944 20.2251ZM53.8367 19.7697C53.8633 19.729 53.8789 19.7219 53.883 19.7198C53.8898 19.7162 53.9306 19.6962 54.0365 19.6962V17.6962C53.2506 17.6962 52.5841 18.0304 52.1624 18.6758L53.8367 19.7697ZM54.0365 19.6962C54.09 19.6962 54.1234 19.7015 54.1416 19.7056C54.1589 19.7096 54.1655 19.7132 54.1661 19.7136C54.1668 19.7139 54.1699 19.7155 54.1768 19.722C54.1844 19.7293 54.1993 19.7452 54.2197 19.7759L55.8859 18.6696C55.6992 18.3884 55.4482 18.1316 55.1111 17.9509C54.7746 17.7705 54.4087 17.6962 54.0365 17.6962V19.6962ZM54.2207 19.7774C54.2198 19.7761 54.2349 19.7985 54.2524 19.8647C54.27 19.9314 54.2853 20.0244 54.2946 20.151L56.2892 20.0052C56.2606 19.6127 56.1777 19.1074 55.8848 18.668L54.2207 19.7774ZM55.2921 19.0781L52.6939 19.0776L52.6936 21.0776L55.2917 21.0781L55.2921 19.0781ZM52.6538 21.0768L52.6653 21.0773L52.7452 19.0789L52.7337 19.0784L52.6538 21.0768ZM57.2814 19.0619C57.1414 18.5365 56.823 18.0487 56.5838 17.7908L55.1175 19.1509C55.1175 19.1509 55.1175 19.151 55.1177 19.1512C55.1179 19.1514 55.1181 19.1516 55.1184 19.152C55.1191 19.1527 55.12 19.1538 55.1212 19.1551C55.1235 19.1579 55.1267 19.1617 55.1307 19.1666C55.1387 19.1766 55.1489 19.1898 55.1606 19.2061C55.1844 19.2392 55.2112 19.2802 55.2378 19.3262C55.2943 19.424 55.3321 19.514 55.3488 19.5768L57.2814 19.0619ZM56.5808 17.7876C56.2947 17.4819 55.9558 17.1976 55.5514 17.0261L54.7703 18.8672C54.8212 18.8888 54.9375 18.9586 55.1205 19.1542L56.5808 17.7876ZM55.5522 17.0264C55.0992 16.8338 54.612 16.735 54.1198 16.7358L54.1233 18.7358C54.3454 18.7354 54.5652 18.78 54.7695 18.8669L55.5522 17.0264ZM54.1216 16.7358C53.5644 16.7358 52.9998 16.8288 52.5006 17.0619L53.3467 18.8741C53.5143 18.7959 53.7729 18.7358 54.1216 18.7358V16.7358ZM52.498 17.0631C52.0417 17.2778 51.6402 17.5789 51.3186 17.9674L52.8594 19.2425C52.9794 19.0976 53.1389 18.9719 53.3493 18.8729L52.498 17.0631ZM51.3183 17.9678C51.0062 18.3453 50.7789 18.7832 50.6373 19.2665L52.5566 19.8288C52.6266 19.5901 52.7309 19.398 52.8597 19.2421L51.3183 17.9678ZM50.6383 19.2631C50.5022 19.7217 50.4379 20.2094 50.4379 20.7042H52.4379C52.4379 20.3804 52.4802 20.0864 52.5557 19.8321L50.6383 19.2631ZM50.4379 20.7042C50.4379 21.2103 50.5049 21.6999 50.6471 22.1589L52.5575 21.5671C52.4817 21.3225 52.4379 21.0349 52.4379 20.7042H50.4379ZM50.6474 22.16C50.7995 22.6489 51.0495 23.0923 51.396 23.4654L52.8616 22.1045C52.7298 21.9626 52.6254 21.7853 52.5572 21.566L50.6474 22.16ZM51.393 23.4622C51.7478 23.8477 52.1872 24.1311 52.6803 24.3221L53.4029 22.4573C53.1603 22.3632 52.9881 22.242 52.8646 22.1078L51.393 23.4622ZM52.6809 24.3224C53.1884 24.5187 53.7608 24.6047 54.3623 24.6028L54.3559 22.6029C53.9411 22.6042 53.626 22.5435 53.4024 22.457L52.6809 24.3224ZM54.3624 24.6028C55.565 24.5989 56.2868 24.329 56.6741 24.1116L55.6953 22.3675C55.6319 22.4031 55.2501 22.5999 54.3558 22.6029L54.3624 24.6028ZM56.6733 24.1121C56.7826 24.0509 57.0618 23.8729 57.1843 23.4946C57.2987 23.1415 57.2039 22.836 57.1365 22.6766L55.2945 23.4558C55.2745 23.4084 55.1844 23.1783 55.2816 22.8782C55.387 22.553 55.6271 22.4057 55.6961 22.3671L56.6733 24.1121ZM57.1575 22.7305L56.9207 22.066L55.0367 22.7374L55.2736 23.4019L57.1575 22.7305ZM56.9176 22.0575C56.8476 21.8667 56.7218 21.6809 56.531 21.5419C56.3468 21.4076 56.1563 21.3563 56.0116 21.3395C55.8708 21.3233 55.7538 21.337 55.6793 21.3506C55.6396 21.3578 55.6052 21.3662 55.5769 21.3742C55.5627 21.3781 55.5495 21.3821 55.5377 21.3859C55.5317 21.3879 55.526 21.3897 55.5206 21.3916C55.5179 21.3925 55.5153 21.3934 55.5127 21.3943C55.5115 21.3947 55.5102 21.3952 55.5089 21.3956C55.5083 21.3958 55.5077 21.3961 55.5071 21.3963C55.5068 21.3964 55.5063 21.3965 55.5062 21.3966C55.5057 21.3968 55.5052 21.3969 55.8421 22.3385C56.179 23.28 56.1785 23.2802 56.1781 23.2804C56.1779 23.2804 56.1775 23.2806 56.1772 23.2807C56.1766 23.2809 56.176 23.2811 56.1753 23.2813C56.1741 23.2818 56.1729 23.2822 56.1717 23.2826C56.1692 23.2835 56.1667 23.2843 56.1642 23.2852C56.1592 23.2869 56.1541 23.2886 56.1489 23.2903C56.1385 23.2936 56.1275 23.2969 56.1161 23.3001C56.0935 23.3064 56.0671 23.3129 56.0375 23.3183C55.9828 23.3282 55.8931 23.3392 55.782 23.3263C55.6669 23.313 55.5082 23.2713 55.353 23.1582C55.1913 23.0403 55.0916 22.8872 55.0398 22.7459L56.9176 22.0575ZM55.4923 21.4017C55.3245 21.4643 55.2462 21.5005 55.091 21.5375C54.9439 21.5726 54.7159 21.6085 54.3549 21.6075L54.3495 23.6075C54.8507 23.6088 55.2378 23.5587 55.5552 23.4829C55.8644 23.4091 56.1 23.3096 56.192 23.2753L55.4923 21.4017ZM54.3538 21.6075C53.9809 21.6069 53.8445 21.4994 53.8155 21.4705L52.4057 22.8891C52.9009 23.3813 53.5968 23.6063 54.3506 23.6075L54.3538 21.6075ZM53.8177 21.4727C53.7998 21.4548 53.7049 21.3563 53.6891 20.9352L51.6905 21.0102C51.7161 21.6928 51.888 22.3714 52.4035 22.8869L53.8177 21.4727ZM52.6891 21.9727L56.3219 21.9755L56.3234 19.9755L52.6906 19.9727L52.6891 21.9727ZM56.3227 20.9755C56.3323 21.9754 56.3328 21.9754 56.3332 21.9754C56.3334 21.9754 56.3339 21.9754 56.3342 21.9754C56.3348 21.9754 56.3355 21.9754 56.3361 21.9754C56.3374 21.9754 56.3387 21.9753 56.3401 21.9753C56.3427 21.9753 56.3455 21.9752 56.3482 21.9751C56.3538 21.975 56.3596 21.9748 56.3657 21.9746C56.3778 21.9741 56.3911 21.9733 56.4053 21.9722C56.4335 21.9699 56.4671 21.9662 56.5047 21.9598C56.5763 21.9477 56.682 21.9228 56.7994 21.8673C57.0712 21.7387 57.3736 21.4493 57.4226 20.9865L55.4338 20.7759C55.4501 20.6221 55.5094 20.4602 55.6205 20.3184C55.7265 20.1832 55.8496 20.1041 55.944 20.0594C56.0363 20.0158 56.1174 19.9969 56.1708 19.9879C56.1993 19.9831 56.2254 19.9801 56.2483 19.9783C56.2599 19.9774 56.2711 19.9768 56.2818 19.9763C56.2872 19.9761 56.2924 19.9759 56.2976 19.9758C56.3003 19.9757 56.3028 19.9757 56.3054 19.9756C56.3067 19.9756 56.308 19.9756 56.3092 19.9756C56.3099 19.9756 56.3105 19.9755 56.3112 19.9755C56.3115 19.9755 56.312 19.9755 56.3121 19.9755C56.3126 19.9755 56.3131 19.9755 56.3227 20.9755ZM57.4231 20.9819C57.4197 21.0158 57.4609 20.7445 57.4628 20.3976C57.4647 20.047 57.4304 19.5679 57.2816 19.0459L55.3582 19.5942C55.5299 20.1964 55.4404 20.7103 55.4333 20.7805L57.4231 20.9819ZM56.4613 18.33L56.4565 18.3294L56.1737 20.3093L56.1785 20.31L56.4613 18.33ZM24.6546 20.2251C24.6928 19.9682 24.7526 19.8365 24.7925 19.7765L23.1271 18.669C22.8704 19.055 22.7407 19.4981 22.6764 19.931L24.6546 20.2251ZM24.7967 19.7701C24.8235 19.7291 24.8393 19.7218 24.8434 19.7197C24.8501 19.7162 24.8909 19.6962 24.9968 19.6962V17.6962C24.2106 17.6962 23.5446 18.0306 23.1229 18.6754L24.7967 19.7701ZM24.9968 19.6962C25.0503 19.6962 25.0837 19.7015 25.1019 19.7056C25.1192 19.7096 25.1257 19.7132 25.1264 19.7136C25.127 19.7139 25.1302 19.7155 25.1371 19.722C25.1447 19.7293 25.1596 19.7452 25.1799 19.7759L26.8461 18.6696C26.6594 18.3884 26.4084 18.1316 26.0714 17.9509C25.7348 17.7705 25.369 17.6962 24.9968 17.6962V19.6962ZM25.1806 19.7769C25.1798 19.7756 25.1949 19.7983 25.2125 19.8647C25.2301 19.9316 25.2455 20.0248 25.2549 20.1517L27.2495 20.0045C27.2205 19.6125 27.1377 19.1077 26.8455 18.6686L25.1806 19.7769ZM26.2523 19.0781L23.6542 19.0776L23.6538 21.0776L26.252 21.0781L26.2523 19.0781ZM23.614 21.0768L23.6255 21.0773L23.7054 19.0789L23.6939 19.0784L23.614 21.0768ZM28.2418 19.0625C28.1019 18.5363 27.7829 18.0483 27.5441 17.7908L26.0777 19.1509C26.09 19.1642 26.1407 19.2268 26.1982 19.3263C26.2547 19.4241 26.2923 19.5138 26.3089 19.5762L28.2418 19.0625ZM27.541 17.7876C27.255 17.4819 26.916 17.1976 26.5117 17.0261L25.7306 18.8672C25.7814 18.8888 25.8978 18.9586 26.0807 19.1542L27.541 17.7876ZM26.5124 17.0264C26.0595 16.8338 25.5723 16.735 25.0801 16.7358L25.0836 18.7358C25.3056 18.7354 25.5254 18.78 25.7298 18.8669L26.5124 17.0264ZM25.0818 16.7358C24.5247 16.7358 23.9601 16.8288 23.4609 17.0619L24.307 18.8741C24.4745 18.7959 24.7331 18.7358 25.0818 18.7358V16.7358ZM23.4583 17.0631C23.0019 17.2778 22.6004 17.5789 22.2789 17.9674L23.8197 19.2425C23.9396 19.0976 24.0991 18.9719 24.3095 18.8729L23.4583 17.0631ZM22.2779 17.9685C21.9673 18.3451 21.7394 18.7824 21.5976 19.2665L23.5169 19.8288C23.5866 19.5908 23.6912 19.3982 23.8207 19.2413L22.2779 17.9685ZM21.5984 19.2637C21.4626 19.7222 21.3986 20.2098 21.3986 20.7042H23.3986C23.3986 20.38 23.4408 20.0858 23.5161 19.8316L21.5984 19.2637ZM21.3986 20.7042C21.3986 21.2094 21.4649 21.6999 21.6085 22.1606L23.5179 21.5654C23.4422 21.3226 23.3986 21.0358 23.3986 20.7042H21.3986ZM21.6082 22.1594C21.7601 22.6489 22.01 23.0907 22.3514 23.4619L23.8235 22.1081C23.6912 21.9642 23.5862 21.7853 23.5183 21.5666L21.6082 22.1594ZM22.3517 23.4622C22.7064 23.8477 23.1458 24.1311 23.6389 24.3221L24.3616 22.4573C24.1189 22.3632 23.9467 22.242 23.8233 22.1078L22.3517 23.4622ZM23.6395 24.3224C24.1468 24.5186 24.7169 24.6047 25.3209 24.6028L25.3146 22.6029C24.8977 22.6042 24.5849 22.5436 24.361 22.457L23.6395 24.3224ZM25.321 24.6028C26.5236 24.5989 27.2455 24.329 27.6328 24.1116L26.6539 22.3675C26.5906 22.4031 26.2088 22.5999 25.3144 22.6029L25.321 24.6028ZM27.6341 24.1109C27.7418 24.0502 28.0205 23.8723 28.1428 23.4946C28.2574 23.141 28.1623 22.8351 28.0943 22.675L26.2536 23.4574C26.2332 23.4093 26.1428 23.1788 26.2402 22.8783C26.3453 22.5536 26.5849 22.4064 26.6526 22.3683L27.6341 24.1109ZM28.1159 22.7305L27.8791 22.066L25.9951 22.7374L26.232 23.4019L28.1159 22.7305ZM27.8753 22.0556C27.805 21.865 27.679 21.6798 27.4885 21.5413C27.3045 21.4075 27.1143 21.3562 26.9697 21.3395C26.8291 21.3233 26.7121 21.337 26.6375 21.3506C26.5979 21.3578 26.5634 21.3662 26.5352 21.3741C26.5209 21.3781 26.5077 21.3821 26.4959 21.3859C26.4899 21.3878 26.4842 21.3897 26.4788 21.3916C26.4761 21.3925 26.4735 21.3934 26.4709 21.3943C26.4696 21.3947 26.4684 21.3952 26.4671 21.3956C26.4665 21.3958 26.4659 21.3961 26.4653 21.3963C26.465 21.3964 26.4645 21.3966 26.4643 21.3966C26.4639 21.3968 26.4634 21.3969 26.8003 22.3385C27.1372 23.28 27.1367 23.2802 27.1363 23.2804C27.1361 23.2804 27.1357 23.2806 27.1354 23.2807C27.1347 23.2809 27.1341 23.2811 27.1335 23.2813C27.1323 23.2818 27.1311 23.2822 27.1298 23.2826C27.1274 23.2835 27.1249 23.2843 27.1224 23.2852C27.1174 23.2869 27.1122 23.2886 27.107 23.2903C27.0966 23.2936 27.0857 23.2969 27.0742 23.3001C27.0516 23.3065 27.0252 23.3129 26.9956 23.3183C26.9409 23.3282 26.8513 23.3391 26.7403 23.3263C26.6254 23.3131 26.4671 23.2714 26.3122 23.1588C26.1508 23.0414 26.0509 22.8888 25.9989 22.7478L27.8753 22.0556ZM26.4505 21.4017C26.2826 21.4643 26.2044 21.5005 26.0491 21.5375C25.9021 21.5726 25.6741 21.6085 25.313 21.6075L25.3077 23.6075C25.8089 23.6088 26.196 23.5587 26.5133 23.4829C26.8226 23.4091 27.0581 23.3096 27.1502 23.2753L26.4505 21.4017ZM25.312 21.6075C24.9407 21.6069 24.8023 21.499 24.7737 21.4705L23.3639 22.8891C23.8595 23.3817 24.558 23.6063 25.3087 23.6075L25.312 21.6075ZM24.7759 21.4727C24.758 21.4548 24.6631 21.3563 24.6473 20.9352L22.6487 21.0102C22.6743 21.6928 22.8462 22.3714 23.3617 22.8869L24.7759 21.4727ZM23.6473 21.9727L27.2801 21.9755L27.2816 19.9755L23.6488 19.9727L23.6473 21.9727ZM27.2809 20.9755C27.2905 21.9754 27.2909 21.9754 27.2914 21.9754C27.2916 21.9754 27.2921 21.9754 27.2924 21.9754C27.293 21.9754 27.2937 21.9754 27.2943 21.9754C27.2956 21.9754 27.2969 21.9753 27.2983 21.9753C27.3009 21.9753 27.3036 21.9752 27.3064 21.9751C27.312 21.975 27.3178 21.9748 27.3239 21.9746C27.336 21.9741 27.3492 21.9733 27.3635 21.9722C27.3917 21.9699 27.4253 21.9662 27.4629 21.9598C27.5345 21.9477 27.6402 21.9228 27.7576 21.8673C28.0294 21.7387 28.3318 21.4493 28.3808 20.9865L26.392 20.7759C26.4082 20.6221 26.4676 20.4602 26.5787 20.3184C26.6846 20.1832 26.8077 20.1041 26.9022 20.0594C26.9945 20.0158 27.0756 19.9969 27.129 19.9879C27.1575 19.9831 27.1836 19.9801 27.2065 19.9783C27.2181 19.9774 27.2293 19.9768 27.24 19.9763C27.2453 19.9761 27.2506 19.9759 27.2558 19.9758C27.2584 19.9757 27.261 19.9757 27.2636 19.9756C27.2649 19.9756 27.2662 19.9756 27.2674 19.9756C27.2681 19.9756 27.2687 19.9755 27.2693 19.9755C27.2697 19.9755 27.2701 19.9755 27.2703 19.9755C27.2708 19.9755 27.2712 19.9755 27.2809 20.9755ZM28.3813 20.9819C28.3779 21.0158 28.4191 20.7445 28.4209 20.3975C28.4228 20.0469 28.3885 19.5677 28.2395 19.0456L26.3162 19.5944C26.4881 20.1965 26.3986 20.7104 26.3915 20.7805L28.3813 20.9819ZM27.5408 18.3552L27.5383 18.3545L27.0124 20.2841L27.0149 20.2848L27.5408 18.3552ZM16.4488 21.6647C16.4342 21.6531 16.4228 21.6439 16.414 21.6365C16.4051 21.6292 16.3995 21.6245 16.3965 21.6218C16.3902 21.6163 16.3981 21.6228 16.4125 21.638C16.4199 21.6459 16.4282 21.6552 16.4367 21.6655C16.4452 21.6758 16.4523 21.6852 16.4578 21.6928C16.4605 21.6964 16.4625 21.6994 16.4639 21.7014C16.4653 21.7034 16.4661 21.7046 16.4661 21.7047C16.4661 21.7047 16.4656 21.7039 16.4643 21.7018C16.4629 21.6997 16.4611 21.6969 16.4585 21.6929L14.773 22.7693C14.8007 22.8127 14.8595 22.9062 14.9569 23.0096C15.0377 23.0954 15.1262 23.1681 15.2012 23.2279L16.4488 21.6647ZM16.4549 21.6873C16.4942 21.7478 16.5062 21.7936 16.5087 21.8043C16.5111 21.8148 16.507 21.8026 16.507 21.7598H14.507C14.507 22.0629 14.5588 22.4388 14.7766 22.7749L16.4549 21.6873ZM16.507 21.7598C16.507 21.7108 16.5152 21.7236 16.4951 21.7671C16.4851 21.7888 16.4709 21.8117 16.4528 21.8331C16.435 21.8543 16.4183 21.8681 16.4075 21.8757L15.2548 20.2413C14.7172 20.6205 14.507 21.189 14.507 21.7598H16.507ZM15.6351 20.0779C15.7539 20.0615 16.1071 20.0973 16.3249 20.1888C16.5879 20.4048 16.8226 20.9281 16.8253 21.1671C16.8048 21.2867 16.7453 21.4639 16.7167 21.5231C16.6974 21.5581 16.6622 21.6147 16.647 21.6367C16.5992 21.7043 16.552 21.7516 16.5506 21.753C16.5274 21.777 16.5081 21.7945 16.5041 21.7981C16.4901 21.8109 16.4789 21.8202 16.4737 21.8245C16.4613 21.8348 16.4515 21.8424 16.4449 21.8474C16.431 21.8578 16.4217 21.8638 16.4174 21.8664C16.4084 21.872 16.4162 21.8661 16.4428 21.8557C16.493 21.8361 16.6291 21.7933 16.8718 21.7963L16.8967 19.7964C16.399 19.7903 16.0075 19.8787 15.7157 19.9926C15.5712 20.0489 15.4544 20.1103 15.3639 20.1664C15.3188 20.1943 15.2795 20.2214 15.2459 20.2466C15.2295 20.2589 15.2124 20.2723 15.1953 20.2865C15.1877 20.2928 15.1749 20.3036 15.1597 20.3174C15.1551 20.3215 15.1355 20.3393 15.1121 20.3636C15.1105 20.3651 15.0633 20.4126 15.0154 20.4802C15.0002 20.5022 14.965 20.5588 14.9457 20.5938C14.917 20.6531 14.8576 20.8303 14.8371 20.9498C14.8397 21.1889 15.0744 21.7122 15.3375 21.9281C15.5553 22.0197 15.9084 22.0555 16.0273 22.0391L15.6351 20.0779ZM16.8664 21.7962C17.1511 21.8013 17.4352 21.8255 17.7167 21.8687L18.02 19.8919C17.6499 19.8351 17.2765 19.8032 16.9022 19.7965L16.8664 21.7962ZM16.8683 20.8803V22.5289H18.8683V20.8803H16.8683ZM17.8683 23.5289H17.8688V21.5289H17.8683V23.5289ZM17.8688 22.5289C17.6581 21.5513 17.6582 21.5513 17.6583 21.5513C17.6583 21.5513 17.6584 21.5512 17.6584 21.5512C17.6585 21.5512 17.6586 21.5512 17.6587 21.5512C17.6589 21.5511 17.659 21.5511 17.6591 21.5511C17.6593 21.5511 17.6594 21.551 17.6594 21.551C17.6594 21.551 17.659 21.5511 17.6581 21.5513C17.6564 21.5517 17.6531 21.5523 17.6482 21.5533C17.6385 21.5553 17.6226 21.5585 17.6013 21.5626C17.5587 21.5707 17.4951 21.5823 17.4165 21.5948C17.2572 21.6202 17.0465 21.648 16.8292 21.661L16.9494 23.6574C17.2518 23.6392 17.5308 23.6018 17.7314 23.5698C17.8327 23.5537 17.9165 23.5385 17.9763 23.5271C18.0063 23.5214 18.0304 23.5166 18.0478 23.513C18.0565 23.5112 18.0636 23.5098 18.0689 23.5087C18.0716 23.5081 18.0738 23.5076 18.0755 23.5073C18.0764 23.5071 18.0772 23.5069 18.0778 23.5068C18.0782 23.5067 18.0785 23.5066 18.0787 23.5066C18.0789 23.5065 18.079 23.5065 18.0791 23.5065C18.0792 23.5065 18.0793 23.5065 18.0793 23.5065C18.0794 23.5064 18.0795 23.5064 17.8688 22.5289ZM16.8293 21.661C16.5879 21.6755 16.4507 21.6392 16.4003 21.6222C16.3736 21.6132 16.3656 21.6077 16.3748 21.6128C16.3792 21.6153 16.3885 21.6207 16.4023 21.6301C16.409 21.6346 16.4184 21.6412 16.4302 21.65C16.4352 21.6538 16.4451 21.6612 16.4575 21.6713C16.4612 21.6743 16.4775 21.6874 16.4974 21.7055C16.4977 21.7057 16.5397 21.7426 16.5846 21.7948C16.5995 21.8124 16.6356 21.8591 16.6562 21.8885C16.6898 21.9419 16.7714 22.1186 16.8065 22.2456C16.8207 22.5598 16.4874 23.1984 16.1227 23.4028C15.9209 23.4431 15.6266 23.4272 15.5397 23.4053L16.1144 21.4896C16.0275 21.4678 15.7332 21.4519 15.5314 21.4922C15.1667 21.6965 14.8334 22.3351 14.8476 22.6493C14.8827 22.7763 14.9643 22.9531 14.9979 23.0065C15.0185 23.0359 15.0546 23.0826 15.0695 23.1002C15.1145 23.1525 15.1565 23.1894 15.1569 23.1898C15.1772 23.208 15.1939 23.2215 15.1981 23.225C15.2117 23.236 15.2233 23.2448 15.2308 23.2505C15.2475 23.2629 15.2644 23.2749 15.2812 23.2863C15.3154 23.3094 15.3555 23.3344 15.4017 23.3602C15.4946 23.4119 15.6139 23.4677 15.7608 23.5172C16.0576 23.6174 16.4527 23.6873 16.9493 23.6574L16.8293 21.661ZM16.3124 21.5731L16.3103 21.572L15.3397 23.3206L15.3417 23.3218L16.3124 21.5731ZM17.3422 18.8968C17.1607 18.8835 16.9429 18.878 16.7033 18.878V20.878C16.919 20.878 17.0828 20.8832 17.1957 20.8914L17.3422 18.8968ZM16.7033 18.878C16.3108 18.878 15.9214 18.9268 15.5501 19.0272L16.0723 20.9578C16.262 20.9065 16.475 20.878 16.7033 20.878V18.878ZM15.5506 19.0271C15.1635 19.1316 14.7962 19.2982 14.4704 19.5328L15.639 21.1559C15.7501 21.0759 15.8933 21.0062 16.0718 20.958L15.5506 19.0271ZM14.474 19.5303C14.1301 19.7756 13.8472 20.0967 13.6473 20.4688L15.4091 21.4154C15.4639 21.3135 15.5413 21.2256 15.6355 21.1584L14.474 19.5303ZM13.6474 20.4687C13.4291 20.8748 13.3341 21.3227 13.3341 21.7791H15.3341C15.3341 21.6009 15.3702 21.4878 15.409 21.4156L13.6474 20.4687ZM13.3341 21.7791C13.3341 22.2122 13.4088 22.6476 13.6006 23.0431L15.4002 22.1705C15.3712 22.1107 15.3341 21.9898 15.3341 21.7791H13.3341ZM13.5985 23.0388C13.7786 23.4147 14.0496 23.7398 14.3871 23.9844L15.5609 22.3651C15.493 22.3158 15.4385 22.2505 15.4023 22.1748L13.5985 23.0388ZM14.3857 23.9834C14.7142 24.2224 15.094 24.3806 15.4935 24.4701L15.9307 22.5185C15.7554 22.4792 15.6371 22.4205 15.5623 22.3661L14.3857 23.9834ZM15.4896 24.4693C15.8609 24.554 16.2591 24.5923 16.6732 24.5923V22.5923C16.3791 22.5923 16.1335 22.5648 15.9346 22.5194L15.4896 24.4693ZM16.6732 24.5923C17.1012 24.5923 17.527 24.5564 17.9408 24.4866L17.6083 22.5144C17.3047 22.5656 16.9901 22.5923 16.6732 22.5923V24.5923ZM17.9445 24.486C18.264 24.4309 18.5822 24.369 18.8991 24.3004L18.4756 22.3457C18.1865 22.4083 17.8961 22.4648 17.6046 22.5151L17.9445 24.486ZM18.9115 24.2976C18.9846 24.2808 19.0583 24.2621 19.1112 24.2484C19.1382 24.2414 19.1611 24.2354 19.1774 24.231C19.1856 24.2288 19.1922 24.227 19.197 24.2258C19.1993 24.2251 19.2012 24.2246 19.2026 24.2242C19.2033 24.2241 19.2039 24.2239 19.2043 24.2238C19.2045 24.2237 19.2047 24.2237 19.2049 24.2236C19.205 24.2236 19.205 24.2236 19.2051 24.2236C19.2051 24.2236 19.2052 24.2236 19.2052 24.2235C19.2052 24.2235 19.2052 24.2235 19.2052 24.2235C19.2052 24.2235 19.2053 24.2235 18.9426 23.2586C18.6799 22.2938 18.6799 22.2938 18.6799 22.2938C18.6799 22.2938 18.6799 22.2938 18.6799 22.2938C18.6799 22.2937 18.68 22.2937 18.68 22.2937C18.68 22.2937 18.68 22.2937 18.68 22.2937C18.6801 22.2937 18.6801 22.2937 18.68 22.2937C18.6799 22.2937 18.6798 22.2938 18.6794 22.2939C18.6788 22.2941 18.6777 22.2944 18.6762 22.2948C18.6731 22.2956 18.6682 22.2969 18.662 22.2986C18.6493 22.3019 18.6311 22.3068 18.6094 22.3124C18.5649 22.3239 18.511 22.3375 18.4632 22.3485L18.9115 24.2976ZM19.1886 24.2279C19.6338 24.1149 19.8686 23.7836 19.9603 23.5242C20.0014 23.4081 20.0161 23.3058 20.0218 23.2358C20.0247 23.1991 20.0256 23.1665 20.0254 23.1391C20.0254 23.1253 20.0251 23.1124 20.0246 23.1007C20.0243 23.0948 20.0241 23.0891 20.0238 23.0837C20.0236 23.081 20.0234 23.0784 20.0233 23.0758C20.0232 23.0745 20.0231 23.0732 20.023 23.072C20.023 23.0714 20.0229 23.0707 20.0229 23.0701C20.0229 23.0698 20.0228 23.0693 20.0228 23.0692C20.0228 23.0687 20.0228 23.0682 19.0253 23.14C18.0279 23.2118 18.0279 23.2113 18.0278 23.2108C18.0278 23.2107 18.0278 23.2102 18.0278 23.2099C18.0277 23.2093 18.0277 23.2087 18.0277 23.2081C18.0276 23.2068 18.0275 23.2056 18.0274 23.2043C18.0272 23.2019 18.0271 23.1993 18.027 23.1968C18.0267 23.1918 18.0264 23.1867 18.0262 23.1815C18.0258 23.1712 18.0255 23.1604 18.0255 23.1492C18.0254 23.1271 18.026 23.1022 18.0283 23.0749C18.0324 23.0236 18.0432 22.9467 18.0748 22.8573C18.1069 22.7665 18.1672 22.6446 18.2796 22.5301C18.3981 22.4094 18.5443 22.328 18.6965 22.2894L19.1886 24.2279ZM20.0253 23.1394L20.0233 19.8284L18.0233 19.8297L18.0253 23.1406L20.0253 23.1394ZM20.0233 19.8291C20.0233 18.9432 19.7859 18.0691 19.1027 17.4745L17.7896 18.9831C17.8726 19.0552 18.0233 19.2618 18.0233 19.8291H20.0233ZM19.104 17.4756C18.475 16.9262 17.6444 16.7275 16.7815 16.7275V18.7275C17.3671 18.7275 17.6539 18.8645 17.7883 18.9819L19.104 17.4756ZM16.7815 16.7275C16.458 16.7275 15.9513 16.7684 15.6119 16.8366L16.0058 18.7974C16.1907 18.7602 16.5623 18.7275 16.7815 18.7275V16.7275ZM15.8089 17.817C15.6183 16.8353 15.6181 16.8353 15.618 16.8354C15.618 16.8354 15.6179 16.8354 15.6178 16.8354C15.6176 16.8354 15.6174 16.8355 15.6172 16.8355C15.6168 16.8356 15.6164 16.8357 15.6159 16.8358C15.6149 16.836 15.6137 16.8362 15.6123 16.8365C15.6095 16.837 15.606 16.8377 15.6018 16.8386C15.5933 16.8403 15.5818 16.8427 15.5678 16.8456C15.5397 16.8515 15.501 16.86 15.4541 16.8709C15.3612 16.8924 15.2325 16.9245 15.0897 16.9666C14.8531 17.0364 14.4041 17.1811 14.0749 17.4389L15.308 19.0136C15.288 19.0292 15.3054 19.0123 15.3905 18.9766C15.4657 18.9451 15.5578 18.9137 15.6555 18.8849C15.7513 18.8566 15.8407 18.8343 15.9063 18.8191C15.9387 18.8116 15.9643 18.806 15.9808 18.8025C15.989 18.8008 15.9949 18.7996 15.9981 18.7989C15.9997 18.7986 16.0007 18.7984 16.0009 18.7984C16.001 18.7983 16.001 18.7983 16.0008 18.7984C16.0006 18.7984 16.0005 18.7984 16.0003 18.7985C16.0002 18.7985 16.0001 18.7985 15.9999 18.7986C15.9999 18.7986 15.9998 18.7986 15.9997 18.7986C15.9996 18.7986 15.9995 18.7986 15.8089 17.817ZM14.6914 18.2262C14.1673 17.3746 14.1668 17.3749 14.1663 17.3752C14.1661 17.3753 14.1656 17.3757 14.1652 17.3759C14.1645 17.3763 14.1638 17.3768 14.1631 17.3772C14.1617 17.3781 14.1603 17.379 14.1588 17.3799C14.156 17.3817 14.153 17.3835 14.1501 17.3855C14.1441 17.3893 14.138 17.3933 14.1317 17.3976C14.1191 17.4061 14.1056 17.4155 14.0916 17.426C14.0636 17.4468 14.032 17.4724 13.9989 17.5033C13.9338 17.564 13.8539 17.6533 13.7859 17.776C13.6289 18.0591 13.5992 18.4063 13.7274 18.7344L15.5902 18.0064C15.6284 18.1042 15.6548 18.2297 15.6451 18.373C15.6355 18.5163 15.5921 18.6428 15.5351 18.7456C15.4801 18.8448 15.4156 18.9168 15.3628 18.9661C15.3358 18.9913 15.3095 19.0127 15.2853 19.0307C15.2731 19.0397 15.2612 19.0481 15.2496 19.0559C15.2438 19.0599 15.2381 19.0636 15.2324 19.0673C15.2296 19.0691 15.2267 19.0709 15.2239 19.0727C15.2225 19.0736 15.2211 19.0744 15.2197 19.0753C15.219 19.0757 15.2183 19.0762 15.2176 19.0766C15.2173 19.0768 15.2168 19.0771 15.2166 19.0772C15.2161 19.0776 15.2156 19.0779 14.6914 18.2262ZM13.722 18.7202L13.9795 19.4099L15.8532 18.7104L15.5956 18.0207L13.722 18.7202ZM13.9746 19.3967C14.0396 19.5786 14.1572 19.7606 14.3399 19.9007C14.5179 20.0372 14.7052 20.0938 14.852 20.1139C14.9939 20.1333 15.1123 20.1213 15.1884 20.1084C15.2287 20.1015 15.2639 20.0933 15.2928 20.0855C15.3074 20.0815 15.3208 20.0776 15.333 20.0737C15.3392 20.0718 15.345 20.0699 15.3506 20.0681C15.3534 20.0671 15.3561 20.0662 15.3588 20.0653C15.3601 20.0649 15.3614 20.0644 15.3627 20.064C15.3634 20.0637 15.364 20.0635 15.3646 20.0633C15.365 20.0632 15.3654 20.063 15.3656 20.063C15.3661 20.0628 15.3666 20.0626 15.0354 19.119C14.7043 18.1755 14.7048 18.1753 14.7052 18.1751C14.7054 18.1751 14.7059 18.1749 14.7062 18.1748C14.7068 18.1746 14.7075 18.1744 14.7081 18.1741C14.7094 18.1737 14.7106 18.1733 14.7119 18.1728C14.7145 18.1719 14.7171 18.1711 14.7197 18.1702C14.725 18.1684 14.7303 18.1667 14.7358 18.165C14.7467 18.1616 14.7583 18.1582 14.7705 18.1549C14.7945 18.1484 14.8225 18.1419 14.8542 18.1365C14.9129 18.1265 15.0076 18.1165 15.1237 18.1324C15.2447 18.149 15.4042 18.1965 15.5569 18.3136C15.7143 18.4343 15.809 18.5865 15.858 18.7237L13.9746 19.3967ZM15.0354 19.119C15.4027 20.0491 15.4028 20.0491 15.4029 20.0491C15.4029 20.0491 15.403 20.049 15.4031 20.049C15.4032 20.0489 15.4033 20.0489 15.4035 20.0488C15.4037 20.0488 15.404 20.0487 15.4042 20.0486C15.4047 20.0483 15.4052 20.0481 15.4058 20.0479C15.4068 20.0475 15.4079 20.0471 15.409 20.0466C15.4113 20.0457 15.4137 20.0448 15.4162 20.0437C15.4213 20.0416 15.427 20.0393 15.4332 20.0366C15.4455 20.0313 15.4604 20.0247 15.4772 20.0169C15.5097 20.0017 15.5545 19.9793 15.6049 19.9493L14.585 18.229C14.6033 18.2181 14.6183 18.2107 14.6291 18.2056C14.635 18.2029 14.641 18.2002 14.6472 18.1975C14.6504 18.1962 14.6536 18.1948 14.6571 18.1934C14.6588 18.1927 14.6606 18.1919 14.6624 18.1912C14.6633 18.1908 14.6643 18.1905 14.6652 18.1901C14.6657 18.1899 14.6662 18.1897 14.6666 18.1895C14.6669 18.1894 14.6671 18.1893 14.6674 18.1892C14.6675 18.1892 14.6676 18.1891 14.6677 18.1891C14.6678 18.1891 14.6679 18.189 14.6679 18.189C14.668 18.189 14.6681 18.189 15.0354 19.119ZM15.5732 19.9674C15.7754 19.8573 16.0398 19.7887 16.2893 19.7526C16.4074 19.7355 16.5084 19.7276 16.5774 19.7241C16.6117 19.7223 16.6372 19.7216 16.652 19.7214C16.6594 19.7213 16.6641 19.7212 16.6657 19.7212C16.6666 19.7212 16.6667 19.7212 16.666 19.7212C16.6657 19.7212 16.6651 19.7212 16.6644 19.7212C16.664 19.7212 16.6636 19.7212 16.6631 19.7212C16.6629 19.7212 16.6626 19.7212 16.6624 19.7212C16.6622 19.7212 16.662 19.7212 16.662 19.7212C16.6618 19.7212 16.6615 19.7212 16.6746 18.7213C16.6876 17.7214 16.6874 17.7214 16.6871 17.7214C16.6871 17.7214 16.6868 17.7213 16.6867 17.7213C16.6864 17.7213 16.686 17.7213 16.6857 17.7213C16.685 17.7213 16.6843 17.7213 16.6835 17.7213C16.6819 17.7213 16.6801 17.7213 16.678 17.7213C16.6739 17.7212 16.669 17.7212 16.6632 17.7212C16.6516 17.7213 16.6366 17.7214 16.6185 17.7217C16.5824 17.7223 16.5335 17.7237 16.474 17.7267C16.3557 17.7329 16.1925 17.7458 16.0028 17.7733C15.6366 17.8263 15.1112 17.9417 14.6167 18.2109L15.5732 19.9674ZM16.6746 19.7213C16.8052 19.7213 16.891 19.7348 16.9406 19.7478C16.9898 19.7607 16.9881 19.7687 16.9627 19.7493L18.1799 18.1623C17.7316 17.8185 17.1745 17.7213 16.6746 17.7213V19.7213ZM16.9623 19.749C16.9462 19.7366 16.9215 19.7142 16.8974 19.6816C16.8734 19.6491 16.8608 19.6212 16.8557 19.6072C16.8514 19.5955 16.8556 19.6024 16.8605 19.6384C16.8655 19.6749 16.8702 19.733 16.8702 19.8203H18.8702C18.8702 19.2039 18.7376 18.5905 18.1802 18.1626L16.9623 19.749ZM16.8702 19.8203V19.9737H18.8702V19.8203H16.8702ZM18.0139 18.9841C17.8435 18.9593 17.6817 18.9401 17.5638 18.9272C17.5045 18.9207 17.4553 18.9157 17.4204 18.9122C17.403 18.9105 17.3891 18.9092 17.3792 18.9083C17.3743 18.9078 17.3704 18.9074 17.3676 18.9072C17.3662 18.907 17.365 18.9069 17.3642 18.9069C17.3637 18.9068 17.3634 18.9068 17.3631 18.9068C17.3629 18.9067 17.3628 18.9067 17.3627 18.9067C17.3626 18.9067 17.3626 18.9067 17.3625 18.9067C17.3625 18.9067 17.3625 18.9067 17.3625 18.9067C17.3624 18.9067 17.3624 18.9067 17.2724 19.9026C17.1823 20.8986 17.1823 20.8986 17.1823 20.8986C17.1823 20.8986 17.1823 20.8986 17.1822 20.8986C17.1822 20.8986 17.1822 20.8986 17.1822 20.8986C17.1821 20.8986 17.1821 20.8986 17.1821 20.8986C17.1821 20.8986 17.1821 20.8986 17.1822 20.8986C17.1825 20.8986 17.183 20.8986 17.1838 20.8987C17.1853 20.8988 17.1879 20.8991 17.1914 20.8994C17.1985 20.9001 17.2095 20.9011 17.2238 20.9026C17.2526 20.9054 17.2946 20.9097 17.3459 20.9153C17.4493 20.9266 17.5865 20.943 17.7265 20.9633L18.0139 18.9841ZM18.199 19.5267L18.1956 19.5182L16.3423 20.27L16.3457 20.2785L18.199 19.5267ZM47.3879 18.4207C47.4462 18.2855 47.4768 18.1398 47.4776 17.9923L45.4777 17.9806C45.4784 17.8595 45.5035 17.7399 45.5513 17.6289L47.3879 18.4207ZM47.4776 17.9923C47.4785 17.8449 47.4497 17.6988 47.393 17.5629L45.5472 18.333C45.5006 18.2215 45.477 18.1016 45.4777 17.9806L47.4776 17.9923ZM47.393 17.5629C47.3362 17.4269 47.2527 17.3037 47.1473 17.2006L45.7488 18.6304C45.6623 18.5458 45.5938 18.4447 45.5472 18.333L47.393 17.5629ZM47.1473 17.2006C47.0419 17.0976 46.9169 17.0168 46.7797 16.963L46.0506 18.8254C45.9379 18.7813 45.8353 18.715 45.7488 18.6304L47.1473 17.2006ZM46.7697 16.9592C46.6413 16.9105 46.4615 16.8748 46.3581 16.8558C46.2223 16.8308 46.0432 16.8037 45.8701 16.7929L45.7461 18.7891C45.8099 18.793 45.9034 18.8057 45.9964 18.8228C46.0404 18.8309 46.0766 18.8386 46.1005 18.8442C46.1126 18.847 46.1178 18.8484 46.1171 18.8482C46.1167 18.8481 46.1123 18.8469 46.105 18.8447C46.0991 18.8428 46.0827 18.8377 46.0606 18.8293L46.7697 16.9592ZM45.8706 16.7929C45.241 16.7535 44.8268 16.8658 44.4631 17.0289L45.2815 18.8538C45.3495 18.8233 45.3932 18.8089 45.4426 18.7994C45.4951 18.7894 45.5867 18.7791 45.7456 18.789L45.8706 16.7929ZM44.4613 17.0298C44.1629 17.1643 43.737 17.4167 43.4537 17.8038L45.0677 18.9848C45.0545 19.0029 45.0631 18.9862 45.116 18.9483C45.1645 18.9136 45.2246 18.8795 45.2834 18.853L44.4613 17.0298ZM45.2607 18.3933L45.2603 17.9518L43.2603 17.9539L43.2607 18.3954L45.2607 18.3933ZM45.2603 17.9529C45.2603 17.412 44.8391 16.8432 44.1561 16.8432V18.8432C43.5955 18.8432 43.2603 18.3723 43.2603 17.9529H45.2603ZM44.1561 16.8432H43.2272V18.8432H44.1561V16.8432ZM43.2272 16.8432C42.548 16.8432 42.1233 17.409 42.1233 17.9529H44.1233C44.1233 18.3753 43.7859 18.8432 43.2272 18.8432V16.8432ZM42.1233 17.9529V23.3561H44.1233V17.9529H42.1233ZM42.1233 23.3582C42.1239 23.6519 42.2408 23.9334 42.4485 24.1411L43.8627 22.7268C44.0291 22.8932 44.1228 23.1187 44.1233 23.3541L42.1233 23.3582ZM42.4485 24.1411C42.6562 24.3487 42.9376 24.4657 43.2313 24.4663L43.2355 22.4663C43.4708 22.4668 43.6963 22.5605 43.8627 22.7268L42.4485 24.1411ZM43.2334 24.4663H44.1853V22.4663H43.2334V24.4663ZM44.1874 24.4663C44.4814 24.4657 44.7632 24.3484 44.9709 24.1403L43.5552 22.7276C43.7217 22.5607 43.9475 22.4668 44.1832 22.4663L44.1874 24.4663ZM44.9709 24.1403C45.1786 23.9322 45.2952 23.6501 45.2952 23.3561L43.2952 23.3561C43.2952 23.1205 43.3887 22.8944 43.5552 22.7276L44.9709 24.1403ZM45.2952 23.3561V20.643H43.2952V23.3561H45.2952ZM45.2952 20.643C45.2952 20.3193 45.3344 20.0911 45.3587 20.0219L43.4713 19.3603C43.336 19.7463 43.2952 20.2402 43.2952 20.643H45.2952ZM45.3591 20.0209C45.4011 19.9005 45.4371 19.8671 45.4312 19.8728L44.0333 18.4425C43.764 18.7058 43.5862 19.0315 43.4709 19.3613L45.3591 20.0209ZM45.4356 19.8685C45.4472 19.8571 45.4613 19.8486 45.4769 19.8438L44.8844 17.9335C44.5622 18.0335 44.2688 18.2095 44.029 18.4468L45.4356 19.8685ZM45.4565 19.8499C45.5252 19.8301 45.5964 19.8201 45.6679 19.8201L45.6683 17.8201C45.41 17.8201 45.153 17.8562 44.9048 17.9275L45.4565 19.8499ZM45.6681 19.8201C45.6875 19.8201 45.7282 19.8236 45.7792 19.8318C45.8013 19.8354 45.8196 19.8389 45.8311 19.8412C45.8368 19.8424 45.8404 19.8432 45.8418 19.8434C45.8424 19.8436 45.8424 19.8436 45.8418 19.8435C45.8415 19.8434 45.841 19.8433 45.8403 19.8431C45.84 19.843 45.8396 19.843 45.8392 19.8429C45.839 19.8428 45.8388 19.8428 45.8385 19.8427C45.8384 19.8427 45.8383 19.8426 45.8382 19.8426C45.8381 19.8426 45.838 19.8426 45.838 19.8426C45.8379 19.8425 45.8378 19.8425 46.0659 18.8689C46.294 17.8952 46.2939 17.8952 46.2938 17.8952C46.2937 17.8952 46.2936 17.8952 46.2936 17.8952C46.2934 17.8951 46.2933 17.8951 46.2931 17.8951C46.2929 17.895 46.2926 17.8949 46.2923 17.8948C46.2916 17.8947 46.2909 17.8945 46.2902 17.8944C46.2888 17.894 46.2871 17.8937 46.2852 17.8932C46.2814 17.8924 46.2768 17.8913 46.2714 17.8901C46.2606 17.8878 46.2465 17.8847 46.2297 17.8813C46.1963 17.8745 46.1507 17.8659 46.097 17.8572C45.9966 17.8411 45.8384 17.8201 45.6681 17.8201V19.8201ZM45.9547 19.8627C46.2376 19.8943 46.5389 19.8207 46.7842 19.6192C46.9957 19.4455 47.0915 19.2369 47.1344 19.1228L45.2623 18.4191C45.2815 18.368 45.346 18.2123 45.5147 18.0738C45.7171 17.9074 45.964 17.8513 46.177 17.8751L45.9547 19.8627ZM47.1344 19.1228C47.2009 18.9457 47.3808 18.4404 47.4161 18.3393L45.5277 17.6805C45.494 17.7771 45.3203 18.2646 45.2622 18.4191L47.1344 19.1228Z" fill="black" mask="url(#path-5-inside-2_3027_1641)"/>
<path d="M36.3913 15.9286C36.0115 15.9789 35.739 16.117 35.5465 16.3111L35.5464 16.3112C35.2842 16.5754 35.0687 17.0177 34.9556 17.6872L34.9547 17.6927L34.9547 17.6927L34.9103 17.9385L34.8403 18.3262H34.8553L34.7499 18.9144L33.9371 23.4514C33.937 23.4518 33.9369 23.4522 33.9369 23.4526C33.8708 23.8319 33.7922 24.1624 33.6986 24.4266C33.6986 24.4266 33.6986 24.4267 33.6985 24.4267L33.2272 24.2598C33.1477 24.4847 33.07 24.6532 32.9743 24.7755L36.3913 15.9286ZM36.3913 15.9286C36.3236 15.9411 36.2566 15.9576 36.1907 15.978L36.1907 15.9779L36.1827 15.9805C35.9921 16.0429 35.8193 16.1502 35.6789 16.2933C35.5614 16.4114 35.3988 16.6057 35.3079 16.8678L36.3913 15.9286ZM32.5139 25.5731C32.6893 25.5562 32.842 25.5227 32.9678 25.4772L32.5139 25.5731ZM32.5139 25.5731C32.6112 25.5592 32.7076 25.5375 32.8013 25.506C32.8014 25.5059 32.8016 25.5059 32.8017 25.5058L32.5139 25.5731ZM33.437 25.1444L33.4374 25.144C33.5943 24.9706 33.6992 24.7864 33.8121 24.4905L33.437 25.1444ZM33.437 25.1444C33.2859 25.3117 33.131 25.4182 32.968 25.4772L33.437 25.1444ZM36.9018 16.2387C36.9019 16.2386 36.9021 16.238 36.9025 16.237L36.9023 16.2377C36.902 16.2384 36.9018 16.2387 36.9018 16.2387ZM37.3594 15.9974C37.3595 15.9974 37.3589 15.9973 37.3577 15.9969L37.3594 15.9974ZM34.9673 18.3497H34.9917L35.3079 16.8679C35.1626 17.2871 35.0918 17.7819 35.1004 17.7426L34.9673 18.3497ZM20.8752 16.0247V22.9854H20.7053V16.0247H20.8752Z" stroke="black"/>
</svg>
