<svg width="215" height="108" viewBox="0 0 215 108" fill="none" xmlns="http://www.w3.org/2000/svg">
<path d="M209.854 1.27197C207.354 1.27197 205.354 3.27197 205.354 5.77197C205.354 8.27197 207.354 10.272 209.854 10.272C212.354 10.272 214.354 8.27197 214.354 5.77197C214.354 3.27197 212.354 1.27197 209.854 1.27197Z" fill="white"/>
<path d="M0.322643 104.315C0.149338 104.53 0.183129 104.845 0.398117 105.018L3.90155 107.842C4.11654 108.016 4.43132 107.982 4.60462 107.767C4.77793 107.552 4.74413 107.237 4.52915 107.064L1.41498 104.554L3.92535 101.439C4.09866 101.224 4.06487 100.91 3.84988 100.736C3.63489 100.563 3.32012 100.597 3.14681 100.812L0.322643 104.315ZM205.854 5.77197C205.854 3.54812 207.63 1.77197 209.854 1.77197V0.771973C207.078 0.771973 204.854 2.99583 204.854 5.77197H205.854ZM209.854 1.77197C212.078 1.77197 213.854 3.54812 213.854 5.77197H214.854C214.854 2.99583 212.63 0.771973 209.854 0.771973V1.77197ZM213.854 5.77197C213.854 7.99583 212.078 9.77197 209.854 9.77197V10.772C212.63 10.772 214.854 8.54812 214.854 5.77197H213.854ZM209.854 9.77197C207.63 9.77197 205.854 7.99583 205.854 5.77197H204.854C204.854 8.54812 207.078 10.772 209.854 10.772V9.77197ZM205.354 5.27197C179.695 5.27197 160.43 10.7825 144.368 19.2312C128.317 27.6742 115.485 39.0425 102.696 50.7121C77.1167 74.0524 51.6426 98.6588 0.658546 104.132L0.765282 105.126C52.1022 99.6152 77.7887 74.793 103.37 51.4508C116.161 39.7791 128.909 28.4927 144.834 20.1163C160.747 11.7456 179.852 6.27197 205.354 6.27197V5.27197Z" fill="black"/>
</svg>
