<svg width="47" height="46" viewBox="0 0 47 46" fill="none" xmlns="http://www.w3.org/2000/svg">
<path d="M24.7268 19.416C22.7007 21.3291 21.4335 24.0412 21.4335 27.052C21.4335 29.4172 22.2164 31.5964 23.5322 33.3482L19.5366 37.3678C19.1814 37.2386 18.802 37.1661 18.4064 37.1661C17.5348 37.1661 16.7195 37.5052 16.106 38.1186C15.4925 38.732 15.1535 39.5551 15.1535 40.4273C15.1535 41.2988 15.4924 42.1141 16.106 42.7277C16.7195 43.341 17.5429 43.6639 18.4064 43.6639C19.2782 43.6639 20.0934 43.349 20.715 42.7277C21.3285 42.1141 21.6675 41.2907 21.6675 40.4273C21.6675 40.0882 21.6192 39.7652 21.5141 39.4504L25.5502 35.3983C27.3259 36.7624 29.5375 37.5697 31.951 37.5697C37.7548 37.5697 42.4445 32.8637 42.4445 27.06C42.4445 21.7972 38.5943 17.4384 33.5493 16.6716V11.6994C34.9619 11.1019 35.8255 9.77814 35.8255 8.23634C35.8255 6.12959 34.1385 4.37 32.0317 4.37C29.925 4.37 28.2622 6.12959 28.2622 8.23634C28.2622 9.77814 29.1259 11.1019 30.5384 11.6994V16.6392C29.3116 16.8088 28.1492 17.18 27.0918 17.737C24.864 16.05 17.6074 10.8193 13.4584 7.66322C13.5552 7.30807 13.6199 6.93684 13.6199 6.54943C13.6199 4.22472 11.723 2.33594 9.39025 2.33594C7.06554 2.33594 5.17676 4.22472 5.17676 6.54943C5.17676 8.88222 7.06554 10.771 9.39025 10.771C10.1813 10.771 10.9158 10.5369 11.5535 10.1576L24.7268 19.416ZM31.951 32.6218C28.8757 32.6218 26.3815 30.1275 26.3815 27.052C26.3815 23.9768 28.8757 21.4826 31.951 21.4826C35.0264 21.4826 37.5206 23.9768 37.5206 27.052C37.5207 30.1275 35.0264 32.6218 31.951 32.6218Z" fill="#FF7A59"/>
</svg>
