<svg width="44" height="43" viewBox="0 0 44 43" fill="none" xmlns="http://www.w3.org/2000/svg">
<g clipPath="url(#clip0_1431_10401)">
<path d="M23.059 24.726H28.3884C29.904 24.726 30.8629 23.8927 30.8629 22.5536C30.8629 21.2908 29.904 20.3811 28.3884 20.3811H23.059C22.8825 20.3811 22.7314 20.5322 22.7314 20.6849V24.4222C22.7552 24.5988 22.8808 24.726 23.059 24.726ZM23.059 33.3379H28.5649C30.257 33.3379 31.2669 32.479 31.2669 30.9634C31.2669 29.6497 30.3079 28.589 28.5649 28.589H23.059C22.8825 28.589 22.7314 28.74 22.7314 28.8928V33.0103C22.7552 33.2123 22.8808 33.3379 23.059 33.3379Z" fill="#34313F"/>
<path d="M42.5571 0.783028L26.7965 16.4927H29.373C33.3886 16.4927 35.7631 19.0182 35.7631 21.7711C35.7631 23.9436 34.2984 25.5339 32.7318 26.2417C32.4789 26.3435 32.4789 26.6965 32.7573 26.7967C34.575 27.5044 35.8632 29.3985 35.8632 31.6202C35.8632 34.7516 33.7671 37.2517 29.7005 37.2517H18.5378C18.3612 37.2517 18.2102 37.1006 18.2102 36.9479V25.0519L0.908508 42.2789C0.681077 42.5063 0.832132 42.9103 1.1614 42.9103H42.7591C42.9102 42.9103 43.0375 42.7847 43.0375 42.6319V1.01046C43.1121 0.73211 42.7591 0.581056 42.5571 0.783028Z" fill="#34313F"/>
</g>
<defs>
<clipPath id="clip0_1431_10401">
<rect width="42.2478" height="42.2206" fill="white" transform="translate(0.798828 0.689697)"/>
</clipPath>
</defs>
</svg>
