<svg width="45" height="46" viewBox="0 0 45 46" fill="none" xmlns="http://www.w3.org/2000/svg">
<g clipPath="url(#clip0_1431_10407)">
<path d="M16.2515 30.5872C15.4132 31.4254 15.4132 32.7841 16.2515 33.6223C17.0897 34.4606 18.4484 34.4606 19.2867 33.6223L32.9407 19.9683C34.6164 18.2926 37.3336 18.2926 39.0093 19.9683C40.685 21.644 40.685 24.3613 39.0093 26.037L25.6185 39.4269C27.2925 41.1026 30.008 41.1044 31.6837 39.4304L31.6872 39.4269L42.0463 29.0687C45.3985 25.7164 45.3985 20.2828 42.0463 16.9314C38.694 13.5791 33.2595 13.5791 29.909 16.9314L16.2515 30.5872ZM37.4935 21.4833C36.6552 20.645 35.2966 20.645 34.4591 21.4833L20.8034 35.1373C19.1294 36.813 16.4139 36.8148 14.7382 35.1417L14.7339 35.1373C13.8964 34.2999 12.5387 34.2991 11.7004 35.1365L11.6995 35.1373C10.8612 35.9748 10.8604 37.3334 11.6978 38.1717L11.6995 38.1734C15.0509 41.5239 20.4854 41.5239 23.8368 38.1734L37.4926 24.5176C38.3309 23.6794 38.3309 22.3207 37.4935 21.4833ZM14.7347 29.0696L28.3888 15.4155C29.2262 14.5772 29.2262 13.2186 28.3888 12.3803C27.5513 11.5429 26.1936 11.5429 25.3562 12.3803L11.6995 26.0344C10.0247 27.7101 7.30745 27.7109 5.63175 26.0352L5.63088 26.0344C3.95518 24.3595 3.95345 21.644 5.62828 19.9674L5.63088 19.9648L19.0234 6.57229C17.3486 4.89659 14.6322 4.89572 12.9557 6.57055L12.9539 6.57229L2.59656 16.9314C-0.754841 20.2837 -0.754841 25.7173 2.59656 29.0687C5.94969 32.421 11.3816 32.421 14.7347 29.0696ZM7.14848 24.5176C7.98589 25.355 9.34365 25.355 10.1811 24.5176L23.8377 10.8627C25.5125 9.18704 28.2289 9.18617 29.9046 10.861L29.9064 10.8627C30.7446 11.701 32.1033 11.701 32.9407 10.8627C33.779 10.0245 33.779 8.66582 32.9407 7.82841C29.5884 4.47614 24.1556 4.47614 20.8034 7.82841L7.14848 21.4833C6.3102 22.3207 6.31019 23.6794 7.14761 24.5176H7.14848Z" fill="black"/>
</g>
<defs>
<clipPath id="clip0_1431_10407">
<rect width="44.4768" height="44.4768" fill="white" transform="translate(0.0839844 0.761597)"/>
</clipPath>
</defs>
</svg>
