<svg width="58" height="57" viewBox="0 0 58 57" fill="none" xmlns="http://www.w3.org/2000/svg">
<path d="M22.4636 51.5233C20.6428 51.5233 19.0484 50.9723 17.6804 49.8703C16.3108 48.7683 15.3671 47.3552 14.8494 45.631C14.368 46.4321 13.703 47.0449 12.8544 47.4692C12.0073 47.8951 11.1151 48.1081 10.1777 48.1081C8.52473 48.1081 7.1219 47.5294 5.96923 46.372C4.81657 45.2161 4.24023 43.8149 4.24023 42.1682C4.24023 40.7115 4.74848 39.3839 5.76498 38.1853C6.78307 36.9867 8.06636 36.3803 9.61486 36.3661C8.81844 35.6346 8.18748 34.755 7.72198 33.7275C7.25807 32.6983 7.02611 31.6287 7.02611 30.5188C7.02611 29.2094 7.34832 27.976 7.99273 26.8186C8.63715 25.6612 9.53965 24.708 10.7002 23.9591C10.8063 24.3074 10.9512 24.6819 11.1349 25.0825C11.3185 25.4815 11.5062 25.8409 11.6977 26.1607C10.9615 26.718 10.4049 27.3799 10.0281 28.1462C9.64969 28.9125 9.46048 29.7232 9.46048 30.5782C9.46048 33.0387 10.3709 34.6252 12.1917 35.3377C14.0126 36.0502 15.8864 36.5949 17.8134 36.9717L18.3477 37.9122C17.9123 39.1789 17.5592 40.25 17.2885 41.1256C17.0193 42.0012 16.8847 42.8102 16.8847 43.5528C16.8847 45.0459 17.4231 46.3442 18.4997 47.4478C19.5812 48.5514 20.8874 49.1032 22.4185 49.1032C23.9591 49.1032 25.2455 48.5728 26.2779 47.512C27.3102 46.4511 28.1707 45.1528 28.8595 43.617C29.5498 42.0811 30.0984 40.4558 30.5054 38.7411C30.9107 37.0263 31.2479 35.5158 31.5171 34.2096C31.6042 33.8106 31.7879 33.4995 32.0681 33.2762C32.3484 33.053 32.6532 32.9944 32.9825 33.1005C33.3514 33.2065 33.6127 33.4266 33.7662 33.7607C33.9198 34.0964 33.9475 34.4637 33.8494 34.8627C33.5248 36.4698 33.1234 38.2415 32.6452 40.178C32.1671 42.1144 31.5084 43.9233 30.6692 45.6048C29.8301 47.2847 28.7566 48.6915 27.4487 49.8252C26.1409 50.9573 24.4792 51.5233 22.4636 51.5233ZM10.1777 45.7331C11.1547 45.7331 11.993 45.3832 12.6929 44.6833C13.3911 43.9867 13.7402 43.1491 13.7402 42.1706C13.7402 41.1921 13.3911 40.3537 12.6929 39.6555C11.993 38.9572 11.1547 38.6081 10.1777 38.6081C9.20082 38.6081 8.36244 38.9572 7.66261 39.6555C6.96436 40.3537 6.61523 41.1921 6.61523 42.1706C6.61523 43.1475 6.96436 43.9851 7.66261 44.6833C8.36244 45.3832 9.20082 45.7331 10.1777 45.7331ZM25.4727 35.086C25.2036 35.3567 24.8774 35.4549 24.4942 35.3805C24.1126 35.306 23.7659 35.1335 23.454 34.8627C20.5597 32.2439 18.2163 29.8752 16.424 27.7567C14.6348 25.6366 13.7402 23.3313 13.7402 20.8407C13.7402 18.6035 14.5066 16.7177 16.0392 15.1835C17.5735 13.6508 19.4592 12.8845 21.6965 12.8845C22.1287 12.8845 22.5182 12.9098 22.865 12.9605C23.2117 13.0111 23.5411 13.0824 23.853 13.1742C23.663 12.8069 23.5134 12.4332 23.4041 12.0532C23.2949 11.6732 23.2402 11.2655 23.2402 10.8301C23.2402 9.18499 23.8181 7.78374 24.974 6.62633C26.133 5.47049 27.5342 4.89258 29.1777 4.89258C30.8212 4.89258 32.2225 5.47049 33.3815 6.62633C34.5373 7.78374 35.1152 9.18499 35.1152 10.8301C35.1152 11.2655 35.0598 11.6708 34.949 12.0461C34.8382 12.4213 34.6893 12.7918 34.5025 13.1576C34.8128 13.0673 35.1422 12.9992 35.4905 12.9533C35.8372 12.9074 36.2267 12.8845 36.659 12.8845C38.4561 12.8845 40.0259 13.3951 41.3686 14.4163C42.7113 15.4376 43.632 16.7415 44.1307 18.328C43.7539 18.271 43.3327 18.2425 42.8672 18.2425C42.4033 18.2425 41.9782 18.2662 41.5919 18.3137C41.1628 17.4049 40.5136 16.6686 39.6444 16.105C38.7735 15.5413 37.7784 15.2595 36.659 15.2595C35.1817 15.2595 34.0045 15.6426 33.1274 16.409C32.2502 17.1753 31.107 18.3755 29.6979 20.0095H28.5982C27.1511 18.3264 25.9889 17.1135 25.1117 16.371C24.2346 15.6284 23.0962 15.2579 21.6965 15.2595C20.0942 15.2595 18.7642 15.7899 17.7065 16.8507C16.6457 17.9084 16.1152 19.2384 16.1152 20.8407C16.1152 22.595 16.9045 24.4412 18.4831 26.3792C20.0617 28.3172 22.2689 30.5845 25.1046 33.1812C25.4149 33.444 25.6192 33.7615 25.7174 34.1336C25.8171 34.5072 25.7356 34.8247 25.4727 35.086ZM29.1777 14.3926C30.1547 14.3926 30.993 14.0427 31.6929 13.3428C32.3911 12.6446 32.7402 11.807 32.7402 10.8301C32.7402 9.85158 32.3911 9.0132 31.6929 8.31495C30.993 7.6167 30.1547 7.26758 29.1777 7.26758C28.2008 7.26758 27.3624 7.61591 26.6626 8.31258C25.9644 9.01241 25.6152 9.85158 25.6152 10.8301C25.6152 11.807 25.9644 12.6446 26.6626 13.3428C27.3624 14.0427 28.2008 14.3926 29.1777 14.3926ZM35.7399 51.5685C35.1746 51.5685 34.6189 51.5107 34.0726 51.3951C33.5248 51.2795 32.992 51.0863 32.4742 50.8156C32.6959 50.5353 32.9184 50.202 33.1416 49.8157C33.3633 49.4294 33.5612 49.0715 33.7354 48.7422C34.0805 48.8974 34.432 49.0042 34.7899 49.0628C35.1493 49.1198 35.5016 49.1483 35.8467 49.1483C37.3873 49.1483 38.7047 48.5965 39.7987 47.493C40.8928 46.3894 41.4399 45.072 41.4399 43.541C41.4399 42.7889 41.3053 41.9845 41.0361 41.128C40.7638 40.273 40.4099 39.2121 39.9745 37.9455L40.554 37.005C42.5221 36.6265 44.4062 36.074 46.2065 35.3472C48.0083 34.6189 48.9092 33.0245 48.9092 30.564C48.9092 28.6465 48.2339 27.2247 46.8834 26.2985C45.5328 25.3722 44.0128 24.9091 42.3234 24.9091C40.8762 24.9091 39.2042 25.1387 37.3074 25.5978C35.4105 26.057 33.2493 26.6785 30.8236 27.4622C30.423 27.5699 30.0509 27.5707 29.7074 27.4646C29.3638 27.3601 29.1382 27.1234 29.0305 26.7545C28.9244 26.3871 28.9854 26.0507 29.2134 25.7451C29.4429 25.4411 29.7414 25.2352 30.1087 25.1276C32.5122 24.3676 34.6854 23.7303 36.6281 23.2157C38.5709 22.7011 40.3822 22.4438 42.0621 22.4438C44.4577 22.4438 46.5936 23.1484 48.4699 24.5576C50.3461 25.9667 51.2842 27.9697 51.2842 30.5663C51.2842 31.6762 51.0594 32.722 50.6097 33.7037C50.1601 34.6854 49.537 35.572 48.7406 36.3637C50.2891 36.4112 51.5716 37.0184 52.5881 38.1853C53.6046 39.3522 54.1137 40.6807 54.1152 42.1706C54.1152 43.784 53.5389 45.1773 52.3862 46.3506C51.2336 47.5222 49.8307 48.1081 48.1777 48.1081C47.2404 48.1081 46.3474 47.8951 45.4987 47.4692C44.6516 47.0449 43.9866 46.4321 43.5037 45.631C42.9876 47.3552 42.0297 48.7762 40.63 49.8941C39.2303 51.0103 37.6003 51.5685 35.7399 51.5685ZM48.2371 45.7331C49.214 45.7331 50.0421 45.3832 50.7214 44.6833C51.4006 43.9867 51.7402 43.1491 51.7402 42.1706C51.7402 41.1921 51.3911 40.3442 50.6929 39.627C49.993 38.9081 49.1547 38.5487 48.1777 38.5487C47.2008 38.5487 46.3624 38.8978 45.6626 39.5961C44.9644 40.2943 44.6152 41.1327 44.6152 42.1112C44.6152 43.0881 44.9747 43.9352 45.6935 44.6525C46.4123 45.3729 47.2602 45.7331 48.2371 45.7331Z" fill="black"/>
</svg>
