<svg width="58" height="57" viewBox="0 0 58 57" fill="none" xmlns="http://www.w3.org/2000/svg">
<g clipPath="url(#clip0_1431_10387)">
<path d="M47.9227 10.7808C47.8837 10.4972 47.6353 10.3403 47.43 10.323C47.2251 10.3059 42.8887 9.98452 42.8887 9.98452C42.8887 9.98452 39.877 6.99457 39.5464 6.66363C39.2157 6.33288 38.5697 6.43348 38.319 6.50728C38.2821 6.51816 37.661 6.70985 36.6336 7.02778C35.6275 4.1328 33.852 1.47244 30.7284 1.47244C30.6422 1.47244 30.5535 1.47594 30.4647 1.48098C29.5764 0.306175 28.4759 -0.204224 27.5254 -0.204224C20.2492 -0.204224 16.7729 8.89186 15.683 13.5142C12.8556 14.3903 10.847 15.0131 10.5904 15.0937C9.01223 15.5888 8.96232 15.6385 8.75509 17.1256C8.59914 18.2515 4.46973 50.1862 4.46973 50.1862L36.647 56.215L54.0817 52.4433C54.0817 52.4433 47.9612 11.0644 47.9227 10.7808ZM34.8551 7.5778L32.1324 8.4205C32.1334 8.22862 32.1344 8.03984 32.1344 7.83339C32.1344 6.03417 31.8846 4.58552 31.4839 3.43712C33.0934 3.63911 34.1653 5.47037 34.8551 7.5778ZM29.4874 3.7939C29.9349 4.9151 30.2258 6.52418 30.2258 8.69551C30.2258 8.8066 30.2248 8.90818 30.2239 9.01092C28.4532 9.55938 26.5291 10.1548 24.6008 10.7523C25.6835 6.57351 27.7131 4.55522 29.4874 3.7939ZM27.3256 1.74745C27.6396 1.74745 27.956 1.85407 28.2588 2.06247C25.9269 3.15978 23.4273 5.92347 22.3717 11.4425L17.9269 12.8191C19.1633 8.60947 22.0993 1.74745 27.3256 1.74745Z" fill="#95BF46"/>
<path d="M47.4299 10.323C47.225 10.306 42.8886 9.98453 42.8886 9.98453C42.8886 9.98453 39.8769 6.99458 39.5463 6.66364C39.4226 6.54051 39.2558 6.47739 39.0814 6.4502L36.6484 56.2146L54.0816 52.4433C54.0816 52.4433 47.9611 11.0644 47.9227 10.7808C47.8836 10.4973 47.6352 10.3403 47.4299 10.323Z" fill="#5E8E3E"/>
<path d="M30.7288 19.9565L28.5791 26.3513C28.5791 26.3513 26.6956 25.346 24.3867 25.346C21.002 25.346 20.8316 27.4701 20.8316 28.0054C20.8316 30.926 28.4449 32.0451 28.4449 38.8861C28.4449 44.2684 25.0311 47.7342 20.4282 47.7342C14.9047 47.7342 12.0801 44.2966 12.0801 44.2966L13.559 39.4101C13.559 39.4101 16.4626 41.9029 18.9126 41.9029C20.5135 41.9029 21.1647 40.6424 21.1647 39.7214C21.1647 35.9117 14.9187 35.7418 14.9187 29.4816C14.9187 24.2128 18.7005 19.114 26.3343 19.114C29.2757 19.114 30.7288 19.9565 30.7288 19.9565Z" fill="white"/>
</g>
<defs>
<clipPath id="clip0_1431_10387">
<rect width="56.7109" height="56.7109" fill="white" transform="translate(0.966797 -0.355469)"/>
</clipPath>
</defs>
</svg>
