<svg width="54" height="21" viewBox="0 0 54 21" fill="none" xmlns="http://www.w3.org/2000/svg">
<g clipPath="url(#clip0_1431_10364)">
<path d="M30.4635 0.569255C29.4397 1.08115 28.9961 2.03669 28.9961 4.63029C28.9961 4.63029 29.508 4.11839 30.327 3.81125C30.9242 3.58943 31.3508 3.29936 31.6579 3.07754C32.5452 2.41208 32.6817 1.61011 32.6817 0.210929C32.6647 0.210929 31.2655 0.125613 30.4635 0.569255Z" fill="#FBBD71"/>
<path d="M24.202 1.16653C23.3147 1.90025 23.0929 3.16292 23.0929 3.16292L20.2263 14.1516L17.8716 5.15931C17.6498 4.20378 17.2061 3.02642 16.5407 2.20739C15.7216 1.16653 14.0153 1.09828 13.8106 1.09828C13.657 1.09828 11.9678 1.16653 11.0805 2.20739C10.415 3.02642 9.97136 4.20378 9.74954 5.15931L7.53133 14.1516L4.66472 3.16292C4.66472 3.16292 4.4429 1.98557 3.55562 1.16653C2.15644 -0.0961395 0.0917969 0.210997 0.0917969 0.210997L5.55201 20.7721C5.55201 20.7721 7.32657 20.9257 8.21386 20.482C9.39122 19.8848 9.98843 19.4582 10.6539 16.6428C11.3194 14.1345 13.0939 6.8315 13.2304 6.31961C13.2987 6.09779 13.4522 5.43232 13.8959 5.43232C14.3395 5.43232 14.4931 6.02953 14.5614 6.31961C14.7149 6.8315 16.4724 14.1345 17.1379 16.6428C17.8716 19.4412 18.3835 19.8848 19.5779 20.482C20.4652 20.9257 22.2398 20.7721 22.2398 20.7721L27.6659 0.210997C27.6659 0.210997 25.6012 -0.0790764 24.202 1.16653Z" fill="black"/>
<path d="M32.6661 3.52124C32.6661 3.52124 32.2907 4.03313 31.557 4.47678C31.0451 4.76685 30.6015 4.92042 30.0896 5.21049C29.2023 5.65413 28.9805 6.09778 28.9805 6.76324V6.98506V8.09417V8.31599V20.7038C28.9805 20.7038 30.3796 20.8574 31.2669 20.4138C32.4443 19.8166 32.6661 19.2364 32.6661 16.7281V4.34027V3.52124Z" fill="black"/>
<path d="M46.2301 10.5341L53.1577 0.27914C53.1577 0.27914 50.2911 -0.232755 48.8066 1.09817C47.8511 1.9172 46.8956 3.45289 46.8956 3.45289L44.3873 7.13853C44.2337 7.36035 44.0972 7.51392 43.8754 7.51392C43.6536 7.51392 43.4317 7.29209 43.3635 7.13853L40.8552 3.45289C40.8552 3.45289 39.8314 1.98545 38.9441 1.09817C37.4767 -0.232755 34.593 0.27914 34.593 0.27914L41.2988 10.517L34.4395 20.7549C34.4395 20.7549 37.4596 21.1303 38.9441 19.7994C39.8997 18.9804 40.7869 17.5812 40.7869 17.5812L43.2952 13.8955C43.4488 13.6737 43.5853 13.5201 43.8071 13.5201C44.0289 13.5201 44.2508 13.742 44.319 13.8955L46.8273 17.5812C46.8273 17.5812 47.7828 18.9804 48.6701 19.7994C50.1376 21.1303 53.0895 20.7549 53.0895 20.7549L46.2301 10.5341Z" fill="black"/>
</g>
<defs>
<clipPath id="clip0_1431_10364">
<rect width="53.0664" height="20.6464" fill="white" transform="translate(0.0917969 0.176758)"/>
</clipPath>
</defs>
</svg>
