<svg width="49" height="29" viewBox="0 0 49 29" fill="none" xmlns="http://www.w3.org/2000/svg">
<g clipPath="url(#clip0_1431_10372)">
<path d="M4.69413 0.095459H43.9307C46.4138 0.095459 48.424 2.10549 48.424 4.58871V19.5659C48.424 22.049 46.4139 24.0592 43.9307 24.0592H29.8601L31.7914 28.7887L23.2977 24.0592H4.71409C2.23107 24.0592 0.220847 22.0492 0.220847 19.5659V4.58871C0.20114 2.12526 2.21111 0.095459 4.69413 0.095459Z" fill="#7F54B3"/>
<path d="M2.96603 4.19086C3.24035 3.81856 3.65185 3.6226 4.2005 3.58342C5.19983 3.50504 5.76808 3.97532 5.90525 4.99425C6.51268 9.08963 7.1789 12.5578 7.8844 15.3992L12.1756 7.22816C12.5675 6.48355 13.0574 6.09166 13.6452 6.05247C14.5074 5.99369 15.0364 6.54234 15.252 7.69844C15.7419 10.3046 16.3689 12.5188 17.1135 14.3998C17.623 9.42265 18.4851 5.83697 19.7001 3.62264C19.994 3.07399 20.4251 2.79967 20.9933 2.76046C21.444 2.72128 21.8555 2.85844 22.2278 3.15236C22.6001 3.44629 22.7961 3.81858 22.8352 4.26926C22.8548 4.62197 22.7961 4.91588 22.6393 5.20981C21.8751 6.62063 21.2481 8.99168 20.7386 12.2834C20.2488 15.4774 20.0724 17.9659 20.19 19.7491C20.2292 20.2389 20.1508 20.67 19.9549 21.0423C19.7197 21.4734 19.367 21.7085 18.9163 21.7477C18.4069 21.7869 17.8778 21.5518 17.3684 21.0227C15.5461 19.1612 14.096 16.3788 13.038 12.6753C11.7643 15.1834 10.8239 17.0646 10.2164 18.3186C9.06033 20.5328 8.0806 21.6693 7.25757 21.7281C6.72851 21.7673 6.27783 21.3166 5.88593 20.376C4.8866 17.809 3.80887 12.8516 2.65274 5.50367C2.57436 4.99421 2.69193 4.54353 2.96625 4.19082L2.96603 4.19086ZM45.076 7.26719C44.3706 6.03272 43.332 5.28804 41.9409 4.99411C41.5686 4.91574 41.2159 4.87655 40.8828 4.87655C39.0017 4.87655 37.4733 5.85629 36.2781 7.81581C35.2591 9.48136 34.7497 11.3233 34.7497 13.3415C34.7497 14.8503 35.0632 16.1435 35.6902 17.2213C36.3956 18.4557 37.4341 19.2004 38.8253 19.4943C39.1976 19.5727 39.5503 19.6119 39.8834 19.6119C41.784 19.6119 43.3124 18.6322 44.4881 16.6726C45.5071 14.9875 46.0165 13.1455 46.0165 11.1274C46.0361 9.599 45.703 8.3254 45.076 7.26719ZM42.6071 12.6949C42.3327 13.9882 41.8429 14.9482 41.1179 15.595C40.5496 16.1045 40.0206 16.32 39.5307 16.2221C39.0604 16.1241 38.6685 15.7126 38.3746 14.9484C38.1395 14.341 38.0219 13.7335 38.0219 13.1653C38.0219 12.6754 38.0611 12.1856 38.1591 11.7349C38.3354 10.9315 38.6685 10.1477 39.1976 9.40306C39.8442 8.44292 40.53 8.05102 41.2355 8.18819C41.7058 8.28617 42.0977 8.69766 42.3916 9.46185C42.6267 10.0693 42.7443 10.6767 42.7443 11.245C42.7443 11.7544 42.705 12.2443 42.6071 12.6949ZM32.8096 7.26719C32.1042 6.03272 31.0461 5.28804 29.6745 4.99411C29.3022 4.91574 28.9495 4.87655 28.6164 4.87655C26.7353 4.87655 25.207 5.85629 24.0117 7.81581C22.9927 9.48136 22.4833 11.3233 22.4833 13.3415C22.4833 14.8503 22.7968 16.1435 23.4238 17.2213C24.1292 18.4557 25.1678 19.2004 26.5589 19.4943C26.9312 19.5727 27.2839 19.6119 27.617 19.6119C29.5177 19.6119 31.046 18.6322 32.2217 16.6726C33.2407 14.9875 33.7501 13.1455 33.7501 11.1274C33.7501 9.599 33.4366 8.3254 32.8096 7.26719ZM30.3211 12.6949C30.0468 13.9882 29.5569 14.9482 28.8319 15.595C28.2637 16.1045 27.7346 16.32 27.2447 16.2221C26.7745 16.1241 26.3826 15.7126 26.0886 14.9484C25.8535 14.341 25.7359 13.7335 25.7359 13.1653C25.7359 12.6754 25.7751 12.1856 25.8731 11.7349C26.0495 10.9315 26.3826 10.1477 26.9116 9.40306C27.5582 8.44292 28.2441 8.05102 28.9495 8.18819C29.4198 8.28617 29.8117 8.69766 30.1056 9.46185C30.3407 10.0693 30.4583 10.6767 30.4583 11.245C30.4779 11.7544 30.4191 12.2443 30.3211 12.6949Z" fill="white"/>
</g>
<defs>
<clipPath id="clip0_1431_10372">
<rect width="48.2031" height="28.8089" fill="white" transform="translate(0.220703 0.095459)"/>
</clipPath>
</defs>
</svg>
