<svg width="58" height="58" viewBox="0 0 58 58" fill="none" xmlns="http://www.w3.org/2000/svg">
<path d="M10.0636 7.36255H38.9136C38.9136 7.36255 40.3561 7.36255 40.3561 8.80505V41.5017C40.3561 41.5017 40.3561 42.9442 38.9136 42.9442H10.0636C10.0636 42.9442 8.62109 42.9442 8.62109 41.5017V8.80505C8.62109 8.80505 8.62109 7.36255 10.0636 7.36255Z" stroke="#BEBEBE" strokeWidth="2.15953" strokeLinecap="round" strokeLinejoin="round"/>
<path d="M49.0102 17.9409V49.1951C49.0052 49.5761 48.8517 49.9402 48.5822 50.2096C48.3128 50.4791 47.9487 50.6326 47.5677 50.6376H20.1602" stroke="#BEBEBE" strokeWidth="2.15953" strokeLinecap="round" strokeLinejoin="round"/>
<path d="M40.3561 35.251H8.62109" stroke="#BEBEBE" strokeWidth="2.15953" strokeLinecap="round" strokeLinejoin="round"/>
<path d="M15.3516 35.251L25.3529 20.9606C25.6033 20.6011 25.9324 20.3033 26.3151 20.0899C26.6977 19.8765 27.1239 19.7531 27.5615 19.729C27.999 19.7049 28.4362 19.7807 28.8399 19.9508C29.2438 20.1209 29.6035 20.3807 29.892 20.7105L40.3549 32.8468" stroke="#BEBEBE" strokeWidth="2.15953" strokeLinecap="round" strokeLinejoin="round"/>
<path d="M17.2756 13.1326C17.8462 13.1326 18.404 13.3018 18.8785 13.6188C19.3529 13.9358 19.7227 14.3864 19.941 14.9135C20.1594 15.4407 20.2165 16.0208 20.1052 16.5804C19.9939 17.14 19.7191 17.6541 19.3156 18.0576C18.9122 18.461 18.3981 18.7358 17.8385 18.8471C17.2788 18.9585 16.6987 18.9013 16.1716 18.683C15.6444 18.4646 15.1938 18.0948 14.8768 17.6204C14.5598 17.1459 14.3906 16.5882 14.3906 16.0176C14.3906 15.2524 14.6946 14.5186 15.2356 13.9776C15.7767 13.4365 16.5105 13.1326 17.2756 13.1326Z" stroke="#BEBEBE" strokeWidth="2.15953" strokeLinecap="round" strokeLinejoin="round"/>
</svg>
